<svg width="80" height="80" viewBox="0 0 80 80" fill="none" xmlns="http://www.w3.org/2000/svg">
<path d="M58.9509 52.3712L57.4419 54.0792L55.7338 55.6468L53.8855 57.0155L51.9085 58.1152L49.7793 59.0628L47.5215 59.6828L45.1934 60.0922L42.7953 60.3028L40.6778 60.1624L38.6306 59.8232L36.7237 59.3435L34.8051 58.6533L33.027 57.7642L31.319 56.7348L29.7514 55.5649L28.3125 54.2664L27.0139 52.8275L25.7856 51.178L24.7561 49.5402L23.9372 47.762L23.2587 45.8551L22.7089 43.8664L22.4398 41.8893L22.2994 39.7836L22.4398 37.6544L22.7089 35.6774L23.2587 33.6886L23.9372 31.7818L24.7561 30.0036L25.7856 28.3658L27.0139 26.7163L28.3125 25.2891L29.7514 23.9906L31.319 22.8207L33.027 21.7912L34.8051 20.9138L36.7237 20.2236L38.6306 19.744L40.6778 19.4047L42.7953 19.2643L44.8542 19.4047L46.8313 19.6738L48.7498 20.2236L50.6567 20.8436L52.3647 21.7327L54.0727 22.692L55.6519 23.8619L57.0792 25.1604L61.1152 21.3935L59.2668 19.744L57.2781 18.3051L55.1606 17.0065L52.973 15.9771L50.5748 15.1582L48.1181 14.5381L45.5912 14.1404L42.9825 14L40.3152 14.1404L37.8 14.5381L35.2614 15.1582L32.8749 16.0472L30.6171 17.1469L28.488 18.4454L26.4407 19.9546L24.5923 21.604L22.9546 23.4524L21.4454 25.4997L20.1469 27.6288L19.059 29.8866L18.1699 32.2848L17.5498 34.8117L17.1404 37.3386L17 40.0058L17.1404 42.6731L17.5498 45.2702L18.1699 47.7269L19.059 50.1251L20.1469 52.3829L21.4454 54.5705L22.9546 56.5476L24.5923 58.396L26.4407 60.0454L28.488 61.5546L30.6171 62.8531L32.8749 63.9528L35.2614 64.8418L37.8 65.4619L40.3152 65.8596L42.9825 66L46.0592 65.8596L48.937 65.3215L51.7447 64.5026L54.4119 63.3327L56.9388 61.964L59.2668 60.3145L61.3843 58.396L63.3028 56.2785L58.9276 52.3829L58.9509 52.3712Z" fill="white"/>
<path d="M35.4252 49.9847L34.1267 49.0254L33.027 47.9258L32.2081 46.908L31.5881 45.8785L31.1085 44.9192L30.5703 43.3516H26.0547L26.3237 44.58L26.7332 45.7498L27.283 46.9197L27.8914 48.0779L28.6401 49.1775L29.459 50.2772L30.348 51.295L31.2956 52.2542L32.3251 53.1433L33.4248 53.9622L34.5946 54.6524L35.823 55.2608L37.1215 55.8106L38.42 56.22L39.7888 56.4891L41.1575 56.6997L41.2979 39.4794L33.647 31.7467L33.9863 31.0565L34.6648 30.0972L35.1445 29.5474L35.7645 29.0677L36.5132 28.5998L37.4725 28.1903V29.8281H41.2277V22.7154L39.5899 22.926L37.8117 23.3354L35.9634 24.0257L34.1852 24.9849L32.3368 26.2133L30.699 27.7926L29.1197 29.5708L27.6808 31.7584L37.0513 41.8659V50.9674L35.4018 50.0081L35.4252 49.9847ZM54.0142 44.3694L53.8037 45.1181L53.5345 45.7381L52.8561 46.8378L52.0372 47.996L55.3829 50.944L56.6814 49.236L57.8513 47.3876L58.7404 45.5393L59.3605 43.5622L59.7699 41.5033L59.8401 39.3273L59.571 37.0695L58.951 34.6128L58.4714 33.3143L57.9917 32.1561L57.3717 31.0565L56.623 29.9568L55.8742 28.939L55.0553 27.9798L54.1663 27.1609L53.2772 26.342L51.8032 25.3593L51.23 24.9732L49.1125 23.8736L46.7845 23.1249L45.6263 22.8558L44.4565 22.7154V56.6997L46.2347 56.3604L47.7437 55.951L48.9722 55.4713V42.6848H54.1663V43.6441L54.0259 44.3928L54.0142 44.3694ZM51.7915 37.6779H49.1593V28.8572L50.3876 29.6059L51.4171 30.5651L51.7915 30.998L52.3062 31.5946L53.0549 32.7528L53.6047 33.9811L54.0844 35.2095L54.3535 36.508L54.4236 37.6779H51.7915Z" fill="white"/>
</svg>
