<svg width="81" height="80" viewBox="0 0 81 80" fill="none" xmlns="http://www.w3.org/2000/svg">
<path d="M59.3795 52.3712L57.8704 54.0792L56.1624 55.6468L54.314 57.0155L52.337 58.1152L50.2079 59.0628L47.9501 59.6828L45.622 60.0922L43.2238 60.3028L41.1064 60.1624L39.0591 59.8232L37.1523 59.3435L35.2337 58.6533L33.4556 57.7642L31.7476 56.7348L30.18 55.5649L28.741 54.2664L27.4425 52.8274L26.2142 51.178L25.1847 49.5402L24.3658 47.762L23.6872 45.8551L23.1375 43.8664L22.8684 41.8893L22.728 39.7836L22.8684 37.6544L23.1375 35.6774L23.6872 33.6886L24.3658 31.7818L25.1847 30.0036L26.2142 28.3658L27.4425 26.7163L28.741 25.2891L30.18 23.9906L31.7476 22.8207L33.4556 21.7912L35.2337 20.9138L37.1523 20.2236L39.0591 19.744L41.1064 19.4047L43.2238 19.2643L45.2828 19.4047L47.2598 19.6738L49.1784 20.2236L51.0853 20.8436L52.7932 21.7327L54.5012 22.692L56.0805 23.8619L57.5078 25.1604L61.5438 21.3935L59.6954 19.744L57.7066 18.3051L55.5892 17.0065L53.4016 15.9771L51.0034 15.1582L48.5466 14.5381L46.0198 14.1404L43.411 14L40.7437 14.1404L38.2285 14.5381L35.69 15.1582L33.3035 16.0472L31.0457 17.1469L28.9165 18.4454L26.8693 19.9546L25.0209 21.604L23.3831 23.4524L21.874 25.4997L20.5755 27.6288L19.4875 29.8866L18.5984 32.2848L17.9784 34.8117L17.5689 37.3386L17.4286 40.0058L17.5689 42.6731L17.9784 45.2702L18.5984 47.7269L19.4875 50.1251L20.5755 52.3829L21.874 54.5705L23.3831 56.5476L25.0209 58.396L26.8693 60.0454L28.9165 61.5546L31.0457 62.8531L33.3035 63.9528L35.69 64.8419L38.2285 65.4619L40.7437 65.8596L43.411 66L46.4878 65.8596L49.3656 65.3215L52.1732 64.5026L54.8405 63.3327L57.3674 61.964L59.6954 60.3145L61.8128 58.396L63.7314 56.2785L59.3562 52.3829L59.3795 52.3712Z" fill="#6C757D"/>
<path d="M35.8537 49.9847L34.5552 49.0254L33.4555 47.9258L32.6366 46.908L32.0166 45.8785L31.537 44.9192L30.9988 43.3516H26.4832L26.7522 44.58L27.1617 45.7498L27.7115 46.9197L28.3199 48.0779L29.0686 49.1775L29.8875 50.2772L30.7765 51.295L31.7241 52.2542L32.7536 53.1433L33.8532 53.9622L35.0231 54.6524L36.2515 55.2608L37.55 55.8106L38.8485 56.22L40.2173 56.4891L41.586 56.6997L41.7264 39.4794L34.0755 31.7467L34.4148 31.0565L35.0933 30.0972L35.573 29.5474L36.193 29.0677L36.9417 28.5998L37.901 28.1903V29.8281H41.6562V22.7154L40.0184 22.926L38.2402 23.3354L36.3919 24.0257L34.6137 24.9849L32.7653 26.2133L31.1275 27.7926L29.5482 29.5708L28.1093 31.7584L37.4798 41.8659V50.9674L35.8303 50.0081L35.8537 49.9847ZM54.4427 44.3694L54.2322 45.1181L53.963 45.7381L53.2846 46.8378L52.4657 47.996L55.8114 50.944L57.1099 49.236L58.2798 47.3876L59.1689 45.5393L59.789 43.5622L60.1984 41.5033L60.2686 39.3273L59.9995 37.0695L59.3795 34.6128L58.8999 33.3143L58.4202 32.1561L57.8002 31.0565L57.0515 29.9568L56.3027 28.939L55.4838 27.9798L54.5948 27.1609L53.7057 26.342L52.2317 25.3593L51.6585 24.9732L49.541 23.8736L47.213 23.1249L46.0548 22.8558L44.885 22.7154V56.6997L46.6632 56.3604L48.1722 55.951L49.4007 55.4713V42.6848H54.5948V43.6441L54.4544 44.3928L54.4427 44.3694ZM52.22 37.6779H49.5878V28.8572L50.8161 29.6059L51.8456 30.5651L52.22 30.998L52.7347 31.5946L53.4834 32.7528L54.0332 33.9811L54.5129 35.2095L54.7819 36.508L54.8521 37.6779H52.22Z" fill="#6C757D"/>
</svg>
