<svg width="80" height="80" viewBox="0 0 80 80" fill="none" xmlns="http://www.w3.org/2000/svg">
<path d="M45.7168 10C32.5934 10 21.9552 20.6382 21.9552 33.7616C21.9552 46.885 32.5934 57.5232 45.7168 57.5232C58.8403 57.5232 69.4785 46.885 69.4785 33.7616C69.4785 20.6382 58.8403 10 45.7168 10ZM45.7168 53.1107C35.0279 53.1107 26.3677 44.4505 26.3677 33.7616C26.3677 23.0727 35.0279 14.4125 45.7168 14.4125C56.4058 14.4125 65.0659 23.0727 65.0659 33.7616C65.0659 44.4505 56.4058 53.1107 45.7168 53.1107Z" fill="white"/>
<path d="M41.5326 35.0042C41.5326 35.803 41.1776 36.8047 40.0364 36.8047C38.7938 36.8047 38.5149 36.0313 38.5149 35.131V21.0059H34.1277V34.5477C34.1277 38.3897 36.2959 40.1648 40.0111 40.1648C44.4996 40.1648 45.9198 37.7176 45.9198 34.5477V21.0059H41.5326V35.0042Z" fill="white"/>
<path d="M52.0187 27.7768H47.6442V46.5046H57.3821V42.7515H52.0187V27.7768Z" fill="white"/>
<path d="M40.8986 45.0972C40.8732 44.8817 40.8479 44.6661 40.8352 44.4506C40.7845 44.0575 40.6957 43.9434 40.3153 43.9053C40.6577 43.8546 40.8605 43.601 40.8732 43.2587C40.8986 42.5866 40.5055 42.4218 39.8969 42.4218H39.1488V45.3381H39.4658V44.0575H40.0237C40.4041 44.0575 40.5182 44.3111 40.5182 44.6027C40.5182 44.7929 40.5435 45.1606 40.6196 45.3381H41V45.2747C40.9239 45.2747 40.8986 45.1479 40.8859 45.0972H40.8986ZM39.9856 43.7785H39.4784V42.7261H39.9349C40.1505 42.7261 40.5435 42.7261 40.5562 43.2333C40.5562 43.7405 40.1505 43.7659 39.9983 43.7659L39.9856 43.7785Z" fill="white"/>
<path d="M40.0236 40.951C38.4006 40.951 37.0819 42.2696 37.0819 43.8926C37.0819 45.5156 38.4006 46.8343 40.0236 46.8343C41.6465 46.8343 42.9652 45.5156 42.9652 43.8926C42.9652 42.2696 41.6465 40.951 40.0236 40.951ZM40.0236 45.9975C38.8697 45.9975 37.9314 45.0592 37.9314 43.9053C37.9314 42.7515 38.8697 41.8132 40.0236 41.8132C41.1774 41.8132 42.1157 42.7515 42.1157 43.9053C42.1157 45.0592 41.1774 45.9975 40.0236 45.9975Z" fill="white"/>
<path d="M15.945 42.8402C15.945 43.5883 15.869 44.6027 14.88 44.6027C14.1319 44.6027 13.8529 44.197 13.8529 43.5123V37.4514C13.8656 36.6526 14.0811 36.1581 14.9814 36.1834C15.5139 36.1834 15.8943 36.7287 15.8943 37.7684V38.5545H18.7726V37.5275C18.7726 35.0169 17.3018 33.9772 14.8546 33.9772C12.2299 33.9772 11 35.2198 11 37.8952V42.929C11 45.4269 12.027 46.847 14.6771 46.847C17.6188 46.847 18.836 45.3762 18.836 43.2587V41.7498H15.9577V42.8656L15.945 42.8402Z" fill="white"/>
<path d="M32.7582 64.2434C31.8326 64.2434 31.2494 64.5858 30.907 65.0042C30.9577 63.9011 31.2367 62.874 32.3398 62.874C33.0498 62.874 33.2781 63.2544 33.3795 63.6602H35.0913C35.0152 62.6331 34.1783 61.53 32.4159 61.53C29.918 61.53 29.1572 63.7363 29.1572 65.8538C29.1572 68.1615 29.9434 69.9873 32.3144 69.9873C34.191 69.9873 35.3069 68.694 35.3069 66.9569C35.3069 65.3466 34.2417 64.2434 32.7455 64.2434H32.7582ZM32.2764 68.5799C31.3254 68.5799 31.0084 67.705 31.0084 67.0456C31.0084 66.0947 31.4776 65.6382 32.2637 65.6382C33.24 65.6382 33.5317 66.3356 33.5317 67.109C33.5317 67.9332 33.1386 68.5926 32.2637 68.5926L32.2764 68.5799Z" fill="white"/>
<path d="M39.5925 61.53C37.2468 61.53 36.4226 63.5207 36.4226 65.765C36.4226 68.0093 37.158 70 39.5545 70C41.9509 70 42.6863 67.9586 42.6863 65.7143C42.6863 63.47 41.8622 61.5427 39.5925 61.5427V61.53ZM39.5799 68.5799C38.426 68.5799 38.2485 67.2485 38.2485 65.7396C38.2485 63.9772 38.5528 62.9501 39.5925 62.9501C40.6322 62.9501 40.8478 64.142 40.8478 65.727C40.8478 67.3119 40.6957 68.5799 39.5672 68.5799H39.5799Z" fill="white"/>
<path d="M47.416 64.2434C46.4903 64.2434 45.9071 64.5858 45.5647 65.0042C45.6155 63.9011 45.8944 62.874 46.9975 62.874C47.7076 62.874 47.9358 63.2544 48.0372 63.6602H49.749C49.6729 62.6331 48.8361 61.53 47.0736 61.53C44.5757 61.53 43.8149 63.7363 43.8149 65.8538C43.8149 68.1615 44.6011 69.9873 46.9722 69.9873C48.8487 69.9873 49.9646 68.694 49.9646 66.9569C49.9646 65.3466 48.8995 64.2434 47.4033 64.2434H47.416ZM46.9341 68.5799C45.9831 68.5799 45.6662 67.705 45.6662 67.0456C45.6662 66.0947 46.1353 65.6382 46.9214 65.6382C47.8978 65.6382 48.1894 66.3356 48.1894 67.109C48.1894 67.9332 47.7963 68.5926 46.9214 68.5926L46.9341 68.5799Z" fill="white"/>
<path d="M54.2501 61.53C51.9044 61.53 51.0802 63.5207 51.0802 65.765C51.0802 68.0093 51.8156 70 54.2121 70C56.6085 70 57.3439 67.9586 57.3439 65.7143C57.3439 63.47 56.5198 61.5427 54.2501 61.5427V61.53ZM54.2375 68.5799C53.0836 68.5799 52.9061 67.2485 52.9061 65.7396C52.9061 63.9772 53.2104 62.9501 54.2501 62.9501C55.2898 62.9501 55.5054 64.142 55.5054 65.727C55.5054 67.3119 55.3532 68.5799 54.2248 68.5799H54.2375Z" fill="white"/>
<path d="M58.5106 62.7599V64.0913C58.9164 64.0532 59.6137 63.9138 59.9815 63.7363V69.8352H61.7819V61.6695H60.5267C60.0575 62.1893 59.2714 62.6204 58.4979 62.7726L58.5106 62.7599Z" fill="white"/>
</svg>
