<svg width="81" height="80" viewBox="0 0 81 80" fill="none" xmlns="http://www.w3.org/2000/svg">
<path d="M46.0026 10C32.8792 10 22.241 20.6382 22.241 33.7616C22.241 46.885 32.8792 57.5232 46.0026 57.5232C59.126 57.5232 69.7642 46.885 69.7642 33.7616C69.7642 20.6382 59.126 10 46.0026 10ZM46.0026 53.1107C35.3137 53.1107 26.6535 44.4505 26.6535 33.7616C26.6535 23.0727 35.3137 14.4125 46.0026 14.4125C56.6915 14.4125 65.3517 23.0727 65.3517 33.7616C65.3517 44.4505 56.6915 53.1107 46.0026 53.1107Z" fill="#6C757D"/>
<path d="M41.8183 35.0042C41.8183 35.803 41.4633 36.8047 40.3221 36.8047C39.0795 36.8047 38.8006 36.0312 38.8006 35.131V21.0059H34.4134V34.5477C34.4134 38.3897 36.5816 40.1648 40.2968 40.1648C44.7854 40.1648 46.2055 37.7176 46.2055 34.5477V21.0059H41.8183V35.0042Z" fill="#6C757D"/>
<path d="M52.3044 27.7768H47.9299V46.5046H57.6678V42.7515H52.3044V27.7768Z" fill="#6C757D"/>
<path d="M41.1843 45.0972C41.1589 44.8817 41.1336 44.6661 41.1209 44.4506C41.0702 44.0575 40.9814 43.9434 40.6011 43.9053C40.9434 43.8546 41.1463 43.601 41.159 43.2587C41.1843 42.5866 40.7913 42.4218 40.1826 42.4218H39.4345V45.3381H39.7515V44.0575H40.3094C40.6898 44.0575 40.8039 44.3111 40.8039 44.6027C40.8039 44.7929 40.8293 45.1606 40.9053 45.3381H41.2858V45.2747C41.2097 45.2747 41.1843 45.1479 41.1716 45.0972H41.1843ZM40.2714 43.7785H39.7642V42.7261H40.2207C40.4362 42.7261 40.8293 42.7261 40.842 43.2333C40.842 43.7405 40.4362 43.7659 40.2841 43.7659L40.2714 43.7785Z" fill="#6C757D"/>
<path d="M40.3093 40.951C38.6863 40.951 37.3677 42.2696 37.3677 43.8926C37.3677 45.5156 38.6863 46.8343 40.3093 46.8343C41.9323 46.8343 43.251 45.5156 43.251 43.8926C43.251 42.2696 41.9323 40.951 40.3093 40.951ZM40.3093 45.9974C39.1555 45.9974 38.2172 45.0592 38.2172 43.9053C38.2172 42.7515 39.1555 41.8132 40.3093 41.8132C41.4631 41.8132 42.4015 42.7515 42.4015 43.9053C42.4015 45.0592 41.4631 45.9974 40.3093 45.9974Z" fill="#6C757D"/>
<path d="M16.2308 42.8402C16.2308 43.5883 16.1547 44.6027 15.1657 44.6027C14.4176 44.6027 14.1386 44.197 14.1386 43.5123V37.4514C14.1513 36.6526 14.3669 36.1581 15.2671 36.1834C15.7997 36.1834 16.18 36.7287 16.18 37.7684V38.5545H19.0583V37.5275C19.0583 35.0169 17.5875 33.9772 15.1403 33.9772C12.5157 33.9772 11.2857 35.2198 11.2857 37.8952V42.929C11.2857 45.4269 12.3128 46.847 14.9628 46.847C17.9045 46.847 19.1217 45.3762 19.1217 43.2587V41.7498H16.2435V42.8656L16.2308 42.8402Z" fill="#6C757D"/>
<path d="M33.044 64.2434C32.1184 64.2434 31.5351 64.5858 31.1928 65.0042C31.2435 63.9011 31.5224 62.874 32.6255 62.874C33.3356 62.874 33.5638 63.2544 33.6653 63.6602H35.377C35.3009 62.6331 34.4641 61.53 32.7016 61.53C30.2037 61.53 29.443 63.7363 29.443 65.8538C29.443 68.1614 30.2291 69.9873 32.6002 69.9873C34.4768 69.9873 35.5926 68.694 35.5926 66.9569C35.5926 65.3466 34.5275 64.2434 33.0313 64.2434H33.044ZM32.5621 68.5799C31.6112 68.5799 31.2942 67.705 31.2942 67.0456C31.2942 66.0947 31.7633 65.6382 32.5494 65.6382C33.5258 65.6382 33.8174 66.3356 33.8174 67.109C33.8174 67.9332 33.4243 68.5925 32.5494 68.5925L32.5621 68.5799Z" fill="#6C757D"/>
<path d="M39.8783 61.53C37.5325 61.53 36.7084 63.5207 36.7084 65.765C36.7084 68.0093 37.4438 70 39.8402 70C42.2367 70 42.9721 67.9586 42.9721 65.7143C42.9721 63.47 42.1479 61.5427 39.8783 61.5427V61.53ZM39.8656 68.5799C38.7118 68.5799 38.5342 67.2485 38.5342 65.7396C38.5342 63.9772 38.8386 62.9501 39.8783 62.9501C40.918 62.9501 41.1336 64.142 41.1336 65.727C41.1336 67.3119 40.9814 68.5799 39.8529 68.5799H39.8656Z" fill="#6C757D"/>
<path d="M47.7016 64.2434C46.776 64.2434 46.1928 64.5858 45.8504 65.0042C45.9011 63.9011 46.1801 62.874 47.2832 62.874C47.9933 62.874 48.2215 63.2544 48.3229 63.6602H50.0347C49.9586 62.6331 49.1218 61.53 47.3593 61.53C44.8614 61.53 44.1006 63.7363 44.1006 65.8538C44.1006 68.1614 44.8868 69.9873 47.2578 69.9873C49.1344 69.9873 50.2503 68.694 50.2503 66.9569C50.2503 65.3466 49.1851 64.2434 47.6889 64.2434H47.7016ZM47.2198 68.5799C46.2688 68.5799 45.9518 67.705 45.9518 67.0456C45.9518 66.0947 46.421 65.6382 47.2071 65.6382C48.1834 65.6382 48.4751 66.3356 48.4751 67.109C48.4751 67.9332 48.082 68.5925 47.2071 68.5925L47.2198 68.5799Z" fill="#6C757D"/>
<path d="M54.5358 61.53C52.1901 61.53 51.3659 63.5207 51.3659 65.765C51.3659 68.0093 52.1013 70 54.4978 70C56.8942 70 57.6297 67.9586 57.6297 65.7143C57.6297 63.47 56.8055 61.5427 54.5358 61.5427V61.53ZM54.5232 68.5799C53.3693 68.5799 53.1918 67.2485 53.1918 65.7396C53.1918 63.9772 53.4961 62.9501 54.5358 62.9501C55.5755 62.9501 55.7911 64.142 55.7911 65.727C55.7911 67.3119 55.639 68.5799 54.5105 68.5799H54.5232Z" fill="#6C757D"/>
<path d="M58.7963 62.7599V64.0913C59.2021 64.0533 59.8995 63.9138 60.2672 63.7363V69.8352H62.0677V61.6695H60.8124C60.3432 62.1894 59.5571 62.6205 58.7836 62.7726L58.7963 62.7599Z" fill="#6C757D"/>
</svg>
