<svg width="81" height="80" viewBox="0 0 81 80" fill="none" xmlns="http://www.w3.org/2000/svg">
<path d="M37.2945 30.4504H28.5062V35.1136H38.1913L37.725 38.3659H24.656V20H37.6772V23.2523H28.5062V27.1861H37.2945V30.4384V30.4504Z" fill="#6C757D"/>
<path d="M41.0371 38.3778V20H45.9634C48.2591 24.1251 52.4919 31.5624 53.3409 33.5592H53.3887C53.1854 31.6461 53.1854 28.4536 53.1854 25.4404V20H56.7844V38.3659H52.1212C50.1483 34.7788 45.4492 26.2296 44.5405 24.1132H44.4927C44.6242 25.7154 44.6721 29.4938 44.6721 32.782V38.3659H41.0491L41.0371 38.3778Z" fill="#6C757D"/>
<path d="M70.7142 41.1997H10.7142V45.6955H70.7142V41.1997Z" fill="#6C757D"/>
<path d="M21.7267 53.3958C21.6191 52.9534 21.3561 52.5229 20.5669 52.5229C19.3473 52.5229 19.0364 53.6588 18.9766 54.8784C19.3592 54.4121 20.0049 54.0414 21.0332 54.0414C22.6952 54.0414 23.867 55.2611 23.867 57.0546C23.867 58.9916 22.6235 60.4265 20.543 60.4265C17.9124 60.4265 17.0396 58.4057 17.0396 55.835C17.0396 53.4795 17.8766 51.0283 20.6506 51.0283C22.6235 51.0283 23.5442 52.2599 23.6279 53.3958H21.7148H21.7267ZM21.9061 57.21C21.9061 56.3491 21.5832 55.5719 20.4952 55.5719C19.6103 55.5719 19.0962 56.0861 19.0962 57.1383C19.0962 57.8677 19.4429 58.8481 20.4952 58.8481C21.4517 58.8481 21.9061 58.1188 21.9061 57.21Z" fill="#6C757D"/>
<path d="M32.0694 55.6556C32.0694 58.1546 31.2803 60.4145 28.59 60.4145C25.8996 60.4145 25.1105 58.2264 25.1105 55.7154C25.1105 53.2044 26.0192 51.0163 28.6378 51.0163C31.2564 51.0163 32.0814 53.0849 32.0814 55.6556H32.0694ZM27.1312 55.6915C27.1312 57.3535 27.3225 58.8481 28.6019 58.8481C29.8813 58.8481 30.0128 57.4611 30.0128 55.6795C30.0128 53.8979 29.7976 52.5946 28.6139 52.5946C27.4301 52.5946 27.1192 53.7425 27.1192 55.7034L27.1312 55.6915Z" fill="#6C757D"/>
<path d="M38.012 53.3957C37.9044 52.9533 37.6413 52.5229 36.8522 52.5229C35.6326 52.5229 35.3217 53.6588 35.2619 54.8784C35.6445 54.4121 36.2902 54.0414 37.3185 54.0414C38.9805 54.0414 40.1523 55.261 40.1523 57.0546C40.1523 58.9916 38.9088 60.4264 36.8283 60.4264C34.1977 60.4264 33.3249 58.4057 33.3249 55.835C33.3249 53.4794 34.1619 51.0283 36.9359 51.0283C38.9088 51.0283 39.8295 52.2598 39.9132 53.3957H38H38.012ZM38.1913 57.21C38.1913 56.3491 37.8685 55.5719 36.7804 55.5719C35.8956 55.5719 35.3815 56.086 35.3815 57.1383C35.3815 57.8676 35.7282 58.8481 36.7804 58.8481C37.737 58.8481 38.1913 58.1187 38.1913 57.21Z" fill="#6C757D"/>
<path d="M48.3549 55.6556C48.3549 58.1546 47.5657 60.4145 44.8754 60.4145C42.1851 60.4145 41.3959 58.2264 41.3959 55.7154C41.3959 53.2044 42.3046 51.0163 44.9232 51.0163C47.5418 51.0163 48.3668 53.0849 48.3668 55.6556H48.3549ZM43.4166 55.6915C43.4166 57.3535 43.608 58.8481 44.8873 58.8481C46.1667 58.8481 46.2983 57.4611 46.2983 55.6795C46.2983 53.8979 46.0831 52.5946 44.8993 52.5946C43.7156 52.5946 43.4047 53.7425 43.4047 55.7034L43.4166 55.6915Z" fill="#6C757D"/>
<path d="M51.2843 60.2471V53.4675C50.8658 53.6588 50.1005 53.8262 49.6461 53.8621V52.3914C50.507 52.2359 51.3799 51.7457 51.894 51.1718H53.293V60.2471H51.2962H51.2843Z" fill="#6C757D"/>
<path d="M59.1281 55.847V57.5688H55.2899V55.847H59.1281Z" fill="#6C757D"/>
<path d="M61.8542 60.2471V53.4675C61.4357 53.6588 60.6705 53.8262 60.2161 53.8621V52.3914C61.077 52.2359 61.9498 51.7457 62.464 51.1718H63.8629V60.2471H61.8661H61.8542Z" fill="#6C757D"/>
</svg>
