<svg width="80" height="80" viewBox="0 0 80 80" fill="none" xmlns="http://www.w3.org/2000/svg">
<path d="M36.5803 30.4504H27.7919V35.1136H37.477L37.0107 38.3659H23.9418V20H36.9629V23.2523H27.7919V27.1861H36.5803V30.4384V30.4504Z" fill="white"/>
<path d="M40.3229 38.3778V20H45.2491C47.5449 24.1251 51.7776 31.5624 52.6266 33.5592H52.6744C52.4711 31.6461 52.4711 28.4536 52.4711 25.4404V20H56.0702V38.3659H51.407C49.4341 34.7788 44.735 26.2296 43.8263 24.1132H43.7784C43.9099 25.7154 43.9578 29.4938 43.9578 32.782V38.3659H40.3348L40.3229 38.3778Z" fill="white"/>
<path d="M70 41.1997H10V45.6955H70V41.1997Z" fill="white"/>
<path d="M21.0125 53.3958C20.9048 52.9534 20.6418 52.5229 19.8526 52.5229C18.633 52.5229 18.3221 53.6588 18.2623 54.8784C18.645 54.4121 19.2906 54.0414 20.3189 54.0414C21.9809 54.0414 23.1527 55.2611 23.1527 57.0546C23.1527 58.9916 21.9092 60.4265 19.8287 60.4265C17.1982 60.4265 16.3253 58.4057 16.3253 55.835C16.3253 53.4795 17.1623 51.0283 19.9363 51.0283C21.9092 51.0283 22.8299 52.2599 22.9136 53.3958H21.0005H21.0125ZM21.1918 57.21C21.1918 56.3491 20.869 55.5719 19.7809 55.5719C18.8961 55.5719 18.3819 56.0861 18.3819 57.1383C18.3819 57.8677 18.7287 58.8481 19.7809 58.8481C20.7374 58.8481 21.1918 58.1188 21.1918 57.21Z" fill="white"/>
<path d="M31.3552 55.6556C31.3552 58.1546 30.566 60.4145 27.8757 60.4145C25.1854 60.4145 24.3962 58.2264 24.3962 55.7154C24.3962 53.2044 25.305 51.0163 27.9236 51.0163C30.5421 51.0163 31.3672 53.0849 31.3672 55.6556H31.3552ZM26.417 55.6915C26.417 57.3535 26.6083 58.8481 27.8877 58.8481C29.1671 58.8481 29.2986 57.4611 29.2986 55.6795C29.2986 53.8979 29.0834 52.5946 27.8996 52.5946C26.7159 52.5946 26.405 53.7425 26.405 55.7034L26.417 55.6915Z" fill="white"/>
<path d="M37.2977 53.3957C37.1901 52.9533 36.9271 52.5229 36.1379 52.5229C34.9183 52.5229 34.6074 53.6588 34.5476 54.8784C34.9302 54.4121 35.5759 54.0414 36.6042 54.0414C38.2662 54.0414 39.438 55.261 39.438 57.0546C39.438 58.9916 38.1945 60.4264 36.114 60.4264C33.4835 60.4264 32.6106 58.4057 32.6106 55.835C32.6106 53.4794 33.4476 51.0283 36.2216 51.0283C38.1945 51.0283 39.1152 52.2598 39.1989 53.3957H37.2858H37.2977ZM37.4771 57.21C37.4771 56.3491 37.1543 55.5719 36.0662 55.5719C35.1814 55.5719 34.6672 56.0861 34.6672 57.1383C34.6672 57.8677 35.014 58.8481 36.0662 58.8481C37.0227 58.8481 37.4771 58.1187 37.4771 57.21Z" fill="white"/>
<path d="M47.6406 55.6556C47.6406 58.1546 46.8514 60.4145 44.1611 60.4145C41.4708 60.4145 40.6816 58.2264 40.6816 55.7154C40.6816 53.2044 41.5904 51.0163 44.209 51.0163C46.8275 51.0163 47.6526 53.0849 47.6526 55.6556H47.6406ZM42.7024 55.6915C42.7024 57.3535 42.8937 58.8481 44.1731 58.8481C45.4525 58.8481 45.584 57.4611 45.584 55.6795C45.584 53.8979 45.3688 52.5946 44.1851 52.5946C43.0013 52.5946 42.6904 53.7425 42.6904 55.7034L42.7024 55.6915Z" fill="white"/>
<path d="M50.57 60.2471V53.4675C50.1515 53.6588 49.3862 53.8262 48.9319 53.8621V52.3914C49.7928 52.2359 50.6656 51.7457 51.1798 51.1718H52.5788V60.2471H50.5819H50.57Z" fill="white"/>
<path d="M58.4139 55.8469V57.5687H54.5757V55.8469H58.4139Z" fill="white"/>
<path d="M61.1399 60.2471V53.4675C60.7214 53.6588 59.9562 53.8262 59.5018 53.8621V52.3914C60.3627 52.2359 61.2356 51.7457 61.7497 51.1718H63.1487V60.2471H61.1519H61.1399Z" fill="white"/>
</svg>
