<svg width="80" height="80" viewBox="0 0 80 80" fill="none" xmlns="http://www.w3.org/2000/svg">
<path d="M63.0386 49.3719C57.5727 57.1415 46.7596 59.0574 38.9224 53.6387C31.0853 48.2199 29.1526 37.5 34.6185 29.7304C37.2625 25.969 41.2344 23.4536 45.7873 22.6426C50.3402 21.8315 54.9406 22.8424 58.7347 25.4636C60.3234 26.5567 61.7106 27.9085 62.8488 29.4601L66.4177 26.8976C64.9949 24.9464 63.252 23.2538 61.2601 21.8785C56.4938 18.5873 50.7315 17.3296 45.0167 18.3405C39.3018 19.3513 34.3221 22.5133 31.0023 27.2267C28.8207 30.3299 27.5876 33.7974 27.22 37.3237H18.4107V22.8424H29.1527L32.4606 18.4698H14V60.2564L18.4107 57.3413V41.6845H27.22C27.8366 47.7263 31.0023 53.4859 36.4088 57.2237C40.1911 59.8332 44.5187 61.0909 48.8108 61.0909C55.6875 61.0909 62.4457 57.8702 66.6667 51.8755L63.0504 49.3719H63.0386Z" fill="white"/>
<path d="M47.2167 31.9424C49.3547 31.5761 51.517 32.0339 53.3047 33.2129C54.0536 33.7051 54.7059 34.3117 55.2374 35.0099L58.8733 32.5147C58.0398 31.4273 57.0372 30.4887 55.8776 29.7333C53.1114 27.9019 49.7534 27.2037 46.4315 27.7645C43.1097 28.3254 40.2228 30.0767 38.2901 32.6978C34.3039 38.1118 35.7171 45.5861 41.4307 49.3633C43.6291 50.8169 46.1416 51.5151 48.63 51.5151C52.6283 51.5151 56.554 49.7296 59.0061 46.3988L55.3219 43.9607C52.7611 47.4518 47.6757 48.3102 43.9915 45.8722C40.3073 43.4457 39.4014 38.6269 41.9743 35.1358C43.2184 33.4418 45.0786 32.3201 47.2167 31.9538V31.9424Z" fill="white"/>
</svg>
