<svg width="81" height="80" viewBox="0 0 81 80" fill="none" xmlns="http://www.w3.org/2000/svg">
<path d="M63.8956 49.3719C58.4298 57.1415 47.6166 59.0574 39.7795 53.6387C31.9423 48.2199 30.0097 37.5 35.4755 29.7304C38.1195 25.969 42.0915 23.4536 46.6444 22.6426C51.1973 21.8315 55.7976 22.8424 59.5917 25.4636C61.1805 26.5567 62.5677 27.9085 63.7059 29.4601L67.2747 26.8976C65.8519 24.9464 64.1091 23.2538 62.1172 21.8785C57.3508 18.5873 51.5886 17.3296 45.8737 18.3405C40.1589 19.3513 35.1791 22.5133 31.8593 27.2267C29.6777 30.3299 28.4446 33.7974 28.0771 37.3237H19.2677V22.8424H30.0097L33.3176 18.4698H14.8571V60.2564L19.2677 57.3413V41.6845H28.0771C28.6936 47.7263 31.8593 53.4859 37.2659 57.2237C41.0481 59.8332 45.3758 61.0909 49.6678 61.0909C56.5446 61.0909 63.3028 57.8702 67.5237 51.8755L63.9075 49.3719H63.8956Z" fill="#6C757D"/>
<path d="M48.0737 31.9424C50.2118 31.5761 52.374 32.0339 54.1618 33.2129C54.9107 33.705 55.5629 34.3117 56.0944 35.0099L59.7303 32.5147C58.8968 31.4273 57.8943 30.4887 56.7347 29.7333C53.9685 27.9019 50.6104 27.2037 47.2886 27.7645C43.9668 28.3254 41.0798 30.0766 39.1471 32.6978C35.1609 38.1118 36.5742 45.5861 42.2877 49.3633C44.4862 50.8169 46.9987 51.5151 49.4871 51.5151C53.4853 51.5151 57.4111 49.7296 59.8632 46.3987L56.179 43.9607C53.6182 47.4518 48.5327 48.3102 44.8485 45.8722C41.1643 43.4457 40.2584 38.6269 42.8313 35.1358C44.0755 33.4418 45.9357 32.3201 48.0737 31.9538V31.9424Z" fill="#6C757D"/>
</svg>
