<svg width="80" height="80" viewBox="0 0 80 80" fill="none" xmlns="http://www.w3.org/2000/svg">
<path fill-rule="evenodd" clip-rule="evenodd" d="M16.7914 39.7397H24.408V36.882H14.0413H13.9337V47.0813H16.7077V39.7876L16.7914 39.7397Z" fill="white"/>
<path fill-rule="evenodd" clip-rule="evenodd" d="M13.9338 26.8621H34.7868C39.2826 26.886 42.9055 30.5329 42.9055 35.0168C42.9055 39.5006 39.2587 43.1594 34.7628 43.1834H29.5974V32.8525H32.4671V40.3615H32.7062H34.6911H34.7987C37.7043 40.3017 40.0478 37.9343 40.0478 35.0168C40.0478 32.0993 37.6803 29.7079 34.7509 29.672H16.6959V32.8525H24.3722V35.7222H13.9458H13.9099L13.9338 26.8621Z" fill="white"/>
<path fill-rule="evenodd" clip-rule="evenodd" d="M55.6278 23.1076L68.2065 44.3073L70.0001 41.33L58.8562 23.1076H55.6278Z" fill="white"/>
<path fill-rule="evenodd" clip-rule="evenodd" d="M42.7261 47.0813L55.6157 25.5827L66.2574 43.1953H51.5981V40.4452H61.1159L55.6157 31.2862L46.6121 47.0813H42.7261Z" fill="white"/>
<path fill-rule="evenodd" clip-rule="evenodd" d="M68.2064 44.3073H51.5981V47.0813L66.5683 47.0694L66.6041 46.9976L68.2064 44.3073Z" fill="white"/>
<path fill-rule="evenodd" clip-rule="evenodd" d="M25.532 44.2116V32.8525H28.4136V44.2356H34.7628C39.8445 44.1997 43.9696 40.0745 43.9696 34.9928C43.9696 29.9111 39.8565 25.7979 34.7867 25.7501H12.8935V47.0694H10.1195V23H34.8106C40.6576 23.0478 45.5121 27.1132 46.5523 32.6493L52.3873 23.0957H55.6157L45.6078 39.8593L44.6392 41.4974C42.487 44.654 38.9119 46.9976 34.7987 47.0454H25.5201V44.2116H25.532Z" fill="white"/>
<path d="M10 49.4488C10.5261 49.3412 11.2794 49.2814 11.9968 49.2814C13.1088 49.2814 13.8262 49.4846 14.3284 49.939C14.735 50.2977 14.9621 50.8477 14.9621 51.4695C14.9621 52.5337 14.2925 53.2391 13.4436 53.5261V53.562C14.0654 53.7772 14.436 54.3511 14.6273 55.1881C14.8904 56.3121 15.0817 57.0893 15.2491 57.4001H14.173C14.0415 57.173 13.8621 56.4795 13.6349 55.4751C13.3958 54.3631 12.9653 53.9446 12.0207 53.9087H11.0403V57.4001H10V49.4488ZM11.0403 53.1196H12.1044C13.2164 53.1196 13.9219 52.5097 13.9219 51.5891C13.9219 50.5488 13.1686 50.0944 12.0686 50.0825C11.5664 50.0825 11.2077 50.1303 11.0403 50.1781V53.1196Z" fill="white"/>
<path d="M20.6058 53.6217H17.4731V56.5273H20.9645V57.4001H16.4329V49.3411H20.7852V50.214H17.4731V52.7608H20.6058V53.6217Z" fill="white"/>
<path d="M28.4496 57.0414C27.9833 57.2088 27.0626 57.4838 25.9745 57.4838C24.7549 57.4838 23.7505 57.173 22.9614 56.4197C22.2679 55.7501 21.8374 54.674 21.8374 53.4185C21.8374 51.0151 23.4994 49.2575 26.2017 49.2575C27.1343 49.2575 27.8637 49.4607 28.2105 49.6281L27.9594 50.4771C27.5289 50.2858 26.9909 50.1303 26.1778 50.1303C24.2168 50.1303 22.9374 51.3499 22.9374 53.3707C22.9374 55.3914 24.169 56.6229 26.0463 56.6229C26.7278 56.6229 27.1941 56.5273 27.4333 56.4077V54.0044H25.7952V53.1674H28.4496V57.0414Z" fill="white"/>
<path d="M31.08 49.3411V57.4001H30.0398V49.3411H31.08Z" fill="white"/>
<path d="M32.7541 56.1327C33.2205 56.4197 33.902 56.6588 34.6194 56.6588C35.6836 56.6588 36.3054 56.0968 36.3054 55.2838C36.3054 54.5305 35.8749 54.1 34.7868 53.6815C33.4716 53.2152 32.6585 52.5337 32.6585 51.3977C32.6585 50.1423 33.6987 49.2096 35.2651 49.2096C36.0901 49.2096 36.688 49.4009 37.0467 49.6042L36.7597 50.4531C36.4967 50.3097 35.9586 50.0705 35.2292 50.0705C34.1292 50.0705 33.7107 50.7282 33.7107 51.2782C33.7107 52.0315 34.2009 52.4021 35.3129 52.8326C36.676 53.3587 37.3695 54.0163 37.3695 55.2001C37.3695 56.4436 36.4488 57.5197 34.5477 57.5197C33.7705 57.5197 32.9215 57.2925 32.4911 57.0056L32.7541 56.1327Z" fill="white"/>
<path d="M40.3228 50.226H37.8716V49.3411H43.8381V50.226H41.375V57.4001H40.3228V50.226Z" fill="white"/>
<path d="M48.9078 53.6217H45.7751V56.5273H49.2666V57.4001H44.7349V49.3411H49.0872V50.214H45.7751V52.7608H48.9078V53.6217Z" fill="white"/>
<path d="M50.6178 49.4488C51.1439 49.3412 51.8972 49.2814 52.6146 49.2814C53.7266 49.2814 54.444 49.4846 54.9462 49.939C55.3528 50.2977 55.5799 50.8477 55.5799 51.4695C55.5799 52.5337 54.9103 53.2391 54.0614 53.5261V53.562C54.6832 53.7772 55.0538 54.3511 55.2451 55.1881C55.5082 56.3121 55.6995 57.0893 55.8669 57.4001H54.7908C54.6592 57.173 54.4799 56.4795 54.2527 55.4751C54.0136 54.3631 53.5831 53.9446 52.6385 53.9087H51.6581V57.4001H50.6178V49.4488ZM51.6581 53.1196H52.7222C53.8342 53.1196 54.5397 52.5097 54.5397 51.5891C54.5397 50.5488 53.7864 50.0944 52.6864 50.0825C52.1842 50.0825 51.8254 50.1303 51.6581 50.1781V53.1196Z" fill="white"/>
<path d="M61.2236 53.6217H58.0909V56.5273H61.5823V57.4001H57.0507V49.3411H61.403V50.214H58.0909V52.7608H61.2236V53.6217Z" fill="white"/>
<path d="M62.9335 49.4488C63.5672 49.3531 64.3205 49.2814 65.1455 49.2814C66.6401 49.2814 67.7043 49.6281 68.4098 50.2858C69.1272 50.9434 69.5457 51.876 69.5457 53.1793C69.5457 54.4826 69.1391 55.5707 68.3858 56.3121C67.6326 57.0653 66.389 57.4719 64.8227 57.4719C64.0813 57.4719 63.4596 57.436 62.9335 57.3762V49.4488ZM63.9737 56.5751C64.2368 56.6229 64.6194 56.6349 65.0259 56.6349C67.2499 56.6349 68.4576 55.3914 68.4576 53.2152C68.4695 51.3141 67.3934 50.1064 65.1933 50.1064C64.6553 50.1064 64.2487 50.1542 63.9737 50.214V56.5751Z" fill="white"/>
</svg>
