<svg width="80" height="80" viewBox="0 0 80 80" fill="none" xmlns="http://www.w3.org/2000/svg">
<path fill-rule="evenodd" clip-rule="evenodd" d="M16.7914 39.7397H24.4079V36.882H14.0413H13.9337V47.0813H16.7077V39.7876L16.7914 39.7397Z" fill="#6C757D"/>
<path fill-rule="evenodd" clip-rule="evenodd" d="M13.9338 26.8621H34.7867C39.2825 26.886 42.9055 30.5329 42.9055 35.0168C42.9055 39.5006 39.2586 43.1595 34.7628 43.1834H29.5974V32.8526H32.467V40.3615H32.7062H34.691H34.7987C37.7042 40.3017 40.0478 37.9343 40.0478 35.0168C40.0478 32.0993 37.6803 29.7079 34.7508 29.672H16.6958V32.8526H24.3722V35.7222H13.9457H13.9099L13.9338 26.8621Z" fill="#6C757D"/>
<path fill-rule="evenodd" clip-rule="evenodd" d="M55.6277 23.1076L68.2064 44.3073L69.9999 41.33L58.8561 23.1076H55.6277Z" fill="#6C757D"/>
<path fill-rule="evenodd" clip-rule="evenodd" d="M42.726 47.0813L55.6156 25.5827L66.2573 43.1953H51.5981V40.4452H61.1158L55.6156 31.2862L46.612 47.0813H42.726Z" fill="#6C757D"/>
<path fill-rule="evenodd" clip-rule="evenodd" d="M68.2064 44.3073H51.5981V47.0813L66.5683 47.0694L66.6041 46.9976L68.2064 44.3073Z" fill="#6C757D"/>
<path fill-rule="evenodd" clip-rule="evenodd" d="M25.532 44.2116V32.8525H28.4136V44.2356H34.7627C39.8444 44.1997 43.9696 40.0745 43.9696 34.9928C43.9696 29.9111 39.8564 25.7979 34.7866 25.7501H12.8935V47.0694H10.1194V23H34.8106C40.6575 23.0478 45.512 27.1132 46.5523 32.6493L52.3873 23.0957H55.6157L45.6077 39.8593L44.6392 41.4974C42.4869 44.654 38.9118 46.9976 34.7986 47.0454H25.52V44.2116H25.532Z" fill="#6C757D"/>
<path d="M9.99988 49.4488C10.526 49.3412 11.2793 49.2814 11.9967 49.2814C13.1087 49.2814 13.8261 49.4846 14.3283 49.939C14.7348 50.2977 14.962 50.8477 14.962 51.4695C14.962 52.5337 14.2924 53.2391 13.4435 53.5261V53.562C14.0652 53.7772 14.4359 54.3511 14.6272 55.1881C14.8903 56.3121 15.0816 57.0893 15.249 57.4001H14.1729C14.0413 57.173 13.862 56.4795 13.6348 55.4751C13.3957 54.3631 12.9652 53.9446 12.0206 53.9087H11.0401V57.4001H9.99988V49.4488ZM11.0401 53.1196H12.1043C13.2163 53.1196 13.9218 52.5097 13.9218 51.5891C13.9218 50.5488 13.1685 50.0944 12.0684 50.0825C11.5662 50.0825 11.2075 50.1303 11.0401 50.1781V53.1196Z" fill="#6C757D"/>
<path d="M20.6058 53.6217H17.4731V56.5273H20.9645V57.4001H16.4328V49.3412H20.7851V50.214H17.4731V52.7608H20.6058V53.6217Z" fill="#6C757D"/>
<path d="M28.4495 57.0415C27.9832 57.2089 27.0625 57.4839 25.9744 57.4839C24.7548 57.4839 23.7504 57.173 22.9612 56.4197C22.2677 55.7501 21.8373 54.674 21.8373 53.4185C21.8373 51.0152 23.4993 49.2575 26.2016 49.2575C27.1342 49.2575 27.8636 49.4607 28.2103 49.6281L27.9592 50.4771C27.5288 50.2858 26.9907 50.1303 26.1777 50.1303C24.2167 50.1303 22.9373 51.3499 22.9373 53.3707C22.9373 55.3914 24.1689 56.623 26.0461 56.623C26.7277 56.623 27.194 56.5273 27.4331 56.4077V54.0044H25.795V53.1674H28.4495V57.0415Z" fill="#6C757D"/>
<path d="M31.0799 49.3412V57.4001H30.0397V49.3412H31.0799Z" fill="#6C757D"/>
<path d="M32.754 56.1327C33.2203 56.4197 33.9018 56.6588 34.6192 56.6588C35.6834 56.6588 36.3052 56.0968 36.3052 55.2838C36.3052 54.5305 35.8747 54.1 34.7866 53.6815C33.4714 53.2152 32.6583 52.5337 32.6583 51.3977C32.6583 50.1423 33.6986 49.2096 35.2649 49.2096C36.0899 49.2096 36.6878 49.4009 37.0465 49.6042L36.7595 50.4531C36.4965 50.3097 35.9584 50.0705 35.229 50.0705C34.129 50.0705 33.7105 50.7282 33.7105 51.2782C33.7105 52.0315 34.2008 52.4021 35.3127 52.8326C36.6758 53.3587 37.3693 54.0163 37.3693 55.2001C37.3693 56.4436 36.4487 57.5197 34.5475 57.5197C33.7703 57.5197 32.9214 57.2925 32.4909 57.0056L32.754 56.1327Z" fill="#6C757D"/>
<path d="M40.3227 50.226H37.8715V49.3412H43.838V50.226H41.3749V57.4001H40.3227V50.226Z" fill="#6C757D"/>
<path d="M48.9078 53.6217H45.7751V56.5273H49.2665V57.4001H44.7348V49.3412H49.0871V50.214H45.7751V52.7608H48.9078V53.6217Z" fill="#6C757D"/>
<path d="M50.6176 49.4488C51.1437 49.3412 51.897 49.2814 52.6144 49.2814C53.7264 49.2814 54.4438 49.4846 54.946 49.939C55.3526 50.2977 55.5797 50.8477 55.5797 51.4695C55.5797 52.5337 54.9102 53.2391 54.0612 53.5261V53.562C54.683 53.7772 55.0536 54.3511 55.245 55.1881C55.508 56.3121 55.6993 57.0893 55.8667 57.4001H54.7906C54.6591 57.173 54.4797 56.4795 54.2525 55.4751C54.0134 54.3631 53.5829 53.9446 52.6383 53.9087H51.6579V57.4001H50.6176V49.4488ZM51.6579 53.1196H52.722C53.834 53.1196 54.5395 52.5097 54.5395 51.5891C54.5395 50.5488 53.7862 50.0944 52.6862 50.0825C52.184 50.0825 51.8253 50.1303 51.6579 50.1781V53.1196Z" fill="#6C757D"/>
<path d="M61.2235 53.6217H58.0908V56.5273H61.5822V57.4001H57.0505V49.3412H61.4029V50.214H58.0908V52.7608H61.2235V53.6217Z" fill="#6C757D"/>
<path d="M62.9333 49.4488C63.5671 49.3531 64.3204 49.2814 65.1454 49.2814C66.64 49.2814 67.7042 49.6281 68.4096 50.2858C69.127 50.9434 69.5455 51.876 69.5455 53.1793C69.5455 54.4826 69.139 55.5707 68.3857 56.3121C67.6324 57.0653 66.3889 57.4719 64.8225 57.4719C64.0812 57.4719 63.4595 57.436 62.9333 57.3762V49.4488ZM63.9736 56.5751C64.2367 56.6229 64.6193 56.6349 65.0258 56.6349C67.2498 56.6349 68.4575 55.3914 68.4575 53.2152C68.4694 51.3141 67.3933 50.1064 65.1932 50.1064C64.6552 50.1064 64.2486 50.1542 63.9736 50.214V56.5751Z" fill="#6C757D"/>
</svg>
