<svg width="80" height="80" viewBox="0 0 80 80" fill="none" xmlns="http://www.w3.org/2000/svg">
<path d="M31.1216 48.0117C31.6824 47.3077 31.3722 46.6515 30.8114 46.21L29.4035 45.0885L27.041 48.0475L27.8166 48.6679L28.6041 47.6776L29.2364 48.1787C29.8807 48.7037 30.537 48.7515 31.1216 48.0117ZM30.3103 47.439C30.0955 47.7134 29.8449 47.6657 29.6063 47.4748L29.0932 47.0572L29.7018 46.3055L30.2148 46.7231C30.4534 46.914 30.537 47.1646 30.3222 47.439H30.3103Z" fill="white"/>
<path d="M33.4365 50.0878C33.866 50.1355 34.212 49.873 34.391 49.5031C34.737 48.823 34.2836 48.2503 33.687 47.952L31.9569 47.081L30.2507 50.4577L31.1337 50.8991L31.7541 49.6702L32.4223 50.0043C32.8399 50.219 32.7206 50.5889 32.5655 50.9469C32.5297 51.0542 32.3746 51.3764 32.3984 51.5315L33.2694 51.973C33.2217 51.7821 33.4484 51.2929 33.508 51.1378C33.6512 50.8037 33.7347 50.3503 33.4245 50.0759L33.4365 50.0878ZM32.8399 49.3719L32.1001 49.002L32.4819 48.2384L33.1859 48.5963C33.4365 48.7157 33.5796 48.9304 33.4484 49.181C33.3171 49.4435 33.1024 49.5031 32.8399 49.3719Z" fill="white"/>
<path d="M36.0255 48.8469L33.7108 52.152L34.6892 52.4025L35.0949 51.8059L36.3715 52.14L36.4312 52.8559L37.4215 53.1184L37.0039 49.0975L36.0375 48.8469H36.0255ZM35.4886 51.1616L36.2403 49.9804L36.3119 51.3764L35.4767 51.1616H35.4886Z" fill="white"/>
<path d="M39.6648 50.231C40.0824 50.2548 40.3568 50.4696 40.3926 50.8514L41.3829 50.8991C41.4068 49.9923 40.5477 49.4196 39.7364 49.3838C38.5909 49.3242 37.8035 50.1594 37.7438 51.2571C37.6841 52.3548 38.3762 53.2616 39.5216 53.3213C40.4761 53.369 41.2159 52.844 41.3352 51.8656L40.3449 51.8179C40.2852 52.2593 40.0108 52.498 39.5455 52.4741C38.9131 52.4383 38.6983 51.8656 38.7222 51.3048C38.7461 50.744 39.0205 50.1952 39.6648 50.231Z" fill="white"/>
<path d="M44.509 49.0497L41.2994 49.5389L41.4307 50.3741L42.5403 50.2071L42.9818 53.1184L43.9602 52.9633L43.5187 50.0639L44.6403 49.8969L44.509 49.0497Z" fill="white"/>
<path d="M45.6668 48.6394L44.7205 48.9312L45.8351 52.5456L46.7815 52.2537L45.6668 48.6394Z" fill="white"/>
<path d="M49.2458 49.5867C49.4009 50.0043 49.2816 50.3503 48.864 50.5531C48.2913 50.8275 47.8259 50.4338 47.5754 49.9327C47.3248 49.4196 47.3009 48.8111 47.8737 48.5367C48.2555 48.3577 48.6015 48.4054 48.8162 48.7276L49.6992 48.2981C49.2697 47.4867 48.2555 47.4151 47.5157 47.7731C46.4777 48.2742 46.2032 49.3838 46.6805 50.3741C47.1578 51.3645 48.2077 51.8179 49.2458 51.3167C50.1049 50.8991 50.4986 50.0759 50.1168 49.1691L49.2339 49.5986L49.2458 49.5867Z" fill="white"/>
<path d="M51.8469 48.6202L51.4055 48.0594L52.8492 46.9021L52.3839 46.3055L50.9282 47.4628L50.5106 46.9379L52.0975 45.6731L51.6083 45.0646L49.2458 46.9379L51.6083 49.8969L54.0065 47.9878L53.4816 47.3197L51.8469 48.6202Z" fill="white"/>
<path d="M31.1696 35.2211C31.4678 35.3642 31.8497 35.4358 32.3031 35.4358C32.7565 35.4358 33.1263 35.3642 33.4008 35.2211C33.6752 35.0779 33.9258 34.8154 34.1405 34.4217H34.1644L34.2598 35.233H35.7155V30.3053H32.828V31.9399H33.5917V32.6558C33.5917 32.799 33.5917 32.9421 33.5678 33.0853C33.5439 33.2285 33.5201 33.3478 33.4723 33.4552C33.4246 33.5626 33.353 33.6461 33.2457 33.7177C33.1502 33.7773 33.007 33.8131 32.828 33.8131C32.5417 33.8131 32.3508 33.7416 32.2195 33.5984C32.1002 33.4552 32.0406 33.2643 32.0406 33.0018V28.5155C32.0406 28.2172 32.1002 27.9786 32.2076 27.8116C32.315 27.6445 32.5298 27.561 32.8638 27.5729C33.1502 27.5729 33.3292 27.6803 33.4127 27.8712C33.4962 28.0621 33.532 28.3604 33.532 28.7422V29.2434H35.6558V28.5633C35.6558 27.6326 35.4053 26.9644 34.8922 26.5588C34.3791 26.1531 33.6752 25.9383 32.7684 25.9383C31.79 25.9383 31.0741 26.1769 30.6088 26.6423C30.1434 27.1076 29.9167 27.8354 29.9167 28.8257V32.5484C29.9167 32.9541 29.9525 33.3359 30.0361 33.6938C30.1196 34.0398 30.2508 34.3501 30.4298 34.6126C30.6207 34.8751 30.8593 35.0779 31.1576 35.2211H31.1696Z" fill="white"/>
<path d="M38.4954 28.1218H38.5193L39.9869 35.2211H41.5619L43.0652 28.1218H43.0891L42.8743 35.2211H44.9027V26.165H41.9317L40.7863 31.5103H40.7624L39.6647 26.165H36.6699V35.2211H38.6864L38.4954 28.1218Z" fill="white"/>
<path d="M49.1145 26.1889C48.8759 26.1769 48.6492 26.165 48.4464 26.165H45.9169V35.2211H48.0407V31.6893C48.2435 31.6893 48.4464 31.6893 48.6492 31.6893C48.852 31.6893 49.0549 31.6893 49.2577 31.6774C49.4605 31.6655 49.6634 31.6416 49.8543 31.5939C50.0571 31.5581 50.248 31.4865 50.427 31.403C50.6656 31.2956 50.8685 31.1405 51.0236 30.9615C51.1787 30.7706 51.298 30.5678 51.3935 30.3411C51.4889 30.1144 51.5486 29.8757 51.5844 29.6252C51.6202 29.3746 51.6321 29.124 51.6321 28.8854C51.6321 28.5155 51.5963 28.1695 51.5247 27.8354C51.4531 27.5013 51.2861 27.2031 51.0474 26.9167C50.9043 26.7497 50.7253 26.6184 50.5105 26.511C50.2958 26.4156 50.0691 26.3321 49.8304 26.2843C49.5918 26.2366 49.3532 26.2008 49.1145 26.1889ZM49.4605 29.3985C49.4248 29.5655 49.3532 29.7087 49.2458 29.828C49.0787 29.9592 48.8878 30.0308 48.6731 30.0428C48.4583 30.0428 48.2555 30.0428 48.0526 30.0666V27.7996H48.2793C48.4464 27.7996 48.6015 27.7996 48.7447 27.7996C48.8878 27.7996 49.0071 27.8235 49.1145 27.8712C49.198 27.907 49.2696 27.9786 49.3293 28.0621C49.377 28.1456 49.4247 28.2411 49.4486 28.3366C49.4725 28.432 49.4963 28.5394 49.5083 28.6348C49.5202 28.7303 49.5202 28.8377 49.5202 28.9212C49.5202 29.0763 49.5083 29.2434 49.4725 29.4104L49.4605 29.3985Z" fill="white"/>
<path d="M32.7563 41.2942C32.7563 41.2942 32.7563 41.4016 32.7563 41.4613C32.7563 41.5209 32.7444 41.5687 32.7205 41.6164C32.6967 41.6641 32.6728 41.6999 32.6251 41.7357C32.5893 41.7715 32.5296 41.7834 32.47 41.7834C32.3626 41.7834 32.291 41.7596 32.2433 41.6999C32.1955 41.6522 32.1836 41.5687 32.1836 41.4732V39.7909C32.1836 39.6835 32.2075 39.588 32.2552 39.5284C32.291 39.4687 32.3745 39.4329 32.5058 39.4329C32.5773 39.4329 32.637 39.4687 32.6847 39.5403C32.7325 39.6119 32.7563 39.7193 32.7563 39.8744V40.0891H33.5557V39.8028C33.5557 39.6357 33.5319 39.4806 33.4841 39.3613C33.4364 39.2301 33.3648 39.1346 33.2694 39.0511C33.1739 38.9676 33.0665 38.9198 32.9234 38.8721C32.7921 38.8363 32.637 38.8125 32.47 38.8125C32.1001 38.8125 31.8376 38.896 31.6586 39.075C31.4796 39.2539 31.3961 39.5284 31.3961 39.8982V41.2942C31.3961 41.4613 31.42 41.6164 31.4558 41.7596C31.4916 41.8908 31.5512 42.0101 31.6347 42.0936C31.7183 42.1891 31.8257 42.2607 31.945 42.3084C32.0762 42.3561 32.2313 42.38 32.4103 42.38C32.6131 42.38 32.7921 42.3561 32.9353 42.3084C33.0785 42.2607 33.1978 42.1891 33.2932 42.1056C33.3887 42.0221 33.4483 41.9147 33.4961 41.7954C33.5438 41.676 33.5557 41.5448 33.5557 41.3897V40.9721H32.7563V41.2823V41.2942Z" fill="white"/>
<path d="M34.6654 40.9005H35.6676V40.2204H34.6654V39.5999H35.6915V38.9198H33.866V42.3203H35.7512V41.6402H34.6654V40.9005Z" fill="white"/>
<path d="M38.221 41.9385C38.221 41.8431 38.221 41.7476 38.2091 41.6402C38.2091 41.5329 38.2091 41.4374 38.1971 41.342C38.1971 41.2465 38.1971 41.163 38.1852 41.0914C38.1852 40.9721 38.1375 40.8766 38.0659 40.805C37.9943 40.7334 37.8989 40.6738 37.7915 40.6499C37.9585 40.5664 38.0659 40.459 38.1256 40.3278C38.1852 40.1965 38.2091 40.0414 38.2091 39.8624C38.2091 39.5284 38.1256 39.2778 37.9704 39.1346C37.8034 38.9914 37.5648 38.9198 37.2307 38.9198H36.0614V42.3203H36.8608V40.984H37.1233C37.2188 40.984 37.2784 41.0198 37.3261 41.0914C37.3619 41.1511 37.3858 41.2346 37.3977 41.342C37.4097 41.4493 37.4097 41.5687 37.4097 41.6999C37.4097 41.8311 37.4097 41.9743 37.4097 42.1294C37.4097 42.1652 37.4097 42.1891 37.4216 42.2249C37.4216 42.2607 37.4335 42.2845 37.4455 42.3203H38.3165V42.2726C38.3165 42.2726 38.2568 42.201 38.2449 42.1533C38.2329 42.0936 38.221 42.0221 38.221 41.9266V41.9385ZM37.4097 40.1011C37.4097 40.1011 37.3858 40.1965 37.3619 40.2323C37.3381 40.2681 37.3142 40.3039 37.2784 40.3278C37.2426 40.3516 37.1949 40.3636 37.1352 40.3636H36.8608V39.5284C36.9563 39.5284 37.0398 39.5284 37.1114 39.5284C37.183 39.5284 37.2426 39.5522 37.2904 39.5761C37.3381 39.5999 37.3739 39.6477 37.3858 39.7073C37.4097 39.767 37.4216 39.8386 37.4216 39.946C37.4216 39.9937 37.4216 40.0533 37.4216 40.1011H37.4097Z" fill="white"/>
<path d="M38.4716 39.5999H39.1039V42.3203H39.9033V39.5999H40.5476V38.9198H38.4716V39.5999Z" fill="white"/>
<path d="M41.6334 38.9198H40.834V42.3203H41.6334V38.9198Z" fill="white"/>
<path d="M42.0154 42.3203H42.8029V40.8766H43.7932V40.2085H42.8029V39.5999H43.8886V38.9198H42.0154V42.3203Z" fill="white"/>
<path d="M45.0102 38.9198H44.2108V42.3203H45.0102V38.9198Z" fill="white"/>
<path d="M46.1795 40.9005H47.1818V40.2204H46.1795V39.5999H47.2057V38.9198H45.3801V42.3203H47.2653V41.6402H46.1795V40.9005Z" fill="white"/>
<path d="M49.6397 39.4448C49.6159 39.3732 49.5801 39.3017 49.5323 39.242C49.4846 39.1823 49.425 39.1227 49.3414 39.0869C49.2102 39.0153 49.067 38.9676 48.9 38.9556C48.7329 38.9437 48.5897 38.9318 48.4346 38.9318H47.5756V42.3323H48.6494C48.7687 42.3323 48.9 42.3323 49.0193 42.3084C49.1386 42.2845 49.2579 42.2488 49.3534 42.1772C49.4727 42.1056 49.5562 42.0101 49.6039 41.8908C49.6636 41.7715 49.6875 41.6164 49.6875 41.4493V39.946C49.6875 39.8624 49.6875 39.7789 49.6755 39.7073C49.6755 39.6238 49.6517 39.5522 49.6278 39.4806L49.6397 39.4448ZM48.9119 41.0675C48.9119 41.1868 48.9119 41.2823 48.9119 41.3658C48.9119 41.4493 48.888 41.5209 48.8522 41.5687C48.8164 41.6164 48.7687 41.6641 48.6971 41.676C48.6255 41.6999 48.5182 41.6999 48.3869 41.6999V39.5284C48.4824 39.5284 48.5659 39.5284 48.6255 39.5403C48.6971 39.5403 48.7449 39.5642 48.7807 39.5999C48.8164 39.6238 48.8522 39.6715 48.8761 39.7312C48.9 39.7909 48.9 39.8624 48.9 39.9698V41.0795L48.9119 41.0675Z" fill="white"/>
<path d="M24.9413 36.7364C24.8697 36.4023 24.6549 35.9728 24.2492 35.8057L24.643 35.6625L24.5117 35.0421L22.4833 35.4597L22.8055 37.0227L23.5214 36.8796L23.3782 36.1995C23.7242 36.1995 24.0106 36.4619 24.118 36.9392C24.2492 37.5597 23.7481 37.9176 23.1873 38.025C22.6265 38.1443 22.0419 38.0131 21.9106 37.3926C21.8271 36.9989 21.9584 36.6529 22.2686 36.5574L22.0657 35.5909C21.147 35.8654 20.9084 36.7722 21.0635 37.5358C21.2902 38.6574 22.2924 39.2062 23.3782 38.9914C24.4521 38.7767 25.168 37.8699 24.9293 36.7483L24.9413 36.7364Z" fill="white"/>
<path d="M22.6147 35.0302C23.7124 35.054 24.5953 34.3978 24.6311 33.2046C24.655 32.0234 23.7959 31.3194 22.6982 31.2956C21.6005 31.2717 20.7176 31.928 20.6818 33.1211C20.6579 34.3023 21.517 35.0063 22.6147 35.0302ZM22.6743 32.2859C23.2471 32.2978 23.7959 32.5484 23.784 33.1927C23.772 33.8251 23.2113 34.0637 22.6385 34.0518C22.0658 34.0398 21.517 33.7893 21.5289 33.145C21.5408 32.5126 22.1016 32.274 22.6743 32.2859Z" fill="white"/>
<path d="M22.7459 30.9138C23.8078 31.1882 24.822 30.7467 25.1203 29.6013C25.4186 28.4559 24.7385 27.5729 23.6765 27.2985C22.6146 27.0241 21.6005 27.4656 21.3022 28.611C21.0039 29.7564 21.684 30.6393 22.7459 30.9138ZM22.1255 28.8257C22.2806 28.2053 22.8891 28.1099 23.4379 28.253C23.9868 28.3962 24.464 28.7661 24.3089 29.3865C24.1538 30.007 23.5453 30.1024 22.9965 29.9592C22.4476 29.8161 21.9703 29.4462 22.1255 28.8257Z" fill="white"/>
<path d="M26.3252 26.2247C26.8622 25.2105 26.5877 24.2679 25.49 23.6952C24.452 23.1583 23.5094 23.4446 22.9605 24.4707L22.2089 25.9144L25.5616 27.6684L26.3133 26.2247H26.3252ZM25.2753 26.4036L23.4259 25.4372L23.6406 25.0196C23.9509 24.423 24.4162 24.244 25.0366 24.5662C25.7048 24.9122 25.8241 25.3179 25.502 25.986L25.2872 26.4036H25.2753Z" fill="white"/>
<path d="M29.3083 22.1321L27.4589 19.9367L29.9287 21.6191L30.5014 21.1299L29.2605 18.4214V18.4095L31.1218 20.6049L31.8258 20.0083L29.3798 17.1209L28.2702 18.0516L29.4037 20.4021L29.3918 20.414L27.268 18.8987L26.1583 19.8413L28.6043 22.7287L29.3083 22.1321Z" fill="white"/>
<path d="M32.84 19.543L32.7684 18.8271L33.9615 18.2544L34.4627 18.7674L35.3933 18.326L32.494 15.5101L31.5872 15.9397L31.9332 19.9606L32.8519 19.5311L32.84 19.543ZM32.482 16.6794L33.4246 17.6936L32.6491 18.0635L32.4701 16.6794H32.482Z" fill="white"/>
<path d="M36.4075 18.1231L35.9064 15.8203H35.9183L37.7081 17.8487L38.6984 17.6339L37.887 13.9352L36.9922 14.1261L37.4814 16.405H37.4694L35.6916 14.4124L34.7013 14.6272L35.5007 18.326L36.4075 18.1231Z" fill="white"/>
<path d="M40.6074 17.6936C41.7528 17.7175 42.2659 17.1805 42.2778 16.0828L42.3136 13.8636H41.3233L41.2875 16.1306C41.2875 16.6198 41.0966 16.8584 40.6074 16.8584C40.1182 16.8584 39.9511 16.5959 39.9631 16.1067L39.9989 13.8278H39.0085L38.9727 16.0351C38.9489 17.1328 39.45 17.6817 40.5954 17.7055L40.6074 17.6936Z" fill="white"/>
<path d="M43.805 16.4647L45.3323 16.7868L45.4874 16.0351L43.9601 15.713L44.1152 14.9613L45.8811 15.3312L46.0482 14.5556L43.3158 13.9829L42.5403 17.6936L43.5067 17.8964L43.805 16.4647Z" fill="white"/>
<path d="M45.7021 18.4453L46.1794 17.9084L47.3964 18.4095L47.3606 19.1254L48.3151 19.5191L48.4344 15.4743L47.5038 15.0925L44.7595 18.0635L45.7021 18.4453ZM47.5634 16.2618L47.4561 17.6459L46.6566 17.3237L47.5515 16.2618H47.5634Z" fill="white"/>
<path d="M49.6396 20.581C50.4271 21.1299 51.3339 21.0702 51.9424 20.2947L51.1311 19.7339C50.8447 20.068 50.4867 20.1396 50.1049 19.8771C49.5799 19.5191 49.6993 18.9226 50.0214 18.4572C50.3436 17.9919 50.8686 17.6697 51.3816 18.0396C51.7276 18.2783 51.8469 18.6123 51.6799 18.9584L52.4912 19.5191C52.9924 18.7555 52.5628 17.8249 51.8947 17.3595C50.9521 16.7033 49.8424 17.0016 49.222 17.8964C48.5896 18.7913 48.697 19.9367 49.6396 20.593V20.581Z" fill="white"/>
<path d="M51.6322 22.1202L52.3242 22.8361L54.4242 20.7958L55.2117 21.6072L55.8202 21.0106L53.5651 18.6839L52.9566 19.2686L53.7441 20.0799L51.6322 22.1202Z" fill="white"/>
<path d="M53.9111 25.0554C54.5196 26.0218 55.2594 26.1531 56.1781 25.5684L58.0513 24.3753L57.5264 23.5401L55.6054 24.7571C55.1878 25.0196 54.8895 25.0076 54.627 24.59C54.3645 24.1844 54.4838 23.898 54.8895 23.6355L56.8105 22.4185L56.2855 21.5833L54.4122 22.7764C53.4816 23.3611 53.2907 24.077 53.9111 25.0434V25.0554Z" fill="white"/>
<path d="M55.307 27.5849L56.6076 27.1195L56.8581 27.8235C57.0132 28.265 56.6672 28.4559 56.3212 28.5991C56.2257 28.6468 55.8917 28.79 55.7962 28.9093L56.1303 29.828C56.2258 29.649 56.7269 29.4581 56.882 29.3865C57.2161 29.2434 57.5859 28.9689 57.5502 28.5633C57.8365 28.8854 58.2661 28.9331 58.6479 28.79C59.3638 28.5275 59.4234 27.7996 59.1967 27.1792L58.5405 25.3656L54.9849 26.6542L55.319 27.5849H55.307ZM58.1348 26.5707L58.3973 27.3104C58.4927 27.5729 58.445 27.8235 58.1825 27.919C57.9081 28.0144 57.7053 27.919 57.6098 27.6445L57.3235 26.869L58.1229 26.5826L58.1348 26.5707Z" fill="white"/>
<path d="M59.8253 29.5148L56.1052 30.1983L56.2842 31.1723L60.0042 30.4889L59.8253 29.5148Z" fill="white"/>
<path d="M56.4406 32.5007L58.8031 32.4529V32.4649L56.4645 33.8251L56.4883 34.8393L60.2706 34.7557L60.2587 33.8251L57.9201 33.8847V33.8728L60.2229 32.5007L60.1991 31.4984L56.4167 31.57L56.4406 32.5007Z" fill="white"/>
<path d="M58.3616 35.3404C57.2878 35.1256 56.2855 35.6625 56.0469 36.796C55.9753 37.1301 56.0111 37.6074 56.3213 37.9295L55.9037 37.9057L55.7725 38.5261L57.8008 38.9437L58.123 37.3807L57.4071 37.2375L57.2639 37.9176C56.9418 37.7863 56.7747 37.4284 56.8821 36.9511C57.0133 36.3307 57.6099 36.1995 58.1588 36.3188C58.7196 36.4381 59.2087 36.7841 59.0775 37.4045C58.994 37.7983 58.7434 38.0608 58.4213 38.0369L58.2184 39.0034C59.173 39.1108 59.7457 38.371 59.9008 37.5954C60.1275 36.4739 59.4235 35.5671 58.3497 35.3523L58.3616 35.3404Z" fill="white"/>
<path d="M27.1008 42.4516H25.7048L25.2753 41.1272L24.8457 42.4516H23.4617L24.5832 43.2629L24.1537 44.5873L25.2753 43.7641L26.3968 44.5873L25.9673 43.2629L27.1008 42.4516Z" fill="white"/>
<path d="M55.7246 43.7641L56.8581 44.5873L56.4286 43.2629L57.5501 42.4516H56.1541L55.7246 41.1272L55.2951 42.4516H53.911L55.0326 43.2629L54.603 44.5873L55.7246 43.7641Z" fill="white"/>
<path d="M50.7373 36.9273H30.2627V37.2136H50.7373V36.9273Z" fill="white"/>
<path d="M59.5905 45.5657C61.7859 42.0817 63.0745 37.9773 63.0745 33.5745C63.0745 21.1299 52.9446 11 40.5 11C28.0554 11 17.9255 21.1299 17.9255 33.5745C17.9255 37.9773 19.2141 42.0817 21.4095 45.5657L14 58.4041L26.4446 56.5189L31.0383 68.2357L38.0898 56.0178C38.8773 56.1013 39.6887 56.149 40.5 56.149C41.3113 56.149 42.1227 56.1013 42.9102 56.0178L49.9617 68.2357L54.5554 56.5189L67 58.4041L59.5905 45.5657ZM19.059 33.5745C19.059 21.7503 28.6758 12.1335 40.5 12.1335C52.3242 12.1335 61.941 21.7503 61.941 33.5745C61.941 45.3987 52.3242 55.0155 40.5 55.0155C28.6758 55.0155 19.059 45.3987 19.059 33.5745Z" fill="white"/>
<path d="M40.4999 18.7078C32.3029 18.7078 25.6332 25.3775 25.6332 33.5745C25.6332 41.7715 32.3029 48.4412 40.4999 48.4412C48.6969 48.4412 55.3666 41.7715 55.3666 33.5745C55.3666 25.3775 48.6969 18.7078 40.4999 18.7078ZM40.4999 47.3077C32.9234 47.3077 26.7667 41.1511 26.7667 33.5745C26.7667 25.998 32.9234 19.8413 40.4999 19.8413C48.0764 19.8413 54.2331 25.998 54.2331 33.5745C54.2331 41.1511 48.0764 47.3077 40.4999 47.3077Z" fill="white"/>
</svg>
