<svg width="81" height="80" viewBox="0 0 81 80" fill="none" xmlns="http://www.w3.org/2000/svg">
<path d="M31.693 48.0117C32.2538 47.3077 31.9436 46.6515 31.3828 46.21L29.9749 45.0885L27.6124 48.0475L28.388 48.6679L29.1755 47.6776L29.8078 48.1787C30.4521 48.7037 31.1084 48.7515 31.693 48.0117ZM30.8817 47.439C30.6669 47.7134 30.4163 47.6657 30.1777 47.4748L29.6647 47.0572L30.2732 46.3055L30.7862 46.7231C31.0249 46.914 31.1084 47.1646 30.8936 47.439H30.8817Z" fill="#6C757D"/>
<path d="M34.0079 50.0878C34.4374 50.1355 34.7835 49.873 34.9624 49.5031C35.3084 48.823 34.855 48.2503 34.2585 47.952L32.5284 47.081L30.8222 50.4577L31.7051 50.8991L32.3256 49.6702L32.9937 50.0043C33.4113 50.219 33.292 50.5889 33.1369 50.9468C33.1011 51.0542 32.946 51.3764 32.9699 51.5315L33.8409 51.973C33.7931 51.7821 34.0198 51.2929 34.0795 51.1378C34.2227 50.8037 34.3062 50.3503 33.996 50.0758L34.0079 50.0878ZM33.4113 49.3719L32.6716 49.002L33.0534 48.2384L33.7573 48.5963C34.0079 48.7156 34.1511 48.9304 34.0198 49.181C33.8886 49.4435 33.6738 49.5031 33.4113 49.3719Z" fill="#6C757D"/>
<path d="M36.597 48.8469L34.2823 52.152L35.2606 52.4025L35.6663 51.806L36.943 52.14L37.0027 52.8559L37.993 53.1184L37.5754 49.0975L36.6089 48.8469H36.597ZM36.0601 51.1616L36.8117 49.9804L36.8833 51.3764L36.0481 51.1616H36.0601Z" fill="#6C757D"/>
<path d="M40.2362 50.231C40.6538 50.2548 40.9282 50.4696 40.964 50.8514L41.9543 50.8991C41.9782 49.9923 41.1191 49.4196 40.3078 49.3838C39.1624 49.3242 38.3749 50.1594 38.3152 51.2571C38.2556 52.3548 38.9476 53.2616 40.093 53.3213C41.0475 53.369 41.7873 52.844 41.9066 51.8656L40.9163 51.8179C40.8566 52.2593 40.5822 52.498 40.1169 52.4741C39.4845 52.4383 39.2697 51.8656 39.2936 51.3048C39.3175 50.744 39.5919 50.1952 40.2362 50.231Z" fill="#6C757D"/>
<path d="M45.0804 49.0497L41.8708 49.5389L42.0021 50.3741L43.1117 50.2071L43.5532 53.1184L44.5316 52.9633L44.0901 50.0639L45.2117 49.8969L45.0804 49.0497Z" fill="#6C757D"/>
<path d="M46.2382 48.6394L45.2919 48.9312L46.4066 52.5456L47.3529 52.2537L46.2382 48.6394Z" fill="#6C757D"/>
<path d="M49.8171 49.5867C49.9722 50.0043 49.8529 50.3503 49.4353 50.5531C48.8626 50.8276 48.3973 50.4338 48.1467 49.9327C47.8962 49.4196 47.8723 48.8111 48.445 48.5367C48.8268 48.3577 49.1728 48.4054 49.3876 48.7276L50.2705 48.2981C49.841 47.4867 48.8268 47.4151 48.0871 47.7731C47.049 48.2742 46.7746 49.3838 47.2518 50.3742C47.7291 51.3645 48.7791 51.8179 49.8171 51.3168C50.6762 50.8991 51.07 50.0759 50.6881 49.1691L49.8052 49.5986L49.8171 49.5867Z" fill="#6C757D"/>
<path d="M52.4183 48.6202L51.9768 48.0594L53.4206 46.9021L52.9552 46.3055L51.4996 47.4628L51.082 46.9379L52.6689 45.6731L52.1797 45.0646L49.8172 46.9379L52.1797 49.8969L54.5779 47.9878L54.0529 47.3197L52.4183 48.6202Z" fill="#6C757D"/>
<path d="M31.7409 35.2211C32.0392 35.3643 32.421 35.4358 32.8744 35.4358C33.3278 35.4358 33.6977 35.3643 33.9721 35.2211C34.2465 35.0779 34.4971 34.8154 34.7118 34.4217H34.7357L34.8312 35.233H36.2868V30.3053H33.3994V31.9399H34.163V32.6558C34.163 32.799 34.163 32.9422 34.1391 33.0853C34.1153 33.2285 34.0914 33.3478 34.0437 33.4552C33.9959 33.5626 33.9244 33.6461 33.817 33.7177C33.7215 33.7774 33.5783 33.8132 33.3994 33.8132C33.113 33.8132 32.9221 33.7416 32.7909 33.5984C32.6715 33.4552 32.6119 33.2643 32.6119 33.0018V28.5155C32.6119 28.2173 32.6715 27.9786 32.7789 27.8116C32.8863 27.6445 33.1011 27.561 33.4352 27.5729C33.7215 27.5729 33.9005 27.6803 33.984 27.8712C34.0675 28.0621 34.1033 28.3604 34.1033 28.7422V29.2434H36.2271V28.5633C36.2271 27.6326 35.9766 26.9644 35.4635 26.5588C34.9505 26.1531 34.2465 25.9383 33.3397 25.9383C32.3613 25.9383 31.6454 26.177 31.1801 26.6423C30.7148 27.1076 30.4881 27.8354 30.4881 28.8258V32.5484C30.4881 32.9541 30.5239 33.3359 30.6074 33.6938C30.6909 34.0399 30.8222 34.3501 31.0011 34.6126C31.192 34.8751 31.4307 35.0779 31.729 35.2211H31.7409Z" fill="#6C757D"/>
<path d="M39.0668 28.1218H39.0907L40.5582 35.2211H42.1332L43.6366 28.1218H43.6605L43.4457 35.2211H45.4741V26.165H42.5031L41.3577 31.5103H41.3338L40.2361 26.165H37.2413V35.2211H39.2577L39.0668 28.1218Z" fill="#6C757D"/>
<path d="M49.6859 26.1889C49.4473 26.1769 49.2206 26.165 49.0178 26.165H46.4883V35.2211H48.6121V31.6893C48.8149 31.6893 49.0178 31.6893 49.2206 31.6893C49.4234 31.6893 49.6263 31.6893 49.8291 31.6774C50.032 31.6655 50.2348 31.6416 50.4257 31.5939C50.6285 31.5581 50.8194 31.4865 50.9984 31.403C51.237 31.2956 51.4399 31.1405 51.595 30.9615C51.7501 30.7706 51.8694 30.5678 51.9649 30.3411C52.0603 30.1144 52.12 29.8757 52.1558 29.6252C52.1916 29.3746 52.2035 29.124 52.2035 28.8854C52.2035 28.5155 52.1677 28.1695 52.0961 27.8354C52.0245 27.5013 51.8575 27.2031 51.6189 26.9167C51.4757 26.7497 51.2967 26.6184 51.0819 26.511C50.8672 26.4156 50.6405 26.3321 50.4018 26.2843C50.1632 26.2366 49.9246 26.2008 49.6859 26.1889ZM50.032 29.3985C49.9962 29.5655 49.9246 29.7087 49.8172 29.828C49.6501 29.9592 49.4592 30.0308 49.2445 30.0428C49.0297 30.0428 48.8269 30.0428 48.624 30.0666V27.7996H48.8507C49.0178 27.7996 49.1729 27.7996 49.3161 27.7996C49.4592 27.7996 49.5786 27.8235 49.6859 27.8712C49.7695 27.907 49.8411 27.9786 49.9007 28.0621C49.9484 28.1456 49.9962 28.2411 50.02 28.3366C50.0439 28.432 50.0678 28.5394 50.0797 28.6348C50.0916 28.7303 50.0916 28.8377 50.0916 28.9212C50.0916 29.0763 50.0797 29.2434 50.0439 29.4104L50.032 29.3985Z" fill="#6C757D"/>
<path d="M33.3277 41.2942C33.3277 41.2942 33.3277 41.4016 33.3277 41.4613C33.3277 41.5209 33.3158 41.5687 33.2919 41.6164C33.2681 41.6641 33.2442 41.6999 33.1965 41.7357C33.1607 41.7715 33.101 41.7834 33.0414 41.7834C32.934 41.7834 32.8624 41.7596 32.8147 41.6999C32.7669 41.6522 32.755 41.5687 32.755 41.4732V39.7909C32.755 39.6835 32.7789 39.588 32.8266 39.5284C32.8624 39.4687 32.9459 39.4329 33.0772 39.4329C33.1488 39.4329 33.2084 39.4687 33.2561 39.5403C33.3039 39.6119 33.3277 39.7193 33.3277 39.8744V40.0891H34.1271V39.8028C34.1271 39.6357 34.1033 39.4806 34.0556 39.3613C34.0078 39.2301 33.9362 39.1346 33.8408 39.0511C33.7453 38.9676 33.6379 38.9199 33.4948 38.8721C33.3635 38.8363 33.2084 38.8125 33.0414 38.8125C32.6715 38.8125 32.409 38.896 32.23 39.075C32.0511 39.2539 31.9675 39.5284 31.9675 39.8982V41.2942C31.9675 41.4613 31.9914 41.6164 32.0272 41.7596C32.063 41.8908 32.1226 42.0101 32.2062 42.0936C32.2897 42.1891 32.3971 42.2607 32.5164 42.3084C32.6476 42.3561 32.8027 42.38 32.9817 42.38C33.1845 42.38 33.3635 42.3561 33.5067 42.3084C33.6499 42.2607 33.7692 42.1891 33.8647 42.1056C33.9601 42.0221 34.0198 41.9147 34.0675 41.7954C34.1152 41.676 34.1271 41.5448 34.1271 41.3897V40.9721H33.3277V41.2823V41.2942Z" fill="#6C757D"/>
<path d="M35.2368 40.9005H36.239V40.2204H35.2368V39.6H36.2629V38.9199H34.4373V42.3204H36.3225V41.6403H35.2368V40.9005Z" fill="#6C757D"/>
<path d="M38.7925 41.9385C38.7925 41.8431 38.7925 41.7476 38.7805 41.6403C38.7805 41.5329 38.7805 41.4374 38.7686 41.342C38.7686 41.2465 38.7686 41.163 38.7567 41.0914C38.7567 40.9721 38.7089 40.8766 38.6373 40.805C38.5658 40.7335 38.4703 40.6738 38.3629 40.6499C38.53 40.5664 38.6373 40.459 38.697 40.3278C38.7567 40.1965 38.7805 40.0414 38.7805 39.8625C38.7805 39.5284 38.697 39.2778 38.5419 39.1346C38.3748 38.9915 38.1362 38.9199 37.8021 38.9199H36.6328V42.3204H37.4323V40.984H37.6948C37.7902 40.984 37.8499 41.0198 37.8976 41.0914C37.9334 41.1511 37.9572 41.2346 37.9692 41.342C37.9811 41.4494 37.9811 41.5687 37.9811 41.6999C37.9811 41.8312 37.9811 41.9743 37.9811 42.1295C37.9811 42.1652 37.9811 42.1891 37.993 42.2249C37.993 42.2607 38.005 42.2846 38.0169 42.3204H38.8879V42.2726C38.8879 42.2726 38.8282 42.201 38.8163 42.1533C38.8044 42.0937 38.7925 42.0221 38.7925 41.9266V41.9385ZM37.9811 40.1011C37.9811 40.1011 37.9572 40.1965 37.9334 40.2323C37.9095 40.2681 37.8857 40.3039 37.8499 40.3278C37.8141 40.3516 37.7663 40.3636 37.7067 40.3636H37.4323V39.5284C37.5277 39.5284 37.6112 39.5284 37.6828 39.5284C37.7544 39.5284 37.8141 39.5522 37.8618 39.5761C37.9095 39.6 37.9453 39.6477 37.9572 39.7073C37.9811 39.767 37.993 39.8386 37.993 39.946C37.993 39.9937 37.993 40.0534 37.993 40.1011H37.9811Z" fill="#6C757D"/>
<path d="M39.0429 39.6H39.6753V42.3204H40.4747V39.6H41.119V38.9199H39.0429V39.6Z" fill="#6C757D"/>
<path d="M42.2048 38.9199H41.4054V42.3204H42.2048V38.9199Z" fill="#6C757D"/>
<path d="M42.5867 42.3204H43.3742V40.8766H44.3645V40.2085H43.3742V39.6H44.46V38.9199H42.5867V42.3204Z" fill="#6C757D"/>
<path d="M45.5816 38.9199H44.7822V42.3204H45.5816V38.9199Z" fill="#6C757D"/>
<path d="M46.7509 40.9005H47.7531V40.2204H46.7509V39.6H47.777V38.9199H45.9514V42.3204H47.8366V41.6403H46.7509V40.9005Z" fill="#6C757D"/>
<path d="M50.2111 39.4449C50.1872 39.3733 50.1514 39.3017 50.1037 39.242C50.056 39.1824 49.9963 39.1227 49.9128 39.0869C49.7816 39.0153 49.6384 38.9676 49.4713 38.9557C49.3043 38.9437 49.1611 38.9318 49.006 38.9318H48.1469V42.3323H49.2208C49.3401 42.3323 49.4713 42.3323 49.5907 42.3084C49.71 42.2846 49.8293 42.2488 49.9248 42.1772C50.0441 42.1056 50.1276 42.0101 50.1753 41.8908C50.235 41.7715 50.2588 41.6164 50.2588 41.4494V39.946C50.2588 39.8625 50.2588 39.7789 50.2469 39.7073C50.2469 39.6238 50.223 39.5522 50.1992 39.4806L50.2111 39.4449ZM49.4833 41.0675C49.4833 41.1869 49.4833 41.2823 49.4833 41.3658C49.4833 41.4494 49.4594 41.5209 49.4236 41.5687C49.3878 41.6164 49.3401 41.6641 49.2685 41.6761C49.1969 41.6999 49.0895 41.6999 48.9583 41.6999V39.5284C49.0537 39.5284 49.1373 39.5284 49.1969 39.5403C49.2685 39.5403 49.3162 39.5642 49.352 39.6C49.3878 39.6238 49.4236 39.6715 49.4475 39.7312C49.4714 39.7909 49.4713 39.8625 49.4713 39.9698V41.0795L49.4833 41.0675Z" fill="#6C757D"/>
<path d="M25.5126 36.7364C25.441 36.4023 25.2262 35.9727 24.8206 35.8057L25.2143 35.6625L25.0831 35.0421L23.0547 35.4597L23.3769 37.0227L24.0927 36.8795L23.9496 36.1994C24.2956 36.1994 24.5819 36.4619 24.6893 36.9392C24.8206 37.5596 24.3194 37.9176 23.7587 38.025C23.1979 38.1443 22.6132 38.013 22.482 37.3926C22.3985 36.9989 22.5297 36.6528 22.8399 36.5574L22.6371 35.5909C21.7184 35.8654 21.4797 36.7722 21.6348 37.5358C21.8615 38.6573 22.8638 39.2062 23.9496 38.9914C25.0234 38.7767 25.7393 37.8699 25.5007 36.7483L25.5126 36.7364Z" fill="#6C757D"/>
<path d="M23.186 35.0302C24.2837 35.054 25.1666 34.3978 25.2024 33.2046C25.2263 32.0234 24.3672 31.3194 23.2695 31.2956C22.1718 31.2717 21.2889 31.928 21.2531 33.1211C21.2292 34.3023 22.0883 35.0063 23.186 35.0302ZM23.2457 32.2859C23.8184 32.2978 24.3672 32.5484 24.3553 33.1927C24.3434 33.8251 23.7826 34.0637 23.2099 34.0518C22.6371 34.0398 22.0883 33.7893 22.1002 33.145C22.1122 32.5126 22.6729 32.274 23.2457 32.2859Z" fill="#6C757D"/>
<path d="M23.3172 30.9138C24.3791 31.1882 25.3933 30.7467 25.6916 29.6013C25.9899 28.4559 25.3098 27.5729 24.2479 27.2985C23.186 27.0241 22.1718 27.4655 21.8735 28.611C21.5752 29.7564 22.2553 30.6393 23.3172 30.9138ZM22.6968 28.8257C22.8519 28.2053 23.4604 28.1098 24.0093 28.253C24.5581 28.3962 25.0354 28.7661 24.8803 29.3865C24.7252 30.007 24.1167 30.1024 23.5678 29.9592C23.0189 29.8161 22.5417 29.4462 22.6968 28.8257Z" fill="#6C757D"/>
<path d="M26.8967 26.2247C27.4336 25.2105 27.1592 24.2679 26.0615 23.6952C25.0234 23.1583 24.0808 23.4446 23.532 24.4707L22.7803 25.9145L26.133 27.6684L26.8847 26.2247H26.8967ZM25.8467 26.4037L23.9973 25.4372L24.2121 25.0196C24.5223 24.423 24.9876 24.244 25.608 24.5662C26.2762 24.9122 26.3955 25.3179 26.0734 25.9861L25.8586 26.4037H25.8467Z" fill="#6C757D"/>
<path d="M29.8796 22.1321L28.0302 19.9367L30.5 21.6191L31.0727 21.1299L29.8318 18.4214V18.4095L31.6932 20.6049L32.3971 20.0083L29.9512 17.1209L28.8415 18.0515L29.975 20.4021L29.9631 20.414L27.8393 18.8987L26.7296 19.8413L29.1756 22.7287L29.8796 22.1321Z" fill="#6C757D"/>
<path d="M33.4113 19.543L33.3397 18.8271L34.5329 18.2544L35.034 18.7674L35.9647 18.326L33.0653 15.5101L32.1585 15.9397L32.5045 19.9606L33.4233 19.5311L33.4113 19.543ZM33.0534 16.6794L33.996 17.6936L33.2204 18.0635L33.0414 16.6794H33.0534Z" fill="#6C757D"/>
<path d="M36.9788 18.1231L36.4777 15.8203H36.4896L38.2794 17.8487L39.2697 17.6339L38.4583 13.9352L37.5635 14.1261L38.0527 16.405H38.0407L36.2629 14.4124L35.2726 14.6272L36.072 18.326L36.9788 18.1231Z" fill="#6C757D"/>
<path d="M41.1787 17.6936C42.3242 17.7175 42.8372 17.1806 42.8492 16.0829L42.885 13.8636H41.8946L41.8588 16.1306C41.8588 16.6198 41.6679 16.8584 41.1787 16.8584C40.6895 16.8584 40.5225 16.5959 40.5344 16.1067L40.5702 13.8278H39.5799L39.5441 16.0351C39.5203 17.1328 40.0214 17.6817 41.1668 17.7055L41.1787 17.6936Z" fill="#6C757D"/>
<path d="M44.3764 16.4646L45.9036 16.7868L46.0588 16.0351L44.5315 15.713L44.6866 14.9613L46.4525 15.3311L46.6195 14.5556L43.8872 13.9829L43.1117 17.6936L44.0781 17.8964L44.3764 16.4646Z" fill="#6C757D"/>
<path d="M46.2735 18.4453L46.7508 17.9084L47.9678 18.4095L47.932 19.1254L48.8865 19.5191L49.0058 15.4743L48.0752 15.0925L45.3309 18.0635L46.2735 18.4453ZM48.1348 16.2618L48.0274 17.6459L47.228 17.3237L48.1229 16.2618H48.1348Z" fill="#6C757D"/>
<path d="M50.211 20.5811C50.9985 21.1299 51.9053 21.0703 52.5138 20.2947L51.7024 19.7339C51.4161 20.068 51.0581 20.1396 50.6763 19.8771C50.1513 19.5191 50.2706 18.9226 50.5928 18.4572C50.9149 17.9919 51.4399 17.6698 51.953 18.0396C52.299 18.2783 52.4183 18.6123 52.2513 18.9584L53.0626 19.5191C53.5638 18.7555 53.1342 17.8249 52.4661 17.3595C51.5235 16.7033 50.4138 17.0016 49.7934 17.8965C49.161 18.7913 49.2684 19.9368 50.211 20.593V20.5811Z" fill="#6C757D"/>
<path d="M52.2036 22.1202L52.8956 22.8361L54.9956 20.7958L55.7831 21.6072L56.3916 21.0106L54.1365 18.6839L53.528 19.2686L54.3155 20.0799L52.2036 22.1202Z" fill="#6C757D"/>
<path d="M54.4824 25.0554C55.091 26.0218 55.8307 26.1531 56.7494 25.5684L58.6227 24.3753L58.0977 23.5401L56.1767 24.7571C55.7591 25.0196 55.4608 25.0076 55.1983 24.59C54.9358 24.1844 55.0552 23.898 55.4608 23.6355L57.3818 22.4185L56.8568 21.5833L54.9836 22.7764C54.0529 23.3611 53.862 24.077 54.4824 25.0434V25.0554Z" fill="#6C757D"/>
<path d="M55.8785 27.5849L57.179 27.1195L57.4296 27.8235C57.5847 28.265 57.2387 28.4559 56.8926 28.5991C56.7972 28.6468 56.4631 28.79 56.3677 28.9093L56.7017 29.828C56.7972 29.649 57.2983 29.4581 57.4534 29.3865C57.7875 29.2434 58.1574 28.9689 58.1216 28.5633C58.4079 28.8854 58.8375 28.9331 59.2193 28.79C59.9352 28.5275 59.9949 27.7996 59.7682 27.1792L59.1119 25.3656L55.5563 26.6542L55.8904 27.5849H55.8785ZM58.7062 26.5707L58.9687 27.3104C59.0642 27.5729 59.0165 27.8235 58.754 27.919C58.4795 28.0144 58.2767 27.919 58.1813 27.6445L57.8949 26.869L58.6943 26.5826L58.7062 26.5707Z" fill="#6C757D"/>
<path d="M60.3967 29.5148L56.6766 30.1983L56.8556 31.1723L60.5756 30.4889L60.3967 29.5148Z" fill="#6C757D"/>
<path d="M57.012 32.5007L59.3744 32.4529V32.4649L57.0359 33.8251L57.0597 34.8392L60.842 34.7557L60.8301 33.8251L58.4915 33.8847V33.8728L60.7943 32.5007L60.7704 31.4984L56.9881 31.57L57.012 32.5007Z" fill="#6C757D"/>
<path d="M58.933 35.3404C57.8591 35.1256 56.8569 35.6625 56.6182 36.796C56.5467 37.1301 56.5824 37.6074 56.8927 37.9295L56.4751 37.9057L56.3438 38.5261L58.3722 38.9437L58.6943 37.3807L57.9784 37.2375L57.8353 37.9176C57.5131 37.7863 57.3461 37.4284 57.4534 36.9511C57.5847 36.3307 58.1813 36.1994 58.7301 36.3188C59.2909 36.4381 59.7801 36.7841 59.6488 37.4045C59.5653 37.7983 59.3148 38.0608 58.9926 38.0369L58.7898 39.0034C59.7443 39.1107 60.317 38.371 60.4721 37.5954C60.6988 36.4739 59.9949 35.5671 58.921 35.3523L58.933 35.3404Z" fill="#6C757D"/>
<path d="M27.6722 42.4516H26.2763L25.8467 41.1272L25.4172 42.4516H24.0331L25.1547 43.2629L24.7251 44.5873L25.8467 43.7641L26.9683 44.5873L26.5387 43.2629L27.6722 42.4516Z" fill="#6C757D"/>
<path d="M56.296 43.7641L57.4295 44.5873L57 43.2629L58.1215 42.4516H56.7256L56.296 41.1272L55.8665 42.4516H54.4824L55.604 43.2629L55.1744 44.5873L56.296 43.7641Z" fill="#6C757D"/>
<path d="M51.3086 36.9273H30.834V37.2136H51.3086V36.9273Z" fill="#6C757D"/>
<path d="M60.1619 45.5657C62.3573 42.0817 63.6459 37.9773 63.6459 33.5745C63.6459 21.1299 53.516 11 41.0714 11C28.6268 11 18.4969 21.1299 18.4969 33.5745C18.4969 37.9773 19.7855 42.0817 21.9809 45.5657L14.5714 58.4041L27.016 56.5189L31.6096 68.2357L38.6612 56.0178C39.4487 56.1013 40.26 56.149 41.0714 56.149C41.8827 56.149 42.6941 56.1013 43.4816 56.0178L50.5331 68.2357L55.1268 56.5189L67.5714 58.4041L60.1619 45.5657ZM19.6304 33.5745C19.6304 21.7503 29.2472 12.1335 41.0714 12.1335C52.8956 12.1335 62.5124 21.7503 62.5124 33.5745C62.5124 45.3987 52.8956 55.0155 41.0714 55.0155C29.2472 55.0155 19.6304 45.3987 19.6304 33.5745Z" fill="#6C757D"/>
<path d="M41.0713 18.7078C32.8743 18.7078 26.2046 25.3775 26.2046 33.5745C26.2046 41.7715 32.8743 48.4412 41.0713 48.4412C49.2683 48.4412 55.938 41.7715 55.938 33.5745C55.938 25.3775 49.2683 18.7078 41.0713 18.7078ZM41.0713 47.3077C33.4948 47.3077 27.3381 41.1511 27.3381 33.5745C27.3381 25.998 33.4948 19.8413 41.0713 19.8413C48.6479 19.8413 54.8045 25.998 54.8045 33.5745C54.8045 41.1511 48.6479 47.3077 41.0713 47.3077Z" fill="#6C757D"/>
</svg>
