<svg width="81" height="80" viewBox="0 0 81 80" fill="none" xmlns="http://www.w3.org/2000/svg">
<path d="M68.2939 28.2676C67.7511 26.841 66.6401 25.5659 65.2766 24.657C61.363 22.1699 55.3916 21.9932 51.3517 24.2403C49.155 25.3639 47.7032 27.5859 47.2487 29.8709C46.4281 33.6331 46.6427 38.1022 49.5338 40.9174C52.9045 43.8716 57.8281 44.5281 62.1962 43.3161C62.3982 43.2782 63.0673 43.1141 63.5092 42.8743L63.6354 42.8238C64.9863 42.2557 66.2866 41.3467 67.2461 40.0968C69.4806 36.8397 69.6321 31.954 68.2687 28.2802M61.1863 36.7008C61.0348 37.4078 60.555 38.1527 59.7975 38.4178C58.5982 38.948 56.9696 38.7965 55.8461 38.1779C54.9118 37.5214 54.7856 36.4357 54.672 35.3879C54.5836 33.3427 54.4321 31.1839 55.0002 29.3154C55.4547 28.154 56.6793 27.8636 57.8029 27.7752C58.9769 27.7752 60.1258 27.952 60.8454 28.8988C61.2999 29.5806 61.2746 30.4643 61.363 31.2723C61.3251 32.9639 61.4766 34.9713 61.1863 36.6882M25.4713 38.544C24.4739 38.4809 23.363 38.5693 22.4035 38.4557L22.4287 28.0656L22.4919 27.9772L25.4713 27.952C25.4965 26.2603 25.5344 24.455 25.446 22.9148L14.0839 22.8769L12.2154 22.9148C12.1902 24.4802 12.1902 26.3234 12.2154 27.9141C13.238 27.952 14.1975 27.9141 15.1948 28.0025V38.0769L15.1696 38.4935L12.1902 38.5566C12.1271 40.1852 12.1271 41.8138 12.1902 43.4424H25.4839V38.5566L25.4713 38.544ZM58.9264 45.6517C57.664 47.457 56.0607 49.2118 54.3185 50.5626C54.2553 50.651 54.0786 50.6258 54.0155 50.5374C53.258 50.0703 52.45 49.6789 51.7178 49.2118C52.6773 48.063 53.6241 46.9015 54.3437 45.6264H53.4095C52.6646 46.7248 51.8693 47.8862 50.8846 48.8583C49.559 48.3281 48.347 47.8484 46.9962 47.4949L46.8447 47.3812C47.0593 46.7879 47.4507 46.2198 47.5643 45.6264H46.7563L45.9484 47.2297C44.1683 46.851 42.2115 46.6364 40.4062 46.5228C40.3178 46.2577 40.4314 45.8663 40.3178 45.639H39.5351C39.4719 45.9925 39.6234 46.2577 39.4467 46.5606C37.5783 46.649 35.7729 46.851 34.0181 47.2171L33.1975 45.639C32.8945 45.639 32.5663 45.5885 32.3517 45.6769L33.1091 47.4191L33.0208 47.5075C31.67 47.8988 30.3444 48.366 29.044 48.8962L28.9304 48.8331C28.0846 47.9115 27.2766 46.9141 26.6075 45.9042C26.456 45.3992 25.85 45.6895 25.5218 45.639C26.2414 46.9394 27.2135 48.1008 28.1729 49.2876C27.3649 49.7673 26.5444 50.2975 25.6985 50.6763C23.8553 49.2749 22.252 47.5832 20.939 45.6769C20.5729 45.6138 20.3331 45.639 19.9796 45.6769C22.151 49.0477 25.5218 52.0145 29.0567 53.7567C29.0567 53.7567 29.0567 53.7314 29.0945 53.7314C29.1198 53.7314 29.1829 53.7819 29.1198 53.8198C31.5058 54.9813 34.0307 55.8018 36.7198 56.1553C45.9736 57.3673 54.7982 53.4284 59.9238 45.6643C59.6082 45.6264 59.2799 45.6264 58.9643 45.6643M46.3524 48.3155L46.4407 48.2523C47.7411 48.5427 48.9783 48.9593 50.1145 49.5274C49.155 50.6258 47.9178 51.5726 46.769 52.368C46.0746 52.7846 45.3803 53.2264 44.6607 53.5799L43.3729 53.0118L43.4613 52.8098C44.547 51.358 45.5191 49.8809 46.3524 48.3028M40.4188 47.4191C42.1357 47.457 43.8527 47.6337 45.456 48.0125L45.4939 48.1008C44.648 49.7042 43.6002 51.2444 42.4514 52.6836C41.9338 52.7467 41.454 52.5447 40.949 52.5068L40.4314 52.4437C40.3683 50.7015 40.343 49.1613 40.4314 47.4065M34.5989 47.9493C36.1643 47.659 37.7929 47.4191 39.4846 47.4191L39.5098 52.4311C38.8786 52.57 38.1842 52.57 37.5783 52.7214C36.3411 51.2696 35.3184 49.6915 34.4473 48.063L34.5989 47.9493ZM29.751 49.5527C30.9251 48.9846 32.1623 48.568 33.4248 48.2523L33.551 48.2776C34.4221 49.9062 35.5078 51.4464 36.5935 52.9866C36.1769 53.2264 35.6593 53.3653 35.2427 53.6052C33.2101 52.5952 31.3543 51.257 29.751 49.641V49.5527ZM33.6394 54.6151C31.1018 53.9587 28.7537 52.8351 26.5822 51.2949V51.2065C27.3018 50.7646 28.0341 50.2849 28.8168 49.9567C30.5337 51.6484 32.3138 52.9234 34.2454 54.1354C34.0939 54.3121 33.854 54.4889 33.6394 54.6151ZM44.8122 55.0065C41.6181 55.6882 38.058 55.7135 34.864 54.956C34.8008 54.8045 35.0155 54.7793 35.1038 54.6909C37.9065 52.8856 42.2746 52.8856 45.0142 54.8298C45.1025 55.0065 44.8627 54.956 44.7995 55.0065M47.7158 54.1733L46.3018 54.6151C46.062 54.5015 45.8474 54.3248 45.6327 54.1354L45.6959 54.047C47.6274 52.9234 49.3696 51.56 51.0361 49.9314C51.844 50.2596 52.6394 50.7015 53.359 51.2065C51.6673 52.5447 49.7105 53.4284 47.7158 54.1733ZM20.8633 20.6171C21.6081 19.5819 22.4287 18.6098 23.2998 17.6882C24.0826 16.9433 24.8022 16.2364 25.648 15.7061C26.4307 16.2111 27.3018 16.6277 28.0593 17.0948C27.1251 18.2437 26.1656 19.4051 25.4713 20.6423C25.6859 20.7307 26.0772 20.7055 26.3802 20.6423C27.1377 19.544 27.9457 18.4583 28.9178 17.4736C30.2055 17.9533 31.4806 18.4457 32.8062 18.8118L32.9198 18.9254L32.1749 20.6423C32.5032 20.7055 32.7178 20.6802 33.046 20.6423C33.3111 20.1374 33.5258 19.5819 33.8288 19.0769C35.5836 19.4683 37.4141 19.6702 39.2826 19.7334C39.5224 19.948 39.3457 20.3898 39.4341 20.655H40.2421C40.3304 20.3646 40.2168 20.0364 40.3304 19.7712C42.0852 19.6829 43.9158 19.5061 45.6075 19.0895L45.759 19.1148L46.567 20.655C46.8447 20.655 47.1982 20.7181 47.4128 20.5918L46.6554 18.8749L46.7185 18.8118C48.1072 18.4583 49.3949 17.928 50.7205 17.3852C51.6547 18.3573 52.5258 19.5187 53.3211 20.6423C53.6494 20.6423 53.9776 20.6802 54.2301 20.5792C53.864 19.9227 53.4221 19.2915 52.9298 18.7108C52.5258 18.1427 52.0839 17.6124 51.6042 17.1201V16.9686L53.7125 15.7566L54.0155 15.643C55.846 17.0317 57.462 18.6981 58.775 20.5918C59.1411 20.5918 59.4441 20.7181 59.7471 20.5666C55.7072 14.532 49.0414 10.6437 41.8454 10.0882L41.8075 10.1513L41.7444 10.0882C40.9364 9.9998 39.9391 9.96193 39.0553 10.0503C38.7271 10.025 38.3357 10.0503 37.9444 10.0882C30.7105 10.6437 24.0573 14.3553 19.8912 20.655C20.1942 20.6297 20.5603 20.7433 20.8507 20.6297M33.3616 18.0164L33.2354 18.0417C31.9982 17.7134 30.7862 17.3347 29.65 16.8297L29.7131 16.653C31.3669 15.0875 33.1218 13.7746 35.0533 12.7772C35.5078 12.954 35.9623 13.1055 36.4168 13.3074L36.3284 13.5347C35.1796 14.9613 34.2832 16.5015 33.3743 18.0164M39.3583 18.8118C38.5125 18.9254 37.7676 18.7865 36.9218 18.7234C36.1138 18.6098 35.0912 18.5214 34.2706 18.2437C35.1417 16.6277 36.1769 15.0496 37.4015 13.5978L39.3331 13.8629C39.4215 15.4031 39.3583 17.1832 39.3583 18.8118ZM40.2925 18.8496C40.2294 17.2716 40.2673 15.5294 40.2925 13.9008C40.8985 13.8124 41.555 13.7241 42.161 13.6357C43.3351 15.1128 44.4839 16.6277 45.2666 18.2563C43.6381 18.6477 41.9716 18.8496 40.2925 18.8496ZM49.9125 16.7666C48.7384 17.2716 47.5264 17.7387 46.2387 18.0164C45.3045 16.451 44.2819 14.8729 43.1331 13.3579C43.5497 13.1307 44.0673 12.954 44.5218 12.7141C46.4786 13.6862 48.3849 15.0749 49.9756 16.6782L49.9125 16.7666ZM46.0494 11.7041C48.5869 12.3606 50.9603 13.4842 53.1318 15.0244L53.0686 15.138L50.9856 16.2869H50.8341C49.2434 14.6962 47.375 13.3074 45.4686 12.2091C45.5318 12.0071 45.8347 11.8556 46.0367 11.7041M44.85 11.4138V11.4769C42.2241 13.3706 37.9822 13.5473 35.2048 11.7925C35.0533 11.6789 34.7503 11.6157 34.7251 11.4138C37.9191 10.6815 41.6813 10.6184 44.85 11.4138ZM26.4686 15.0875C28.3749 13.6988 30.4832 12.6636 32.7052 11.944C32.7935 11.8556 32.8567 11.7672 32.9703 11.7672V11.8304C33.2101 11.8935 33.3869 11.6157 33.6015 11.7925C33.7782 11.944 33.9929 12.0576 34.1444 12.2091C32.2759 13.3579 30.4327 14.7214 28.7537 16.3878C27.9457 16.0975 27.1882 15.6556 26.4686 15.1506V15.0875ZM39.3962 38.7713C36.5683 39.5414 33.4879 38.9606 31.4427 36.8144C31.2028 36.5241 31.0513 36.1706 30.8115 35.8676L26.7464 35.8929C26.6832 38.2915 26.658 41.0437 26.7464 43.4171L31.266 43.3919L31.3291 41.9653C31.8467 42.2052 32.3517 42.4955 32.8693 42.7606C36.0002 44.061 40.04 44.364 43.1457 42.7606C45.4055 41.5234 46.6175 39.1248 46.2766 36.5367C45.9484 34.0244 43.5371 31.7394 41.1005 31.1208L33.8035 29.0124L33.2607 28.7473C33.0208 28.5453 32.8693 28.2802 32.9324 27.952C33.5005 26.9799 34.8387 27.2703 35.8234 27.2955C37.9318 27.5985 40.1032 28.3055 41.3404 30.2244C42.666 30.2244 44.2062 30.2497 45.6454 30.1992C45.7085 27.7752 45.6201 25.6417 45.5823 23.1799C44.2314 23.1546 42.565 23.1546 41.2141 23.2051C41.151 23.5586 41.2773 24.0636 41.1258 24.4171L39.7371 23.6722C36.4168 22.2835 31.7836 22.132 28.7663 24.3035C26.8095 25.7174 26.2035 28.2676 26.7211 30.5274C27.1125 32.661 29.1576 34.2264 31.1145 34.9713C33.7909 35.9181 36.5935 36.5998 39.3204 37.5214C39.5856 37.6477 39.9517 37.9128 39.8886 38.241C39.8886 38.5061 39.6108 38.6576 39.4088 38.7713" fill="#6C757D"/>
<path d="M24.4865 69.5627V63.0105C24.0825 63.1999 23.3376 63.3514 22.9084 63.3892V61.9627C23.7416 61.8112 24.5749 61.3314 25.0798 60.7886H26.4307V69.5627H24.4991H24.4865Z" fill="#6C757D"/>
<path d="M28.1475 63.061C28.2738 61.9879 29.0312 60.6497 31.2153 60.6497C33.2479 60.6497 34.1442 61.7985 34.1442 63.0357C34.1442 64.0962 33.5382 64.5886 33.0585 64.8158V64.8537C33.6266 65.0683 34.4851 65.6112 34.4851 66.962C34.4851 68.2244 33.715 69.7268 31.2027 69.7268C28.8545 69.7268 28.0592 68.3128 27.9708 67.1514H29.8266C29.9402 67.7573 30.3568 68.2623 31.2658 68.2623C32.1748 68.2623 32.5788 67.6942 32.5788 66.9241C32.5788 66.154 32.1621 65.6238 31.1396 65.6238H30.3442V64.1593H31.0386C31.9097 64.1593 32.2631 63.869 32.2631 63.1367C32.2631 62.5308 31.9096 62.1268 31.1522 62.1268C30.2685 62.1268 30.0538 62.6191 29.9528 63.061H28.1349H28.1475Z" fill="#6C757D"/>
<path d="M39.6739 69.5627V67.5932H35.7098V65.9268L39.3709 60.7886H41.4413V66.0404H42.5018L42.3251 67.5806H41.4413V69.55H39.6739V69.5627ZM39.6739 64.5002C39.6739 63.5534 39.6739 63.0231 39.7118 62.4676C39.3583 63.1999 38.2221 64.8663 37.4015 66.053H39.6739V64.4876V64.5002Z" fill="#6C757D"/>
<path d="M43.4612 67.0504C43.4612 65.9268 44.2439 65.245 44.9004 64.9547C44.2313 64.5381 43.8147 64.0078 43.8147 63.1241C43.8147 61.6344 44.9004 60.6497 46.8698 60.6497C48.6752 60.6497 49.8619 61.5839 49.8619 63.0989C49.8619 64.1088 49.3443 64.6012 48.7509 64.8537C49.3821 65.0935 50.1775 65.8258 50.1775 66.9872C50.1775 68.7926 48.7383 69.7268 46.731 69.7268C44.9383 69.7268 43.4612 68.7799 43.4612 67.0504ZM48.2712 66.962C48.2712 66.0909 47.6778 65.6995 46.8193 65.6995C45.8599 65.6995 45.3801 66.2171 45.3801 66.962C45.3801 67.7447 45.9609 68.2623 46.8572 68.2623C47.6778 68.2623 48.2712 67.871 48.2712 66.9746V66.962ZM45.62 63.1872C45.62 63.7806 46.0492 64.172 46.8446 64.172C47.6399 64.172 48.0439 63.869 48.0439 63.1872C48.0439 62.5055 47.6021 62.1141 46.8193 62.1141C46.0366 62.1141 45.6074 62.4929 45.6074 63.1872H45.62Z" fill="#6C757D"/>
<path d="M57.2853 62.3666H53.7756C53.7125 62.8337 53.5736 63.6796 53.5105 64.0331C53.8387 63.768 54.3311 63.566 55.0886 63.566C56.8181 63.566 57.7902 64.8158 57.7902 66.4823C57.7902 68.1487 56.8686 69.7394 54.4952 69.7394C52.7656 69.7394 51.4906 68.8557 51.3012 67.2902H53.2075C53.3716 67.8962 53.8009 68.2876 54.5457 68.2876C55.4547 68.2876 55.8839 67.6185 55.8839 66.659C55.8839 65.7374 55.5431 65.0936 54.5457 65.0936C53.7251 65.0936 53.3969 65.447 53.2075 65.9646L51.4906 65.7374C51.7178 64.6264 52.0965 62.0258 52.248 60.8138H57.5882L57.3231 62.3666H57.2853Z" fill="#6C757D"/>
</svg>
