<svg width="80" height="80" viewBox="0 0 80 80" fill="none" xmlns="http://www.w3.org/2000/svg">
<path d="M68.1511 28.2676C67.6082 26.841 66.4972 25.5659 65.1338 24.657C61.2202 22.1699 55.2487 21.9932 51.2088 24.2403C49.0122 25.3639 47.5603 27.5859 47.1058 29.8709C46.2852 33.6331 46.4999 38.1022 49.3909 40.9174C52.7617 43.8716 57.6853 44.5281 62.0534 43.3161C62.2554 43.2782 62.9245 43.1141 63.3663 42.8743L63.4926 42.8238C64.8434 42.2557 66.1437 41.3467 67.1032 40.0968C69.3378 36.8397 69.4893 31.954 68.1258 28.2802M61.0434 36.7008C60.8919 37.4078 60.4122 38.1527 59.6547 38.4178C58.4554 38.948 56.8268 38.7965 55.7032 38.1779C54.769 37.5214 54.6427 36.4357 54.5291 35.3879C54.4407 33.3427 54.2892 31.1839 54.8573 29.3154C55.3118 28.154 56.5364 27.8636 57.66 27.7752C58.8341 27.7752 59.9829 27.952 60.7025 28.8988C61.157 29.5806 61.1318 30.4643 61.2201 31.2723C61.1823 32.9639 61.3338 34.9713 61.0434 36.6882M25.3284 38.544C24.3311 38.4809 23.2201 38.5693 22.2606 38.4556L22.2859 28.0656L22.349 27.9772L25.3284 27.952C25.3537 26.2603 25.3915 24.455 25.3032 22.9148L13.941 22.8769L12.0726 22.9148C12.0473 24.4802 12.0473 26.3234 12.0726 27.9141C13.0952 27.952 14.0546 27.9141 15.052 28.0025V38.0769L15.0267 38.4935L12.0473 38.5566C11.9842 40.1852 11.9842 41.8138 12.0473 43.4424H25.341V38.5566L25.3284 38.544ZM58.7836 45.6517C57.5211 47.457 55.9178 49.2118 54.1756 50.5626C54.1125 50.651 53.9357 50.6258 53.8726 50.5374C53.1151 50.0703 52.3072 49.6789 51.575 49.2118C52.5344 48.063 53.4813 46.9015 54.2009 45.6264H53.2666C52.5218 46.7248 51.7264 47.8862 50.7417 48.8583C49.4161 48.3281 48.2042 47.8484 46.8534 47.4949L46.7019 47.3812C46.9165 46.7879 47.3078 46.2198 47.4215 45.6264H46.6135L45.8055 47.2297C44.0254 46.851 42.0686 46.6364 40.2633 46.5228C40.1749 46.2577 40.2886 45.8663 40.1749 45.639H39.3922C39.3291 45.9925 39.4806 46.2577 39.3038 46.5606C37.4354 46.649 35.6301 46.851 33.8753 47.2171L33.0547 45.639C32.7517 45.639 32.4234 45.5885 32.2088 45.6769L32.9663 47.4191L32.8779 47.5075C31.5271 47.8989 30.2015 48.366 28.9012 48.8962L28.7876 48.8331C27.9417 47.9115 27.1337 46.9141 26.4646 45.9042C26.3131 45.3992 25.7072 45.6895 25.3789 45.639C26.0985 46.9394 27.0706 48.1008 28.0301 49.2876C27.2221 49.7673 26.4015 50.2975 25.5557 50.6763C23.7125 49.2749 22.1091 47.5832 20.7962 45.6769C20.4301 45.6138 20.1902 45.639 19.8367 45.6769C22.0081 49.0477 25.3789 52.0145 28.9138 53.7567C28.9138 53.7567 28.9138 53.7314 28.9517 53.7314C28.9769 53.7314 29.04 53.7819 28.9769 53.8198C31.363 54.9813 33.8879 55.8018 36.5769 56.1553C45.8308 57.3673 54.6554 53.4284 59.7809 45.6643C59.4653 45.6264 59.1371 45.6264 58.8215 45.6643M46.2095 48.3155L46.2979 48.2523C47.5982 48.5427 48.8354 48.9593 49.9716 49.5274C49.0122 50.6258 47.775 51.5726 46.6261 52.368C45.9318 52.7846 45.2374 53.2264 44.5178 53.5799L43.2301 53.0118L43.3185 52.8098C44.4042 51.358 45.3763 49.8809 46.2095 48.3028M40.2759 47.4191C41.9929 47.457 43.7098 47.6337 45.3131 48.0125L45.351 48.1008C44.5052 49.7042 43.4573 51.2444 42.3085 52.6836C41.7909 52.7467 41.3112 52.5447 40.8062 52.5068L40.2886 52.4437C40.2254 50.7015 40.2002 49.1613 40.2886 47.4065M34.456 47.9493C36.0215 47.659 37.65 47.4191 39.3417 47.4191L39.367 52.4311C38.7357 52.5699 38.0414 52.5699 37.4354 52.7214C36.1982 51.2696 35.1756 49.6915 34.3045 48.063L34.456 47.9493ZM29.6081 49.5527C30.7822 48.9846 32.0194 48.568 33.2819 48.2523L33.4082 48.2776C34.2793 49.9062 35.365 51.4464 36.4507 52.9866C36.0341 53.2264 35.5165 53.3653 35.0999 53.6052C33.0673 52.5952 31.2115 51.257 29.6081 49.641V49.5527ZM33.4965 54.6151C30.959 53.9587 28.6108 52.8351 26.4394 51.2949V51.2065C27.159 50.7646 27.8912 50.2849 28.6739 49.9567C30.3909 51.6484 32.171 52.9234 34.1025 54.1354C33.951 54.3121 33.7111 54.4889 33.4965 54.6151ZM44.6693 55.0065C41.4753 55.6882 37.9151 55.7135 34.7211 54.956C34.658 54.8045 34.8726 54.7793 34.961 54.6909C37.7636 52.8856 42.1318 52.8856 44.8713 54.8298C44.9597 55.0065 44.7198 54.956 44.6567 55.0065M47.573 54.1733L46.159 54.6151C45.9191 54.5015 45.7045 54.3248 45.4899 54.1354L45.553 54.047C47.4846 52.9234 49.2268 51.56 50.8932 49.9314C51.7012 50.2596 52.4966 50.7015 53.2162 51.2065C51.5245 52.5447 49.5676 53.4284 47.573 54.1733ZM20.7204 20.6171C21.4653 19.5819 22.2859 18.6098 23.157 17.6882C23.9397 16.9433 24.6593 16.2364 25.5052 15.7061C26.2879 16.2111 27.159 16.6277 27.9165 17.0948C26.9822 18.2437 26.0228 19.4051 25.3284 20.6423C25.543 20.7307 25.9344 20.7055 26.2374 20.6423C26.9949 19.544 27.8028 18.4583 28.7749 17.4736C30.0626 17.9533 31.3377 18.4457 32.6633 18.8118L32.7769 18.9254L32.0321 20.6423C32.3603 20.7055 32.5749 20.6802 32.9032 20.6423C33.1683 20.1374 33.3829 19.5819 33.6859 19.0769C35.4407 19.4683 37.2713 19.6702 39.1397 19.7334C39.3796 19.948 39.2029 20.3898 39.2912 20.655H40.0992C40.1876 20.3646 40.0739 20.0364 40.1876 19.7712C41.9424 19.6829 43.773 19.5061 45.4647 19.0895L45.6161 19.1148L46.4241 20.655C46.7019 20.655 47.0553 20.7181 47.27 20.5918L46.5125 18.8749L46.5756 18.8118C47.9643 18.4583 49.252 17.928 50.5776 17.3852C51.5118 18.3573 52.3829 19.5187 53.1783 20.6423C53.5065 20.6423 53.8348 20.6802 54.0873 20.5792C53.7211 19.9227 53.2793 19.2915 52.7869 18.7108C52.3829 18.1427 51.9411 17.6124 51.4613 17.1201V16.9686L53.5696 15.7566L53.8726 15.643C55.7032 17.0317 57.3191 18.6981 58.6321 20.5918C58.9982 20.5918 59.3012 20.7181 59.6042 20.5666C55.5643 14.532 48.8985 10.6437 41.7025 10.0882L41.6646 10.1513L41.6015 10.0882C40.7935 9.9998 39.7962 9.96193 38.9125 10.0503C38.5842 10.025 38.1929 10.0503 37.8015 10.0882C30.5676 10.6437 23.9145 14.3553 19.7483 20.655C20.0513 20.6297 20.4175 20.7433 20.7078 20.6297M33.2188 18.0164L33.0925 18.0417C31.8553 17.7134 30.6434 17.3347 29.5072 16.8297L29.5703 16.653C31.2241 15.0875 32.9789 13.7746 34.9105 12.7772C35.365 12.954 35.8195 13.1055 36.274 13.3074L36.1856 13.5347C35.0367 14.9613 34.1404 16.5015 33.2314 18.0164M39.2155 18.8118C38.3696 18.9254 37.6248 18.7865 36.7789 18.7234C35.971 18.6098 34.9484 18.5214 34.1278 18.2437C34.9989 16.6277 36.0341 15.0496 37.2587 13.5978L39.1902 13.8629C39.2786 15.4031 39.2155 17.1832 39.2155 18.8118ZM40.1497 18.8496C40.0866 17.2716 40.1244 15.5294 40.1497 13.9008C40.7557 13.8124 41.4121 13.7241 42.0181 13.6357C43.1922 15.1128 44.3411 16.6277 45.1238 18.2563C43.4952 18.6477 41.8288 18.8496 40.1497 18.8496ZM49.7696 16.7666C48.5955 17.2716 47.3836 17.7387 46.0959 18.0164C45.1617 16.451 44.1391 14.8729 42.9902 13.3579C43.4068 13.1307 43.9245 12.954 44.3789 12.7141C46.3358 13.6862 48.2421 15.0749 49.8328 16.6782L49.7696 16.7666ZM45.9065 11.7041C48.4441 12.3606 50.8175 13.4842 52.9889 15.0244L52.9258 15.138L50.8427 16.2869H50.6912C49.1005 14.6962 47.2321 13.3074 45.3258 12.2091C45.3889 12.0071 45.6919 11.8556 45.8939 11.7041M44.7072 11.4138V11.4769C42.0813 13.3706 37.8394 13.5473 35.062 11.7925C34.9105 11.6789 34.6075 11.6157 34.5822 11.4138C37.7763 10.6815 41.5384 10.6184 44.7072 11.4138ZM26.3258 15.0875C28.2321 13.6988 30.3404 12.6636 32.5623 11.944C32.6507 11.8556 32.7138 11.7672 32.8274 11.7672V11.8304C33.0673 11.8935 33.244 11.6157 33.4587 11.7925C33.6354 11.944 33.85 12.0576 34.0015 12.2091C32.1331 13.3579 30.2899 14.7214 28.6108 16.3878C27.8028 16.0975 27.0454 15.6556 26.3258 15.1506V15.0875ZM39.2534 38.7713C36.4254 39.5414 33.345 38.9606 31.2999 36.8145C31.06 36.5241 30.9085 36.1706 30.6686 35.8676L26.6035 35.8929C26.5404 38.2915 26.5151 41.0437 26.6035 43.4171L31.1231 43.3919L31.1862 41.9653C31.7038 42.2052 32.2088 42.4955 32.7264 42.7606C35.8573 44.061 39.8972 44.364 43.0028 42.7606C45.2626 41.5234 46.4746 39.1248 46.1338 36.5367C45.8055 34.0244 43.3942 31.7394 40.9577 31.1208L33.6606 29.0124L33.1178 28.7473C32.8779 28.5453 32.7264 28.2802 32.7895 27.952C33.3577 26.9799 34.6959 27.2703 35.6806 27.2955C37.7889 27.5985 39.9603 28.3055 41.1975 30.2244C42.5231 30.2244 44.0633 30.2497 45.5025 30.1992C45.5657 27.7752 45.4773 25.6417 45.4394 23.1799C44.0886 23.1546 42.4221 23.1546 41.0713 23.2051C41.0082 23.5586 41.1344 24.0636 40.9829 24.4171L39.5942 23.6722C36.2739 22.2835 31.6407 22.132 28.6234 24.3035C26.6666 25.7174 26.0606 28.2676 26.5782 30.5274C26.9696 32.661 29.0148 34.2264 30.9716 34.9713C33.648 35.9181 36.4507 36.5998 39.1776 37.5214C39.4427 37.6477 39.8088 37.9128 39.7457 38.241C39.7457 38.5061 39.468 38.6576 39.266 38.7713" fill="white"/>
<path d="M24.3437 69.5627V63.0105C23.9397 63.1999 23.1949 63.3514 22.7656 63.3892V61.9627C23.5988 61.8112 24.4321 61.3314 24.9371 60.7886H26.2879V69.5627H24.3563H24.3437Z" fill="white"/>
<path d="M28.0047 63.061C28.131 61.9879 28.8885 60.6497 31.0725 60.6497C33.1051 60.6497 34.0014 61.7985 34.0014 63.0357C34.0014 64.0962 33.3954 64.5886 32.9157 64.8158V64.8537C33.4838 65.0683 34.3423 65.6112 34.3423 66.962C34.3423 68.2245 33.5722 69.7268 31.0599 69.7268C28.7117 69.7268 27.9164 68.3128 27.828 67.1514H29.6838C29.7974 67.7573 30.2141 68.2623 31.123 68.2623C32.032 68.2623 32.436 67.6942 32.436 66.9241C32.436 66.154 32.0194 65.6238 30.9968 65.6238H30.2014V64.1593H30.8958C31.7669 64.1593 32.1204 63.869 32.1204 63.1367C32.1204 62.5308 31.7669 62.1268 31.0094 62.1268C30.1257 62.1268 29.9111 62.6191 29.8101 63.061H27.9921H28.0047Z" fill="white"/>
<path d="M39.531 69.5627V67.5932H35.5669V65.9268L39.228 60.7886H41.2985V66.0404H42.3589L42.1822 67.5806H41.2985V69.55H39.531V69.5627ZM39.531 64.5002C39.531 63.5534 39.531 63.0231 39.5689 62.4676C39.2154 63.1999 38.0792 64.8663 37.2586 66.053H39.531V64.4876V64.5002Z" fill="white"/>
<path d="M43.3184 67.0504C43.3184 65.9268 44.1011 65.245 44.7576 64.9547C44.0885 64.5381 43.6719 64.0078 43.6719 63.1241C43.6719 61.6344 44.7576 60.6497 46.727 60.6497C48.5323 60.6497 49.719 61.5839 49.719 63.0989C49.719 64.1088 49.2014 64.6012 48.6081 64.8537C49.2393 65.0935 50.0347 65.8258 50.0347 66.9872C50.0347 68.7926 48.5955 69.7268 46.5881 69.7268C44.7955 69.7268 43.3184 68.7799 43.3184 67.0504ZM48.1283 66.962C48.1283 66.0909 47.535 65.6995 46.6765 65.6995C45.717 65.6995 45.2373 66.2171 45.2373 66.962C45.2373 67.7447 45.818 68.2623 46.7144 68.2623C47.535 68.2623 48.1283 67.871 48.1283 66.9746V66.962ZM45.4772 63.1872C45.4772 63.7806 45.9064 64.172 46.7018 64.172C47.4971 64.172 47.9011 63.869 47.9011 63.1872C47.9011 62.5055 47.4592 62.1141 46.6765 62.1141C45.8938 62.1141 45.4646 62.4929 45.4646 63.1872H45.4772Z" fill="white"/>
<path d="M57.1424 62.3666H53.6328C53.5696 62.8338 53.4308 63.6796 53.3676 64.0331C53.6959 63.768 54.1882 63.566 54.9457 63.566C56.6753 63.566 57.6474 64.8158 57.6474 66.4823C57.6474 68.1487 56.7258 69.7394 54.3523 69.7394C52.6228 69.7394 51.3477 68.8557 51.1583 67.2902H53.0646C53.2288 67.8962 53.658 68.2876 54.4029 68.2876C55.3118 68.2876 55.7411 67.6185 55.7411 66.659C55.7411 65.7374 55.4002 65.0936 54.4029 65.0936C53.5823 65.0936 53.254 65.447 53.0646 65.9647L51.3477 65.7374C51.5749 64.6264 51.9537 62.0258 52.1052 60.8138H57.4454L57.1803 62.3666H57.1424Z" fill="white"/>
</svg>
