<svg width="80" height="80" viewBox="0 0 80 80" fill="none" xmlns="http://www.w3.org/2000/svg">
<path d="M67.6328 28.4243C67.0853 26.9855 65.9648 25.6995 64.5896 24.7827C60.6424 22.2743 54.6197 22.0961 50.5452 24.3625C48.3297 25.4957 46.8654 27.7367 46.407 30.0414C45.5794 33.8358 45.7958 38.3433 48.7117 41.1827C52.1114 44.1622 57.0772 44.8243 61.4828 43.6019C61.6865 43.5637 62.3614 43.3982 62.807 43.1563L62.9343 43.1054C64.2968 42.5324 65.6082 41.6156 66.5759 40.3551C68.8297 37.07 68.9825 32.1423 67.6073 28.4371M60.4642 36.9299C60.3114 37.6429 59.8275 38.3942 59.0635 38.6616C57.8539 39.1964 56.2114 39.0436 55.0781 38.4197C54.1359 37.7575 54.0086 36.6625 53.894 35.6057C53.8048 33.5429 53.6521 31.3656 54.225 29.4811C54.6834 28.3097 55.9185 28.0169 57.0517 27.9277C58.2359 27.9277 59.3946 28.106 60.1204 29.061C60.5788 29.7485 60.5533 30.6398 60.6424 31.4548C60.6042 33.161 60.757 35.1855 60.4642 36.9172M24.4428 38.7889C23.4369 38.7252 22.3164 38.8144 21.3487 38.6998L21.3741 28.2206L21.4378 28.1315L24.4428 28.106C24.4682 26.3998 24.5064 24.579 24.4173 23.0256L12.9577 22.9874L11.0732 23.0256C11.0477 24.6044 11.0477 26.4635 11.0732 28.0678C12.1046 28.106 13.0723 28.0678 14.0782 28.1569V38.3178L14.0527 38.738L11.0477 38.8016C10.9841 40.4442 10.9841 42.0867 11.0477 43.7293H24.4555V38.8016L24.4428 38.7889ZM58.1722 45.9575C56.899 47.7783 55.2818 49.5482 53.5247 50.9106C53.461 50.9998 53.2828 50.9743 53.2191 50.8852C52.4552 50.414 51.6402 50.0193 50.9017 49.5482C51.8694 48.3895 52.8244 47.2181 53.5502 45.9321H52.6079C51.8567 47.0398 51.0545 48.2113 50.0614 49.1917C48.7244 48.6569 47.5021 48.1731 46.1396 47.8165L45.9869 47.7019C46.2033 47.1035 46.598 46.5305 46.7126 45.9321H45.8977L45.0828 47.5491C43.2874 47.1672 41.3139 46.9507 39.4931 46.8361C39.4039 46.5687 39.5185 46.174 39.4039 45.9448H38.6145C38.5508 46.3013 38.7036 46.5687 38.5253 46.8743C36.6409 46.9634 34.8201 47.1672 33.0502 47.5364L32.2226 45.9448C31.917 45.9448 31.5859 45.8939 31.3695 45.983L32.1334 47.7401L32.0443 47.8293C30.6819 48.224 29.3449 48.6951 28.0334 49.2299L27.9189 49.1662C27.0657 48.2367 26.2508 47.2308 25.576 46.2122C25.4232 45.7029 24.812 45.9957 24.481 45.9448C25.2067 47.2563 26.1872 48.4277 27.1549 49.6246C26.34 50.1085 25.5123 50.6432 24.6592 51.0252C22.8002 49.6119 21.1831 47.9057 19.8589 45.983C19.4896 45.9193 19.2477 45.9448 18.8912 45.983C21.0813 49.3827 24.481 52.3749 28.0462 54.1321C28.0462 54.1321 28.0462 54.1066 28.0844 54.1066C28.1099 54.1066 28.1735 54.1575 28.1098 54.1957C30.5164 55.3672 33.0629 56.1948 35.775 56.5513C45.1083 57.7737 54.0086 53.801 59.1781 45.9703C58.8598 45.9321 58.5288 45.9321 58.2104 45.9703M45.503 48.6442L45.5921 48.5805C46.9036 48.8734 48.1515 49.2936 49.2974 49.8665C48.3297 50.9743 47.0819 51.9293 45.9232 52.7314C45.2229 53.1516 44.5226 53.5973 43.7968 53.9538L42.498 53.3808L42.5871 53.1771C43.6822 51.7128 44.6626 50.2231 45.503 48.6314M39.5185 47.7401C41.2502 47.7783 42.9819 47.9566 44.599 48.3386L44.6372 48.4277C43.7841 50.0448 42.7272 51.5982 41.5685 53.0498C41.0465 53.1134 40.5626 52.9097 40.0533 52.8715L39.5313 52.8078C39.4676 51.0507 39.4421 49.4973 39.5313 47.7274M33.6487 48.2749C35.2275 47.9821 36.8701 47.7401 38.5763 47.7401L38.6017 52.7951C37.9651 52.9352 37.2648 52.9352 36.6536 53.088C35.4058 51.6237 34.3744 50.0321 33.4959 48.3895L33.6487 48.2749ZM28.7592 49.892C29.9434 49.319 31.1912 48.8988 32.4645 48.5805L32.5918 48.606C33.4704 50.2485 34.5654 51.8019 35.6604 53.3554C35.2403 53.5973 34.7182 53.7373 34.2981 53.9793C32.2481 52.9606 30.3763 51.6109 28.7592 49.9811V49.892ZM32.6809 54.9979C30.1216 54.3358 27.7533 53.2026 25.5633 51.6491V51.56C26.289 51.1144 27.0275 50.6305 27.817 50.2995C29.5486 52.0057 31.344 53.2917 33.2921 54.514C33.1393 54.6923 32.8974 54.8706 32.6809 54.9979ZM43.9496 55.3926C40.7282 56.0802 37.1375 56.1057 33.916 55.3417C33.8524 55.1889 34.0688 55.1634 34.158 55.0743C36.9847 53.2535 41.3903 53.2535 44.1533 55.2144C44.2424 55.3926 44.0005 55.3417 43.9368 55.3926M46.8781 54.5522L45.4521 54.9979C45.2101 54.8833 44.9937 54.705 44.7772 54.514L44.8409 54.4249C46.789 53.2917 48.5461 51.9165 50.2269 50.274C51.0418 50.605 51.844 51.0507 52.5697 51.56C50.8635 52.9097 48.8899 53.801 46.8781 54.5522ZM19.7952 20.7082C20.5465 19.6641 21.3741 18.6836 22.2527 17.7541C23.0421 17.0029 23.7679 16.2899 24.621 15.7551C25.4105 16.2644 26.289 16.6846 27.053 17.1557C26.1108 18.3144 25.1431 19.4858 24.4428 20.7336C24.6592 20.8228 25.0539 20.7973 25.3595 20.7336C26.1235 19.6259 26.9384 18.5308 27.9189 17.5377C29.2176 18.0215 30.5036 18.5181 31.8406 18.8874L31.9552 19.002L31.2039 20.7336C31.535 20.7973 31.7514 20.7718 32.0825 20.7336C32.3499 20.2243 32.5663 19.6641 32.8719 19.1548C34.6418 19.5495 36.4881 19.7532 38.3726 19.8169C38.6145 20.0333 38.4362 20.479 38.5253 20.7464H39.3403C39.4294 20.4535 39.3148 20.1225 39.4294 19.8551C41.1993 19.7659 43.0455 19.5877 44.7518 19.1675L44.9045 19.193L45.7194 20.7464C45.9996 20.7464 46.3561 20.81 46.5726 20.6827L45.8086 18.951L45.8723 18.8874C47.2729 18.5308 48.5716 17.9961 49.9086 17.4485C50.8508 18.429 51.7294 19.6004 52.5315 20.7336C52.8626 20.7336 53.1937 20.7718 53.4483 20.67C53.0791 20.0079 52.6334 19.3712 52.1368 18.7855C51.7294 18.2125 51.2837 17.6777 50.7999 17.1812V17.0284L52.9263 15.806L53.2319 15.6914C55.0781 17.092 56.7079 18.7728 58.0322 20.6827C58.4014 20.6827 58.707 20.81 59.0126 20.6572C54.9381 14.5709 48.2151 10.6492 40.9573 10.0889L40.9191 10.1526L40.8555 10.0889C40.0406 9.9998 39.0347 9.9616 38.1434 10.0507C37.8123 10.0253 37.4176 10.0507 37.0229 10.0889C29.7269 10.6492 23.0167 14.3927 18.8148 20.7464C19.1204 20.7209 19.4896 20.8355 19.7825 20.7209M32.4008 18.0852L32.2735 18.1107C31.0257 17.7796 29.8033 17.3976 28.6573 16.8883L28.721 16.71C30.389 15.1312 32.1589 13.8069 34.107 12.801C34.5654 12.9793 35.0238 13.1321 35.4822 13.3358L35.3931 13.565C34.2344 15.0038 33.3303 16.5572 32.4136 18.0852M38.449 18.8874C37.5958 19.002 36.8446 18.8619 35.9915 18.7982C35.1766 18.6836 34.1452 18.5945 33.3176 18.3144C34.1962 16.6846 35.2403 15.093 36.4754 13.6287L38.4235 13.8961C38.5126 15.4495 38.449 17.2448 38.449 18.8874ZM39.3912 18.9256C39.3275 17.334 39.3657 15.5768 39.3912 13.9343C40.0024 13.8451 40.6645 13.756 41.2757 13.6669C42.4598 15.1566 43.6185 16.6846 44.4079 18.3271C42.7654 18.7218 41.0847 18.9256 39.3912 18.9256ZM49.0937 16.8246C47.9095 17.334 46.6872 17.8051 45.3884 18.0852C44.4462 16.5063 43.4148 14.9147 42.2561 13.3868C42.6763 13.1576 43.1983 12.9793 43.6567 12.7374C45.6303 13.7178 47.553 15.1184 49.1573 16.7355L49.0937 16.8246ZM45.1974 11.7187C47.7567 12.3809 50.1505 13.5141 52.3406 15.0675L52.2769 15.1821L50.1759 16.3408H50.0232C48.4188 14.7364 46.5343 13.3358 44.6117 12.2281C44.6753 12.0243 44.9809 11.8715 45.1847 11.7187M43.9878 11.4259V11.4895C41.3393 13.3995 37.0611 13.5777 34.2598 11.8079C34.107 11.6933 33.8015 11.6296 33.776 11.4259C36.9974 10.6874 40.7918 10.6237 43.9878 11.4259ZM25.4487 15.1312C27.3713 13.7305 29.4977 12.6864 31.7387 11.9607C31.8279 11.8715 31.8915 11.7824 32.0061 11.7824V11.8461C32.248 11.9097 32.4263 11.6296 32.6427 11.8079C32.821 11.9607 33.0375 12.0753 33.1903 12.2281C31.3058 13.3868 29.4468 14.7619 27.7533 16.4427C26.9384 16.1498 26.1744 15.7041 25.4487 15.1948V15.1312ZM38.4871 39.0181C35.635 39.7948 32.5282 39.2091 30.4654 37.0445C30.2235 36.7516 30.0707 36.3951 29.8288 36.0895L25.7288 36.115C25.6651 38.5342 25.6397 41.31 25.7288 43.7038L30.2872 43.6783L30.3508 42.2395C30.8729 42.4814 31.3822 42.7743 31.9043 43.0417C35.062 44.3532 39.1365 44.6588 42.2688 43.0417C44.548 41.7939 45.7704 39.3746 45.4266 36.7644C45.0955 34.2305 42.6636 31.9259 40.2061 31.302L32.8465 29.1756L32.299 28.9082C32.057 28.7044 31.9042 28.4371 31.9679 28.106C32.5409 27.1256 33.8906 27.4184 34.8838 27.4439C37.0101 27.7495 39.2002 28.4625 40.448 30.3979C41.785 30.3979 43.3384 30.4234 44.79 30.3725C44.8536 27.9277 44.7645 25.7759 44.7263 23.293C43.3638 23.2675 41.6831 23.2675 40.3207 23.3184C40.257 23.6749 40.3843 24.1843 40.2316 24.5408L38.831 23.7895C35.4822 22.3889 30.8092 22.2361 27.7661 24.4262C25.7925 25.8523 25.1813 28.4243 25.7033 30.7035C26.0981 32.8554 28.1608 34.4343 30.1344 35.1855C32.8337 36.1405 35.6604 36.828 38.4108 37.7575C38.6781 37.8849 39.0474 38.1523 38.9838 38.4833C38.9838 38.7507 38.7036 38.9035 38.4999 39.0181" fill="white"/>
<path d="M27.7407 67.8961C27.9062 68.4181 28.2245 68.7492 28.963 68.7492C30.2109 68.7492 30.3509 67.234 30.4018 66.2535C30.0326 66.7629 29.3323 66.9921 28.5556 66.9921C26.722 66.9921 25.6907 65.7442 25.6907 64.1526C25.6907 62.4209 26.9003 61.0967 28.9376 61.0967C31.4332 61.0967 32.2863 63.0321 32.2863 65.2094C32.2863 67.6924 31.6497 70.2389 28.8739 70.2389C26.8112 70.2389 25.9708 68.9911 25.818 67.8961H27.7407ZM27.6388 64.0507C27.6388 64.9548 28.1609 65.5023 28.9885 65.5023C29.8161 65.5023 30.3 65.0694 30.3 64.089C30.3 63.4905 30.0581 62.5865 28.963 62.5865C28.0717 62.5865 27.6388 63.2231 27.6388 64.0507Z" fill="white"/>
<path d="M40.3207 65.6044C40.3207 68.0364 39.544 70.2392 36.9211 70.2392C34.2981 70.2392 33.5214 68.1 33.5214 65.6553C33.5214 63.2106 34.4127 61.0715 36.9593 61.0715C39.5058 61.0715 40.3207 63.0833 40.3207 65.5917V65.6044ZM35.5204 65.6426C35.5204 67.2724 35.7114 68.7112 36.9593 68.7112C38.2071 68.7112 38.3344 67.3615 38.3344 65.6171C38.3344 63.8727 38.1307 62.6122 36.972 62.6122C35.8133 62.6122 35.5204 63.7199 35.5204 65.6426Z" fill="white"/>
<path d="M48.3807 65.6044C48.3807 68.0364 47.604 70.2392 44.981 70.2392C42.358 70.2392 41.5813 68.1 41.5813 65.6553C41.5813 63.2106 42.4726 61.0715 45.0192 61.0715C47.5658 61.0715 48.3807 63.0833 48.3807 65.5917V65.6044ZM43.5677 65.6426C43.5677 67.2724 43.7586 68.7112 45.0065 68.7112C46.2543 68.7112 46.3816 67.3615 46.3816 65.6171C46.3816 63.8727 46.1779 62.6122 45.0192 62.6122C43.8605 62.6122 43.5677 63.7199 43.5677 65.6426Z" fill="white"/>
<path d="M51.2457 70.0736V63.4653C50.8382 63.6563 50.087 63.809 49.6541 63.8472V62.4084C50.4944 62.2556 51.3348 61.7718 51.8441 61.2243H53.2065V70.0736H51.2584H51.2457Z" fill="white"/>
</svg>
