<svg width="120" height="120" viewBox="0 0 120 120" fill="none" xmlns="http://www.w3.org/2000/svg">
<rect width="120" height="120" rx="10" fill="#0F5385"/>
<g clip-path="url(#clip0_28_524)">
<path d="M99.7108 39.3093H90.5799C89.8495 39.3093 89.2554 39.8738 89.2554 40.5678C89.2554 41.2617 89.8495 41.8262 90.5799 41.8262H99.7108C100.835 41.8262 101.747 42.6927 101.747 43.7606V76.9441H18.7096V43.7606C18.7096 42.6927 19.6216 41.8262 20.7454 41.8262H29.8763C30.6066 41.8262 31.2007 41.2617 31.2007 40.5678C31.2007 39.8738 30.6066 39.3093 29.8763 39.3093H20.7454C18.1609 39.3093 16.0608 41.3049 16.0608 43.7606V83.6714C16.0608 86.1272 18.1609 88.1227 20.7454 88.1227H52.1265L45.1563 100.373H38.8066C38.0763 100.373 37.4822 100.937 37.4822 101.631C37.4822 102.325 38.0763 102.89 38.8066 102.89H45.9433H74.5015H81.6382C82.3685 102.89 82.9626 102.325 82.9626 101.631C82.9626 100.937 82.3685 100.373 81.6382 100.373H75.2886L68.3184 88.1227H99.6994C102.284 88.1227 104.384 86.1272 104.384 83.6714V43.7606C104.384 41.3049 102.284 39.3093 99.6994 39.3093H99.7108ZM72.2878 100.373H48.1684L55.1386 88.1227H65.3214L72.2916 100.373H72.2878ZM99.7108 85.6058H20.7454C19.6216 85.6058 18.7096 84.7393 18.7096 83.6714V79.461H101.747V83.6714C101.747 84.7393 100.835 85.6058 99.7108 85.6058Z" fill="white"/>
<path d="M55.0402 66.9125L59.5129 69.6487C59.7324 69.7817 59.9821 69.8501 60.2281 69.8501C60.4741 69.8501 60.7276 69.7817 60.9433 69.6487L65.416 66.9125C76.8476 59.9191 83.9881 48.0393 84.5178 35.1277L84.6541 31.8233C84.6768 31.2588 84.3022 30.7518 83.7383 30.5757L80.4311 29.5545C77.2374 28.5693 74.9631 25.8835 74.6377 22.705L74.1798 18.2393C74.1155 17.5957 73.5441 17.1031 72.863 17.1031H47.6045C46.9234 17.1031 46.352 17.5957 46.2877 18.2393L45.8298 22.705C45.5044 25.8799 43.2302 28.5693 40.0365 29.5545L36.7292 30.5757C36.1654 30.7483 35.7908 31.2588 35.8135 31.8233L35.9497 35.1277C36.4795 48.0357 43.62 59.9191 55.0515 66.9125H55.0402ZM40.8425 31.9564C45.039 30.662 48.0284 27.1311 48.456 22.9603L48.7965 19.6308H71.6559L71.9965 22.9603C72.4241 27.1311 75.4134 30.6656 79.6099 31.9564L81.9636 32.6827L81.869 35.0342C81.3733 47.1225 74.6869 58.2508 63.9819 64.7983L60.2281 67.0959L56.4743 64.7983C45.7693 58.2508 39.0829 47.1225 38.5872 35.0342L38.4926 32.6827L40.8462 31.9564H40.8425Z" fill="white"/>
<path d="M60.2281 54.7271C67.361 54.7271 73.1657 49.2115 73.1657 42.4339C73.1657 35.6562 67.361 30.1406 60.2281 30.1406C53.0952 30.1406 47.2905 35.6562 47.2905 42.4339C47.2905 49.2115 53.0952 54.7271 60.2281 54.7271ZM60.2281 32.6539C65.9004 32.6539 70.5169 37.0405 70.5169 42.4303C70.5169 47.82 65.9004 52.2066 60.2281 52.2066C54.5558 52.2066 49.9393 47.82 49.9393 42.4303C49.9393 37.0405 54.5558 32.6539 60.2281 32.6539Z" fill="white"/>
<path d="M55.0175 45.2636C55.5132 45.8892 56.0165 46.5112 56.4024 46.9751C57.0003 47.6942 57.4355 48.2119 58.0826 48.2119C58.2226 48.2119 58.3739 48.1868 58.5404 48.1364C58.8734 48.0322 59.1421 47.8056 59.301 47.5216C59.8384 46.824 63.7851 42.5381 67.3194 38.7628C67.8038 38.245 67.7546 37.4468 67.2097 36.9866C66.661 36.5263 65.8247 36.5731 65.3403 37.0908C61.352 41.3552 59.2253 43.6492 58.0939 44.9472C57.3258 44.0051 56.2095 42.5957 55.1916 41.2869C54.7564 40.7296 53.9277 40.6109 53.3374 41.0244C52.7509 41.4379 52.626 42.2253 53.0611 42.7862C53.0611 42.7862 54.0299 44.0303 55.0137 45.2672L55.0175 45.2636Z" fill="white"/>
</g>
<defs>
<clipPath id="clip0_28_524">
<rect width="88.3346" height="85.7795" fill="white" transform="translate(16.0608 17.1103)"/>
</clipPath>
</defs>
</svg>
