<svg width="100" height="100" viewBox="0 0 100 100" fill="none" xmlns="http://www.w3.org/2000/svg">
<rect width="100" height="100" rx="10" fill="#0F5385"/>
<g clip-path="url(#clip0_28_671)">
<path d="M83.0923 32.7577H75.4833C74.8747 32.7577 74.3796 33.2281 74.3796 33.8064C74.3796 34.3847 74.8747 34.8551 75.4833 34.8551H83.0923C84.0289 34.8551 84.7888 35.5772 84.7888 36.4671V64.12H15.5914V36.4671C15.5914 35.5772 16.3514 34.8551 17.2879 34.8551H24.897C25.5056 34.8551 26.0006 34.3847 26.0006 33.8064C26.0006 33.2281 25.5056 32.7577 24.897 32.7577H17.2879C15.1342 32.7577 13.384 34.4206 13.384 36.4671V69.7261C13.384 71.7726 15.1342 73.4355 17.2879 73.4355H43.4388L37.6303 83.644H32.3389C31.7303 83.644 31.2352 84.1144 31.2352 84.6927C31.2352 85.271 31.7303 85.7414 32.3389 85.7414H38.2862H62.0846H68.0319C68.6405 85.7414 69.1355 85.271 69.1355 84.6927C69.1355 84.1144 68.6405 83.644 68.0319 83.644H62.7405L56.932 73.4355H83.0829C85.2366 73.4355 86.9867 71.7726 86.9867 69.7261V36.4671C86.9867 34.4206 85.2366 32.7577 83.0829 32.7577H83.0923ZM60.2399 83.644H40.1403L45.9488 73.4355H54.4345L60.243 83.644H60.2399ZM83.0923 71.3381H17.2879C16.3514 71.3381 15.5914 70.616 15.5914 69.7261V66.2174H84.7888V69.7261C84.7888 70.616 84.0289 71.3381 83.0923 71.3381Z" fill="white"/>
<path d="M45.8668 55.7603L49.5941 58.0405C49.777 58.1514 49.9851 58.2083 50.1901 58.2083C50.3951 58.2083 50.6064 58.1514 50.7861 58.0405L54.5134 55.7603C64.0397 49.9325 69.9901 40.0327 70.4316 29.273L70.5451 26.5194C70.564 26.049 70.2518 25.6265 69.782 25.4797L67.0259 24.6287C64.3645 23.8077 62.4693 21.5695 62.1981 18.9207L61.8166 15.1993C61.763 14.663 61.2868 14.2525 60.7192 14.2525H39.6705C39.1029 14.2525 38.6267 14.663 38.5731 15.1993L38.1916 18.9207C37.9204 21.5665 36.0252 23.8077 33.3638 24.6287L30.6077 25.4797C30.1379 25.6235 29.8257 26.049 29.8446 26.5194L29.9581 29.273C30.3996 40.0297 36.35 49.9325 45.8763 55.7603H45.8668ZM34.0354 26.6302C37.5325 25.5516 40.0237 22.6092 40.38 19.1335L40.6638 16.3589H59.7133L59.9971 19.1335C60.3534 22.6092 62.8446 25.5546 66.3417 26.6302L68.303 27.2355L68.2242 29.1951C67.8111 39.2687 62.2391 48.5422 53.3182 53.9985L50.1901 55.9131L47.062 53.9985C38.1411 48.5422 32.5691 39.2687 32.156 29.1951L32.0772 27.2355L34.0386 26.6302H34.0354Z" fill="white"/>
<path d="M50.1901 45.6059C56.1342 45.6059 60.9715 41.0095 60.9715 35.3615C60.9715 29.7135 56.1342 25.1171 50.1901 25.1171C44.246 25.1171 39.4088 29.7135 39.4088 35.3615C39.4088 41.0095 44.246 45.6059 50.1901 45.6059ZM50.1901 27.2115C54.917 27.2115 58.7641 30.867 58.7641 35.3585C58.7641 39.85 54.917 43.5055 50.1901 43.5055C45.4632 43.5055 41.6161 39.85 41.6161 35.3585C41.6161 30.867 45.4632 27.2115 50.1901 27.2115Z" fill="white"/>
<path d="M45.8479 37.7196C46.261 38.241 46.6804 38.7593 47.0021 39.1458C47.5003 39.7451 47.8629 40.1766 48.4022 40.1766C48.5188 40.1766 48.645 40.1556 48.7837 40.1137C49.0612 40.0268 49.2851 39.838 49.4175 39.6013C49.8653 39.02 53.1543 35.4484 56.0995 32.3023C56.5032 31.8708 56.4622 31.2056 56.0081 30.8221C55.5508 30.4386 54.8539 30.4775 54.4503 30.909C51.1267 34.4626 49.3545 36.3743 48.4116 37.4559C47.7715 36.6709 46.8412 35.4963 45.993 34.4057C45.6304 33.9413 44.9398 33.8424 44.4478 34.187C43.9591 34.5315 43.855 35.1877 44.2176 35.6551C44.2176 35.6551 45.0249 36.6919 45.8448 37.7226L45.8479 37.7196Z" fill="white"/>
</g>
<defs>
<clipPath id="clip0_28_671">
<rect width="73.6122" height="71.4829" fill="white" transform="translate(13.384 14.2585)"/>
</clipPath>
</defs>
</svg>
