<svg width="227" height="227" viewBox="0 0 227 227" fill="none" xmlns="http://www.w3.org/2000/svg">
<rect width="227" height="227" rx="10" fill="#0F5385"/>
<g clip-path="url(#clip0_28_524)">
<path d="M188.62 74.3601H171.347C169.966 74.3601 168.842 75.428 168.842 76.7407C168.842 78.0534 169.966 79.1212 171.347 79.1212H188.62C190.746 79.1212 192.471 80.7604 192.471 82.7805V145.553H35.3925V82.7805C35.3925 80.7604 37.1176 79.1212 39.2436 79.1212H56.5161C57.8977 79.1212 59.0215 78.0534 59.0215 76.7407C59.0215 75.428 57.8977 74.3601 56.5161 74.3601H39.2436C34.3545 74.3601 30.3818 78.135 30.3818 82.7805V158.278C30.3818 162.924 34.3545 166.699 39.2436 166.699H98.606L85.4207 189.872H73.4094C72.0278 189.872 70.904 190.94 70.904 192.253C70.904 193.565 72.0278 194.633 73.4094 194.633H86.9096H140.932H154.432C155.814 194.633 156.938 193.565 156.938 192.253C156.938 190.94 155.814 189.872 154.432 189.872H142.421L129.236 166.699H188.598C193.487 166.699 197.46 162.924 197.46 158.278V82.7805C197.46 78.135 193.487 74.3601 188.598 74.3601H188.62ZM136.745 189.872H91.1186L104.304 166.699H123.566L136.752 189.872H136.745ZM188.62 161.938H39.2436C37.1176 161.938 35.3925 160.299 35.3925 158.278V150.314H192.471V158.278C192.471 160.299 190.746 161.938 188.62 161.938Z" fill="white"/>
<path d="M104.118 126.576L112.579 131.752C112.994 132.004 113.466 132.133 113.932 132.133C114.397 132.133 114.876 132.004 115.284 131.752L123.745 126.576C145.37 113.347 158.878 90.8744 159.88 66.4498L160.137 60.1991C160.18 59.1313 159.472 58.1723 158.405 57.839L152.149 55.9073C146.107 54.0437 141.805 48.9629 141.19 42.9502L140.324 34.5026C140.202 33.2851 139.121 32.3533 137.833 32.3533H90.052C88.7636 32.3533 87.6827 33.2851 87.561 34.5026L86.6949 42.9502C86.0793 48.9561 81.7772 54.0437 75.7358 55.9073L69.4795 57.839C68.413 58.1655 67.7043 59.1313 67.7473 60.1991L68.005 66.4498C69.0071 90.8676 82.5145 113.347 104.139 126.576H104.118ZM77.2604 60.4508C85.1988 58.0022 90.8537 51.323 91.6626 43.4332L92.3069 37.1349H135.549L136.193 43.4332C137.002 51.323 142.657 58.009 150.596 60.4508L155.048 61.8247L154.869 66.273C153.931 89.14 141.283 110.191 121.032 122.577L113.932 126.923L106.831 122.577C86.5803 110.191 73.9319 89.14 72.9942 66.273L72.8152 61.8247L77.2676 60.4508H77.2604Z" fill="white"/>
<path d="M113.932 103.525C127.425 103.525 138.405 93.0917 138.405 80.2707C138.405 67.4497 127.425 57.016 113.932 57.016C100.438 57.016 89.4579 67.4497 89.4579 80.2707C89.4579 93.0917 100.438 103.525 113.932 103.525ZM113.932 61.7703C124.662 61.7703 133.395 70.0683 133.395 80.2639C133.395 90.4595 124.662 98.7575 113.932 98.7575C103.202 98.7575 94.4686 90.4595 94.4686 80.2639C94.4686 70.0683 103.202 61.7703 113.932 61.7703Z" fill="white"/>
<path d="M104.075 85.6236C105.013 86.8071 105.965 87.9837 106.695 88.8612C107.826 90.2215 108.649 91.2009 109.873 91.2009C110.138 91.2009 110.424 91.1533 110.739 91.0581C111.369 90.8608 111.877 90.4323 112.178 89.895C113.194 88.5755 120.66 80.468 127.346 73.3263C128.262 72.3468 128.169 70.8369 127.138 69.9663C126.1 69.0957 124.518 69.1841 123.602 70.1635C116.058 78.2302 112.035 82.5697 109.894 85.025C108.441 83.243 106.33 80.5768 104.404 78.101C103.581 77.0467 102.013 76.8223 100.897 77.6045C99.7871 78.3867 99.5509 79.8762 100.374 80.9373C100.374 80.9373 102.207 83.2906 104.068 85.6304L104.075 85.6236Z" fill="white"/>
</g>
<defs>
<clipPath id="clip0_28_524">
<rect width="167.1" height="162.266" fill="white" transform="translate(30.3818 32.3669)"/>
</clipPath>
</defs>
</svg>
