<svg width="120" height="120" viewBox="0 0 120 120" fill="none" xmlns="http://www.w3.org/2000/svg">
<rect width="120" height="120" rx="10" fill="#0F5385"/>
<g clip-path="url(#clip0_132_1756)">
<path d="M91.3141 73.0384C94.8745 68.6071 96.8379 63.0646 96.8379 57.4289V42.4993C96.8379 41.9126 96.4004 41.4088 95.8064 41.3087C93.3664 40.898 90.9406 40.2699 88.6037 39.4382C85.8044 38.4442 83.119 37.157 80.6221 35.6178C80.2166 35.3658 79.6937 35.3658 79.2882 35.6178C78.0647 36.3701 76.7877 37.0707 75.493 37.6919C74.8777 37.9887 74.6251 38.7134 74.931 39.3105C75.2369 39.9075 75.9839 40.1526 76.5992 39.8558C77.7374 39.307 78.8649 38.7031 79.9534 38.0577C82.4112 39.5141 85.029 40.7392 87.7465 41.7056C89.8949 42.4683 92.1108 43.0722 94.3481 43.5036V57.4289C94.3481 62.5297 92.5732 67.5442 89.3507 71.5509C88.9274 72.0755 89.0234 72.8348 89.5676 73.2454C89.7953 73.418 90.0656 73.5008 90.3324 73.5008C90.7023 73.5008 91.0686 73.3421 91.3141 73.0349V73.0384Z" fill="white"/>
<path d="M102.892 34.8205C98.8582 34.8205 94.8958 34.1407 91.1149 32.7947C87.3446 31.4522 83.8766 29.5024 80.8106 26.9899C80.3446 26.5654 79.6083 26.5654 79.1281 26.9692C77.0296 28.6913 74.714 30.1684 72.2491 31.3556C71.6338 31.6524 71.3812 32.3771 71.6871 32.9742C71.993 33.5712 72.74 33.8163 73.3553 33.5195C75.6993 32.391 77.9152 31.0209 79.9569 29.4368C83.0585 31.8422 86.5194 33.7334 90.2576 35.0656C93.9212 36.3701 97.7485 37.0914 101.647 37.2191V57.4358C101.647 66.3466 97.6097 74.7398 90.5707 80.4687C90.0442 80.8966 89.9767 81.6593 90.4177 82.1701C90.6631 82.4565 91.0153 82.6015 91.371 82.6015C91.6519 82.6015 91.9365 82.5083 92.1713 82.3185C99.7759 76.1306 104.137 67.061 104.137 57.4358V36.0319C104.137 35.3658 103.578 34.824 102.892 34.824V34.8205Z" fill="white"/>
<path d="M77.3746 63.741C76.834 61.8809 75.0733 60.5142 72.9854 60.5142H66.7182C66.0317 60.5142 65.4733 61.056 65.4733 61.7221V66.9299C65.4733 68.1585 64.9788 69.3146 64.0825 70.1843L52.8961 81.0381L42.2539 70.7123C41.0054 69.501 40.3189 67.8927 40.3189 66.181V61.7221C40.3189 61.056 39.7605 60.5142 39.074 60.5142H32.8068C30.6442 60.5142 28.8338 61.9844 28.3642 63.9446C21.6133 67.8375 17.441 74.9158 17.441 82.56V99.0012C17.441 99.6673 17.9995 100.209 18.686 100.209C19.3724 100.209 19.9309 99.6673 19.9309 99.0012V93.7348H28.5243L28.2504 96.9409C28.1935 97.607 28.7021 98.1902 29.3886 98.2454C29.4242 98.2454 29.4598 98.2489 29.4918 98.2489C30.132 98.2489 30.6762 97.7726 30.7296 97.1411L31.7824 84.8723C32.2448 79.5058 32.0812 74.0806 31.3022 68.7452L30.7331 64.8626C30.7758 63.7893 31.6864 62.9266 32.8032 62.9266H37.8256V66.1775C37.8256 68.5347 38.7717 70.7503 40.4897 72.4172L51.6476 83.2434V97.0375C51.6476 97.7036 52.2061 98.2454 52.8925 98.2454C53.579 98.2454 54.1375 97.7036 54.1375 97.0375V83.2434L65.8396 71.8892C67.2055 70.5639 67.9595 68.8004 67.9595 66.9264V62.9266H72.9818C74.0987 62.9266 75.0128 63.7893 75.052 64.8626L74.9061 65.8531C73.8462 73.1074 73.6256 80.4859 74.2517 87.7851L75.0555 97.1411C75.1089 97.7726 75.6531 98.2489 76.2933 98.2489C76.3289 98.2489 76.3644 98.2489 76.3965 98.2454C77.0829 98.1902 77.5916 97.607 77.5347 96.9409L77.2608 93.7348H86.1601V99.0012C86.1601 99.6673 86.7185 100.209 87.405 100.209C88.0915 100.209 88.6499 99.6673 88.6499 99.0012V82.56C88.6499 74.7467 84.339 67.5856 77.3639 63.741H77.3746ZM19.9309 91.3225V82.5635C19.9309 76.2134 23.1712 70.3016 28.4958 66.7332L28.8409 69.0868C29.5949 74.2428 29.7514 79.4851 29.3033 84.6721L28.7306 91.319H19.9309V91.3225ZM86.1708 91.3225H77.0616L76.7415 87.5883C76.1404 80.586 76.3431 73.5112 77.3319 66.5537C82.8273 70.098 86.1708 76.0788 86.1708 82.5635V91.3225Z" fill="white"/>
<path d="M38.0283 49.2256V50.0504C38.0283 50.1884 38.0283 50.323 38.0354 50.4749C38.1884 55.7275 41.2189 60.3279 46.3479 63.0991C48.3646 64.1897 50.481 64.7522 52.5262 64.7522C52.8997 64.7522 53.2696 64.735 53.6395 64.697C55.5389 64.5003 57.4596 63.7893 59.3483 62.5814C61.895 60.9491 63.6806 59.2442 64.801 57.3702C66.0281 55.3168 66.7182 52.9321 66.7893 50.468C66.7893 50.3265 66.7964 50.1919 66.7964 50.0504V49.2256C68.6567 48.7804 70.0617 46.8719 70.0617 44.5873C70.0617 43.6071 69.8091 42.6822 69.3432 41.8988C69.4854 41.5261 69.5637 41.1258 69.5637 40.7151V26.8691C69.5637 22.9659 66.2914 19.7909 62.2685 19.7909H42.5598C38.537 19.7909 35.2646 22.9659 35.2646 26.8691V40.7185C35.2646 41.1327 35.3429 41.5296 35.4852 41.9023C35.0192 42.6822 34.7667 43.6106 34.7667 44.5907C34.7667 46.8754 36.1716 48.7838 38.0319 49.229L38.0283 49.2256ZM65.9641 46.9099C65.8965 46.9099 65.8325 46.903 65.7649 46.8926C65.7294 46.8857 65.6938 46.8892 65.6582 46.8857C65.6227 46.8857 65.5871 46.8754 65.548 46.8754C65.5409 46.8754 65.5373 46.8754 65.5302 46.8754C65.4804 46.8754 65.4306 46.8823 65.3808 46.8892C65.3488 46.8926 65.3132 46.8961 65.2812 46.903C65.235 46.9133 65.1923 46.9271 65.146 46.9444C65.114 46.9547 65.0785 46.9616 65.05 46.9754C65.0073 46.9927 64.9682 47.0168 64.9291 47.0376C64.9006 47.0548 64.8686 47.0686 64.8401 47.0859C64.801 47.1135 64.7655 47.1445 64.7299 47.1756C64.705 47.1963 64.6801 47.2136 64.6587 47.2343C64.6267 47.2653 64.5983 47.3033 64.5698 47.3378C64.5485 47.362 64.5271 47.3861 64.5094 47.4137C64.488 47.4448 64.4702 47.4827 64.4524 47.5173C64.4347 47.5518 64.4133 47.5863 64.3955 47.6242C64.3813 47.6553 64.3742 47.6898 64.3635 47.7209C64.3493 47.7657 64.3315 47.8106 64.3244 47.8555C64.3244 47.8589 64.3244 47.8658 64.3208 47.8693C64.3137 47.9038 64.3173 47.9383 64.3137 47.9728C64.3137 48.0073 64.3031 48.0418 64.3031 48.0798V50.0504C64.3031 50.1712 64.3031 50.292 64.2959 50.4059C64.2355 52.4593 63.6664 54.4506 62.6455 56.1554C61.735 57.6774 60.1628 59.1614 57.9754 60.5625C56.421 61.5565 54.8737 62.1397 53.3727 62.295C51.5303 62.4848 49.4637 62.0224 47.5572 60.9905C43.2143 58.6437 40.6498 54.7853 40.5217 50.4059C40.5217 50.2885 40.5146 50.1712 40.5146 50.0538V48.0832C40.5146 48.0453 40.5075 48.0108 40.5039 47.9763C40.5039 47.9418 40.5039 47.9072 40.4968 47.8727C40.4968 47.8693 40.4968 47.8624 40.4933 47.8589C40.4826 47.8106 40.4684 47.7657 40.4541 47.7209C40.4435 47.6898 40.4363 47.6553 40.4221 47.6242C40.4043 47.5863 40.383 47.5483 40.3616 47.5138C40.3439 47.4828 40.3296 47.4482 40.3083 47.4172C40.287 47.3861 40.2621 47.3585 40.2372 47.3309C40.2123 47.2998 40.1874 47.2653 40.1589 47.2377C40.1304 47.2101 40.0984 47.1894 40.07 47.1618C40.038 47.1376 40.0095 47.11 39.9775 47.0893C39.9455 47.0686 39.9064 47.0514 39.8708 47.0307C39.8352 47.0134 39.8032 46.9927 39.7676 46.9754C39.7321 46.9616 39.6965 46.9513 39.6609 46.9409C39.6183 46.9271 39.5791 46.9133 39.5364 46.903C39.5044 46.8961 39.4689 46.8961 39.4369 46.8892C39.3871 46.8823 39.3408 46.8754 39.2875 46.8754C39.2804 46.8754 39.2768 46.8754 39.2732 46.8754C39.2377 46.8754 39.2021 46.8823 39.1665 46.8857C39.131 46.8857 39.0954 46.8857 39.0563 46.8926C38.9887 46.903 38.9247 46.9099 38.8571 46.9099C37.9892 46.9099 37.2565 45.8469 37.2565 44.5907C37.2565 44.3319 37.2885 44.0765 37.349 43.8384C38.288 44.249 39.3657 44.2456 40.3119 43.8073L45.3413 41.4743C49.8372 39.3899 54.9947 39.3899 59.4906 41.4743L64.5165 43.8073C65.0038 44.0316 65.5231 44.1455 66.0388 44.1455C66.5546 44.1455 67.0241 44.042 67.4794 43.8418C67.5398 44.0799 67.5683 44.3353 67.5683 44.5942C67.5683 45.8504 66.8356 46.9133 65.9677 46.9133L65.9641 46.9099ZM42.5562 22.2067H62.265C64.9148 22.2067 67.0703 24.2981 67.0703 26.8691V32.9915H59.1278C58.4413 32.9915 57.8829 33.5333 57.8829 34.1993C57.8829 34.8654 58.4413 35.4072 59.1278 35.4072H67.0703V40.7151C67.0703 41.2155 66.7324 41.4778 66.5866 41.5675C66.4407 41.6572 66.053 41.8402 65.5871 41.6227L60.5612 39.2898C55.3824 36.8878 49.4424 36.8878 44.2671 39.2898L39.2377 41.6227C38.7717 41.8402 38.384 41.6538 38.2382 41.5675C38.0924 41.4778 37.7544 41.2189 37.7544 40.7151V35.4072H46.3408C47.0273 35.4072 47.5857 34.8654 47.5857 34.1993C47.5857 33.5333 47.0273 32.9915 46.3408 32.9915H37.7544V26.8691C37.7544 24.2981 39.9099 22.2067 42.5598 22.2067H42.5562Z" fill="white"/>
</g>
<defs>
<clipPath id="clip0_132_1756">
<rect width="86.6956" height="80.4183" fill="white" transform="translate(17.441 19.7909)"/>
</clipPath>
</defs>
</svg>
