<svg width="227" height="227" viewBox="0 0 227 227" fill="none" xmlns="http://www.w3.org/2000/svg">
<rect width="227" height="227" rx="10" fill="#0F5385"/>
<g clip-path="url(#clip0_132_1756)">
<path d="M172.736 138.164C179.471 129.782 183.185 119.297 183.185 108.636V80.3945C183.185 79.2847 182.357 78.3316 181.234 78.1422C176.618 77.3654 172.029 76.1772 167.609 74.6038C162.313 72.7237 157.233 70.2886 152.51 67.3769C151.743 66.9004 150.754 66.9004 149.987 67.3769C147.672 68.8001 145.257 70.1254 142.808 71.3005C141.644 71.8619 141.166 73.2329 141.745 74.3623C142.323 75.4917 143.736 75.9552 144.9 75.3938C147.053 74.3558 149.186 73.2133 151.245 71.9925C155.895 74.7475 160.847 77.0651 165.987 78.893C170.051 80.3358 174.243 81.4782 178.475 82.2943V108.636C178.475 118.285 175.118 127.771 169.022 135.351C168.221 136.343 168.403 137.779 169.432 138.556C169.863 138.882 170.374 139.039 170.879 139.039C171.579 139.039 172.272 138.739 172.736 138.158V138.164Z" fill="white"/>
<path d="M194.637 65.8689C187.007 65.8689 179.511 64.5828 172.359 62.0367C165.227 59.4972 158.667 55.8086 152.867 51.056C151.985 50.253 150.592 50.253 149.684 51.0168C145.714 54.2744 141.334 57.0686 136.671 59.3144C135.507 59.8758 135.03 61.2468 135.608 62.3762C136.187 63.5056 137.6 63.9691 138.764 63.4077C143.198 61.2729 147.39 58.6811 151.252 55.6846C157.119 60.2349 163.666 63.8124 170.737 66.3324C177.668 68.8001 184.908 70.1645 192.282 70.4061V108.649C192.282 125.506 184.645 141.383 171.33 152.22C170.334 153.029 170.206 154.472 171.04 155.438C171.504 155.98 172.171 156.254 172.843 156.254C173.375 156.254 173.913 156.078 174.357 155.719C188.743 144.014 196.992 126.857 196.992 108.649V68.1603C196.992 66.9004 195.935 65.8754 194.637 65.8754V65.8689Z" fill="white"/>
<path d="M146.367 120.577C145.344 117.058 142.014 114.473 138.064 114.473H126.209C124.91 114.473 123.854 115.498 123.854 116.758V126.609C123.854 128.933 122.918 131.12 121.223 132.765L100.062 153.297L79.9304 133.764C77.5687 131.473 76.2701 128.43 76.2701 125.192V116.758C76.2701 115.498 75.2137 114.473 73.9151 114.473H62.0596C57.9687 114.473 54.544 117.254 53.6558 120.962C40.8852 128.326 32.9927 141.716 32.9927 156.176V187.277C32.9927 188.537 34.0491 189.562 35.3477 189.562C36.6463 189.562 37.7026 188.537 37.7026 187.277V177.315H53.9586L53.4405 183.38C53.3328 184.64 54.295 185.743 55.5936 185.848C55.6609 185.848 55.7282 185.854 55.7887 185.854C56.9998 185.854 58.0293 184.953 58.1302 183.759L60.1218 160.55C60.9965 150.398 60.687 140.136 59.2135 130.043L58.1369 122.698C58.2177 120.668 59.9402 119.036 62.0529 119.036H71.5535V125.186C71.5535 129.645 73.3432 133.836 76.5931 136.989L97.7002 157.469V183.563C97.7002 184.823 98.7566 185.848 100.055 185.848C101.354 185.848 102.41 184.823 102.41 183.563V157.469L124.547 135.99C127.13 133.483 128.557 130.147 128.557 126.602V119.036H138.057C140.17 119.036 141.899 120.668 141.973 122.698L141.698 124.572C139.692 138.295 139.275 152.253 140.459 166.06L141.98 183.759C142.081 184.953 143.11 185.854 144.322 185.854C144.389 185.854 144.456 185.854 144.517 185.848C145.815 185.743 146.777 184.64 146.67 183.38L146.152 177.315H162.986V187.277C162.986 188.537 164.043 189.562 165.341 189.562C166.64 189.562 167.696 188.537 167.696 187.277V156.176C167.696 141.396 159.541 127.849 146.347 120.577H146.367ZM37.7026 172.752V156.183C37.7026 144.17 43.8323 132.987 53.9047 126.237L54.5574 130.689C55.9838 140.443 56.2799 150.359 55.4321 160.171L54.3488 172.745H37.7026V172.752ZM163.007 172.752H145.775L145.169 165.688C144.032 152.442 144.416 139.059 146.286 125.897C156.682 132.602 163.007 143.916 163.007 156.183V172.752Z" fill="white"/>
<path d="M71.937 93.1184V94.6786C71.937 94.9398 71.937 95.1944 71.9504 95.4816C72.2397 105.418 77.9724 114.12 87.6748 119.362C91.4898 121.425 95.4932 122.49 99.3621 122.49C100.069 122.49 100.768 122.457 101.468 122.385C105.061 122.013 108.694 120.668 112.267 118.383C117.085 115.295 120.463 112.07 122.582 108.525C124.903 104.641 126.209 100.13 126.343 95.4686C126.343 95.2009 126.357 94.9463 126.357 94.6786V93.1184C129.876 92.2762 132.533 88.666 132.533 84.3442C132.533 82.4901 132.056 80.7405 131.174 79.2586C131.443 78.5535 131.591 77.7962 131.591 77.0194V50.8275C131.591 43.4439 125.401 37.4377 117.791 37.4377H80.509C72.8991 37.4377 66.709 43.4439 66.709 50.8275V77.0259C66.709 77.8093 66.857 78.5601 67.1261 79.2651C66.2447 80.7405 65.767 82.4967 65.767 84.3507C65.767 88.6725 68.4247 92.2827 71.9437 93.1249L71.937 93.1184ZM124.782 88.7378C124.654 88.7378 124.533 88.7248 124.405 88.7052C124.338 88.6921 124.271 88.6986 124.204 88.6921C124.136 88.6921 124.069 88.6725 123.995 88.6725C123.981 88.6725 123.975 88.6725 123.961 88.6725C123.867 88.6725 123.773 88.6856 123.679 88.6986C123.618 88.7052 123.551 88.7117 123.49 88.7248C123.403 88.7443 123.322 88.7705 123.235 88.8031C123.174 88.8227 123.107 88.8357 123.053 88.8618C122.972 88.8945 122.898 88.9402 122.824 88.9794C122.77 89.012 122.71 89.0381 122.656 89.0708C122.582 89.123 122.515 89.1817 122.447 89.2405C122.4 89.2797 122.353 89.3123 122.313 89.3515C122.252 89.4102 122.198 89.482 122.145 89.5473C122.104 89.593 122.064 89.6387 122.03 89.691C121.99 89.7497 121.956 89.8215 121.923 89.8868C121.889 89.9521 121.849 90.0174 121.815 90.0892C121.788 90.1479 121.775 90.2132 121.754 90.272C121.727 90.3569 121.694 90.4417 121.68 90.5266C121.68 90.5331 121.68 90.5462 121.674 90.5527C121.66 90.618 121.667 90.6833 121.66 90.7486C121.66 90.8138 121.64 90.8791 121.64 90.9509V94.6786C121.64 94.9071 121.64 95.1356 121.627 95.3511C121.512 99.2355 120.436 103.002 118.505 106.227C116.782 109.106 113.808 111.914 109.67 114.564C106.73 116.444 103.803 117.548 100.963 117.841C97.4781 118.2 93.5689 117.326 89.9625 115.374C81.747 110.934 76.8958 103.636 76.6536 95.3511C76.6536 95.1291 76.6401 94.9071 76.6401 94.6852V90.9575C76.6401 90.8857 76.6267 90.8204 76.6199 90.7551C76.6199 90.6898 76.62 90.6245 76.6065 90.5592C76.6065 90.5527 76.6065 90.5396 76.5998 90.5331C76.5796 90.4417 76.5527 90.3569 76.5258 90.272C76.5056 90.2132 76.4921 90.1479 76.4652 90.0892C76.4316 90.0174 76.3912 89.9456 76.3508 89.8803C76.3172 89.8215 76.2903 89.7562 76.2499 89.6975C76.2095 89.6387 76.1624 89.5865 76.1153 89.5343C76.0682 89.4755 76.0211 89.4102 75.9673 89.358C75.9135 89.3058 75.8529 89.2666 75.7991 89.2144C75.7385 89.1687 75.6847 89.1165 75.6241 89.0773C75.5636 89.0381 75.4896 89.0055 75.4223 88.9663C75.355 88.9337 75.2944 88.8945 75.2272 88.8618C75.1599 88.8357 75.0926 88.8162 75.0253 88.7966C74.9446 88.7705 74.8706 88.7443 74.7898 88.7248C74.7293 88.7117 74.662 88.7117 74.6014 88.6986C74.5072 88.6856 74.4197 88.6725 74.3188 88.6725C74.3054 88.6725 74.2986 88.6725 74.2919 88.6725C74.2246 88.6725 74.1573 88.6856 74.0901 88.6921C74.0228 88.6921 73.9555 88.6921 73.8815 88.7052C73.7536 88.7248 73.6325 88.7378 73.5047 88.7378C71.8629 88.7378 70.4769 86.7271 70.4769 84.3507C70.4769 83.8611 70.5374 83.378 70.6518 82.9275C72.4281 83.7044 74.4669 83.6979 76.2566 82.8688L85.7706 78.4556C94.2754 74.5125 104.032 74.5125 112.536 78.4556L122.044 82.8688C122.965 83.2931 123.948 83.5086 124.923 83.5086C125.899 83.5086 126.787 83.3127 127.648 82.9341C127.763 83.3845 127.817 83.8676 127.817 84.3573C127.817 86.7336 126.431 88.7443 124.789 88.7443L124.782 88.7378ZM80.5023 42.0076H117.785C122.797 42.0076 126.875 45.9638 126.875 50.8275V62.4088H111.85C110.552 62.4088 109.495 63.4338 109.495 64.6938C109.495 65.9537 110.552 66.9787 111.85 66.9787H126.875V77.0194C126.875 77.966 126.236 78.4621 125.96 78.6319C125.684 78.8016 124.95 79.1476 124.069 78.7363L114.562 74.3231C104.765 69.7794 93.5285 69.7794 83.7386 74.3231L74.2246 78.7363C73.3432 79.1476 72.6098 78.7951 72.3339 78.6319C72.0581 78.4621 71.4189 77.9725 71.4189 77.0194V66.9787H87.6613C88.9599 66.9787 90.0163 65.9537 90.0163 64.6938C90.0163 63.4338 88.9599 62.4088 87.6613 62.4088H71.4189V50.8275C71.4189 45.9638 75.4963 42.0076 80.509 42.0076H80.5023Z" fill="white"/>
</g>
<defs>
<clipPath id="clip0_132_1756">
<rect width="163.999" height="152.125" fill="white" transform="translate(32.9927 37.4377)"/>
</clipPath>
</defs>
</svg>
