<svg width="101" height="100" viewBox="0 0 101 100" fill="none" xmlns="http://www.w3.org/2000/svg">
<rect x="0.5" width="100" height="100" rx="10" fill="#0F5385"/>
<g clip-path="url(#clip0_28_662)">
<path d="M78.3987 61.5897C81.5636 57.6508 83.3088 52.7241 83.3088 47.7146V34.4438C83.3088 33.9223 82.9199 33.4744 82.3919 33.3855C80.223 33.0204 78.0668 32.4621 75.9895 31.7228C73.5013 30.8393 71.1142 29.6951 68.8947 28.3269C68.5343 28.103 68.0695 28.103 67.7091 28.3269C66.6215 28.9956 65.4864 29.6184 64.3356 30.1706C63.7886 30.4344 63.5641 31.0786 63.8361 31.6093C64.108 32.14 64.7719 32.3578 65.3189 32.094C66.3306 31.6062 67.3329 31.0694 68.3003 30.4957C70.4851 31.7903 72.8121 32.8793 75.2276 33.7383C77.1372 34.4162 79.107 34.9531 81.0957 35.3365V47.7146C81.0957 52.2486 79.518 56.7059 76.6535 60.2675C76.2773 60.7338 76.3626 61.4087 76.8464 61.7737C77.0487 61.9271 77.289 62.0007 77.5261 62.0007C77.8549 62.0007 78.1806 61.8596 78.3987 61.5866V61.5897Z" fill="white"/>
<path d="M88.69 27.6183C85.1047 27.6183 81.5826 27.0139 78.2217 25.8175C74.8703 24.6242 71.7877 22.891 69.0623 20.6577C68.6481 20.2804 67.9937 20.2804 67.5668 20.6393C65.7014 22.1701 63.6432 23.483 61.4521 24.5383C60.9052 24.8021 60.6807 25.4463 60.9526 25.9771C61.2245 26.5078 61.8885 26.7256 62.4354 26.4617C64.519 25.4586 66.4887 24.2408 68.3035 22.8327C71.0605 24.9709 74.1368 26.6519 77.4597 27.8361C80.7163 28.9956 84.1182 29.6368 87.5834 29.7503V47.7207C87.5834 55.6414 83.9949 63.102 77.738 68.1944C77.27 68.5748 77.21 69.2527 77.602 69.7067C77.8202 69.9613 78.1332 70.0902 78.4493 70.0902C78.6991 70.0902 78.952 70.0073 79.1607 69.8386C85.9204 64.3383 89.7966 56.2765 89.7966 47.7207V28.695C89.7966 28.103 89.3002 27.6213 88.69 27.6213V27.6183Z" fill="white"/>
<path d="M66.0081 53.3254C65.5275 51.6719 63.9625 50.4571 62.1066 50.4571H56.5357C55.9255 50.4571 55.4291 50.9387 55.4291 51.5308V56.1599C55.4291 57.252 54.9897 58.2797 54.1929 59.0527L44.2495 68.7005L34.7897 59.5221C33.68 58.4453 33.0698 57.0158 33.0698 55.4942V51.5308C33.0698 50.9387 32.5734 50.4571 31.9632 50.4571H26.3923C24.47 50.4571 22.8607 51.7639 22.4434 53.5064C16.4425 56.9667 12.7338 63.2585 12.7338 70.0534V84.6678C12.7338 85.2598 13.2302 85.7415 13.8404 85.7415C14.4506 85.7415 14.947 85.2598 14.947 84.6678V79.9865H22.5856L22.3422 82.8364C22.2916 83.4284 22.7437 83.9469 23.3539 83.996C23.3855 83.996 23.4172 83.999 23.4456 83.999C24.0147 83.999 24.4984 83.5757 24.5459 83.0143L25.4817 72.1087C25.8927 67.3385 25.7473 62.5161 25.0549 57.7735L24.549 54.3224C24.587 53.3683 25.3964 52.6014 26.3891 52.6014H30.8534V55.4911C30.8534 57.5864 31.6944 59.5558 33.2215 61.0375L43.1397 70.6608V82.9223C43.1397 83.5143 43.6361 83.996 44.2463 83.996C44.8565 83.996 45.3529 83.5143 45.3529 82.9223V70.6608L55.7548 60.5681C56.9689 59.3902 57.6392 57.8226 57.6392 56.1568V52.6014H62.1034C63.0962 52.6014 63.9088 53.3683 63.9435 54.3224L63.8139 55.2028C62.8717 61.651 62.6757 68.2097 63.2322 74.6978L63.9467 83.0143C63.9941 83.5757 64.4779 83.999 65.047 83.999C65.0786 83.999 65.1102 83.999 65.1387 83.996C65.7489 83.9469 66.201 83.4284 66.1504 82.8364L65.9069 79.9865H73.8175V84.6678C73.8175 85.2598 74.3138 85.7415 74.9241 85.7415C75.5343 85.7415 76.0306 85.2598 76.0306 84.6678V70.0534C76.0306 63.1082 72.1987 56.7428 65.9986 53.3254H66.0081ZM14.947 77.8422V70.0564C14.947 64.4119 17.8273 59.157 22.5603 55.985L22.867 58.0772C23.5373 62.6603 23.6764 67.3201 23.278 71.9308L22.769 77.8391H14.947V77.8422ZM73.8269 77.8422H65.7299L65.4453 74.523C64.911 68.2987 65.0912 62.0099 65.9702 55.8255C70.855 58.976 73.8269 64.2923 73.8269 70.0564V77.8422Z" fill="white"/>
<path d="M31.0336 40.4227V41.1559C31.0336 41.2786 31.0336 41.3982 31.04 41.5332C31.1759 46.2022 33.8697 50.2914 38.4288 52.7548C40.2215 53.7241 42.1027 54.2242 43.9206 54.2242C44.2526 54.2242 44.5814 54.2088 44.9102 54.1751C46.5986 54.0002 48.3059 53.3683 49.9847 52.2946C52.2485 50.8436 53.8356 49.3282 54.8316 47.6624C55.9224 45.8372 56.5357 43.7174 56.599 41.5271C56.599 41.4013 56.6053 41.2817 56.6053 41.1559V40.4227C58.2588 40.027 59.5077 38.3306 59.5077 36.2998C59.5077 35.4285 59.2832 34.6064 58.869 33.9101C58.9955 33.5787 59.0651 33.2229 59.0651 32.8578V20.5503C59.0651 17.0808 56.1563 14.2585 52.5805 14.2585H35.0616C31.4857 14.2585 28.577 17.0808 28.577 20.5503V32.8609C28.577 33.229 28.6466 33.5818 28.773 33.9131C28.3588 34.6064 28.1344 35.4316 28.1344 36.3028C28.1344 38.3336 29.3832 40.0301 31.0368 40.4258L31.0336 40.4227ZM55.8654 38.3643C55.8054 38.3643 55.7485 38.3582 55.6884 38.349C55.6568 38.3428 55.6252 38.3459 55.5935 38.3428C55.5619 38.3428 55.5303 38.3336 55.4955 38.3336C55.4892 38.3336 55.486 38.3336 55.4797 38.3336C55.4355 38.3336 55.3912 38.3398 55.3469 38.3459C55.3185 38.349 55.2869 38.352 55.2584 38.3582C55.2173 38.3674 55.1794 38.3796 55.1383 38.395C55.1098 38.4042 55.0782 38.4103 55.0529 38.4226C55.015 38.4379 54.9802 38.4594 54.9454 38.4778C54.9201 38.4932 54.8916 38.5054 54.8664 38.5208C54.8316 38.5453 54.8 38.5729 54.7683 38.6005C54.7462 38.6189 54.7241 38.6343 54.7051 38.6527C54.6767 38.6803 54.6514 38.714 54.6261 38.7447C54.6071 38.7662 54.5881 38.7877 54.5723 38.8122C54.5534 38.8398 54.5375 38.8735 54.5217 38.9042C54.5059 38.9349 54.487 38.9656 54.4711 38.9993C54.4585 39.0269 54.4522 39.0576 54.4427 39.0852C54.43 39.1251 54.4142 39.165 54.4079 39.2049C54.4079 39.2079 54.4079 39.2141 54.4048 39.2171C54.3984 39.2478 54.4016 39.2785 54.3984 39.3092C54.3984 39.3398 54.3889 39.3705 54.3889 39.4043V41.1559C54.3889 41.2633 54.3889 41.3706 54.3826 41.4719C54.3289 43.2971 53.823 45.0672 52.9156 46.5826C52.1062 47.9354 50.7087 49.2545 48.7643 50.5C47.3827 51.3835 46.0073 51.9019 44.6731 52.04C43.0354 52.2087 41.1984 51.7976 39.5038 50.8804C35.6434 48.7944 33.3638 45.3647 33.25 41.4719C33.25 41.3676 33.2436 41.2633 33.2436 41.159V39.4073C33.2436 39.3736 33.2373 39.3429 33.2342 39.3122C33.2342 39.2815 33.2342 39.2509 33.2278 39.2202C33.2278 39.2171 33.2278 39.211 33.2247 39.2079C33.2152 39.165 33.2025 39.1251 33.1899 39.0852C33.1804 39.0576 33.1741 39.0269 33.1614 38.9993C33.1456 38.9656 33.1267 38.9318 33.1077 38.9012C33.0919 38.8735 33.0792 38.8429 33.0603 38.8153C33.0413 38.7877 33.0192 38.7631 32.997 38.7386C32.9749 38.711 32.9528 38.6803 32.9275 38.6557C32.9022 38.6312 32.8737 38.6128 32.8484 38.5883C32.82 38.5668 32.7947 38.5422 32.7662 38.5238C32.7378 38.5054 32.703 38.4901 32.6714 38.4717C32.6398 38.4563 32.6113 38.4379 32.5797 38.4226C32.5481 38.4103 32.5165 38.4011 32.4848 38.3919C32.4469 38.3796 32.4121 38.3674 32.3742 38.3582C32.3457 38.352 32.3141 38.352 32.2857 38.3459C32.2414 38.3398 32.2003 38.3336 32.1529 38.3336C32.1465 38.3336 32.1434 38.3336 32.1402 38.3336C32.1086 38.3336 32.077 38.3398 32.0454 38.3428C32.0137 38.3428 31.9821 38.3428 31.9474 38.349C31.8873 38.3582 31.8304 38.3643 31.7703 38.3643C30.9988 38.3643 30.3475 37.4195 30.3475 36.3028C30.3475 36.0728 30.376 35.8458 30.4297 35.6341C31.2644 35.9991 32.2224 35.9961 33.0634 35.6065L37.534 33.5327C41.5304 31.6799 46.1148 31.6799 50.1112 33.5327L54.5786 35.6065C55.0118 35.8059 55.4734 35.9071 55.9318 35.9071C56.3903 35.9071 56.8076 35.8151 57.2123 35.6372C57.2661 35.8488 57.2914 36.0758 57.2914 36.3059C57.2914 37.4225 56.6401 38.3674 55.8686 38.3674L55.8654 38.3643ZM35.0584 16.4059H52.5773C54.9328 16.4059 56.8487 18.2649 56.8487 20.5503V25.9924H49.7887C49.1785 25.9924 48.6821 26.474 48.6821 27.0661C48.6821 27.6581 49.1785 28.1398 49.7887 28.1398H56.8487V32.8578C56.8487 33.3027 56.5484 33.5358 56.4187 33.6156C56.2891 33.6953 55.9445 33.8579 55.5303 33.6646L51.0629 31.5909C46.4595 29.4558 41.1795 29.4558 36.5792 31.5909L32.1086 33.6646C31.6944 33.8579 31.3498 33.6922 31.2202 33.6156C31.0905 33.5358 30.7902 33.3057 30.7902 32.8578V28.1398H38.4225C39.0327 28.1398 39.5291 27.6581 39.5291 27.0661C39.5291 26.474 39.0327 25.9924 38.4225 25.9924H30.7902V20.5503C30.7902 18.2649 32.7062 16.4059 35.0616 16.4059H35.0584Z" fill="white"/>
</g>
<defs>
<clipPath id="clip0_28_662">
<rect width="77.0627" height="71.4829" fill="white" transform="translate(12.7338 14.2585)"/>
</clipPath>
</defs>
</svg>
