<svg width="227" height="227" viewBox="0 0 227 227" fill="none" xmlns="http://www.w3.org/2000/svg">
<rect width="227" height="227" rx="10" fill="#0F5385"/>
<g clip-path="url(#clip0_132_1922)">
<path d="M165.054 37.4377H65.4199C57.614 37.4377 51.2692 43.5207 51.2692 50.9905V176.01C51.2692 176.18 51.289 176.35 51.2956 176.514C51.289 176.684 51.2692 176.848 51.2692 177.018C51.2692 177.258 51.3219 177.485 51.3943 177.699C52.2696 184.374 58.2195 189.556 65.4199 189.556H165.054C172.86 189.556 179.205 183.473 179.205 176.003V50.9905C179.205 43.5207 172.86 37.4377 165.054 37.4377ZM65.4199 41.8503H66.9206V158.498C66.9206 159.715 67.9539 160.704 69.2242 160.704C70.4945 160.704 71.5278 159.715 71.5278 158.498V41.8503H165.054C170.32 41.8503 174.598 45.9476 174.598 50.9905V160.433C172.156 163.012 168.694 164.487 165.048 164.487H64.3603C61.1221 164.487 58.1669 165.621 55.8764 167.493V50.9905C55.8764 45.9476 60.1546 41.8503 65.4199 41.8503ZM165.054 185.15H65.4199C60.3388 185.15 56.1792 181.317 55.9028 176.514C56.1792 172.272 59.8584 168.893 64.3603 168.893H165.048C168.47 168.893 171.781 167.928 174.598 166.176V176.003C174.598 181.046 170.32 185.143 165.054 185.143V185.15Z" fill="white"/>
<path d="M119.015 133.391C138.602 133.391 154.543 118.124 154.543 99.3642C154.543 80.6047 138.609 65.3374 119.015 65.3374C99.4212 65.3374 83.4868 80.6047 83.4868 99.3642C83.4868 118.124 99.4212 133.391 119.015 133.391ZM119.015 69.7499C136.062 69.7499 149.936 83.0316 149.936 99.3642C149.936 115.697 136.062 128.978 119.015 128.978C101.968 128.978 88.094 115.697 88.094 99.3642C88.094 83.0316 101.968 69.7499 119.015 69.7499Z" fill="white"/>
<path d="M111.064 118.218H128.4C129.671 118.218 130.704 117.229 130.704 116.012C130.704 114.795 129.671 113.806 128.4 113.806H122.398V91.4532C122.398 90.2366 121.365 89.2469 120.094 89.2469H112.874C111.604 89.2469 110.571 90.2366 110.571 91.4532C110.571 92.6698 111.604 93.6595 112.874 93.6595H117.791V113.806H111.064C109.794 113.806 108.761 114.795 108.761 116.012C108.761 117.229 109.794 118.218 111.064 118.218Z" fill="white"/>
<path d="M119.37 84.9227C121.042 84.9227 122.398 83.6241 122.398 82.023C122.398 80.4219 121.042 79.1234 119.37 79.1234C117.699 79.1234 116.343 80.4219 116.343 82.023C116.343 83.6241 117.699 84.9227 119.37 84.9227ZM119.37 80.5102C120.239 80.5102 120.95 81.1909 120.95 82.023C120.95 82.8551 120.239 83.5359 119.37 83.5359C118.502 83.5359 117.791 82.8551 117.791 82.023C117.791 81.1909 118.502 80.5102 119.37 80.5102Z" fill="white"/>
</g>
<defs>
<clipPath id="clip0_132_1922">
<rect width="127.936" height="152.125" fill="white" transform="translate(51.2692 37.4377)"/>
</clipPath>
</defs>
</svg>
