<svg width="101" height="100" viewBox="0 0 101 100" fill="none" xmlns="http://www.w3.org/2000/svg">
<rect x="0.5" width="100" height="100" rx="10" fill="#0F5385"/>
<g clip-path="url(#clip0_28_680)">
<path d="M73.211 16.4924H29.3193C25.8806 16.4924 23.0855 19.1721 23.0855 22.4627V77.5372C23.0855 77.6122 23.0942 77.6872 23.0971 77.7594C23.0942 77.8343 23.0855 77.9065 23.0855 77.9815C23.0855 78.087 23.1087 78.187 23.1406 78.2814C23.5262 81.2222 26.1473 83.5048 29.3193 83.5048H73.211C76.6498 83.5048 79.4448 80.8251 79.4448 77.5344V22.4627C79.4448 19.1721 76.6498 16.4924 73.211 16.4924ZM29.3193 18.4362H29.9804V69.823C29.9804 70.3589 30.4356 70.7949 30.9952 70.7949C31.5548 70.7949 32.01 70.3589 32.01 69.823V18.4362H73.211C75.5306 18.4362 77.4152 20.2412 77.4152 22.4627V70.6755C76.3395 71.8112 74.8144 72.461 73.2081 72.461H28.8525C27.426 72.461 26.1241 72.9609 25.1151 73.7856V22.4627C25.1151 20.2412 26.9998 18.4362 29.3193 18.4362ZM73.211 81.5637H29.3193C27.0809 81.5637 25.2485 79.8754 25.1267 77.7594C25.2485 75.8905 26.8693 74.4021 28.8525 74.4021H73.2081C74.7158 74.4021 76.1743 73.9772 77.4152 73.2052V77.5344C77.4152 79.756 75.5306 81.561 73.211 81.561V81.5637Z" fill="white"/>
<path d="M52.9294 58.7625C61.5582 58.7625 68.5806 52.0368 68.5806 43.7727C68.5806 35.5086 61.5611 28.783 52.9294 28.783C44.2978 28.783 37.2783 35.5086 37.2783 43.7727C37.2783 52.0368 44.2978 58.7625 52.9294 58.7625ZM52.9294 30.7268C60.439 30.7268 66.551 36.5778 66.551 43.7727C66.551 50.9677 60.439 56.8187 52.9294 56.8187C45.4199 56.8187 39.3079 50.9677 39.3079 43.7727C39.3079 36.5778 45.4199 30.7268 52.9294 30.7268Z" fill="white"/>
<path d="M49.4269 52.0785H57.064C57.6236 52.0785 58.0788 51.6425 58.0788 51.1066C58.0788 50.5706 57.6236 50.1346 57.064 50.1346H54.4197V40.2877C54.4197 39.7518 53.9645 39.3158 53.4049 39.3158H50.2243C49.6647 39.3158 49.2095 39.7518 49.2095 40.2877C49.2095 40.8237 49.6647 41.2596 50.2243 41.2596H52.3901V50.1346H49.4269C48.8673 50.1346 48.4121 50.5706 48.4121 51.1066C48.4121 51.6425 48.8673 52.0785 49.4269 52.0785Z" fill="white"/>
<path d="M53.086 37.4108C53.8225 37.4108 54.4197 36.8388 54.4197 36.1335C54.4197 35.4281 53.8225 34.8561 53.086 34.8561C52.3495 34.8561 51.7523 35.4281 51.7523 36.1335C51.7523 36.8388 52.3495 37.4108 53.086 37.4108ZM53.086 35.467C53.4687 35.467 53.7819 35.7669 53.7819 36.1335C53.7819 36.5 53.4687 36.7999 53.086 36.7999C52.7033 36.7999 52.3901 36.5 52.3901 36.1335C52.3901 35.7669 52.7033 35.467 53.086 35.467Z" fill="white"/>
</g>
<defs>
<clipPath id="clip0_28_680">
<rect width="56.3593" height="67.0152" fill="white" transform="translate(23.0855 16.4924)"/>
</clipPath>
</defs>
</svg>
