<svg width="120" height="120" viewBox="0 0 120 120" fill="none" xmlns="http://www.w3.org/2000/svg">
<rect width="120" height="120" rx="10" fill="#0F5385"/>
<g clip-path="url(#clip0_132_1922)">
<path d="M87.2533 19.7909H34.5832C30.4567 19.7909 27.1027 23.0065 27.1027 26.9553V93.0447C27.1027 93.1347 27.1131 93.2246 27.1166 93.3113C27.1131 93.4013 27.1027 93.4879 27.1027 93.5779C27.1027 93.7045 27.1305 93.8245 27.1688 93.9378C27.6315 97.4667 30.7768 100.206 34.5832 100.206H87.2533C91.3798 100.206 94.7338 96.9901 94.7338 93.0414V26.9553C94.7338 23.0065 91.3798 19.7909 87.2533 19.7909ZM34.5832 22.1235H35.3765V83.7876C35.3765 84.4307 35.9228 84.9539 36.5943 84.9539C37.2658 84.9539 37.812 84.4307 37.812 83.7876V22.1235H87.2533C90.0368 22.1235 92.2983 24.2895 92.2983 26.9553V84.8106C91.0075 86.1735 89.1774 86.9533 87.2498 86.9533H34.023C32.3112 86.9533 30.749 87.5531 29.5382 88.5428V26.9553C29.5382 24.2895 31.7998 22.1235 34.5832 22.1235ZM87.2533 97.8765H34.5832C31.8972 97.8765 29.6982 95.8505 29.5521 93.3113C29.6982 91.0687 31.6432 89.2825 34.023 89.2825H87.2498C89.0591 89.2825 90.8092 88.7727 92.2983 87.8463V93.0414C92.2983 95.7072 90.0368 97.8732 87.2533 97.8732V97.8765Z" fill="white"/>
<path d="M62.9154 70.5151C73.2699 70.5151 81.6968 62.4442 81.6968 52.5273C81.6968 42.6104 73.2733 34.5396 62.9154 34.5396C52.5574 34.5396 44.134 42.6104 44.134 52.5273C44.134 62.4442 52.5574 70.5151 62.9154 70.5151ZM62.9154 36.8722C71.9268 36.8722 79.2613 43.8934 79.2613 52.5273C79.2613 61.1613 71.9268 68.1825 62.9154 68.1825C53.9039 68.1825 46.5695 61.1613 46.5695 52.5273C46.5695 43.8934 53.9039 36.8722 62.9154 36.8722Z" fill="white"/>
<path d="M58.7123 62.4942H67.8769C68.5484 62.4942 69.0946 61.9711 69.0946 61.3279C69.0946 60.6848 68.5484 60.1616 67.8769 60.1616H64.7037V48.3453C64.7037 47.7022 64.1575 47.179 63.486 47.179H59.6691C58.9976 47.179 58.4514 47.7022 58.4514 48.3453C58.4514 48.9884 58.9976 49.5116 59.6691 49.5116H62.2682V60.1616H58.7123C58.0408 60.1616 57.4946 60.6848 57.4946 61.3279C57.4946 61.9711 58.0408 62.4942 58.7123 62.4942Z" fill="white"/>
<path d="M63.1033 44.893C63.987 44.893 64.7038 44.2066 64.7038 43.3602C64.7038 42.5138 63.987 41.8273 63.1033 41.8273C62.2195 41.8273 61.5028 42.5138 61.5028 43.3602C61.5028 44.2066 62.2195 44.893 63.1033 44.893ZM63.1033 42.5604C63.5626 42.5604 63.9383 42.9203 63.9383 43.3602C63.9383 43.8001 63.5626 44.1599 63.1033 44.1599C62.644 44.1599 62.2683 43.8001 62.2683 43.3602C62.2683 42.9203 62.644 42.5604 63.1033 42.5604Z" fill="white"/>
</g>
<defs>
<clipPath id="clip0_132_1922">
<rect width="67.6312" height="80.4183" fill="white" transform="translate(27.1027 19.7909)"/>
</clipPath>
</defs>
</svg>
