<svg width="142" height="142" viewBox="0 0 142 142" fill="none" xmlns="http://www.w3.org/2000/svg">
<path d="M45.6 109.28C38.688 109.28 33.3973 107.317 29.728 103.392C26.0587 99.4667 24.224 93.92 24.224 86.752V39.648C24.224 32.48 26.0587 26.9333 29.728 23.008C33.3973 19.0827 38.688 17.12 45.6 17.12C52.512 17.12 57.8027 19.0827 61.472 23.008C65.1413 26.9333 66.976 32.48 66.976 39.648V86.752C66.976 93.92 65.1413 99.4667 61.472 103.392C57.8027 107.317 52.512 109.28 45.6 109.28ZM45.6 96.48C50.464 96.48 52.896 93.536 52.896 87.648V38.752C52.896 32.864 50.464 29.92 45.6 29.92C40.736 29.92 38.304 32.864 38.304 38.752V87.648C38.304 93.536 40.736 96.48 45.6 96.48ZM96.21 39.648H81.49V29.664C85.5007 29.664 88.7007 29.3227 91.09 28.64C93.5647 27.9573 95.5273 26.848 96.978 25.312C98.4287 23.6907 99.7087 21.3867 100.818 18.4H110.29V108H96.21V39.648Z" fill="white"/>
<line x1="20" y1="121" x2="122" y2="121" stroke="white" stroke-width="8"/>
</svg>
