<svg width="142" height="142" viewBox="0 0 142 142" fill="none" xmlns="http://www.w3.org/2000/svg">
<path d="M44.6 109.28C37.688 109.28 32.3973 107.317 28.728 103.392C25.0587 99.4667 23.224 93.92 23.224 86.752V39.648C23.224 32.48 25.0587 26.9333 28.728 23.008C32.3973 19.0827 37.688 17.12 44.6 17.12C51.512 17.12 56.8027 19.0827 60.472 23.008C64.1413 26.9333 65.976 32.48 65.976 39.648V86.752C65.976 93.92 64.1413 99.4667 60.472 103.392C56.8027 107.317 51.512 109.28 44.6 109.28ZM44.6 96.48C49.464 96.48 51.896 93.536 51.896 87.648V38.752C51.896 32.864 49.464 29.92 44.6 29.92C39.736 29.92 37.304 32.864 37.304 38.752V87.648C37.304 93.536 39.736 96.48 44.6 96.48ZM75.242 98.272C75.242 91.872 76.266 86.4107 78.314 81.888C80.362 77.28 84.0313 72.2027 89.322 66.656C94.5273 61.1093 98.1113 56.3733 100.074 52.448C102.122 48.5227 103.146 44.4267 103.146 40.16C103.146 36.32 102.506 33.6747 101.226 32.224C100.031 30.688 98.2393 29.92 95.85 29.92C90.986 29.92 88.554 32.864 88.554 38.752V48.352H75.242V39.648C75.242 32.3947 77.034 26.848 80.618 23.008C84.202 19.0827 89.4073 17.12 96.234 17.12C103.061 17.12 108.266 19.0827 111.85 23.008C115.434 26.848 117.226 32.3947 117.226 39.648C117.226 45.1093 115.903 50.4427 113.258 55.648C110.698 60.8533 106.218 66.8267 99.818 73.568C95.6367 78.0053 92.8207 81.632 91.37 84.448C89.9193 87.1787 89.194 90.1227 89.194 93.28V95.2H115.946V108H75.242V98.272Z" fill="#E56130"/>
<line x1="20" y1="121" x2="122" y2="121" stroke="#E56130" stroke-width="8"/>
</svg>
