<svg width="142" height="142" viewBox="0 0 142 142" fill="none" xmlns="http://www.w3.org/2000/svg">
<path d="M44.6 109.28C37.688 109.28 32.3973 107.317 28.728 103.392C25.0587 99.4667 23.224 93.92 23.224 86.752V39.648C23.224 32.48 25.0587 26.9333 28.728 23.008C32.3973 19.0827 37.688 17.12 44.6 17.12C51.512 17.12 56.8027 19.0827 60.472 23.008C64.1413 26.9333 65.976 32.48 65.976 39.648V86.752C65.976 93.92 64.1413 99.4667 60.472 103.392C56.8027 107.317 51.512 109.28 44.6 109.28ZM44.6 96.48C49.464 96.48 51.896 93.536 51.896 87.648V38.752C51.896 32.864 49.464 29.92 44.6 29.92C39.736 29.92 37.304 32.864 37.304 38.752V87.648C37.304 93.536 39.736 96.48 44.6 96.48ZM95.466 109.28C88.554 109.28 83.306 107.36 79.722 103.52C76.2233 99.68 74.474 94.176 74.474 87.008V79.712H87.786V87.648C87.786 93.536 90.218 96.48 95.082 96.48C97.4713 96.48 99.2633 95.7547 100.458 94.304C101.738 92.768 102.378 90.1227 102.378 86.368V79.072C102.378 74.976 101.653 72.0747 100.202 70.368C98.7513 68.576 96.4047 67.68 93.162 67.68H88.426V54.88H93.546C96.362 54.88 98.4527 54.1547 99.818 52.704C101.269 51.2533 101.994 48.8213 101.994 45.408V38.88C101.994 35.808 101.354 33.5467 100.074 32.096C98.794 30.6453 97.0873 29.92 94.954 29.92C90.4313 29.92 88.17 32.6933 88.17 38.24V44.128H74.858V39.392C74.858 32.224 76.6073 26.72 80.106 22.88C83.69 19.04 88.81 17.12 95.466 17.12C102.207 17.12 107.327 19.04 110.826 22.88C114.325 26.6347 116.074 32.096 116.074 39.264V42.464C116.074 47.328 115.263 51.2533 113.642 54.24C112.021 57.1413 109.503 59.232 106.09 60.512V60.768C109.759 62.1333 112.405 64.352 114.026 67.424C115.647 70.496 116.458 74.4213 116.458 79.2V87.136C116.458 94.304 114.666 99.808 111.082 103.648C107.583 107.403 102.378 109.28 95.466 109.28Z" fill="white"/>
<line x1="20" y1="121" x2="122" y2="121" stroke="white" stroke-width="8"/>
</svg>
