<svg width="142" height="142" viewBox="0 0 142 142" fill="none" xmlns="http://www.w3.org/2000/svg">
<path d="M43.6 109.28C36.688 109.28 31.3973 107.317 27.728 103.392C24.0587 99.4667 22.224 93.92 22.224 86.752V39.648C22.224 32.48 24.0587 26.9333 27.728 23.008C31.3973 19.0827 36.688 17.12 43.6 17.12C50.512 17.12 55.8027 19.0827 59.472 23.008C63.1413 26.9333 64.976 32.48 64.976 39.648V86.752C64.976 93.92 63.1413 99.4667 59.472 103.392C55.8027 107.317 50.512 109.28 43.6 109.28ZM43.6 96.48C48.464 96.48 50.896 93.536 50.896 87.648V38.752C50.896 32.864 48.464 29.92 43.6 29.92C38.736 29.92 36.304 32.864 36.304 38.752V87.648C36.304 93.536 38.736 96.48 43.6 96.48ZM98.05 91.744H71.17V78.944L96.77 18.4H112.13V78.944H118.786V91.744H112.13V108H98.05V91.744ZM98.05 78.944V44H97.794L83.97 78.944H98.05Z" fill="#E56130"/>
<line x1="20" y1="121" x2="122" y2="121" stroke="#E56130" stroke-width="8"/>
</svg>
