<svg width="142" height="142" viewBox="0 0 142 142" fill="none" xmlns="http://www.w3.org/2000/svg">
<path d="M43.6 109.28C36.688 109.28 31.3973 107.317 27.728 103.392C24.0587 99.4667 22.224 93.92 22.224 86.752V39.648C22.224 32.48 24.0587 26.9333 27.728 23.008C31.3973 19.0827 36.688 17.12 43.6 17.12C50.512 17.12 55.8027 19.0827 59.472 23.008C63.1413 26.9333 64.976 32.48 64.976 39.648V86.752C64.976 93.92 63.1413 99.4667 59.472 103.392C55.8027 107.317 50.512 109.28 43.6 109.28ZM43.6 96.48C48.464 96.48 50.896 93.536 50.896 87.648V38.752C50.896 32.864 48.464 29.92 43.6 29.92C38.736 29.92 36.304 32.864 36.304 38.752V87.648C36.304 93.536 38.736 96.48 43.6 96.48ZM95.106 109.28C88.2793 109.28 83.074 107.36 79.49 103.52C75.906 99.5947 74.114 94.0053 74.114 86.752V79.712H87.426V87.776C87.426 93.5787 89.858 96.48 94.722 96.48C99.586 96.48 102.018 93.5787 102.018 87.776V67.68C102.018 61.792 99.586 58.848 94.722 58.848C89.858 58.848 87.426 61.792 87.426 67.68V68.448H74.114L76.674 18.4H113.794V31.2H89.218L88.066 52.576H88.322C90.9673 48.224 95.0207 46.048 100.482 46.048C105.602 46.048 109.485 47.7973 112.13 51.296C114.775 54.7947 116.098 59.872 116.098 66.528V86.752C116.098 94.0053 114.306 99.5947 110.722 103.52C107.138 107.36 101.933 109.28 95.106 109.28Z" fill="#E56130"/>
<line x1="20" y1="121" x2="122" y2="121" stroke="#E56130" stroke-width="8"/>
</svg>
