<?xml version="1.0" encoding="UTF-8"?>
<svg xmlns="http://www.w3.org/2000/svg" version="1.1" viewBox="0 0 200 200">
  <defs>
    <style>
      .cls-1 {
        fill: #c91e1d;
      }

      .cls-2 {
        fill: #fff;
      }

      .cls-3 {
        fill: #00b0c1;
      }

      .cls-4 {
        fill: #0f5385;
      }

      .cls-5 {
        fill: #3493c3;
      }

      .cls-6 {
        fill: #ff7675;
      }
    </style>
  </defs>
  <!-- Generator: Adobe Illustrator 28.7.3, SVG Export Plug-In . SVG Version: 1.2.0 Build 164)  -->
  <g>
    <g id="_圖層_1" data-name="圖層_1">
      <rect class="cls-2" y="0" width="200" height="200"/>
      <path class="cls-2" d="M139.4,112.9c-.3,0-.6,0-.8-.2l-11.4-5.4c-.5-.2-.9-.7-1-1.2-.2-.5,0-1.1.2-1.5l12.5-21c.5-.9,1.7-1.2,2.6-.7.9.5,1.2,1.7.7,2.6l-11.4,19.1,9.5,4.5c1,.5,1.4,1.6.9,2.6-.3.7-1,1.1-1.7,1.1Z"/>
      <path class="cls-6" d="M105.2,70.5c.2-1.5,0-3-.5-4.2-3-.7-6.2-.7-9,0-.5,1.2-.7,2.7-.5,3.9,2.5-1.7,6.7-2,10,.2h0Z"/>
      <path class="cls-1" d="M95,76.9c-2.2-2.5-3.3-5.9-3-9.1-.5.2-1,.5-1.3,1-.5.5-6,5.2-3,10.8.2.5.7,1.2,1.3,1.7l12.2,13.1,10,10.8.5-3.4c0-.7.7-1.2,1.5-1.2l3.5-.2c0-.5-19.7-21.2-21.7-23.4h0Z"/>
      <path class="cls-5" d="M99.7,46.4c-23,0-41.7,18.5-41.7,41.1s18.7,41.1,41.7,41.1,41.7-18.5,41.7-41.1-18.7-41.1-41.7-41.1ZM99.7,120.6c-18.5,0-33.5-14.8-33.5-33s15-33,33.5-33,33.5,14.8,33.5,33-15,33-33.5,33Z"/>
      <path class="cls-4" d="M57.6,156.3c-3.5,0-6.2,2.7-6.2,6.2s2.7,6.2,6.2,6.2h40c-3.5-4.4-7-8.6-10.7-12.3h-29.2Z"/>
      <path class="cls-3" d="M46.3,135.1c-2.5,0-4.7,2-4.7,4.7s2,4.7,4.7,4.7,4.7-2,4.7-4.7-2-4.7-4.7-4.7Z"/>
      <path class="cls-1" d="M102.5,80.4l5,5.2,4.5-4.7c2-2.2,3-6.2,0-9.9-1.3-1.2-2.5-2.5-3.8-3.2.2,2.2,0,4.2-.7,6.2-.5,1.2-1.3,2.2-2.2,3.4l-2.7,3Z"/>
      <path class="cls-1" d="M83.3,100.3l3.2.5c.7,0,1.3.5,1.3,1.2l.7,3.4,9.5-10.1-5-5.4-9.7,10.3Z"/>
      <path class="cls-4" d="M156.7,87.5c0-31-25.5-56.2-56.9-56.2s-56.9,25.1-56.9,56.2,33.5,48.3,56.9,78.8c23.5-30.6,56.9-43.1,56.9-78.8h0ZM55,87.5c0-24.4,20-44.1,44.7-44.1s44.7,19.7,44.7,44.1-20,44.1-44.7,44.1-44.7-20-44.7-44.1Z"/>
      <path class="cls-4" d="M141.9,156.3h-29.2c-3.8,3.7-7.2,7.9-10.7,12.3h40c3.5,0,6.2-2.7,6.2-6.2s-2.7-6.2-6.2-6.2Z"/>
      <path class="cls-5" d="M159.7,124.3c-4,0-7,3.2-7,6.9s3.2,6.9,7,6.9,7-3.2,7-6.9-3.3-6.9-7-6.9Z"/>
      <path class="cls-5" d="M36.3,121.3c1.2,0,2.2,1,2.2,2.2s-1,2.2-2.2,2.2-2.2-1-2.2-2.2,1-2.2,2.2-2.2Z"/>
      <path class="cls-5" d="M140.9,144.5c1.2,0,2.2,1,2.2,2.2s-1,2.2-2.2,2.2-2.2-1-2.2-2.2,1-2.2,2.2-2.2Z"/>
      <path class="cls-5" d="M165.9,105.8c1.2,0,2.2,1,2.2,2.2s-1,2.2-2.2,2.2-2.2-1-2.2-2.2,1-2.2,2.2-2.2Z"/>
      <path class="cls-5" d="M162.6,44.2c1.2,0,2.2,1,2.2,2.2s-1,2.2-2.2,2.2-2.2-1-2.2-2.2,1-2.2,2.2-2.2Z"/>
      <path class="cls-5" d="M59.8,31.1c1.2,0,2.2,1,2.2,2.2s-1,2.2-2.2,2.2-2.2-1-2.2-2.2,1-2.2,2.2-2.2Z"/>
      <path class="cls-5" d="M34.8,51.3c1.2,0,2.2,1,2.2,2.2s-1,2.2-2.2,2.2-2.2-1-2.2-2.2,1-2.2,2.2-2.2Z"/>
    </g>
  </g>
</svg>