<svg width="200" height="200" viewBox="0 0 200 200" fill="none" xmlns="http://www.w3.org/2000/svg">
<rect width="200" height="200" fill="white"/>
<path d="M139.408 112.933C139.126 112.933 138.845 112.868 138.585 112.749L127.16 107.328C126.673 107.091 126.305 106.669 126.143 106.151C125.981 105.633 126.056 105.071 126.327 104.607L138.823 83.646C139.364 82.728 140.554 82.4365 141.463 82.9764C142.383 83.5164 142.675 84.7043 142.134 85.6114L130.72 104.758L140.241 109.272C141.204 109.726 141.615 110.881 141.149 111.831C140.825 112.522 140.132 112.933 139.408 112.933Z" fill="white"/>
<path d="M105.244 70.5354C105.491 69.057 105.244 67.5786 104.75 66.3465C101.764 65.6073 98.5069 65.6073 95.7676 66.3465C95.2741 67.5786 95.0273 69.057 95.2741 70.289C97.7665 68.5642 102.011 68.3178 105.269 70.5354H105.244Z" fill="#FF7675"/>
<path d="M95.0028 76.9418C92.7571 74.4778 91.7453 71.0282 92.0168 67.825C91.5232 68.0714 91.0297 68.3178 90.7582 68.8106C90.2647 69.3034 84.7615 73.985 87.7722 79.6522C88.019 80.1451 88.5125 80.8843 89.0308 81.3771L101.271 94.4363L111.266 105.278L111.759 101.828C111.759 101.089 112.499 100.596 113.264 100.596L116.769 100.35C116.769 99.8572 97.0511 79.1594 95.0522 76.9418H95.0028Z" fill="#C91E1D"/>
<path d="M99.7415 46.388C76.7664 46.388 58.0605 64.8681 58.0605 87.5371C58.0605 110.206 76.7911 128.686 99.7415 128.686C122.692 128.686 141.422 110.206 141.422 87.5371C141.422 64.8681 122.717 46.388 99.7415 46.388ZM99.7415 120.555C81.2578 120.555 66.2783 105.771 66.2783 87.5371C66.2783 69.3034 81.2578 54.5193 99.7415 54.5193C118.225 54.5193 133.205 69.3034 133.205 87.5371C133.205 105.771 118.225 120.555 99.7415 120.555Z" fill="#3493C3"/>
<path d="M57.5667 156.283C54.0625 156.283 51.3232 158.994 51.3232 162.443C51.3232 165.893 54.0625 168.603 57.5667 168.603H97.5202C94.016 164.168 90.5364 159.979 86.7854 156.283H57.5667Z" fill="#0F5385"/>
<path d="M46.3138 135.093C43.8214 135.093 41.5757 137.064 41.5757 139.774C41.5757 142.238 43.5746 144.456 46.3138 144.456C49.0531 144.456 51.052 142.485 51.052 139.774C51.052 137.064 49.0531 135.093 46.3138 135.093Z" fill="#00B0C1"/>
<path d="M102.48 80.3914L107.465 85.5659L111.956 80.8843C113.955 78.6666 114.942 74.7242 111.956 71.0282C110.698 69.7962 109.464 68.5642 108.205 67.825C108.452 70.0426 108.205 72.0138 107.465 73.985C106.971 75.217 106.206 76.2026 105.219 77.4346L102.48 80.3914Z" fill="#C91E1D"/>
<path d="M83.2812 100.35L86.5141 100.843C87.2544 100.843 87.7726 101.336 87.7726 102.075L88.513 105.524L97.9893 95.4219L93.0043 90.0011L83.2812 100.35Z" fill="#C91E1D"/>
<path d="M156.673 87.5371C156.673 56.4905 131.205 31.3575 99.7407 31.3575C68.2764 31.3575 42.8335 56.4905 42.8335 87.5371C42.8335 123.512 76.2967 135.832 99.7407 166.386C123.209 135.832 156.648 123.265 156.648 87.5371H156.673ZM55.049 87.5371C55.049 63.1433 75.0135 43.4312 99.7407 43.4312C124.468 43.4312 144.432 63.1433 144.432 87.5371C144.432 111.931 124.468 131.643 99.7407 131.643C75.0135 131.643 55.049 111.684 55.049 87.5371Z" fill="#0F5385"/>
<path d="M141.941 156.283H112.722C108.971 159.979 105.492 164.168 101.987 168.603H141.941C145.445 168.603 148.184 165.893 148.184 162.443C148.184 158.994 145.445 156.283 141.941 156.283Z" fill="#0F5385"/>
<path d="M159.659 124.251C155.661 124.251 152.675 127.454 152.675 131.15C152.675 135.093 155.908 138.049 159.659 138.049C163.41 138.049 166.643 134.846 166.643 131.15C166.643 127.454 163.385 124.251 159.659 124.251Z" fill="#3493C3"/>
<path d="M36.3438 121.294C37.5777 121.294 38.5895 122.28 38.5895 123.512C38.5895 124.744 37.5777 125.729 36.3438 125.729C35.1099 125.729 34.0981 124.744 34.0981 123.512C34.0981 122.28 35.1099 121.294 36.3438 121.294Z" fill="#3493C3"/>
<path d="M140.929 144.456C142.163 144.456 143.174 145.441 143.174 146.674C143.174 147.906 142.163 148.891 140.929 148.891C139.695 148.891 138.683 147.906 138.683 146.674C138.683 145.441 139.695 144.456 140.929 144.456Z" fill="#3493C3"/>
<path d="M165.902 105.771C167.136 105.771 168.148 106.756 168.148 107.988C168.148 109.22 167.136 110.206 165.902 110.206C164.669 110.206 163.657 109.22 163.657 107.988C163.657 106.756 164.669 105.771 165.902 105.771Z" fill="#3493C3"/>
<path d="M162.646 44.1704C163.879 44.1704 164.891 45.156 164.891 46.388C164.891 47.62 163.879 48.6056 162.646 48.6056C161.412 48.6056 160.4 47.62 160.4 46.388C160.4 45.156 161.412 44.1704 162.646 44.1704Z" fill="#3493C3"/>
<path d="M59.8131 31.1111C61.047 31.1111 62.0588 32.0967 62.0588 33.3287C62.0588 34.5607 61.047 35.5463 59.8131 35.5463C58.5792 35.5463 57.5674 34.5607 57.5674 33.3287C57.5674 32.0967 58.5792 31.1111 59.8131 31.1111Z" fill="#3493C3"/>
<path d="M34.8385 51.316C36.0724 51.316 37.0841 52.3017 37.0841 53.5337C37.0841 54.7657 36.0724 55.7513 34.8385 55.7513C33.6046 55.7513 32.5928 54.7657 32.5928 53.5337C32.5928 52.3017 33.6046 51.316 34.8385 51.316Z" fill="#3493C3"/>
</svg>
