<?xml version="1.0" encoding="UTF-8"?>
<svg xmlns="http://www.w3.org/2000/svg" version="1.1" viewBox="0 0 200 200">
  <defs>
    <style>
      .cls-1 {
        fill: #fff;
      }

      .cls-2 {
        fill: #00b0c1;
      }

      .cls-3 {
        fill: #0f5385;
      }
    </style>
  </defs>
  <!-- Generator: Adobe Illustrator 28.7.3, SVG Export Plug-In . SVG Version: 1.2.0 Build 164)  -->
  <g>
    <g id="_圖層_1" data-name="圖層_1">
      <g id="_圖層_1-2" data-name="_圖層_1">
        <path class="cls-2" d="M101.3,63.1c-.4,3.9-3.5,7.2-7.5,7.7-1.2.2-2.3,0-3.4-.2-2.2-.5-4-1.9-5.2-3.7-.6-.9-1.5-1.4-2.5-1.6h-.7c-1.2,0-2.2.5-2.9,1.4-.3.3-.5.7-.6,1.1-.5,1.6-1.3,3.1-2.3,4.4h1.2c2.5-.6,5.3.3,7,2.6.9,1.2,1.4,2.6,1.4,4s-.5,3.2-1.5,4.5c-1.3,1.7-3.2,2.5-5.1,2.6-1.9,0-3.8-.6-5.3-2-.7-.7-1.2-1.5-1.6-2.4h0c-.5-1.3-.6-2.7-.3-4v-1.1c-1.5,1.1-3.2,1.9-4.9,2.5-1.1.4-1.9,1.2-2.2,2.2,0,.4-.2.8-.2,1.2,0,.6,0,1.2.4,1.7,0,.2.3.4.4.6.2.2.4.4.7.6,2.8,1.7,4.5,5,4,8.6-.3,1.8-1.1,3.5-2.3,4.8-1.4,1.5-3.3,2.5-5.4,2.7-5.3.6-9.8-3.5-9.8-8.7s0-1.4.2-2c.5-2.3,1.9-4.2,3.8-5.4.7-.5,1.2-1.2,1.4-2,0-.3,0-.6,0-1,0-.8-.2-1.5-.7-2.1-.2-.3-.5-.6-.8-.8-.3-.2-.6-.4-.9-.5-1.6-.5-3.1-1.3-4.5-2.2,0,0,0,0-.2,0v1.1c.6,2.5-.3,5.3-2.6,7.1-1.1.9-2.5,1.3-3.9,1.4-1.6,0-3.3-.4-4.6-1.5-1.5-1.2-2.4-3-2.6-4.7-.2-2,.5-4.1,2-5.6s1.9-1.5,3-1.8,2.3-.3,3.4,0h1c-1-1.4-1.9-3-2.4-4.7-.3-1-1.1-1.8-2.1-2.1-.4,0-.8-.2-1.2-.2h-.2c-.8,0-1.6.3-2.2.8-.3.2-.5.5-.7.8-1.8,2.8-5,4.5-8.6,4-1.8-.2-3.4-1-4.7-2.2-1.5-1.4-2.6-3.3-2.8-5.5-.6-5.3,3.5-9.7,8.7-9.7s1.4,0,2.1.2c2.2.5,4.1,1.9,5.3,3.8.2.3.4.5.7.8.6.5,1.4.8,2.3.8s1.5-.2,2.1-.7c.5-.4,1-.9,1.2-1.6v-.2c.5-1.7,1.4-3.4,2.4-4.9,0,0,.2-.3.3-.4-.2,0-.4,0-.7-.2h-.9c-2.5.5-5.2-.4-7-2.6-.9-1.1-1.3-2.5-1.4-3.9,0-1.6.4-3.3,1.5-4.6,1.3-1.6,3.1-2.5,4.9-2.6,1.9,0,3.9.5,5.4,2s1.4,1.7,1.7,2.8c.4,1.2.4,2.4.2,3.6,0,.5,0,1.1,0,1.5h0c1.4-1,3-1.8,4.6-2.4,1.2-.4,2-1.3,2.4-2.4,0-.4.2-.8.2-1.2,0-.6-.2-1.3-.4-1.8,0-.2-.2-.4-.4-.5-.2-.3-.5-.6-.9-.8-2.7-1.8-4.4-5-3.9-8.5.2-1.8,1.1-3.4,2.3-4.7,1.4-1.5,3.3-2.5,5.4-2.8,5.3-.6,9.7,3.5,9.7,8.7s0,1.5-.3,2.2c-.6,2.1-1.9,3.9-3.7,5.1-.4.3-.7.6-1,.9-.4.6-.7,1.4-.7,2.2,0,1.5.8,2.8,2.1,3.4,0,0,.3,0,.5.2,1.8.6,3.4,1.5,4.9,2.6h0c0-.2.2-.5.2-.8v-.8c-.5-2.2.2-4.6,1.9-6.3,1.3-1.3,3-2,4.7-2s4.2.8,5.6,2.6c1,1.2,1.5,2.7,1.5,4.2s-.4,3-1.4,4.3c-.8,1-1.8,1.8-2.9,2.2-1.3.5-2.7.7-4.1.4-.5,0-1.1,0-1.6,0h0c1.1,1.5,1.9,3.2,2.5,4.9.4,1.1,1.3,2,2.4,2.4.4,0,.8.2,1.2.2.6,0,1.2-.2,1.8-.4.2,0,.4-.3.6-.4.3-.2.5-.5.7-.8,1.6-2.4,4.3-4,7.3-4s4.5.9,6.1,2.4c1.9,1.8,2.9,4.4,2.6,7.3h.6Z"/>
        <path class="cls-1" d="M58.7,57.5c2.1,0,3.8-1.7,3.8-3.8s-1.7-3.8-3.8-3.8-3.8,1.7-3.8,3.8,1.7,3.8,3.8,3.8Z"/>
        <path class="cls-1" d="M54.1,63.8c1.3,0,2.3-1,2.3-2.3s-1-2.3-2.3-2.3-2.3,1-2.3,2.3,1,2.3,2.3,2.3Z"/>
        <path class="cls-1" d="M49.9,57.6c1.1,0,1.9-.9,1.9-1.9s-.9-1.9-1.9-1.9-1.9.9-1.9,1.9.9,1.9,1.9,1.9Z"/>
        <path class="cls-2" d="M97,46.3c4.5,0,8.1-3.6,8.1-8.1s-3.6-8.1-8.1-8.1-8.1,3.6-8.1,8.1,3.6,8.1,8.1,8.1Z"/>
        <path class="cls-2" d="M84.1,32.5c2.7,0,4.8-2.2,4.8-4.8s-2.2-4.8-4.8-4.8-4.8,2.2-4.8,4.8,2.2,4.8,4.8,4.8Z"/>
        <path class="cls-2" d="M44.6,101c2.9,0,5.3-2.4,5.3-5.3s-2.4-5.3-5.3-5.3-5.3,2.4-5.3,5.3,2.4,5.3,5.3,5.3Z"/>
        <path class="cls-3" d="M149.5,66.4l-2.1-1.2-8.4-4.6-2.1-1.2-36.8-20.2-57.8,31.7v28.4c0,14.5,5.2,28.4,14.3,40.4.2.3.5.6.7.9.2.3.5.6.7.9,1.9,2.4,4,4.6,6.2,6.8s.6.5.8.8c.3.3.6.5.9.8,4.3,4,9.2,7.7,14.5,11l19.6,11.9,19.6-11.9c23.8-14.5,38.1-37.3,38.2-61.6v-28.4l-8.3-4.6h0ZM150.9,99.3c0,10.6-3.3,21.3-9.2,30.9-6,9.7-14.9,18.3-25.7,24.8l-16,9.7-16-9.7c-4.8-2.9-9.3-6.3-13.3-9.9-.3-.3-.6-.5-.9-.8s-.6-.5-.8-.8c-2.2-2.2-4.3-4.5-6.2-6.8-.2-.3-.5-.6-.7-.9-.2-.3-.5-.6-.7-.9-1.1-1.5-2.2-3-3.1-4.6-6-9.6-9.1-20.3-9.2-30.9v-24.2l50.9-27.9,31.8,17.4,2.1,1.2,8.4,4.6,2.1,1.2,6.5,3.6v24.2h0v-.2Z"/>
        <path class="cls-1" d="M150.9,75v24.2c0,10.6-3.3,21.3-9.2,30.9-6,9.7-14.9,18.3-25.7,24.8l-16,9.7-16-9.7c-4.8-2.9-9.3-6.3-13.3-9.9-.3-.3-.6-.5-.9-.8s-.6-.5-.8-.8c-2.2-2.2-4.3-4.5-6.2-6.8-.2-.3-.5-.6-.7-.9-.2-.3-.5-.6-.7-.9-1.1-1.5-2.2-3-3.1-4.6-6-9.6-9.1-20.3-9.2-30.9v-24.2l50.9-27.9,31.8,17.4,2.1,1.2,8.4,4.6,2.1,1.2,6.5,3.6h0v-.2Z"/>
        <path class="cls-3" d="M135.6,96v20.1h-25.5v25.5h-20.1v-25.5h-25.5v-20.1h25.5v-25.5h20.1v25.5s25.5,0,25.5,0Z"/>
        <path class="cls-2" d="M165.4,162.9c4.9,0,8.9-4,8.9-8.9s-4-8.9-8.9-8.9-8.9,4-8.9,8.9,4,8.9,8.9,8.9Z"/>
        <path class="cls-2" d="M158.7,177.8c2.9,0,5.3-2.4,5.3-5.3s-2.4-5.3-5.3-5.3-5.3,2.4-5.3,5.3,2.4,5.3,5.3,5.3Z"/>
        <path class="cls-2" d="M172.5,175.9c2.9,0,5.3-2.4,5.3-5.3s-2.4-5.3-5.3-5.3-5.3,2.4-5.3,5.3,2.4,5.3,5.3,5.3Z"/>
      </g>
    </g>
  </g>
</svg>