<svg width="201" height="200" viewBox="0 0 201 200" fill="none" xmlns="http://www.w3.org/2000/svg">
<rect width="200" height="200" transform="translate(0.5)" fill="white"/>
<path d="M101.83 63.1482C101.408 67.0782 98.287 70.3011 94.3711 70.8328C93.1919 70.9918 92.0457 70.9205 90.9817 70.6519C88.8208 70.1093 86.9781 68.75 85.7934 66.9357C85.2285 66.0642 84.3126 65.5051 83.3035 65.3352C83.1005 65.3078 82.9031 65.2859 82.6947 65.2859H82.5466C81.3839 65.2859 80.309 65.8121 79.6124 66.6891C79.3601 67.0124 79.1517 67.3797 79.0091 67.7798C78.4607 69.3748 77.6984 70.8493 76.7441 72.1921C76.766 72.1976 76.7934 72.2031 76.8099 72.2031C76.9031 72.2305 77.0018 72.2415 77.106 72.2524C77.1883 72.2579 77.2761 72.2634 77.3583 72.2634C77.5448 72.2634 77.7313 72.2415 77.9232 72.2031C80.4406 71.6385 83.2212 72.4991 84.9707 74.7957C85.8702 75.9687 86.3309 77.3718 86.3638 78.7915C86.4022 80.3865 85.9031 81.9815 84.872 83.2751C83.5503 84.9304 81.691 85.7909 79.7879 85.8841C77.9013 85.9828 75.9762 85.3141 74.5283 83.867C73.8318 83.1709 73.3108 82.3542 72.9762 81.4882H72.9708C72.4662 80.1892 72.3675 78.775 72.6691 77.4431C72.7349 77.1197 72.7404 76.8073 72.6911 76.4949C72.6856 76.4346 72.6801 76.3798 72.6636 76.3249C71.1773 77.4157 69.5101 78.2708 67.7221 78.8572C66.6636 79.208 65.8684 80.0193 65.5119 81.0333C65.3803 81.417 65.3035 81.8226 65.3035 82.2391C65.3035 82.8366 65.4461 83.4121 65.7039 83.9218C65.8245 84.1575 65.9726 84.3713 66.1481 84.5686C66.351 84.8098 66.5923 85.0181 66.8666 85.1935C69.6252 86.942 71.3309 90.1868 70.8538 93.7879C70.6015 95.6296 69.7678 97.2904 68.5448 98.5895C67.1518 100.053 65.2706 101.045 63.181 101.281C57.8995 101.867 53.4297 97.7508 53.4297 92.5876C53.4297 91.9024 53.5119 91.2337 53.6655 90.5924C54.1865 88.3232 55.6015 86.4048 57.5046 85.1935C58.2285 84.7385 58.7221 84.0205 58.936 83.2038C59.0238 82.8969 59.0622 82.5735 59.0622 82.2446C59.0622 81.4827 58.8209 80.7537 58.3986 80.1563C58.1682 79.8329 57.8885 79.5588 57.5704 79.3341C57.2907 79.1313 56.9836 78.9778 56.6435 78.8682C55.0311 78.3475 53.5174 77.5966 52.1518 76.6538C52.086 76.6154 52.0202 76.5716 51.9598 76.5277C51.9379 76.6154 51.9269 76.6977 51.9214 76.7799C51.8885 77.0485 51.8995 77.317 51.9708 77.5856C52.5412 80.1179 51.6746 82.9133 49.3712 84.6618C48.2249 85.5333 46.8538 85.9937 45.4607 86.0431C43.8373 86.1033 42.192 85.5936 40.8812 84.5357C39.3346 83.2915 38.479 81.5704 38.3035 79.789C38.1116 77.7994 38.7807 75.7385 40.3054 74.2147C41.1829 73.3377 42.2359 72.7512 43.3437 72.4388C44.4406 72.1319 45.6088 72.1044 46.7167 72.3511C47.0128 72.4169 47.3145 72.4224 47.5997 72.384C47.649 72.3785 47.6874 72.373 47.7313 72.3621C46.7002 70.9315 45.8721 69.331 45.2962 67.6208C44.9562 66.5959 44.15 65.834 43.1737 65.4942C42.8008 65.3626 42.3949 65.2859 41.9891 65.2859H41.8355C41.0183 65.2859 40.2121 65.5545 39.5979 66.0642C39.3236 66.278 39.0878 66.5411 38.9013 66.8425C37.1463 69.616 33.8776 71.3316 30.2688 70.8328C28.4864 70.5971 26.8684 69.7969 25.5961 68.6294C24.0714 67.2262 23.0293 65.2914 22.799 63.1482C22.2286 57.8753 26.3474 53.4246 31.5028 53.4246C32.2103 53.4246 32.9013 53.5123 33.565 53.6713C35.7971 54.2084 37.6948 55.6006 38.8959 57.4862C39.0823 57.7822 39.3127 58.0343 39.5704 58.2426C40.2012 58.7633 41.0129 59.0483 41.841 59.0483C42.5979 59.0483 43.3163 58.8071 43.9086 58.3851C44.4352 58.0124 44.8684 57.4752 45.1097 56.8339C45.1372 56.7736 45.1591 56.7078 45.1756 56.6421C45.724 54.8936 46.5357 53.2547 47.5668 51.7803C47.6655 51.6378 47.7697 51.5007 47.8684 51.3582C47.6545 51.276 47.4351 51.2267 47.2048 51.2047C47.1061 51.1938 47.0019 51.1828 46.8977 51.1828C46.7057 51.1828 46.5083 51.2047 46.3218 51.2431C43.8154 51.7583 41.0841 50.8868 39.362 48.6176C38.4845 47.4721 38.0293 46.1073 37.9799 44.7205C37.9141 43.0926 38.4242 41.4483 39.4827 40.1273C40.777 38.5268 42.5759 37.6553 44.4297 37.5347C46.3602 37.4032 48.3291 38.0719 49.8099 39.5518C50.6052 40.3466 51.1701 41.3003 51.4991 42.3033C51.8721 43.4544 51.9434 44.6822 51.7021 45.8551C51.5924 46.3813 51.6308 46.913 51.8117 47.4008C51.8172 47.4227 51.8227 47.4392 51.8337 47.4611C53.2377 46.4526 54.8063 45.6414 56.479 45.0713C57.6307 44.6822 58.4973 43.7887 58.8702 42.6815C58.9964 42.2924 59.0732 41.8758 59.0732 41.4592C59.0732 40.8234 58.9196 40.1986 58.6289 39.6504C58.5302 39.4586 58.4095 39.2777 58.2669 39.1078C58.0256 38.7844 57.7295 38.5104 57.3894 38.2856C54.6911 36.5097 53.0293 33.2923 53.5174 29.7405C53.7642 27.9427 54.5814 26.2983 55.777 25.0267C57.1755 23.5194 59.0896 22.5053 61.2176 22.2751C66.4881 21.7051 70.947 25.816 70.947 30.9683C70.947 31.7302 70.8538 32.4756 70.6673 33.1827C70.1134 35.3039 68.7861 37.1127 66.9982 38.2802C66.6088 38.5323 66.2797 38.8557 66.022 39.2284C65.5722 39.8642 65.3254 40.6425 65.3254 41.4428C65.3254 42.9063 66.1536 44.2382 67.4534 44.8685C67.6015 44.9507 67.755 45.011 67.9141 45.0604C69.6911 45.6633 71.3474 46.5403 72.8227 47.642C72.8227 47.6365 72.8282 47.6365 72.8282 47.631C72.9269 47.3844 72.9872 47.1213 73.0092 46.8472C73.0146 46.765 73.0201 46.6773 73.0201 46.6006C73.0201 46.4087 72.9982 46.2059 72.9598 46.0196C72.4936 43.8052 73.1134 41.3989 74.841 39.6833C76.1463 38.3733 77.841 37.6937 79.5466 37.6553C81.6252 37.595 83.7258 38.4665 85.1682 40.2589C86.1389 41.4702 86.649 42.9556 86.6764 44.4465C86.7093 45.9647 86.2486 47.483 85.2943 48.7437C84.5046 49.7851 83.4954 50.536 82.3876 50.9855C81.0877 51.5227 79.6563 51.6487 78.2962 51.3582C77.7587 51.2431 77.2157 51.2924 76.7221 51.4843C76.6947 51.4898 76.6673 51.4952 76.6399 51.5117C77.7203 53.0026 78.5704 54.6634 79.1463 56.4502C79.5192 57.5958 80.4132 58.4673 81.5101 58.8345C81.894 58.9606 82.2943 59.0264 82.7111 59.0264C83.3364 59.0264 83.9451 58.8729 84.4717 58.5988C84.702 58.4783 84.9159 58.3358 85.1133 58.1549C85.3821 57.9411 85.6179 57.678 85.8099 57.3765C87.3729 54.9813 90.0768 53.4027 93.159 53.4027C95.5173 53.4027 97.6508 54.3345 99.2194 55.8363C101.095 57.6342 102.165 60.2596 101.852 63.1263L101.83 63.1482Z" fill="#00B0C1"/>
<path d="M59.1665 57.4916C61.2414 57.4916 62.9234 55.8107 62.9234 53.737C62.9234 51.6634 61.2414 49.9824 59.1665 49.9824C57.0917 49.9824 55.4097 51.6634 55.4097 53.737C55.4097 55.8107 57.0917 57.4916 59.1665 57.4916Z" fill="white"/>
<path d="M54.5867 63.8005C55.8468 63.8005 56.8682 62.7796 56.8682 61.5203C56.8682 60.261 55.8468 59.2401 54.5867 59.2401C53.3267 59.2401 52.3052 60.261 52.3052 61.5203C52.3052 62.7796 53.3267 63.8005 54.5867 63.8005Z" fill="white"/>
<path d="M50.3586 57.6287C51.4339 57.6287 52.3056 56.7575 52.3056 55.6829C52.3056 54.6082 51.4339 53.737 50.3586 53.737C49.2833 53.737 48.4116 54.6082 48.4116 55.6829C48.4116 56.7575 49.2833 57.6287 50.3586 57.6287Z" fill="white"/>
<path d="M97.5139 46.3375C101.97 46.3375 105.582 42.7276 105.582 38.2747C105.582 33.8217 101.97 30.2119 97.5139 30.2119C93.0583 30.2119 89.4463 33.8217 89.4463 38.2747C89.4463 42.7276 93.0583 46.3375 97.5139 46.3375Z" fill="#00B0C1"/>
<path d="M84.6088 32.503C87.2803 32.503 89.4461 30.3386 89.4461 27.6686C89.4461 24.9986 87.2803 22.8342 84.6088 22.8342C81.9372 22.8342 79.7715 24.9986 79.7715 27.6686C79.7715 30.3386 81.9372 32.503 84.6088 32.503Z" fill="#00B0C1"/>
<path d="M45.0879 101.012C47.9988 101.012 50.3585 98.6538 50.3585 95.7447C50.3585 92.8356 47.9988 90.4773 45.0879 90.4773C42.1771 90.4773 39.8174 92.8356 39.8174 95.7447C39.8174 98.6538 42.1771 101.012 45.0879 101.012Z" fill="#00B0C1"/>
<path d="M149.993 66.3801L147.881 65.229L139.462 60.6084L137.351 59.4574L100.501 39.2593L42.7222 70.9349V99.3055C42.8099 113.798 47.9159 127.747 57.064 139.713C57.2889 140.02 57.5247 140.327 57.7715 140.633C58.0073 140.935 58.2487 141.236 58.49 141.543C60.3986 143.9 62.4827 146.18 64.7093 148.362C64.9836 148.636 65.2633 148.894 65.5375 149.162C65.8172 149.431 66.1024 149.688 66.3876 149.946C70.7203 153.986 75.5905 157.663 80.9324 160.914L100.506 172.813L120.086 160.914C143.845 146.46 158.148 123.653 158.296 99.3109V70.9404L149.998 66.3856L149.993 66.3801ZM151.38 99.2616C151.314 109.895 148.128 120.589 142.172 130.164C136.128 139.866 127.254 148.45 116.488 155L100.501 164.718L84.5247 155C79.7093 152.062 75.2559 148.718 71.2742 145.051C70.989 144.794 70.7038 144.536 70.4241 144.267C70.1499 143.999 69.8702 143.741 69.596 143.467C67.3693 141.286 65.3017 139 63.3986 136.627C63.1627 136.32 62.9214 136.024 62.6856 135.711C62.4497 135.404 62.2139 135.087 61.9836 134.78C60.8538 133.272 59.8117 131.732 58.8355 130.164C52.8684 120.589 49.6874 109.895 49.6271 99.2616V75.0239L100.495 47.1357L132.261 64.5494L134.362 65.7004L142.786 70.3156L144.887 71.4666L151.369 75.0239V99.2616H151.38Z" fill="#0F5385"/>
<path d="M151.38 75.0239V99.2616C151.314 109.895 148.128 120.589 142.172 130.164C136.128 139.866 127.254 148.45 116.488 155L100.501 164.718L84.5245 155C79.7092 152.062 75.2558 148.718 71.2741 145.051C70.9889 144.794 70.7037 144.536 70.424 144.267C70.1498 143.999 69.8701 143.741 69.5958 143.467C67.3692 141.286 65.3015 139 63.3984 136.627C63.1626 136.32 62.9213 136.024 62.6854 135.711C62.4496 135.404 62.2138 135.087 61.9834 134.78C60.8536 133.272 59.8116 131.732 58.8354 130.164C52.8683 120.589 49.6873 109.895 49.627 99.2616V75.0239L100.495 47.1357L132.261 64.5494L134.362 65.7004L142.786 70.3156L144.886 71.4666L151.369 75.0239H151.38Z" fill="white"/>
<path d="M136.057 96.0058V116.056H110.543V141.56H90.4697V116.056H64.9561V96.0058H90.4697V70.5074H110.543V96.0058H136.057Z" fill="#0F5385"/>
<path d="M165.91 162.933C170.814 162.933 174.789 158.96 174.789 154.059C174.789 149.158 170.814 145.185 165.91 145.185C161.006 145.185 157.031 149.158 157.031 154.059C157.031 158.96 161.006 162.933 165.91 162.933Z" fill="#00B0C1"/>
<path d="M159.159 177.847C162.1 177.847 164.484 175.465 164.484 172.525C164.484 169.586 162.1 167.203 159.159 167.203C156.218 167.203 153.833 169.586 153.833 172.525C153.833 175.465 156.218 177.847 159.159 177.847Z" fill="#00B0C1"/>
<path d="M172.958 175.869C175.899 175.869 178.283 173.486 178.283 170.547C178.283 167.607 175.899 165.224 172.958 165.224C170.017 165.224 167.632 167.607 167.632 170.547C167.632 173.486 170.017 175.869 172.958 175.869Z" fill="#00B0C1"/>
</svg>
