<svg width="200" height="200" viewBox="0 0 200 200" fill="none" xmlns="http://www.w3.org/2000/svg">
<rect width="200" height="200" fill="white"/>
<path d="M91.4017 95.6713C93.7095 95.6713 95.5685 93.8012 95.5685 91.5086C95.5685 89.2159 93.6966 87.3459 91.4017 87.3459C89.1067 87.3459 87.2349 89.2159 87.2349 91.5086C87.2349 93.8012 89.1067 95.6713 91.4017 95.6713Z" fill="#3493C3"/>
<path d="M91.401 81.9664C93.5293 81.9664 95.2473 80.2501 95.2473 78.1239V61.5628C95.2473 59.4366 93.5293 57.7203 91.401 57.7203C89.2727 57.7203 87.5547 59.4366 87.5547 61.5628V78.1239C87.5547 80.2501 89.2727 81.9664 91.401 81.9664Z" fill="#3493C3"/>
<path d="M74.9262 43.8362L75.9006 43.4519L76.3109 43.2854C79.2982 42.107 80.8752 38.8025 79.8623 35.7157C78.811 32.5264 75.3621 30.7845 72.1697 31.8348L70.9261 32.2447L70.7466 32.3087C70.644 32.3471 70.5414 32.3727 70.4517 32.4112C67.2977 33.6408 65.7336 37.2015 66.9772 40.3523C68.2209 43.5031 71.7723 45.0657 74.9262 43.8233V43.8362Z" fill="#00B0C1"/>
<path d="M79.683 150.875C79.5292 151.874 80.2215 152.796 81.2215 152.95H81.3241L82.6062 153.155C83.5037 153.283 84.3755 152.707 84.5806 151.81C84.7986 150.862 84.2088 149.914 83.2601 149.684L83.0934 149.645L81.9011 149.364C81.9011 149.364 81.7985 149.338 81.7472 149.338C80.7472 149.184 79.8241 149.876 79.6702 150.875H79.683Z" fill="#00B0C1"/>
<path d="M91.4656 40.0833L92.5426 40.0193L93.0426 39.9937C95.9145 39.8144 98.2094 37.4576 98.2479 34.5373C98.2992 31.4762 95.8504 28.9657 92.7862 28.9145L91.4784 28.8889H91.2092C91.081 28.8889 90.9528 28.8889 90.8117 28.8889C87.7219 29.0682 85.3628 31.7195 85.5423 34.8063C85.7218 37.8931 88.3758 40.2498 91.4656 40.0705V40.0833Z" fill="#00B0C1"/>
<path d="M121.889 143.958H121.863L120.748 144.573C120.748 144.573 120.735 144.573 120.722 144.573C120.351 144.791 120.222 145.252 120.44 145.624C120.658 145.995 121.12 146.123 121.492 145.905L122.62 145.265C122.966 145.06 123.107 144.625 122.915 144.266C122.722 143.894 122.261 143.766 121.902 143.958H121.889Z" fill="url(#paint0_linear_498_2286)"/>
<path d="M108.799 41.5178L109.863 41.7996L110.376 41.9277C112.722 42.5297 115.171 41.2617 116.017 38.9434C116.915 36.4842 115.633 33.756 113.171 32.8723L111.953 32.4368L111.646 32.3215C111.504 32.2703 111.363 32.2318 111.222 32.1934C108.645 31.5274 106.017 33.0644 105.338 35.6388C104.671 38.2133 106.209 40.839 108.786 41.5178H108.799Z" fill="#00B0C1"/>
<path d="M97.2732 104.138L118.723 128.845C119.479 129.716 120.556 130.164 121.633 130.164C122.531 130.164 123.428 129.857 124.146 129.229C125.749 127.833 125.928 125.412 124.531 123.811L103.081 99.1039C101.696 97.5029 99.2605 97.3235 97.6579 98.7196C96.0552 100.116 95.8757 102.537 97.2732 104.138Z" fill="#3493C3"/>
<path d="M60.3871 142.652C59.7076 143.958 60.2076 145.572 61.5154 146.251L61.6949 146.341L62.8488 146.943C64.0155 147.545 65.4771 147.199 66.2207 146.072C67.0156 144.881 66.6822 143.267 65.4899 142.473L65.2335 142.306L64.2334 141.653C64.1565 141.602 64.0796 141.563 64.0026 141.512C62.6949 140.833 61.0795 141.333 60.4 142.639L60.3871 142.652Z" fill="#00B0C1"/>
<path d="M102.85 150.363L101.606 150.529C101.606 150.529 101.568 150.529 101.555 150.529C100.927 150.644 100.516 151.246 100.632 151.874C100.747 152.502 101.35 152.911 101.978 152.796H102.004L103.273 152.553C103.863 152.438 104.26 151.887 104.183 151.298C104.093 150.683 103.529 150.247 102.914 150.337H102.85V150.363Z" fill="#00B0C1"/>
<path d="M125.3 48.5496L126.261 49.1772L126.659 49.4334C128.274 50.4708 130.441 50.1506 131.672 48.6392C133.005 47.0126 132.749 44.6174 131.12 43.2854L130.108 42.4657L129.864 42.2735C129.761 42.1839 129.646 42.107 129.531 42.0302C127.723 40.8518 125.312 41.3641 124.146 43.1701C122.966 44.9761 123.479 47.384 125.287 48.5496H125.3Z" fill="#00B0C1"/>
<path d="M147.544 116.331C147.121 116.139 146.621 116.331 146.441 116.766L145.929 117.919V117.958C145.736 118.368 145.916 118.841 146.313 119.034C146.723 119.226 147.211 119.059 147.403 118.649L147.967 117.471C147.967 117.471 147.967 117.458 147.967 117.445C148.159 117.023 147.967 116.523 147.531 116.344L147.544 116.331Z" fill="#00B0C1"/>
<path d="M140.044 62.2032C140.929 63.3303 142.531 63.6377 143.775 62.8693C145.108 62.0367 145.518 60.2948 144.685 58.9627L143.993 57.8612L143.877 57.6691C143.826 57.5922 143.775 57.5026 143.711 57.4257C142.723 56.1577 140.89 55.9272 139.621 56.9006C138.352 57.8868 138.108 59.7184 139.095 60.9864L139.826 61.9214L140.044 62.1904V62.2032Z" fill="#00B0C1"/>
<path d="M135.352 135.403L136.262 134.48C136.506 134.224 136.506 133.814 136.249 133.558C135.993 133.315 135.583 133.315 135.326 133.571L134.441 134.493C134.198 134.762 134.198 135.159 134.441 135.403C134.698 135.646 135.095 135.646 135.352 135.403Z" fill="#00B0C1"/>
<path d="M152.057 76.9199L152.031 76.8047C152.031 76.8047 152.006 76.7022 151.993 76.6382C151.659 75.5751 150.518 74.9859 149.454 75.3189C148.39 75.6519 147.8 76.7919 148.134 77.855L148.505 79.0205L148.57 79.2126C148.877 80.1732 149.877 80.7496 150.877 80.5319C151.941 80.2885 152.608 79.2382 152.365 78.188L152.083 76.9199H152.057Z" fill="#00B0C1"/>
<path d="M39.7451 97.0033V96.4269V95.3382C39.7451 95.1717 39.7451 95.0052 39.7195 94.8259C39.4631 91.8416 36.822 89.6386 33.8347 89.8947C30.8474 90.1509 28.6422 92.7894 28.9114 95.7737L28.9371 96.1324L29.0524 97.426C29.296 100.129 31.5654 102.28 34.3475 102.306C37.2963 102.319 39.7067 99.9492 39.7323 96.9905L39.7451 97.0033Z" fill="#00B0C1"/>
<path d="M150.84 97.2979L150.776 98.5403V98.6428C150.737 99.296 151.224 99.8596 151.878 99.9364C152.558 100.013 153.173 99.5137 153.25 98.8349L153.391 97.5413V97.49C153.391 97.49 153.391 97.4388 153.391 97.4132C153.43 96.7087 152.878 96.0939 152.16 96.0683C151.442 96.0427 150.84 96.5806 150.814 97.2979H150.84Z" fill="#00B0C1"/>
<path d="M34.5018 83.8492C37.6558 84.8227 40.9892 83.0551 41.9636 79.9171L42.079 79.52L42.3867 78.5082C42.4123 78.4057 42.4508 78.2904 42.4764 78.188C43.2842 74.9731 41.3226 71.7198 38.1045 70.9129C34.8864 70.1059 31.6299 72.0656 30.8222 75.2805L30.7837 75.4342L30.4632 76.7022C29.7067 79.7506 31.4504 82.9014 34.489 83.8364L34.5018 83.8492Z" fill="#00B0C1"/>
<path d="M40.3608 66.2634C43.2583 68.2103 47.1944 67.4546 49.1431 64.5599L49.2457 64.4062L49.8227 63.5481L49.8868 63.4456C49.8868 63.4456 49.9124 63.42 49.9124 63.3944C51.8356 60.4741 51.015 56.542 48.079 54.6335C45.1558 52.7123 41.2198 53.532 39.3095 56.4651L38.5915 57.5538C36.7068 60.4357 37.4761 64.3166 40.348 66.2506L40.3608 66.2634Z" fill="#00B0C1"/>
<path d="M42.4122 112.642C42.3609 112.501 42.3096 112.36 42.2455 112.232C41.207 109.914 38.4762 108.877 36.1556 109.914C33.835 110.952 32.7965 113.68 33.835 115.998L33.9632 116.293L34.5017 117.484C35.4504 119.572 37.8608 120.673 40.0788 119.917C42.4507 119.123 43.72 116.549 42.9251 114.179L42.7584 113.705L42.3994 112.655L42.4122 112.642Z" fill="#00B0C1"/>
<path d="M50.6814 128.742C50.6044 128.64 50.5275 128.55 50.4378 128.448C49.0531 126.988 46.7453 126.911 45.2837 128.294C43.8221 129.677 43.7452 131.983 45.1299 133.443L45.3222 133.648L46.2068 134.596C47.4376 135.902 49.5018 136.094 50.9634 134.98C52.5276 133.789 52.8353 131.56 51.6429 129.997L51.3865 129.664L50.6814 128.742Z" fill="#00B0C1"/>
<path d="M60.4386 52.2128L60.5027 52.1615L61.3232 51.5211L61.4643 51.4058C64.1951 49.2541 64.6951 45.3219 62.5797 42.5553C60.4386 39.7631 56.4513 39.238 53.6563 41.377L52.6178 42.1711C52.6178 42.1711 52.5665 42.2095 52.5537 42.2223C49.7843 44.3997 49.31 48.3959 51.4895 51.1625C53.6691 53.9291 57.6692 54.403 60.4386 52.2256V52.2128Z" fill="#00B0C1"/>
<path d="M150.339 50.1378C142.095 41.9021 132.313 36.1256 121.915 32.7954C127.774 35.8438 133.287 39.8143 138.211 44.7327C164.058 70.5542 164.058 112.424 138.211 138.259C112.363 164.08 70.4517 164.08 44.5917 138.259C39.6685 133.34 35.694 127.846 32.6426 121.979C35.976 132.367 41.7583 142.14 50.0022 150.375C77.7083 178.054 122.633 178.054 150.339 150.375C178.045 122.697 178.045 77.8165 150.339 50.1378Z" fill="#0F5385"/>
<defs>
<linearGradient id="paint0_linear_498_2286" x1="120.325" y1="144.945" x2="122.992" y2="144.945" gradientUnits="userSpaceOnUse">
<stop stop-color="#4768BF"/>
<stop offset="0.13" stop-color="#4372C0"/>
<stop offset="0.35" stop-color="#3990C3"/>
<stop offset="0.62" stop-color="#2CBBC9"/>
<stop offset="0.76" stop-color="#32BAD1"/>
<stop offset="0.98" stop-color="#46B8E7"/>
<stop offset="1" stop-color="#48B8EA"/>
</linearGradient>
</defs>
</svg>
