<?xml version="1.0" encoding="UTF-8"?>
<svg xmlns="http://www.w3.org/2000/svg" version="1.1" xmlns:xlink="http://www.w3.org/1999/xlink" viewBox="0 0 200 200">
  <defs>
    <style>
      .cls-1 {
        fill: #fff;
      }

      .cls-2 {
        fill: url(#_未命名漸層);
      }

      .cls-3 {
        fill: #00b0c1;
      }

      .cls-4 {
        fill: #0f5385;
      }

      .cls-5 {
        fill: #3493c3;
      }
    </style>
    <linearGradient id="_未命名漸層" data-name="未命名漸層" x1="120.3" y1="787" x2="123" y2="787" gradientTransform="translate(0 -642)" gradientUnits="userSpaceOnUse">
      <stop offset="0" stop-color="#4768bf"/>
      <stop offset="0" stop-color="#4372c0"/>
      <stop offset=".3" stop-color="#3990c3"/>
      <stop offset=".6" stop-color="#2cbbc9"/>
      <stop offset=".8" stop-color="#32bad1"/>
      <stop offset="1" stop-color="#46b8e7"/>
      <stop offset="1" stop-color="#48b8ea"/>
    </linearGradient>
  </defs>
  <!-- Generator: Adobe Illustrator 28.7.3, SVG Export Plug-In . SVG Version: 1.2.0 Build 164)  -->
  <g>
    <g id="_圖層_1" data-name="圖層_1">
      <g id="_圖層_1-2" data-name="_圖層_1">
        <rect class="cls-1" y="0" width="200" height="200"/>
        <path class="cls-5" d="M91.4,95.7c2.3,0,4.2-1.9,4.2-4.2s-1.9-4.2-4.2-4.2-4.2,1.9-4.2,4.2,1.9,4.2,4.2,4.2Z"/>
        <path class="cls-5" d="M91.4,82c2.1,0,3.8-1.7,3.8-3.8v-16.6c0-2.1-1.7-3.8-3.8-3.8s-3.8,1.7-3.8,3.8v16.6c0,2.1,1.7,3.8,3.8,3.8Z"/>
        <path class="cls-3" d="M74.9,43.8l1-.4.4-.2c3-1.2,4.6-4.5,3.6-7.6-1.1-3.2-4.5-4.9-7.7-3.9l-1.2.4h-.2c0,0-.2,0-.3.2-3.2,1.2-4.7,4.8-3.5,7.9,1.2,3.2,4.8,4.7,7.9,3.5h0Z"/>
        <path class="cls-3" d="M79.7,150.9c-.2,1,.5,1.9,1.5,2.1h0l1.3.2c.9.1,1.8-.4,2-1.3.2-.9-.4-1.9-1.3-2.1h-.2l-1.2-.3h-.2c-1-.2-1.9.5-2.1,1.5h0Z"/>
        <path class="cls-3" d="M91.5,40.1h1.6c2.9-.2,5.2-2.5,5.2-5.5s-2.4-5.6-5.5-5.6h-2c-3.1.2-5.4,2.8-5.3,5.9.2,3.1,2.8,5.4,5.9,5.3h.1Z"/>
        <path class="cls-2" d="M121.9,144h0l-1.1.6h0c-.4.2-.5.7-.3,1.1.2.4.7.5,1.1.3l1.1-.6c.3-.2.5-.6.3-1s-.7-.5-1-.3h0Z"/>
        <path class="cls-3" d="M108.8,41.5l1.1.3h.5c2.3.7,4.8-.5,5.6-2.9.9-2.5-.4-5.2-2.8-6.1l-1.2-.4h-.3c0-.2-.3-.2-.4-.2-2.6-.7-5.2.9-5.9,3.4-.7,2.6.9,5.2,3.4,5.9h0Z"/>
        <path class="cls-5" d="M97.3,104.1l21.4,24.7c.8.9,1.8,1.3,2.9,1.3s1.8-.3,2.5-.9c1.6-1.4,1.8-3.8.4-5.4l-21.4-24.7c-1.4-1.6-3.8-1.8-5.4-.4s-1.8,3.8-.4,5.4Z"/>
        <path class="cls-3" d="M60.4,142.7c-.7,1.3-.2,2.9,1.1,3.6h.2l1.2.7c1.2.6,2.6.3,3.4-.9s.5-2.8-.7-3.6l-.3-.2-1-.7s-.2,0-.2-.1c-1.3-.7-2.9-.2-3.6,1.1h-.1Z"/>
        <path class="cls-3" d="M102.8,150.4l-1.2.2h0c-.6.1-1,.7-.9,1.3s.7,1,1.3.9h0l1.3-.2c.6-.1,1-.7.9-1.3,0-.6-.7-1.1-1.3-1h-.1Z"/>
        <path class="cls-3" d="M125.3,48.5l1,.6.4.3c1.6,1,3.8.7,5-.8,1.3-1.6,1.1-4-.6-5.4l-1-.8-.2-.2c-.1,0-.2-.2-.3-.2-1.8-1.2-4.2-.7-5.4,1.1-1.2,1.8-.7,4.2,1.1,5.4h0Z"/>
        <path class="cls-3" d="M147.5,116.3c-.4-.2-.9,0-1.1.4l-.5,1.2h0c-.2.4,0,.9.4,1.1s.9,0,1.1-.4l.6-1.2h0c.2-.4,0-.9-.4-1.1h-.1Z"/>
        <path class="cls-3" d="M140,62.2c.9,1.1,2.5,1.4,3.7.7,1.3-.8,1.7-2.6.9-3.9l-.7-1.1v-.2c-.2,0-.2-.2-.3-.2-1-1.3-2.8-1.5-4.1-.5s-1.5,2.8-.5,4.1l.7.9.2.3h.1Z"/>
        <path class="cls-3" d="M135.4,135.4l.9-.9c.2-.3.2-.7,0-.9-.3-.2-.7-.2-.9,0l-.9.9c-.2.3-.2.7,0,.9.3.2.7.2.9,0Z"/>
        <path class="cls-3" d="M152.1,76.9h0v-.3c-.3-1.1-1.5-1.7-2.5-1.3-1.1.3-1.7,1.5-1.3,2.5l.4,1.2v.2c.4,1,1.4,1.5,2.4,1.3,1.1-.2,1.7-1.3,1.5-2.3l-.3-1.3h-.2Z"/>
        <path class="cls-3" d="M39.7,97v-2.2c-.3-3-2.9-5.2-5.9-4.9-3,.3-5.2,2.9-4.9,5.9v1.7c.3,2.7,2.6,4.9,5.4,4.9s5.4-2.4,5.4-5.3h0Z"/>
        <path class="cls-3" d="M150.8,97.3v1.2h0c0,.8.4,1.3,1.1,1.4.7,0,1.3-.4,1.4-1.1v-1.3h.1c0-.8-.5-1.4-1.2-1.4s-1.3.5-1.3,1.2h-.1Z"/>
        <path class="cls-3" d="M34.5,83.8c3.2,1,6.5-.8,7.5-3.9v-.4c0,0,.4-1,.4-1v-.3c.8-3.2-1.2-6.5-4.4-7.3s-6.5,1.2-7.3,4.4v.2l-.4,1.3c-.8,3,1,6.2,4,7.1h.2Z"/>
        <path class="cls-3" d="M40.4,66.3c2.9,1.9,6.8,1.2,8.8-1.7v-.2c0,0,.7-.9.7-.9h0v-.2c1.9-2.9,1.1-6.9-1.8-8.8-2.9-1.9-6.9-1.1-8.8,1.8l-.7,1.1c-1.9,2.9-1.1,6.8,1.8,8.7h0v.2Z"/>
        <path class="cls-3" d="M42.4,112.6c0,0,0-.3-.2-.4-1-2.3-3.8-3.4-6.1-2.3-2.3,1-3.4,3.8-2.3,6.1v.3c0,0,.7,1.2.7,1.2.9,2.1,3.4,3.2,5.6,2.4,2.4-.8,3.6-3.4,2.8-5.7l-.2-.5-.4-1.1h.1Z"/>
        <path class="cls-3" d="M50.7,128.7c0-.1-.2-.2-.2-.3-1.4-1.5-3.7-1.5-5.2-.2-1.5,1.4-1.5,3.7-.2,5.1l.2.2.9.9c1.2,1.3,3.3,1.5,4.8.4,1.6-1.2,1.9-3.4.7-5l-.3-.3-.7-.9h0Z"/>
        <path class="cls-3" d="M60.4,52.2h0l.8-.7h0c2.7-2.3,3.2-6.2,1.1-9-2.1-2.8-6.1-3.3-8.9-1.2l-1,.8h0c-2.8,2.2-3.2,6.2-1.1,8.9,2.2,2.8,6.2,3.2,8.9,1.1h0Z"/>
        <path class="cls-4" d="M150.3,50.1c-8.2-8.2-18-14-28.4-17.3,5.9,3,11.4,7,16.3,11.9,25.8,25.8,25.8,67.7,0,93.5s-67.8,25.8-93.6,0c-4.9-4.9-8.9-10.4-11.9-16.3,3.3,10.4,9.1,20.2,17.4,28.4,27.7,27.7,72.6,27.7,100.3,0s27.7-72.6,0-100.2h0Z"/>
      </g>
    </g>
  </g>
</svg>