<svg width="201" height="200" viewBox="0 0 201 200" fill="none" xmlns="http://www.w3.org/2000/svg">
<rect width="200" height="200" transform="translate(0.5)" fill="white"/>
<path d="M139.908 112.933C139.626 112.933 139.345 112.868 139.085 112.749L127.66 107.328C127.173 107.091 126.805 106.669 126.643 106.151C126.481 105.633 126.556 105.071 126.827 104.607L139.323 83.646C139.864 82.7281 141.054 82.4365 141.963 82.9764C142.883 83.5164 143.175 84.7043 142.634 85.6114L131.22 104.758L140.741 109.272C141.704 109.726 142.115 110.881 141.649 111.831C141.325 112.522 140.632 112.933 139.908 112.933Z" fill="white"/>
<path d="M107.488 122.076C102.237 117.986 98.1398 112.27 95.8538 105.898C83.7675 108.18 71.2058 104.294 62.5371 94.7362C47.2593 98.8258 36.0557 112.97 36.0557 129.351C36.0557 149.167 52.2614 165.345 72.1111 165.345C91.9608 165.345 108.167 149.167 108.167 129.351C108.167 126.843 107.94 124.335 107.488 122.053V122.076Z" fill="#00B0C1"/>
<path d="M78.7202 127.295C75.9816 126.166 73.9219 125.691 73.4692 125.691V119.997C74.1482 119.997 75.0762 120.223 75.7552 120.675C76.8869 121.127 78.4939 121.805 79.3992 122.279C79.8519 122.505 80.0783 122.731 80.0783 122.731L83.0433 117.037C81.9116 116.359 80.5309 115.659 78.9239 114.981C77.3169 114.303 75.5063 113.851 73.6729 113.851V109.513H70.9342V113.625C67.0639 114.077 63.6236 115.682 62.0392 119.319C61.1339 121.375 61.1339 124.335 61.8129 126.143C62.4919 127.973 64.0989 129.329 65.9322 130.007C68.2182 131.136 70.7305 131.611 71.6359 132.063V137.757C70.7305 137.531 69.5762 137.305 68.6709 137.079C67.3129 136.627 65.4795 135.949 64.0989 135.023C63.6462 134.797 63.1935 134.571 63.1935 134.345L60.2285 140.491C63.4199 142.547 67.5392 143.902 71.1832 144.128V149.144H74.1482V144.128C76.6606 144.128 79.3992 143.451 81.2326 141.846C82.1379 141.168 83.0659 140.242 83.5186 139.112C83.9712 137.983 84.4239 136.604 84.4239 135.023C84.4239 133.667 84.1976 132.515 83.7449 131.385C82.8396 129.781 81.4589 128.425 78.7202 127.295ZM71.4322 125.036C70.5268 124.81 69.5989 124.358 69.1462 123.906C68.6935 123.454 68.4672 123.002 68.4672 122.302C68.4672 120.946 69.3725 120.02 71.4322 119.794V125.036ZM73.4692 138.005V132.989C74.3746 133.215 75.3025 133.667 75.7552 134.119C76.4342 134.571 76.6606 135.023 76.6606 135.949C76.6606 137.305 75.5289 138.005 73.4692 138.005Z" fill="white"/>
<path d="M72.1114 156.691C57.06 156.691 44.7246 144.4 44.7246 129.351C44.7246 123.432 46.5579 117.738 50.202 112.948C50.6546 112.27 51.56 112.27 52.2616 112.722C52.9406 113.174 52.9406 114.077 52.488 114.778C49.2966 119.116 47.6896 124.109 47.6896 129.351C47.6896 142.795 58.6443 153.731 72.1114 153.731C72.7904 153.731 73.4694 154.409 73.4694 155.087C73.4694 156.217 72.7904 156.691 72.1114 156.691Z" fill="white"/>
<path d="M129.148 58.0423C126.862 58.0423 124.576 58.2682 122.539 58.7201C123.919 62.3579 124.598 66.4701 124.598 70.7857C124.598 88.3193 112.037 102.916 95.1519 106.101C100.177 120.223 113.417 130.029 129.148 130.029C148.997 130.029 165.203 113.851 165.203 94.0358C165.203 74.2201 148.997 58.0423 129.148 58.0423Z" fill="#3493C3"/>
<path d="M136.912 92.2282C134.399 91.3244 132.34 90.8725 132.113 90.6239V85.156C134.852 85.6079 138.043 87.2121 138.496 87.664L141.235 82.1961C140.103 81.5182 138.722 81.0663 137.364 80.3659C135.757 79.6881 134.173 79.4621 132.566 79.2362V75.1239H129.827V79.4621C129.375 79.4621 128.922 79.6881 128.469 79.6881C127.338 84.7041 125.278 89.2457 122.539 93.132C122.539 93.132 122.539 93.3579 122.766 93.3579C123.445 94.0358 124.124 94.4877 125.052 94.9621C127.111 96.0919 129.397 96.5664 130.303 96.7923V102.034C129.397 101.808 128.469 101.582 127.564 101.356C126.183 100.905 124.599 100.227 123.445 99.5263C122.992 99.3003 122.766 99.0744 122.539 98.8484L119.574 104.542C122.539 106.598 126.183 107.728 129.85 107.954V112.518H132.589V107.954C134.875 107.954 137.387 107.276 139.198 105.898C140.103 105.22 140.805 104.294 141.257 103.39C141.71 102.486 141.936 101.108 141.936 99.5263C142.163 95.8885 140.556 93.6065 136.912 92.2282ZM130.303 90.172C129.397 89.9461 128.696 89.4942 128.243 89.2683C127.79 88.8164 127.564 88.3645 127.564 87.664C127.564 86.0598 128.696 85.6079 130.303 85.382V90.172ZM132.136 102.238V97.4476C133.041 97.6735 133.72 98.1254 134.422 98.5773C134.875 99.0292 135.327 99.4811 135.327 100.182C135.101 101.311 134.196 102.012 132.136 102.238Z" fill="white"/>
<path d="M142.615 37.5488C146.485 37.5488 149.676 40.7347 149.676 44.621C149.676 48.5073 146.485 51.6931 142.615 51.6931C138.744 51.6931 135.53 48.5073 135.53 44.621C135.53 40.7347 138.722 37.5488 142.615 37.5488Z" fill="#C2DFED"/>
<path d="M146.96 139.835C152.506 139.835 157.01 144.332 157.01 149.867C157.01 155.403 152.506 159.9 146.96 159.9C141.415 159.9 136.911 155.403 136.911 149.867C136.911 144.332 141.415 139.835 146.96 139.835Z" fill="#C2DFED"/>
<path d="M42.2127 84.4781C44.9513 84.4781 47.2373 86.7602 47.2373 89.4942C47.2373 92.2281 44.9513 94.5102 42.2127 94.5102C39.474 94.5102 37.188 92.2281 37.188 89.4942C37.188 86.7602 39.474 84.4781 42.2127 84.4781Z" fill="#C2DFED"/>
<path d="M122.765 58.7427C117.74 44.8469 104.522 34.8148 88.7693 34.8148C68.9196 34.8148 52.7139 50.9927 52.7139 70.8083C52.7139 80.14 56.3579 88.7938 62.0616 95.1881C68.6706 102.486 78.041 106.802 88.7693 106.802C108.619 106.802 124.825 90.6239 124.825 70.8083C124.825 66.4701 124.146 62.3805 122.765 58.7427Z" fill="#0F5385"/>
<path d="M159.047 127.295C160.179 127.295 161.107 128.222 161.107 129.351C161.107 130.481 160.179 131.408 159.047 131.408C157.915 131.408 156.987 130.481 156.987 129.351C156.987 128.222 157.915 127.295 159.047 127.295Z" fill="#00B0C1"/>
<path d="M157.689 53.2748C158.821 53.2748 159.749 54.2011 159.749 55.3309C159.749 56.4606 158.821 57.387 157.689 57.387C156.557 57.387 155.629 56.4606 155.629 55.3309C155.629 54.2011 156.557 53.2748 157.689 53.2748Z" fill="#00B0C1"/>
<path d="M122.087 34.8148C123.218 34.8148 124.146 35.7412 124.146 36.8709C124.146 38.0007 123.218 38.9271 122.087 38.9271C120.955 38.9271 120.027 38.0007 120.027 36.8709C120.027 35.7412 120.955 34.8148 122.087 34.8148Z" fill="#00B0C1"/>
<path d="M117.741 137.327C118.873 137.327 119.8 138.254 119.8 139.383C119.8 140.513 118.873 141.44 117.741 141.44C116.609 141.44 115.681 140.513 115.681 139.383C115.681 138.254 116.609 137.327 117.741 137.327Z" fill="#00B0C1"/>
<path d="M109.299 160.103C110.431 160.103 111.359 161.029 111.359 162.159C111.359 163.289 110.431 164.215 109.299 164.215C108.167 164.215 107.239 163.289 107.239 162.159C107.239 161.029 108.167 160.103 109.299 160.103Z" fill="#00B0C1"/>
<path d="M95.3787 68.5262C92.6401 67.3965 90.3541 66.922 90.1277 66.922V61.2281C93.0927 61.68 96.5104 63.5102 96.9631 63.9621L99.9281 58.2682C98.7964 57.5904 97.4158 56.8899 95.8314 56.2121C94.2244 55.5342 92.4137 55.0823 90.5804 55.0823V50.7441H87.6154V55.0823C83.745 55.5342 80.3047 57.1385 78.7204 60.7762C78.2677 61.906 78.0414 63.2843 78.0414 64.6399C78.0414 66.6961 78.494 68.5036 80.101 69.8819C81.708 71.4862 84.2203 72.39 86.2574 73.0678L88.317 73.7456V79.4395C87.4117 79.2136 86.2574 78.9876 85.352 78.7617C83.994 78.3098 82.1607 77.6319 80.78 76.7056C80.3274 76.4796 79.8747 76.2537 79.8747 76.0277L76.9097 82.1735C80.101 84.2296 84.2203 85.5853 87.8644 85.8113V90.8273H90.8294V85.8113C93.3417 85.8113 96.0804 85.1334 97.8911 83.5292C98.7964 82.8513 99.4981 81.925 100.177 80.7952C100.63 79.6655 101.082 78.2872 101.082 76.7056C101.082 75.3499 100.856 74.1975 100.403 73.0678C99.4981 71.2376 98.1174 69.656 95.3787 68.5036V68.5262ZM88.0907 66.2442C87.1854 66.0182 86.2574 65.5663 85.8047 65.1144C85.352 64.6625 85.1257 64.2106 85.1257 63.5102C85.1257 62.1545 86.031 61.2281 88.0907 61.0022V66.2442ZM90.1277 79.4621V74.4461C91.0331 74.898 91.9611 75.1239 92.4137 75.5758C92.8664 76.0277 93.3191 76.4796 93.3191 77.406C93.3191 78.5357 92.1874 79.2362 90.1277 79.4621Z" fill="white"/>
<path d="M44.9508 68.9781C46.0825 68.9781 47.0104 69.9045 47.0104 71.0342C47.0104 72.164 46.0825 73.0904 44.9508 73.0904C43.8191 73.0904 42.8911 72.164 42.8911 71.0342C42.8911 69.9045 43.8191 68.9781 44.9508 68.9781Z" fill="#00B0C1"/>
<path d="M43.5929 36.1931C44.7246 36.1931 45.6525 37.1195 45.6525 38.2492C45.6525 39.379 44.7246 40.3054 43.5929 40.3054C42.4612 40.3054 41.5332 39.379 41.5332 38.2492C41.5332 37.1195 42.4612 36.1931 43.5929 36.1931Z" fill="#00B0C1"/>
<path d="M88.7696 98.148C73.7182 98.148 61.3828 85.8564 61.3828 70.8083C61.3828 70.1305 62.0618 69.4526 62.7408 69.4526C63.4198 69.4526 64.1215 70.1305 64.1215 70.8083C64.1215 84.4782 75.0762 95.414 88.7696 95.414C89.4486 95.414 90.1276 96.0919 90.1276 96.7697C90.1276 97.4476 89.4486 98.1254 88.7696 98.1254V98.148Z" fill="#3493C3"/>
<path d="M114.775 71.9381C114.096 71.9381 113.417 71.2602 113.417 70.5824C113.417 56.9125 102.463 45.9767 88.7693 45.9767C88.0903 45.9767 87.3887 45.2988 87.3887 44.621C87.3887 43.9431 88.0677 43.2653 88.7693 43.2653C103.821 43.2653 116.382 55.5568 116.382 70.8309C116.156 71.5088 115.703 71.9607 114.775 71.9607V71.9381Z" fill="#3493C3"/>
</svg>
