<?xml version="1.0" encoding="UTF-8"?>
<svg xmlns="http://www.w3.org/2000/svg" version="1.1" viewBox="0 0 200 200">
  <defs>
    <style>
      .cls-1 {
        fill: #00b0c1;
      }

      .cls-2 {
        fill: #fff;
      }

      .cls-3 {
        fill: #0f5385;
      }

      .cls-4 {
        fill: #c2dfed;
      }

      .cls-5 {
        fill: #3493c3;
      }
    </style>
  </defs>
  <!-- Generator: Adobe Illustrator 28.7.3, SVG Export Plug-In . SVG Version: 1.2.0 Build 164)  -->
  <g>
    <g id="_圖層_1" data-name="圖層_1">
      <rect class="cls-2" width="200" height="200"/>
      <path class="cls-2" d="M139.4,112.9c-.3,0-.6,0-.8-.2l-11.4-5.4c-.5-.2-.9-.7-1-1.2-.2-.5,0-1.1.2-1.5l12.5-21c.5-.9,1.7-1.2,2.6-.7.9.5,1.2,1.7.7,2.6l-11.4,19.1,9.5,4.5c1,.5,1.4,1.6.9,2.6-.3.7-1,1.1-1.7,1.1Z"/>
      <path class="cls-1" d="M107,122.1c-5.3-4.1-9.3-9.8-11.6-16.2-12.1,2.3-24.6-1.6-33.3-11.2-15.3,4.1-26.5,18.2-26.5,34.6s16.2,36,36.1,36,36.1-16.2,36.1-36-.2-5-.7-7.3h0Z"/>
      <path class="cls-2" d="M78.2,127.3c-2.7-1.1-4.8-1.6-5.3-1.6v-5.7c.7,0,1.6.2,2.3.7,1.1.5,2.7,1.1,3.6,1.6.5.2.7.5.7.5l3-5.7c-1.1-.7-2.5-1.4-4.1-2.1-1.6-.7-3.4-1.1-5.3-1.1v-4.3h-2.7v4.1c-3.9.5-7.3,2.1-8.9,5.7-.9,2.1-.9,5-.2,6.8.7,1.8,2.3,3.2,4.1,3.9,2.3,1.1,4.8,1.6,5.7,2.1v5.7c-.9-.2-2.1-.5-3-.7-1.4-.5-3.2-1.1-4.6-2.1-.5-.2-.9-.5-.9-.7l-3,6.1c3.2,2.1,7.3,3.4,11,3.6v5h3v-5c2.5,0,5.3-.7,7.1-2.3.9-.7,1.8-1.6,2.3-2.7.5-1.1.9-2.5.9-4.1s-.2-2.5-.7-3.6c-.9-1.6-2.3-3-5-4.1ZM70.9,125c-.9-.2-1.8-.7-2.3-1.1-.5-.5-.7-.9-.7-1.6,0-1.4.9-2.3,3-2.5v5.2ZM73,138v-5c.9.2,1.8.7,2.3,1.1.7.5.9.9.9,1.8,0,1.4-1.1,2.1-3.2,2.1Z"/>
      <path class="cls-2" d="M71.6,156.7c-15.1,0-27.4-12.3-27.4-27.3s1.8-11.6,5.5-16.4c.5-.7,1.4-.7,2.1-.2.7.5.7,1.4.2,2.1-3.2,4.3-4.8,9.3-4.8,14.6,0,13.4,11,24.4,24.4,24.4s1.4.7,1.4,1.4c0,1.1-.7,1.6-1.4,1.6Z"/>
      <path class="cls-5" d="M128.6,58c-2.3,0-4.6.2-6.6.7,1.4,3.6,2.1,7.8,2.1,12.1,0,17.5-12.6,32.1-29.4,35.3,5,14.1,18.3,23.9,34,23.9s36.1-16.2,36.1-36-16.2-36-36.1-36Z"/>
      <path class="cls-2" d="M136.4,92.2c-2.5-.9-4.6-1.4-4.8-1.6v-5.5c2.7.5,5.9,2.1,6.4,2.5l2.7-5.5c-1.1-.7-2.5-1.1-3.9-1.8-1.6-.7-3.2-.9-4.8-1.1v-4.1h-2.7v4.3c-.5,0-.9.2-1.4.2-1.1,5-3.2,9.6-5.9,13.4,0,0,0,.2.2.2.7.7,1.4,1.1,2.3,1.6,2.1,1.1,4.3,1.6,5.3,1.8v5.2c-.9-.2-1.8-.5-2.7-.7-1.4-.5-3-1.1-4.1-1.8-.5-.2-.7-.5-.9-.7l-3,5.7c3,2.1,6.6,3.2,10.3,3.4v4.6h2.7v-4.6c2.3,0,4.8-.7,6.6-2.1.9-.7,1.6-1.6,2.1-2.5.5-.9.7-2.3.7-3.9.2-3.6-1.4-5.9-5-7.3ZM129.8,90.2c-.9-.2-1.6-.7-2.1-.9-.5-.5-.7-.9-.7-1.6,0-1.6,1.1-2.1,2.7-2.3v4.8ZM131.6,102.2v-4.8c.9.2,1.6.7,2.3,1.1.5.5.9.9.9,1.6-.2,1.1-1.1,1.8-3.2,2.1Z"/>
      <path class="cls-4" d="M142.1,37.5c3.9,0,7.1,3.2,7.1,7.1s-3.2,7.1-7.1,7.1-7.1-3.2-7.1-7.1,3.2-7.1,7.1-7.1Z"/>
      <path class="cls-4" d="M146.5,139.8c5.5,0,10,4.5,10,10s-4.5,10-10,10-10-4.5-10-10,4.5-10,10-10Z"/>
      <path class="cls-4" d="M41.7,84.5c2.7,0,5,2.3,5,5s-2.3,5-5,5-5-2.3-5-5,2.3-5,5-5Z"/>
      <path class="cls-3" d="M122.3,58.7c-5-13.9-18.2-23.9-34-23.9s-36.1,16.2-36.1,36,3.6,18,9.3,24.4c6.6,7.3,16,11.6,26.7,11.6,19.8,0,36.1-16.2,36.1-36s-.7-8.4-2.1-12.1Z"/>
      <path class="cls-1" d="M158.5,127.3c1.1,0,2.1.9,2.1,2.1s-.9,2.1-2.1,2.1-2.1-.9-2.1-2.1.9-2.1,2.1-2.1Z"/>
      <path class="cls-1" d="M157.2,53.3c1.1,0,2.1.9,2.1,2.1s-.9,2.1-2.1,2.1-2.1-.9-2.1-2.1.9-2.1,2.1-2.1Z"/>
      <path class="cls-1" d="M121.6,34.8c1.1,0,2.1.9,2.1,2.1s-.9,2.1-2.1,2.1-2.1-.9-2.1-2.1.9-2.1,2.1-2.1Z"/>
      <path class="cls-1" d="M117.2,137.3c1.1,0,2.1.9,2.1,2.1s-.9,2.1-2.1,2.1-2.1-.9-2.1-2.1.9-2.1,2.1-2.1Z"/>
      <path class="cls-1" d="M108.8,160.1c1.1,0,2.1.9,2.1,2.1s-.9,2.1-2.1,2.1-2.1-.9-2.1-2.1.9-2.1,2.1-2.1Z"/>
      <path class="cls-2" d="M94.9,68.5c-2.7-1.1-5-1.6-5.3-1.6v-5.7c3,.5,6.4,2.3,6.8,2.7l3-5.7c-1.1-.7-2.5-1.4-4.1-2.1-1.6-.7-3.4-1.1-5.3-1.1v-4.3h-3v4.3c-3.9.5-7.3,2.1-8.9,5.7-.5,1.1-.7,2.5-.7,3.9,0,2.1.5,3.9,2.1,5.2,1.6,1.6,4.1,2.5,6.2,3.2l2.1.7v5.7c-.9-.2-2.1-.5-3-.7-1.4-.5-3.2-1.1-4.6-2.1-.5-.2-.9-.5-.9-.7l-3,6.1c3.2,2.1,7.3,3.4,11,3.6v5h3v-5c2.5,0,5.3-.7,7.1-2.3.9-.7,1.6-1.6,2.3-2.7.5-1.1.9-2.5.9-4.1s-.2-2.5-.7-3.6c-.9-1.8-2.3-3.4-5-4.6h0ZM87.6,66.2c-.9-.2-1.8-.7-2.3-1.1-.5-.5-.7-.9-.7-1.6,0-1.4.9-2.3,3-2.5v5.2ZM89.6,79.5v-5c.9.5,1.8.7,2.3,1.1.5.5.9.9.9,1.8s-1.1,1.8-3.2,2.1Z"/>
      <path class="cls-1" d="M44.5,69c1.1,0,2.1.9,2.1,2.1s-.9,2.1-2.1,2.1-2.1-.9-2.1-2.1.9-2.1,2.1-2.1Z"/>
      <path class="cls-1" d="M43.1,36.2c1.1,0,2.1.9,2.1,2.1s-.9,2.1-2.1,2.1-2.1-.9-2.1-2.1.9-2.1,2.1-2.1Z"/>
      <path class="cls-5" d="M88.3,98.1c-15.1,0-27.4-12.3-27.4-27.3s.7-1.4,1.4-1.4,1.4.7,1.4,1.4c0,13.7,11,24.6,24.6,24.6s1.4.7,1.4,1.4-.7,1.4-1.4,1.4h0Z"/>
      <path class="cls-5" d="M114.3,71.9c-.7,0-1.4-.7-1.4-1.4,0-13.7-11-24.6-24.6-24.6s-1.4-.7-1.4-1.4.7-1.4,1.4-1.4c15.1,0,27.6,12.3,27.6,27.6-.2.7-.7,1.1-1.6,1.1h0Z"/>
    </g>
  </g>
</svg>