<svg width="79" height="120" viewBox="0 0 79 120" fill="none" xmlns="http://www.w3.org/2000/svg">
<path d="M39.2484 2.04613L11.3647 15.6893C11.3647 15.6893 10.2386 42.241 16.3289 51.531C22.4193 60.821 29.9584 72.2807 39.2484 73.7294C39.2484 73.7294 52.459 67.488 60.0736 55.8841C67.6882 44.2734 68.1277 16.3553 68.1277 16.3553L39.2484 2.04613Z" fill="white"/>
<path d="M60.2261 47.6035L39.3116 37.5307L18.3971 47.6035C20.148 52.0253 22.5855 56.2343 25.9156 59.9489C32.1364 66.877 38.7486 68.9025 39.3116 69.0604C39.8746 68.9025 46.4868 66.8701 52.7076 59.9489C56.0377 56.2412 58.4683 52.0253 60.2261 47.6035Z" fill="#0C5C88"/>
<path d="M57.205 54.0715C57.9122 52.8905 58.5233 51.6683 59.1069 50.4392L39.346 41.2248L24.9818 48.2352L42.168 56.2137L37.2518 58.6032L19.5095 50.3774C20.5188 52.4991 21.6655 54.5384 23.0524 56.4952L39.6618 64.1854L54.0122 57.2368L36.8947 49.2788L41.7766 46.9031L57.1981 54.0783L57.205 54.0715Z" fill="white"/>
<path d="M68.8776 14.165L39.3117 0L9.75261 14.165C6.8276 63.4782 35.9953 74.0247 39.3185 75.0615C42.6349 74.0247 71.8095 63.4782 68.8845 14.165H68.8776ZM39.3117 71.7108C36.2768 70.7632 9.71141 61.1437 12.3892 16.2317L39.3117 3.33012L66.2341 16.2317C68.9119 61.1437 42.3397 70.7632 39.3117 71.7108Z" fill="#005186"/>
<path d="M18.3971 47.6035L22.1186 45.8114V34.132L31.4978 29.7582V41.3003L39.3116 37.5376V6.00108L31.4978 9.76376V22.2328L22.1186 26.6066V14.2749L14.6344 17.8796L14.4834 17.9552L14.4696 18.1199C14.3804 19.5687 14.3254 21.0862 14.3117 22.6517V24.6085C14.3941 32.1545 15.479 40.6823 18.7679 48.4892C18.6443 48.194 18.5207 47.8987 18.404 47.5966L18.3971 47.6035Z" fill="#309CD0"/>
<path d="M60.1369 47.8232C60.1369 47.8232 60.1506 47.782 60.1644 47.7614C60.1575 47.782 60.1438 47.8026 60.1369 47.8232Z" fill="#0E68AA"/>
<path d="M64.1536 18.1268L64.1399 17.962L63.9888 17.8865L58.0976 15.0508L51.9386 22.7821L51.6846 22.6654L45.4157 8.94668L39.3116 6.00794V37.5376L46.6654 41.0737V24.6017L46.8508 24.6909L51.6914 34.7087L51.9455 34.8255L56.7862 29.3188L56.9716 29.408V46.0311L60.2261 47.5966C63.2267 40.0301 64.236 31.873 64.3184 24.6085V22.6517C64.2978 21.0862 64.2429 19.5687 64.1605 18.1268H64.1536Z" fill="#0E68AA"/>
<path d="M44.1111 16.3485H34.519V20.07H44.1111V16.3485Z" fill="#D61518"/>
<path d="M41.1861 13.4235H37.4646V23.0156H41.1861V13.4235Z" fill="#D61518"/>
<path d="M76.1732 95.8912C74.9125 94.755 72.7646 94.1923 69.7727 94.1923H62.5335C61.3811 94.1923 60.5263 93.9543 59.9528 93.4782C59.3793 93.0021 59.0817 92.2987 59.0817 91.3573C59.0817 90.1778 59.4171 89.3068 60.1043 88.7765C60.7751 88.2301 61.8464 87.965 63.3018 87.965H76.8278V83.3174H62.5011C59.3306 83.3174 56.9987 83.9504 55.5541 85.2273C54.0933 86.5042 53.3629 88.5277 53.3629 91.287C53.3629 93.8677 54.05 95.7614 55.4405 96.9679C56.831 98.1582 59.0168 98.7642 62.0195 98.7642H68.4904C69.9079 98.7642 70.9034 98.986 71.4932 99.4513C72.0829 99.9166 72.3642 100.685 72.3642 101.767C72.3642 102.849 72.0396 103.579 71.412 104.028C70.7844 104.478 69.6699 104.716 68.1117 104.716H49.4187V83.3174H41.4059L34.7673 103.298L28.1287 83.3174H19.6506V93.8677H5.82161V83.3174H0.351685V109.363H5.82702V98.4882H19.6614V109.363H25.6832L25.1368 88.9605V88.8739L32.0242 109.363H37.835L44.5169 89.0849L44.0678 109.363H69.0044C72.1478 109.363 74.4473 108.73 75.9081 107.48C77.3689 106.22 78.1101 104.25 78.1101 101.572C78.0668 98.9048 77.4338 97.0274 76.1732 95.8912Z" fill="#0F5385"/>
<path d="M0 113.583H0.589735L2.48338 116.418L4.37702 113.583H4.96676V118.788H4.37702V114.579L2.4942 117.36H2.46715L0.573503 114.579V118.788H0V113.583Z" fill="#17315B"/>
<path d="M7.65037 118.875C7.46641 118.875 7.29869 118.848 7.11474 118.804C6.94701 118.75 6.79011 118.68 6.64944 118.582C6.50877 118.485 6.41138 118.361 6.32482 118.204C6.23825 118.047 6.20038 117.879 6.20038 117.684V117.668C6.20038 117.457 6.24366 117.273 6.32482 117.122C6.41138 116.965 6.51959 116.84 6.66026 116.727C6.80093 116.629 6.98489 116.543 7.17966 116.489C7.37444 116.435 7.60167 116.402 7.83973 116.402C8.09402 116.402 8.30503 116.418 8.48357 116.445C8.66753 116.472 8.84607 116.516 9.0192 116.559V116.445C9.0192 116.11 8.92181 115.839 8.72704 115.672C8.53226 115.504 8.25092 115.407 7.88302 115.407C7.66119 115.407 7.45018 115.434 7.26623 115.477C7.08228 115.52 6.90373 115.591 6.71978 115.672L6.55205 115.196C6.76306 115.098 6.98489 115.012 7.19589 114.958C7.41772 114.903 7.66119 114.871 7.93712 114.871C8.48357 114.871 8.88935 115.012 9.17069 115.293C9.4358 115.558 9.57647 115.937 9.57647 116.413V118.756H9.01379V118.182C8.88935 118.35 8.7054 118.507 8.47816 118.647C8.25633 118.804 7.97499 118.869 7.63414 118.869L7.65037 118.875ZM7.75858 118.399C7.94253 118.399 8.09402 118.371 8.25092 118.328C8.40783 118.274 8.54309 118.204 8.6567 118.117C8.77032 118.02 8.86771 117.922 8.93805 117.793C9.00838 117.668 9.03543 117.527 9.03543 117.371V117.019C8.89476 116.976 8.72704 116.949 8.54309 116.905C8.35913 116.878 8.14813 116.851 7.91007 116.851C7.55839 116.851 7.27705 116.921 7.08228 117.062C6.8875 117.203 6.79011 117.387 6.79011 117.625V117.641C6.79011 117.766 6.81717 117.863 6.87668 117.966C6.93078 118.063 7.00112 118.15 7.08769 118.204C7.17425 118.274 7.28246 118.317 7.39608 118.361C7.5097 118.388 7.63414 118.404 7.75858 118.404V118.399Z" fill="#17315B"/>
<path d="M10.9615 114.947H11.535V115.618C11.6595 115.407 11.8272 115.239 12.0382 115.082C12.2492 114.941 12.5143 114.86 12.8498 114.86C13.0878 114.86 13.2826 114.903 13.4665 114.974C13.6505 115.044 13.802 115.158 13.9318 115.298C14.0563 115.439 14.1537 115.591 14.224 115.791C14.2943 115.975 14.3214 116.186 14.3214 116.408V118.794H13.7479V116.548C13.7479 116.197 13.6505 115.915 13.4665 115.704C13.2826 115.493 13.0175 115.396 12.682 115.396C12.5143 115.396 12.3736 115.423 12.2167 115.482C12.0761 115.536 11.9516 115.623 11.8542 115.72C11.7569 115.834 11.6703 115.958 11.6162 116.099C11.5621 116.256 11.5296 116.408 11.5296 116.591V118.783H10.9561V114.952L10.9615 114.947Z" fill="#17315B"/>
<path d="M16.8264 118.875C16.6424 118.875 16.4747 118.848 16.2908 118.804C16.123 118.75 15.9661 118.68 15.8255 118.582C15.6848 118.485 15.5874 118.361 15.5008 118.204C15.4143 118.047 15.3764 117.879 15.3764 117.684V117.668C15.3764 117.457 15.4197 117.273 15.5008 117.122C15.5874 116.965 15.6956 116.84 15.8363 116.727C15.977 116.629 16.1609 116.543 16.3557 116.489C16.5505 116.435 16.7777 116.402 17.0158 116.402C17.27 116.402 17.4811 116.418 17.6596 116.445C17.8436 116.472 18.0221 116.516 18.1952 116.559V116.445C18.1952 116.11 18.0978 115.839 17.9031 115.672C17.7083 115.504 17.4269 115.407 17.059 115.407C16.8372 115.407 16.6262 115.434 16.4423 115.477C16.2583 115.52 16.0798 115.591 15.8958 115.672L15.7281 115.196C15.9391 115.098 16.1609 115.012 16.3719 114.958C16.5937 114.903 16.8372 114.871 17.1294 114.871C17.6758 114.871 18.0816 115.012 18.3629 115.293C18.6281 115.558 18.7687 115.937 18.7687 116.413V118.756H18.206V118.182C18.0816 118.35 17.8977 118.507 17.6704 118.647C17.4324 118.804 17.151 118.869 16.8156 118.869L16.8264 118.875ZM16.94 118.399C17.124 118.399 17.2755 118.371 17.4324 118.328C17.5893 118.274 17.7245 118.204 17.8381 118.117C17.9518 118.02 18.0491 117.922 18.1195 117.793C18.1898 117.668 18.2169 117.527 18.2169 117.371V117.019C18.0762 116.976 17.9085 116.949 17.7245 116.905C17.5406 116.878 17.3296 116.851 17.0915 116.851C16.7398 116.851 16.4585 116.921 16.2637 117.062C16.0689 117.203 15.9715 117.387 15.9715 117.625V117.641C15.9715 117.766 15.9986 117.863 16.0581 117.966C16.1122 118.063 16.1826 118.15 16.2691 118.204C16.3557 118.274 16.4639 118.317 16.5775 118.361C16.702 118.388 16.8156 118.404 16.94 118.404V118.399Z" fill="#17315B"/>
<path d="M21.8364 120C21.5118 120 21.2034 119.957 20.9112 119.876C20.6191 119.789 20.3485 119.654 20.0834 119.47L20.3485 119.021C20.5704 119.178 20.7976 119.302 21.0519 119.383C21.29 119.47 21.5551 119.508 21.8364 119.508C22.2584 119.508 22.6101 119.394 22.859 119.156C23.1133 118.934 23.2377 118.582 23.2377 118.133V117.684C23.07 117.906 22.859 118.09 22.6209 118.258C22.3829 118.415 22.0853 118.496 21.7228 118.496C21.4847 118.496 21.2575 118.453 21.0519 118.371C20.8409 118.285 20.6461 118.16 20.4784 118.009C20.3107 117.852 20.17 117.657 20.0726 117.446C19.9752 117.224 19.9157 116.97 19.9157 116.705V116.689C19.9157 116.408 19.9698 116.153 20.0726 115.931C20.17 115.71 20.3107 115.526 20.4784 115.369C20.6461 115.212 20.8409 115.087 21.0519 115.006C21.2737 114.92 21.4847 114.882 21.7228 114.882C21.9067 114.882 22.0582 114.898 22.2151 114.936C22.372 114.974 22.4965 115.033 22.6209 115.104C22.7454 115.174 22.859 115.261 22.9564 115.342C23.0537 115.439 23.1403 115.536 23.2215 115.634V114.947H23.795V118.117C23.795 118.409 23.7517 118.68 23.6705 118.902C23.584 119.124 23.4595 119.324 23.308 119.475C23.1403 119.643 22.9293 119.784 22.675 119.854C22.4207 119.951 22.1394 119.995 21.831 119.995L21.8364 120ZM21.8364 117.993C22.0204 117.993 22.1989 117.966 22.372 117.895C22.5398 117.841 22.6967 117.738 22.8211 117.63C22.9455 117.517 23.0592 117.376 23.1457 117.224C23.2323 117.073 23.2593 116.889 23.2593 116.689V116.673C23.2593 116.478 23.2161 116.294 23.1457 116.137C23.0592 115.98 22.9618 115.845 22.8211 115.731C22.6967 115.618 22.5398 115.536 22.372 115.466C22.2043 115.412 22.0204 115.369 21.8364 115.369C21.6525 115.369 21.4847 115.396 21.317 115.466C21.1601 115.52 21.0086 115.623 20.895 115.72C20.7706 115.834 20.684 115.975 20.6137 116.126C20.5433 116.278 20.5163 116.462 20.5163 116.662V116.678C20.5163 116.873 20.5595 117.041 20.6299 117.214C20.7002 117.371 20.7976 117.506 20.922 117.619C21.0465 117.733 21.1872 117.814 21.3441 117.885C21.4847 117.955 21.6525 117.998 21.8364 117.998V117.993Z" fill="#17315B"/>
<path d="M25.5534 117.105C25.5696 117.3 25.6237 117.484 25.7103 117.652C25.7968 117.809 25.8942 117.944 26.0187 118.058C26.1431 118.171 26.2838 118.252 26.4407 118.312C26.5976 118.366 26.7491 118.399 26.9168 118.399C27.1819 118.399 27.4091 118.355 27.6039 118.242C27.7987 118.144 27.9664 118.02 28.1233 117.847L28.475 118.171C28.2802 118.393 28.0692 118.566 27.8149 118.691C27.5606 118.815 27.2522 118.885 26.8897 118.885C26.6246 118.885 26.3866 118.842 26.1485 118.745C25.9105 118.647 25.7157 118.507 25.5425 118.339C25.3748 118.155 25.2341 117.944 25.1368 117.706C25.0394 117.452 24.9799 117.187 24.9799 116.894C24.9799 116.602 25.0231 116.359 25.1205 116.11C25.2179 115.872 25.3424 115.645 25.4993 115.466C25.667 115.282 25.8618 115.141 26.089 115.044C26.3108 114.947 26.5651 114.887 26.8302 114.887C27.1116 114.887 27.3659 114.941 27.5877 115.044C27.8095 115.158 27.9935 115.298 28.1504 115.477C28.3073 115.661 28.4155 115.872 28.502 116.121C28.5886 116.375 28.6265 116.64 28.6265 116.921V117.008C28.6265 117.035 28.6265 117.078 28.6102 117.122H25.5534V117.105ZM28.0367 116.629C28.0205 116.462 27.9826 116.294 27.9231 116.137C27.869 115.98 27.7825 115.845 27.6851 115.731C27.5877 115.618 27.4632 115.52 27.3226 115.45C27.1819 115.38 27.0142 115.352 26.8194 115.352C26.6517 115.352 26.4948 115.38 26.3541 115.45C26.2134 115.52 26.089 115.607 25.9754 115.715C25.8618 115.823 25.7806 115.969 25.7103 116.121C25.6399 116.272 25.5966 116.445 25.5696 116.624H28.0367V116.629Z" fill="#17315B"/>
<path d="M31.375 118.875C31.1369 118.875 30.9097 118.831 30.7041 118.734C30.4823 118.647 30.2983 118.512 30.1143 118.339C29.9466 118.171 29.806 117.96 29.6923 117.706C29.5949 117.468 29.5354 117.187 29.5354 116.862V116.846C29.5354 116.537 29.5895 116.256 29.6923 116.002C29.7897 115.747 29.9304 115.536 30.1143 115.369C30.2821 115.201 30.4768 115.06 30.7041 114.974C30.9259 114.876 31.1531 114.833 31.375 114.833C31.5589 114.833 31.7104 114.86 31.8673 114.903C32.0242 114.947 32.1487 115.001 32.2731 115.087C32.3867 115.158 32.4949 115.255 32.5977 115.352C32.6951 115.45 32.7817 115.547 32.852 115.661V113.345H33.4255V118.777H32.852V118.004C32.7654 118.117 32.6843 118.225 32.5869 118.328C32.4895 118.431 32.3759 118.523 32.2623 118.61C32.1378 118.696 32.008 118.75 31.8673 118.793C31.7104 118.837 31.5589 118.864 31.375 118.864V118.875ZM31.4886 118.355C31.6725 118.355 31.8403 118.312 32.008 118.242C32.1757 118.171 32.3164 118.074 32.4571 117.933C32.5815 117.809 32.6951 117.652 32.7654 117.468C32.8358 117.284 32.8791 117.089 32.8791 116.862V116.846C32.8791 116.624 32.8358 116.424 32.7654 116.24C32.6951 116.056 32.5815 115.904 32.4571 115.774C32.3326 115.645 32.1757 115.553 32.008 115.482C31.8403 115.412 31.6725 115.369 31.4886 115.369C31.3046 115.369 31.1261 115.396 30.953 115.466C30.7798 115.536 30.6446 115.634 30.5309 115.758C30.4065 115.883 30.3091 116.04 30.2388 116.224C30.1684 116.407 30.1252 116.618 30.1252 116.84V116.857C30.1252 117.078 30.1684 117.289 30.2388 117.473C30.3091 117.657 30.4065 117.809 30.5309 117.939C30.6554 118.068 30.7961 118.16 30.9638 118.231C31.1207 118.317 31.2884 118.344 31.4832 118.344L31.4886 118.355Z" fill="#17315B"/>
<path d="M37.3859 113.583H37.9757V118.788H37.3859V113.583Z" fill="#17315B"/>
<path d="M41.0055 114.13H39.2633V113.583H43.3482V114.13H41.606V118.788H41.0163V114.13H41.0001H41.0055Z" fill="#17315B"/>
<path d="M48.764 118.858C48.342 118.858 47.9633 118.788 47.6279 118.647C47.2762 118.507 46.957 118.296 46.6432 118.014L47.0057 117.582C47.2708 117.836 47.5521 118.014 47.8335 118.128C48.1148 118.252 48.4394 118.312 48.7857 118.312C49.1319 118.312 49.4187 118.225 49.6297 118.058C49.8407 117.89 49.9381 117.679 49.9381 117.425V117.408C49.9381 117.295 49.9219 117.187 49.884 117.084C49.8407 116.986 49.7704 116.9 49.673 116.819C49.5756 116.738 49.4349 116.662 49.2672 116.608C49.0833 116.537 48.8614 116.483 48.5963 116.424C48.3042 116.353 48.0336 116.283 47.8226 116.202C47.6008 116.115 47.4168 116.018 47.2762 115.894C47.1355 115.78 47.0219 115.639 46.9516 115.471C46.8812 115.315 46.8542 115.12 46.8542 114.909V114.893C46.8542 114.698 46.8974 114.498 46.9786 114.33C47.0598 114.162 47.1734 114.005 47.3303 113.881C47.4872 113.756 47.6657 113.659 47.8767 113.589C48.0877 113.518 48.3096 113.475 48.5639 113.475C48.9426 113.475 49.278 113.529 49.5594 113.632C49.8407 113.746 50.1221 113.897 50.3872 114.108L50.0517 114.557C49.8137 114.362 49.5594 114.222 49.3213 114.124C49.067 114.038 48.8181 113.984 48.5476 113.984C48.2122 113.984 47.9308 114.07 47.7361 114.222C47.5413 114.373 47.4439 114.584 47.4439 114.828V114.844C47.4439 114.968 47.4601 115.082 47.498 115.179C47.5413 115.277 47.6116 115.363 47.709 115.444C47.8064 115.526 47.9633 115.601 48.1418 115.666C48.3258 115.737 48.5639 115.791 48.8452 115.861C49.4187 115.985 49.8569 116.169 50.1221 116.397C50.4034 116.619 50.5278 116.932 50.5278 117.338V117.354C50.5278 117.576 50.4846 117.776 50.4034 117.96C50.3222 118.144 50.1924 118.296 50.0409 118.426C49.884 118.55 49.7054 118.647 49.4782 118.718C49.2672 118.831 49.0291 118.858 48.764 118.858Z" fill="#17315B"/>
<path d="M52.1347 117.105C52.151 117.3 52.2051 117.484 52.2916 117.652C52.3782 117.809 52.4756 117.944 52.6 118.058C52.7245 118.171 52.8651 118.252 53.022 118.312C53.1789 118.366 53.3304 118.399 53.4981 118.399C53.7633 118.399 53.9905 118.355 54.1853 118.242C54.38 118.144 54.5478 118.02 54.7047 117.847L55.0563 118.171C54.8616 118.393 54.6506 118.566 54.3963 118.691C54.142 118.815 53.8336 118.885 53.4711 118.885C53.206 118.885 52.9679 118.842 52.7299 118.745C52.4918 118.647 52.297 118.507 52.1239 118.339C51.9562 118.155 51.8155 117.944 51.7181 117.706C51.6207 117.452 51.5612 117.187 51.5612 116.894C51.5612 116.602 51.6045 116.359 51.7019 116.11C51.7993 115.872 51.9237 115.645 52.0806 115.466C52.2483 115.282 52.4431 115.141 52.6703 115.044C52.8976 114.947 53.1465 114.887 53.4116 114.887C53.6929 114.887 53.9472 114.941 54.169 115.044C54.3909 115.158 54.5748 115.298 54.7317 115.477C54.8886 115.661 54.9968 115.872 55.0834 116.121C55.17 116.375 55.197 116.64 55.197 116.921V117.008C55.197 117.035 55.197 117.078 55.1808 117.122H52.1347V117.105ZM54.6019 116.629C54.5856 116.462 54.5478 116.294 54.4882 116.137C54.4287 115.98 54.3476 115.845 54.2502 115.731C54.1528 115.618 54.0284 115.52 53.8877 115.45C53.747 115.38 53.5793 115.352 53.3845 115.352C53.2168 115.352 53.0599 115.38 52.9192 115.45C52.7786 115.52 52.6541 115.607 52.5405 115.715C52.4269 115.829 52.3457 115.969 52.2754 116.121C52.2051 116.272 52.1618 116.445 52.1347 116.624H54.6019V116.629Z" fill="#17315B"/>
<path d="M56.344 114.947H56.9175V115.942C56.9878 115.785 57.0744 115.634 57.1826 115.509C57.28 115.369 57.4044 115.255 57.5343 115.158C57.6749 115.06 57.8156 114.99 57.9671 114.936C58.1186 114.882 58.2917 114.866 58.4865 114.866V115.482H58.4432C58.2322 115.482 58.0374 115.526 57.8535 115.596C57.6695 115.666 57.5018 115.78 57.3611 115.931C57.2205 116.083 57.1068 116.267 57.0365 116.478C56.9499 116.7 56.9229 116.954 56.9229 117.235V118.766H56.3494V114.952H56.3332L56.344 114.947Z" fill="#17315B"/>
<path d="M59.1195 114.947H59.7526L61.0456 118.133L62.3496 114.947H62.9663L61.2945 118.821H60.7914L59.1195 114.947Z" fill="#17315B"/>
<path d="M64.016 113.47H64.6761V114.103H64.016V113.47ZM64.0593 114.947H64.6328V118.793H64.0593V114.947Z" fill="#17315B"/>
<path d="M67.8357 118.875C67.5544 118.875 67.2893 118.821 67.0512 118.718C66.8132 118.604 66.6022 118.463 66.4344 118.285C66.2505 118.101 66.1261 117.89 66.0287 117.652C65.9313 117.414 65.8718 117.16 65.8718 116.894V116.878C65.8718 116.613 65.9259 116.343 66.0287 116.105C66.1315 115.866 66.2667 115.639 66.4344 115.461C66.6184 115.277 66.8132 115.136 67.0512 115.028C67.2893 114.914 67.5544 114.871 67.8357 114.871C68.0197 114.871 68.1874 114.887 68.3281 114.925C68.485 114.952 68.6094 115.012 68.7339 115.066C68.8583 115.12 68.9719 115.206 69.0693 115.288C69.1667 115.374 69.2641 115.455 69.3615 115.553L68.9828 115.958C68.8258 115.802 68.6581 115.666 68.4796 115.553C68.2956 115.439 68.0738 115.385 67.8195 115.385C67.6247 115.385 67.4408 115.428 67.2731 115.499C67.1053 115.569 66.9647 115.683 66.8402 115.823C66.7158 115.948 66.6184 116.115 66.5481 116.299C66.4777 116.483 66.4507 116.678 66.4507 116.889V116.905C66.4507 117.116 66.494 117.311 66.5643 117.495C66.6346 117.679 66.732 117.83 66.8565 117.971C66.9809 118.112 67.1378 118.209 67.3055 118.296C67.4732 118.382 67.668 118.409 67.8682 118.409C68.1225 118.409 68.3335 118.355 68.5283 118.242C68.7231 118.128 68.8908 117.987 69.0477 117.836L69.4102 118.171C69.2154 118.393 69.0044 118.566 68.7501 118.707C68.512 118.804 68.2037 118.875 67.8357 118.875Z" fill="#17315B"/>
<path d="M70.8385 117.105C70.8547 117.3 70.9088 117.484 70.9954 117.652C71.082 117.809 71.1793 117.944 71.3038 118.058C71.4282 118.171 71.5689 118.252 71.7258 118.312C71.8827 118.366 72.0342 118.399 72.2019 118.399C72.467 118.399 72.6943 118.355 72.889 118.242C73.0838 118.144 73.2515 118.02 73.4084 117.847L73.7601 118.171C73.5653 118.393 73.3543 118.566 73.1 118.691C72.8458 118.815 72.5374 118.885 72.1749 118.885C71.9097 118.885 71.6717 118.842 71.4336 118.745C71.1956 118.647 71.0008 118.507 70.8277 118.339C70.6599 118.155 70.5193 117.944 70.4219 117.706C70.3245 117.452 70.265 117.187 70.265 116.894C70.265 116.602 70.3083 116.359 70.4057 116.11C70.503 115.872 70.6275 115.645 70.7844 115.466C70.9521 115.282 71.1469 115.141 71.3741 115.044C71.6014 114.947 71.8502 114.887 72.1153 114.887C72.3967 114.887 72.651 114.941 72.8728 115.044C73.0946 115.158 73.2786 115.298 73.4355 115.477C73.5924 115.661 73.7006 115.872 73.7872 116.121C73.8737 116.375 73.9116 116.64 73.9116 116.921V117.008C73.9116 117.035 73.9116 117.078 73.8954 117.122H70.8385V117.105ZM73.3219 116.629C73.3056 116.462 73.2678 116.294 73.2082 116.137C73.1487 115.98 73.0676 115.845 72.9702 115.731C72.8728 115.618 72.7484 115.52 72.6077 115.45C72.467 115.38 72.2993 115.352 72.1045 115.352C71.9368 115.352 71.7799 115.38 71.6392 115.45C71.4986 115.52 71.3741 115.607 71.2605 115.715C71.1469 115.829 71.0657 115.969 70.9954 116.121C70.9251 116.272 70.8818 116.445 70.8547 116.624H73.3219V116.629Z" fill="#17315B"/>
<path d="M76.3247 118.858C76.0433 118.858 75.762 118.804 75.4806 118.702C75.1993 118.604 74.945 118.463 74.7394 118.296L75.0316 117.89C75.2426 118.047 75.4536 118.171 75.6754 118.252C75.8972 118.334 76.1245 118.377 76.3463 118.377C76.5844 118.377 76.7683 118.323 76.9198 118.209C77.0713 118.096 77.1416 117.955 77.1416 117.76V117.744C77.1416 117.646 77.1146 117.576 77.0551 117.506C76.9956 117.435 76.9306 117.381 76.8441 117.322C76.7575 117.268 76.6493 117.224 76.5357 117.181C76.4221 117.138 76.2976 117.111 76.1732 117.068C76.0163 117.024 75.881 116.97 75.7241 116.927C75.5672 116.873 75.4428 116.813 75.3183 116.732C75.1939 116.651 75.0965 116.548 75.0262 116.44C74.9558 116.326 74.9125 116.175 74.9125 115.991V115.975C74.9125 115.807 74.9396 115.666 75.0099 115.526C75.0803 115.385 75.1668 115.271 75.275 115.174C75.3833 115.077 75.5293 115.006 75.6971 114.952C75.854 114.898 76.0325 114.866 76.2165 114.866C76.4545 114.866 76.6926 114.909 76.9306 114.979C77.1687 115.066 77.3959 115.163 77.5907 115.288L77.3256 115.72C77.1416 115.607 76.9631 115.509 76.7629 115.455C76.5681 115.385 76.3679 115.358 76.1894 115.358C75.9676 115.358 75.7836 115.412 75.6429 115.515C75.5185 115.628 75.4482 115.753 75.4482 115.91V115.926C75.4482 116.013 75.4752 116.094 75.5347 116.164C75.5943 116.234 75.6592 116.288 75.7566 116.332C75.854 116.375 75.9513 116.429 76.065 116.456C76.1786 116.499 76.303 116.543 76.4275 116.581C76.5844 116.624 76.7196 116.678 76.8603 116.738C77.001 116.797 77.1416 116.862 77.2552 116.949C77.3797 117.035 77.4663 117.132 77.5366 117.257C77.6069 117.371 77.6502 117.522 77.6502 117.69V117.706C77.6502 117.89 77.6069 118.058 77.5366 118.198C77.4663 118.339 77.3689 118.463 77.2444 118.561C77.12 118.658 76.9793 118.729 76.8116 118.783C76.6872 118.826 76.5032 118.853 76.3192 118.853L76.3247 118.858Z" fill="#17315B"/>
</svg>
