<svg width="102" height="40" viewBox="0 0 102 40" fill="none" xmlns="http://www.w3.org/2000/svg">
<path d="M0.5 8L16 1L31 8.5C31.1667 9.66667 31.3 13.4 30.5 19C29.5 26 24.5 33 24 34C23.6 34.8 18.1667 38 15.5 39.5C13.3333 38.1667 8.2 34.4 5 30C1.8 25.6 0.666667 13.5 0.5 8Z" fill="white"/>
<path d="M99.535 20.4406C98.5104 19.5184 96.7686 19.0631 94.3438 19.0631H88.4694C87.5359 19.0631 86.8415 18.8695 86.3747 18.4825C85.908 18.0954 85.6689 17.5262 85.6689 16.7634C85.6689 15.8071 85.9421 15.1013 86.5 14.6687C87.0464 14.2247 87.9116 14.0084 89.0956 14.0084H100.07V10.2402H88.4467C85.8738 10.2402 83.984 10.7525 82.8114 11.7885C81.6275 12.8244 81.0355 14.4638 81.0355 16.7065C81.0355 18.8012 81.5933 20.3381 82.7204 21.3172C83.8474 22.2848 85.6234 22.7744 88.0596 22.7744H93.3078C94.4576 22.7744 95.2659 22.9565 95.744 23.3322C96.2222 23.7079 96.4499 24.334 96.4499 25.2106C96.4499 26.0872 96.188 26.6792 95.6757 27.0435C95.1634 27.4078 94.2641 27.6013 93.0004 27.6013H77.8365V10.2402H71.336L65.9512 26.4515L60.5664 10.2402H53.6903V18.8012H42.4653V10.2402H38.0255V31.3695H42.4653V22.5467H53.6903V31.3695H58.5742L58.1302 14.8167V14.7484L63.7199 31.3695H68.433L73.852 14.9192L73.4877 31.3695H93.7176C96.2677 31.3695 98.1347 30.8572 99.3187 29.844C100.503 28.8194 101.106 27.2256 101.106 25.0512C101.072 22.8882 100.56 21.3627 99.535 20.4406Z" fill="#0F5385"/>
<path d="M37.7408 34.7962H38.219L39.7559 37.0958L41.2928 34.7962H41.7709V39.0198H41.2928V35.6045L39.7673 37.8586H39.7445L38.2076 35.6045V39.0198H37.7408V34.7962Z" fill="#17315B"/>
<path d="M43.9453 39.0881C43.7973 39.0881 43.6607 39.0653 43.5127 39.0312C43.3761 38.9856 43.2508 38.9287 43.137 38.849C43.0232 38.7693 42.9435 38.6669 42.8752 38.5417C42.8069 38.4164 42.7727 38.2798 42.7727 38.1204V38.109C42.7727 37.9383 42.8069 37.7903 42.8752 37.6651C42.9435 37.5398 43.0345 37.4374 43.1484 37.3463C43.2622 37.2666 43.4102 37.1983 43.5696 37.1528C43.729 37.1072 43.9111 37.0845 44.1047 37.0845C44.3096 37.0845 44.4804 37.0958 44.6284 37.1186C44.7763 37.1414 44.9243 37.1755 45.061 37.2097V37.1186C45.061 36.8454 44.9813 36.6291 44.8219 36.4925C44.6625 36.3559 44.4348 36.2762 44.1388 36.2762C43.9567 36.2762 43.7859 36.2989 43.6379 36.3331C43.4899 36.3672 43.3419 36.4242 43.1939 36.4925L43.0573 36.1054C43.2281 36.0257 43.4102 35.9574 43.581 35.9119C43.7631 35.8663 43.9567 35.8436 44.1844 35.8436C44.6284 35.8436 44.9585 35.9574 45.1862 36.1851C45.4025 36.4014 45.5163 36.7088 45.5163 37.0958V38.997H45.061V38.5303C44.9585 38.6669 44.8105 38.7921 44.6284 38.906C44.4462 39.0312 44.2185 39.0881 43.9453 39.0881ZM44.0364 38.701C44.1844 38.701 44.3096 38.6783 44.4348 38.6441C44.56 38.5986 44.6739 38.5417 44.765 38.4733C44.856 38.3937 44.9357 38.314 44.9927 38.2115C45.0496 38.109 45.0723 37.9952 45.0723 37.87V37.5854C44.9585 37.5512 44.8219 37.5284 44.6739 37.4943C44.5259 37.4715 44.3551 37.4488 44.1616 37.4488C43.877 37.4488 43.6493 37.5057 43.4899 37.6195C43.3305 37.7334 43.2508 37.8814 43.2508 38.0749V38.0863C43.2508 38.1887 43.2736 38.2684 43.3192 38.3481C43.3647 38.4278 43.4216 38.4961 43.4899 38.5417C43.5582 38.5986 43.6493 38.6327 43.7404 38.6669C43.8314 38.6896 43.9339 38.701 44.0364 38.701Z" fill="#17315B"/>
<path d="M46.632 35.9005H47.0988V36.4469C47.2012 36.2762 47.3378 36.1396 47.5086 36.0143C47.6794 35.9005 47.8957 35.8322 48.1689 35.8322C48.3624 35.8322 48.5218 35.8663 48.6698 35.9233C48.8178 35.9802 48.943 36.0713 49.0455 36.1851C49.148 36.2989 49.2276 36.4242 49.2846 36.5836C49.3415 36.7315 49.3643 36.9023 49.3643 37.0845V39.0198H48.8975V37.1983C48.8975 36.9137 48.8178 36.686 48.6698 36.5152C48.5218 36.3445 48.3055 36.2648 48.0323 36.2648C47.8957 36.2648 47.7818 36.2876 47.6566 36.3331C47.5428 36.3786 47.4403 36.4469 47.3606 36.5266C47.2809 36.6177 47.2126 36.7202 47.1671 36.834C47.1215 36.9592 47.0988 37.0845 47.0988 37.2325V39.0084H46.632V35.9005Z" fill="#17315B"/>
<path d="M51.3907 39.0881C51.2427 39.0881 51.1061 39.0653 50.9581 39.0312C50.8214 38.9856 50.6962 38.9287 50.5824 38.849C50.4685 38.7693 50.3888 38.6669 50.3205 38.5417C50.2522 38.4164 50.2181 38.2798 50.2181 38.1204V38.109C50.2181 37.9383 50.2522 37.7903 50.3205 37.6651C50.3888 37.5398 50.4799 37.4374 50.5938 37.3463C50.7076 37.2666 50.8556 37.1983 51.015 37.1528C51.1744 37.1072 51.3565 37.0845 51.55 37.0845C51.755 37.0845 51.9257 37.0958 52.0737 37.1186C52.2217 37.1414 52.3697 37.1755 52.5063 37.2097V37.1186C52.5063 36.8454 52.4266 36.6291 52.2673 36.4925C52.1079 36.3559 51.8802 36.2762 51.5842 36.2762C51.402 36.2762 51.2313 36.2989 51.0833 36.3331C50.9353 36.3672 50.7873 36.4242 50.6393 36.4925L50.5027 36.1054C50.6735 36.0257 50.8556 35.9574 51.0264 35.9119C51.2085 35.8663 51.402 35.8436 51.6411 35.8436C52.0851 35.8436 52.4153 35.9574 52.6429 36.1851C52.8592 36.4014 52.9731 36.7088 52.9731 37.0958V38.997H52.5177V38.5303C52.4153 38.6669 52.2673 38.7921 52.0851 38.906C51.8916 39.0312 51.6639 39.0881 51.3907 39.0881ZM51.4817 38.701C51.6297 38.701 51.755 38.6783 51.8802 38.6441C52.0054 38.5986 52.1193 38.5417 52.2103 38.4733C52.3014 38.3937 52.3811 38.314 52.438 38.2115C52.4949 38.109 52.5177 37.9952 52.5177 37.87V37.5854C52.4039 37.5512 52.2673 37.5284 52.1193 37.4943C51.9713 37.4715 51.8005 37.4488 51.607 37.4488C51.3224 37.4488 51.0947 37.5057 50.9353 37.6195C50.7759 37.7334 50.6962 37.8814 50.6962 38.0749V38.0863C50.6962 38.1887 50.719 38.2684 50.7645 38.3481C50.8101 38.4278 50.867 38.4961 50.9353 38.5417C51.0036 38.5986 51.0947 38.6327 51.1857 38.6669C51.2882 38.6896 51.3793 38.701 51.4817 38.701Z" fill="#17315B"/>
<path d="M55.4549 39.9988C55.193 39.9988 54.9426 39.9647 54.7035 39.8964C54.4644 39.8281 54.2481 39.7142 54.0318 39.5662L54.2481 39.2019C54.4303 39.3272 54.6124 39.4296 54.8173 39.4979C55.0109 39.5662 55.2272 39.6004 55.4549 39.6004C55.7964 39.6004 56.081 39.5093 56.2859 39.3158C56.4908 39.1336 56.5933 38.849 56.5933 38.4847V38.1204C56.4567 38.3026 56.2859 38.4506 56.0924 38.5872C55.8988 38.7124 55.6598 38.7807 55.3638 38.7807C55.1702 38.7807 54.9881 38.7466 54.8173 38.6783C54.6466 38.61 54.4872 38.5075 54.3506 38.3823C54.214 38.257 54.1001 38.0977 54.0204 37.9269C53.9407 37.7447 53.8952 37.5398 53.8952 37.3235V37.3121C53.8952 37.0845 53.9407 36.8795 54.0204 36.6974C54.1001 36.5152 54.214 36.3672 54.3506 36.242C54.4872 36.1168 54.6466 36.0143 54.8173 35.946C54.9995 35.8777 55.1702 35.8436 55.3638 35.8436C55.5118 35.8436 55.637 35.855 55.7622 35.8891C55.8875 35.9233 55.9899 35.9688 56.0924 36.0257C56.1948 36.0826 56.2859 36.1509 56.3656 36.2192C56.4453 36.2989 56.5136 36.3786 56.5819 36.4583V35.9005H57.0487V38.4733C57.0487 38.7124 57.0145 38.9287 56.9462 39.1109C56.8779 39.293 56.7754 39.4524 56.6502 39.5776C56.5136 39.7142 56.3428 39.8281 56.1379 39.885C55.933 39.9647 55.7053 39.9988 55.4549 39.9988ZM55.4549 38.3709C55.6029 38.3709 55.7508 38.3481 55.8875 38.2912C56.0241 38.2457 56.1493 38.166 56.2518 38.0749C56.3542 37.9838 56.4453 37.87 56.5136 37.7447C56.5819 37.6195 56.6047 37.4715 56.6047 37.3121V37.3008C56.6047 37.1414 56.5705 36.9934 56.5136 36.8682C56.4453 36.7429 56.3656 36.6291 56.2518 36.538C56.1493 36.4469 56.0241 36.3786 55.8875 36.3217C55.7508 36.2762 55.6029 36.242 55.4549 36.242C55.3069 36.242 55.1702 36.2648 55.0336 36.3217C54.9084 36.3672 54.7832 36.4469 54.6921 36.5266C54.5896 36.6177 54.5213 36.7315 54.4644 36.8568C54.4075 36.982 54.3847 37.13 54.3847 37.2894V37.3008C54.3847 37.4601 54.4189 37.5968 54.4758 37.7334C54.5327 37.8586 54.6124 37.9724 54.7149 38.0635C54.8173 38.1546 54.9312 38.2229 55.0564 38.2798C55.1702 38.3367 55.3069 38.3709 55.4549 38.3709Z" fill="#17315B"/>
<path d="M58.4717 37.6537C58.4831 37.8131 58.5286 37.9611 58.5969 38.0977C58.6652 38.2229 58.7449 38.3367 58.8474 38.4278C58.9498 38.5189 59.0637 38.5872 59.1889 38.6327C59.3141 38.6783 59.4394 38.701 59.576 38.701C59.7923 38.701 59.9744 38.6669 60.1338 38.5758C60.2932 38.4961 60.4298 38.3937 60.555 38.257L60.8396 38.5189C60.6803 38.701 60.5095 38.8376 60.3046 38.9401C60.0997 39.0426 59.8492 39.0995 59.5532 39.0995C59.3369 39.0995 59.1434 39.0653 58.9498 38.9856C58.7563 38.906 58.5969 38.7921 58.4603 38.6555C58.3237 38.5075 58.2099 38.3367 58.1302 38.1432C58.0505 37.9383 58.0049 37.722 58.0049 37.4829C58.0049 37.2438 58.0391 37.0503 58.1188 36.8454C58.1985 36.6519 58.3009 36.4697 58.4262 36.3217C58.5628 36.1737 58.7222 36.0599 58.9043 35.9802C59.0865 35.9005 59.2914 35.8549 59.5077 35.8549C59.7354 35.8549 59.9403 35.9005 60.1224 35.9802C60.3046 36.0712 60.4526 36.1851 60.5778 36.3331C60.703 36.4811 60.7941 36.6519 60.8624 36.8568C60.9307 37.0617 60.9649 37.278 60.9649 37.5057V37.574C60.9649 37.5968 60.9649 37.6309 60.9535 37.6651H58.4717V37.6537ZM60.4867 37.2666C60.4753 37.13 60.4412 36.9934 60.3957 36.8682C60.3501 36.7429 60.2818 36.6291 60.2021 36.538C60.1224 36.4469 60.02 36.3672 59.9061 36.3103C59.7923 36.2534 59.6557 36.2306 59.4963 36.2306C59.3597 36.2306 59.2345 36.2534 59.1206 36.3103C59.0068 36.3672 58.9043 36.4356 58.8132 36.5266C58.7222 36.6177 58.6538 36.7315 58.5969 36.8568C58.54 36.982 58.5059 37.1186 58.4831 37.2666H60.4867Z" fill="#17315B"/>
<path d="M63.1962 39.0881C63.0027 39.0881 62.8205 39.054 62.6498 38.9743C62.4676 38.906 62.3196 38.7921 62.1716 38.6555C62.035 38.5189 61.9212 38.3481 61.8301 38.1432C61.7504 37.9497 61.7049 37.722 61.7049 37.4601V37.4488C61.7049 37.1983 61.7504 36.9706 61.8301 36.7657C61.9098 36.5608 62.0236 36.39 62.1716 36.2534C62.3082 36.1168 62.4676 36.0029 62.6498 35.9346C62.8319 35.855 63.0141 35.8208 63.1962 35.8208C63.3442 35.8208 63.4694 35.8436 63.5947 35.8777C63.7199 35.9119 63.8224 35.9574 63.9248 36.0257C64.0159 36.0826 64.107 36.1623 64.1866 36.242C64.2663 36.3217 64.3346 36.4014 64.3916 36.4925V34.6141H64.8583V39.0198H64.3916V38.3937C64.3233 38.4847 64.255 38.5758 64.1753 38.6555C64.0956 38.7352 64.0045 38.8149 63.9134 38.8832C63.811 38.9515 63.7085 38.997 63.5947 39.0312C63.4694 39.0653 63.3442 39.0881 63.1962 39.0881ZM63.2873 38.6669C63.4353 38.6669 63.5719 38.6327 63.7085 38.5758C63.8451 38.5189 63.959 38.4392 64.0728 38.3254C64.1753 38.2229 64.2663 38.0977 64.3233 37.9497C64.3802 37.8017 64.4143 37.6423 64.4143 37.4601V37.4488C64.4143 37.2666 64.3802 37.1072 64.3233 36.9592C64.2663 36.8112 64.1753 36.686 64.0728 36.5836C63.9703 36.4811 63.8451 36.4014 63.7085 36.3445C63.5719 36.2876 63.4353 36.2534 63.2873 36.2534C63.1393 36.2534 62.9913 36.2762 62.8547 36.3331C62.7181 36.39 62.6042 36.4697 62.5131 36.5722C62.4107 36.6746 62.331 36.7999 62.2741 36.9478C62.2172 37.0958 62.183 37.2666 62.183 37.4488V37.4601C62.183 37.6423 62.2172 37.8131 62.2741 37.9611C62.331 38.1091 62.4107 38.2343 62.5131 38.3367C62.6156 38.4392 62.7294 38.5189 62.8661 38.5758C62.9913 38.6441 63.1279 38.6669 63.2873 38.6669Z" fill="#17315B"/>
<path d="M68.0687 34.7962H68.5469V39.0198H68.0687V34.7962Z" fill="#17315B"/>
<path d="M71.0059 35.2402H69.5942V34.7962H72.907V35.2402H71.4954V39.0198H71.0172V35.2402H71.0059Z" fill="#17315B"/>
<path d="M77.3014 39.0767C76.9599 39.0767 76.6525 39.0198 76.3793 38.906C76.0947 38.7921 75.8328 38.6213 75.5824 38.3937L75.8784 38.0407C76.0947 38.2457 76.3223 38.3937 76.55 38.4847C76.7777 38.5872 77.0396 38.6327 77.3242 38.6327C77.6088 38.6327 77.8365 38.5644 78.0072 38.4278C78.178 38.2912 78.2577 38.1204 78.2577 37.9155V37.9041C78.2577 37.8131 78.2463 37.722 78.2122 37.6423C78.178 37.5626 78.1211 37.4943 78.0414 37.426C77.9617 37.3577 77.8479 37.3008 77.7112 37.2552C77.5632 37.1983 77.3811 37.1528 77.1648 37.1072C76.9257 37.0503 76.7094 36.9934 76.5387 36.9251C76.3565 36.8568 76.2085 36.7771 76.0947 36.6746C75.9808 36.5836 75.8897 36.4697 75.8328 36.3331C75.7759 36.2079 75.7531 36.0485 75.7531 35.8777V35.8663C75.7531 35.707 75.7873 35.5476 75.8556 35.411C75.9239 35.2744 76.015 35.1491 76.1402 35.0467C76.2654 34.9442 76.4134 34.8645 76.5842 34.8076C76.755 34.7507 76.9371 34.7165 77.142 34.7165C77.4494 34.7165 77.7226 34.7621 77.9503 34.8417C78.178 34.9328 78.4057 35.0581 78.622 35.2288L78.3488 35.5931C78.1552 35.4337 77.9503 35.3199 77.7568 35.2402C77.5519 35.1719 77.3469 35.1264 77.1306 35.1264C76.8574 35.1264 76.6297 35.1947 76.4703 35.3199C76.311 35.4451 76.2313 35.6159 76.2313 35.8094V35.8208C76.2313 35.9233 76.2427 36.0143 76.2768 36.094C76.311 36.1737 76.3679 36.242 76.4476 36.3103C76.5273 36.3786 76.6525 36.4356 76.8005 36.4925C76.9485 36.5494 77.142 36.5949 77.3697 36.6519C77.8365 36.7543 78.1894 36.9023 78.4057 37.0845C78.6334 37.2666 78.7358 37.5171 78.7358 37.8472V37.8586C78.7358 38.0407 78.7017 38.2001 78.6334 38.3481C78.5651 38.4961 78.4626 38.6213 78.3374 38.7238C78.2121 38.8263 78.0642 38.906 77.882 38.9629C77.7112 39.054 77.5177 39.0767 77.3014 39.0767Z" fill="#17315B"/>
<path d="M80.0337 37.6537C80.045 37.8131 80.0906 37.9611 80.1589 38.0977C80.2272 38.2229 80.3069 38.3367 80.4093 38.4278C80.5118 38.5189 80.6256 38.5872 80.7509 38.6327C80.8761 38.6783 81.0013 38.701 81.1379 38.701C81.3542 38.701 81.5364 38.6669 81.6958 38.5758C81.8551 38.4961 81.9918 38.3937 82.117 38.257L82.4016 38.5189C82.2422 38.701 82.0714 38.8376 81.8665 38.9401C81.6616 39.0426 81.4112 39.0995 81.1152 39.0995C80.8989 39.0995 80.7053 39.0653 80.5118 38.9856C80.3183 38.906 80.1589 38.7921 80.0223 38.6555C79.8857 38.5075 79.7718 38.3367 79.6921 38.1432C79.6124 37.9383 79.5669 37.722 79.5669 37.4829C79.5669 37.2438 79.601 37.0503 79.6807 36.8454C79.7604 36.6519 79.8629 36.4697 79.9881 36.3217C80.1247 36.1737 80.2841 36.0599 80.4663 35.9802C80.6484 35.9005 80.8533 35.8549 81.0696 35.8549C81.2973 35.8549 81.5022 35.9005 81.6844 35.9802C81.8665 36.0712 82.0145 36.1851 82.1398 36.3331C82.265 36.4811 82.3561 36.6519 82.4244 36.8568C82.4927 37.0617 82.5154 37.278 82.5154 37.5057V37.574C82.5154 37.5968 82.5154 37.6309 82.5041 37.6651H80.0337V37.6537ZM82.0373 37.2666C82.0259 37.13 81.9918 36.9934 81.9462 36.8682C81.9007 36.7429 81.8324 36.6291 81.7527 36.538C81.673 36.4469 81.5705 36.3672 81.4567 36.3103C81.3429 36.2534 81.2062 36.2306 81.0469 36.2306C80.9102 36.2306 80.785 36.2534 80.6712 36.3103C80.5573 36.3672 80.4549 36.4356 80.3638 36.5266C80.2727 36.6177 80.2044 36.7315 80.1475 36.8568C80.0906 36.982 80.0564 37.1186 80.0337 37.2666H82.0373Z" fill="#17315B"/>
<path d="M83.4489 35.9005H83.9157V36.7088C83.9726 36.5836 84.0409 36.4583 84.132 36.3559C84.2117 36.242 84.3142 36.1509 84.4166 36.0713C84.5305 35.9916 84.6443 35.9346 84.7695 35.8891C84.8948 35.8436 85.0314 35.8322 85.1907 35.8322V36.3331H85.1566C84.9858 36.3331 84.8264 36.3672 84.6785 36.4242C84.5305 36.4811 84.3938 36.5722 84.28 36.6974C84.1662 36.8226 84.0751 36.9706 84.0182 37.1414C83.9499 37.3235 83.9271 37.5284 83.9271 37.7561V38.997H83.4603V35.9005H83.4489Z" fill="#17315B"/>
<path d="M85.7031 35.9005H86.2154L87.2627 38.4847L88.3215 35.9005H88.8224L87.4676 39.0426H87.0578L85.7031 35.9005Z" fill="#17315B"/>
<path d="M89.6762 34.7051H90.2112V35.2174H89.6762V34.7051ZM89.7103 35.9005H90.1771V39.0198H89.7103V35.9005Z" fill="#17315B"/>
<path d="M92.7727 39.0881C92.545 39.0881 92.3287 39.0426 92.1352 38.9629C91.9416 38.8718 91.7709 38.758 91.6343 38.61C91.4863 38.462 91.3838 38.2912 91.3041 38.0977C91.2244 37.9041 91.1789 37.6992 91.1789 37.4829V37.4715C91.1789 37.2552 91.2244 37.0389 91.3041 36.8454C91.3838 36.6519 91.4977 36.4697 91.6343 36.3217C91.7823 36.1737 91.9416 36.0599 92.1352 35.9688C92.3287 35.8777 92.545 35.8436 92.7727 35.8436C92.9207 35.8436 93.0573 35.855 93.1712 35.8891C93.2964 35.9119 93.3988 35.9574 93.5013 36.0029C93.6038 36.0485 93.6948 36.1168 93.7745 36.1851C93.8542 36.2534 93.9339 36.3217 94.0136 36.4014L93.7062 36.7315C93.581 36.6063 93.4444 36.4925 93.2964 36.4014C93.1484 36.3103 92.9662 36.2648 92.7613 36.2648C92.6019 36.2648 92.4539 36.2989 92.3173 36.3559C92.1807 36.4128 92.0669 36.5039 91.9644 36.6177C91.862 36.7202 91.7823 36.8568 91.7253 37.0048C91.6684 37.1528 91.6457 37.3121 91.6457 37.4829V37.4943C91.6457 37.6651 91.6798 37.8244 91.7367 37.9724C91.7937 38.1204 91.8733 38.2457 91.9758 38.3595C92.0783 38.4733 92.2035 38.553 92.3401 38.6213C92.4767 38.6897 92.6361 38.7124 92.7955 38.7124C93.0004 38.7124 93.1712 38.6669 93.3305 38.5758C93.4899 38.4847 93.6265 38.3709 93.7518 38.2457L94.0477 38.5189C93.8884 38.701 93.7176 38.8376 93.5127 38.9515C93.3191 39.0312 93.0687 39.0881 92.7727 39.0881Z" fill="#17315B"/>
<path d="M95.2089 37.6537C95.2203 37.8131 95.2659 37.9611 95.3342 38.0977C95.4025 38.2229 95.4822 38.3367 95.5846 38.4278C95.6871 38.5189 95.8009 38.5872 95.9262 38.6327C96.0514 38.6783 96.1766 38.701 96.3132 38.701C96.5295 38.701 96.7117 38.6669 96.8711 38.5758C97.0304 38.4961 97.1671 38.3937 97.2923 38.257L97.5769 38.5189C97.4175 38.701 97.2467 38.8376 97.0418 38.9401C96.8369 39.0426 96.5865 39.0995 96.2905 39.0995C96.0742 39.0995 95.8806 39.0653 95.6871 38.9856C95.4936 38.906 95.3342 38.7921 95.1976 38.6555C95.0609 38.5075 94.9471 38.3367 94.8674 38.1432C94.7877 37.9383 94.7422 37.722 94.7422 37.4829C94.7422 37.2438 94.7763 37.0503 94.856 36.8454C94.9357 36.6519 95.0382 36.4697 95.1634 36.3217C95.3 36.1737 95.4594 36.0599 95.6416 35.9802C95.8237 35.9005 96.0286 35.8549 96.2449 35.8549C96.4726 35.8549 96.6775 35.9005 96.8597 35.9802C97.0418 36.0712 97.1898 36.1851 97.3151 36.3331C97.4403 36.4811 97.5314 36.6519 97.5997 36.8568C97.668 37.0617 97.7021 37.278 97.7021 37.5057V37.574C97.7021 37.5968 97.7021 37.6309 97.6907 37.6651H95.2089V37.6537ZM97.224 37.2666C97.2126 37.13 97.1784 36.9934 97.1329 36.8682C97.0874 36.7429 97.0191 36.6291 96.9394 36.538C96.8597 36.4469 96.7572 36.3672 96.6434 36.3103C96.5295 36.2534 96.3929 36.2306 96.2335 36.2306C96.0969 36.2306 95.9717 36.2534 95.8579 36.3103C95.744 36.3672 95.6416 36.4356 95.5505 36.5266C95.4594 36.6177 95.3911 36.7315 95.3342 36.8568C95.2773 36.982 95.2431 37.1186 95.2203 37.2666H97.224Z" fill="#17315B"/>
<path d="M99.6602 39.0767C99.4326 39.0767 99.2049 39.0312 98.9772 38.9515C98.7495 38.8718 98.5446 38.758 98.3738 38.6213L98.6129 38.2912C98.7836 38.4164 98.9544 38.5189 99.1366 38.5872C99.3187 38.6555 99.5009 38.6897 99.683 38.6897C99.8765 38.6897 100.025 38.6441 100.15 38.553C100.275 38.462 100.332 38.3481 100.332 38.1887V38.1774C100.332 38.0977 100.309 38.0407 100.264 37.9838C100.218 37.9269 100.161 37.8814 100.093 37.8358C100.025 37.7903 99.9335 37.7561 99.8424 37.722C99.7513 37.6878 99.6489 37.6651 99.5464 37.6309C99.4212 37.5968 99.3073 37.5512 99.1821 37.5171C99.0569 37.4715 98.9544 37.426 98.852 37.3577C98.7495 37.2894 98.6698 37.2097 98.6129 37.1186C98.556 37.0275 98.5218 36.9023 98.5218 36.7543V36.7429C98.5218 36.6063 98.5446 36.4925 98.6015 36.3786C98.6584 36.2648 98.7267 36.1737 98.8178 36.094C98.9089 36.0143 99.0227 35.9574 99.1593 35.9119C99.2846 35.8663 99.4326 35.8436 99.5805 35.8436C99.7741 35.8436 99.9676 35.8777 100.161 35.9346C100.355 36.0029 100.537 36.0826 100.696 36.1851L100.48 36.538C100.332 36.4469 100.184 36.3672 100.025 36.3217C99.8652 36.2648 99.7058 36.242 99.5578 36.242C99.3756 36.242 99.2276 36.2876 99.1138 36.3672C99.0113 36.4583 98.9544 36.5608 98.9544 36.686V36.6974C98.9544 36.7657 98.9772 36.834 99.0227 36.8909C99.0683 36.9478 99.1252 36.9934 99.2049 37.0275C99.2846 37.0617 99.3642 37.1072 99.4553 37.13C99.5464 37.1641 99.6489 37.1983 99.7513 37.2325C99.8765 37.2666 99.9904 37.3121 100.104 37.3577C100.218 37.4032 100.332 37.4601 100.423 37.5284C100.525 37.5968 100.594 37.6764 100.651 37.7789C100.708 37.87 100.742 37.9952 100.742 38.1318V38.1432C100.742 38.2912 100.708 38.4278 100.651 38.5417C100.594 38.6555 100.514 38.758 100.412 38.8376C100.309 38.9173 100.195 38.9743 100.059 39.0198C99.9562 39.0539 99.8082 39.0767 99.6602 39.0767Z" fill="#17315B"/>
<path d="M31.6172 7.54782L15.8636 0L0.10993 7.54782C-1.45086 33.8286 14.0956 39.4467 15.8636 40C17.6316 39.4467 33.178 33.8286 31.6172 7.54782ZM15.8636 38.2149C14.247 37.7083 0.0882996 32.5854 1.51476 8.64982L15.8636 1.77596L30.2124 8.65096C31.6389 32.5854 17.4801 37.7095 15.8636 38.2149Z" fill="#005186"/>
<path d="M4.7183 25.3666L6.69917 24.4126V18.1876L11.698 15.8561V22.0059L15.8613 20.0011V3.19901L11.698 5.20265V11.8477L6.69917 14.1792V7.6093L2.7101 9.52983L2.62927 9.56968L2.62244 9.65734C2.57576 10.4292 2.54617 11.2363 2.53592 12.0708V13.1136C2.58032 17.1368 3.15864 21.6769 4.90955 25.839H4.91069C4.84466 25.6808 4.77977 25.5237 4.71716 25.3654L4.7183 25.3666Z" fill="#309CD0"/>
<path d="M29.1024 9.65848L29.0956 9.57082L29.0147 9.53097L25.8749 8.01913L22.5928 12.138L22.4585 12.0754L19.1172 4.76549L15.8624 3.19901V19.9989L19.7798 21.8853V13.1091L19.88 13.1557L22.4574 18.495L22.5917 18.5576L25.1691 15.6227L25.2693 15.6694V24.5287L27.0054 25.3643C28.6049 21.3343 29.1434 16.9843 29.1867 13.1136V12.0697C29.1775 11.2352 29.1468 10.4281 29.1001 9.65734L29.1024 9.65848Z" fill="#0E68AA"/>
<path d="M27.0077 25.3666L15.8624 20L4.71716 25.3666C5.65182 27.722 6.94849 29.9681 8.72217 31.9444C12.0373 35.6352 15.563 36.7156 15.8613 36.7999C16.1607 36.7156 19.6853 35.6341 23.0004 31.9444C24.7741 29.967 26.0708 27.722 27.0054 25.3666H27.0077Z" fill="#0C5C88"/>
<path d="M25.3991 28.8126C25.7759 28.1842 26.1004 27.533 26.4123 26.8773L15.8806 21.9672L8.22809 25.7047L17.3868 29.9545L14.7673 31.2272L5.31256 26.8431C5.85218 27.9747 6.46124 29.0597 7.20122 30.1025L16.0537 34.1997L23.7028 30.4964L14.5817 26.2557L17.183 24.9886L25.4002 28.8115L25.3991 28.8126Z" fill="white"/>
<path d="M18.4182 8.71359H13.3078V10.6945H18.4182V8.71359Z" fill="#D61518"/>
<path d="M16.8574 7.15393H14.8766V12.2644H16.8574V7.15393Z" fill="#D61518"/>
</svg>
