<svg width="190" height="75" viewBox="0 0 190 75" fill="none" xmlns="http://www.w3.org/2000/svg">
<path d="M0.93898 15L30.0474 1.875L58.2169 15.9375C58.5298 18.125 58.7802 25.125 57.2779 35.625C55.3999 48.75 46.0101 61.875 45.0711 63.75C44.3199 65.25 34.1163 71.25 29.1084 74.0625C25.0395 71.5625 15.3993 64.5 9.38981 56.25C3.38033 48 1.25197 25.3125 0.93898 15Z" fill="white"/>
<path d="M186.923 38.3261C184.999 36.5971 181.728 35.7432 177.174 35.7432H166.142C164.389 35.7432 163.085 35.3804 162.209 34.6546C161.332 33.9289 160.883 32.8616 160.883 31.4314C160.883 29.6384 161.396 28.315 162.444 27.5038C163.47 26.6714 165.095 26.2658 167.318 26.2658H187.928V19.2004H166.1C161.268 19.2004 157.719 20.1609 155.517 22.1034C153.293 24.0458 152.182 27.1196 152.182 31.3247C152.182 35.2523 153.229 38.134 155.346 39.9697C157.462 41.7841 160.798 42.7019 165.373 42.7019H175.229C177.388 42.7019 178.906 43.0434 179.804 43.7479C180.702 44.4523 181.129 45.6263 181.129 47.2699C181.129 48.9135 180.638 50.0235 179.675 50.7065C178.713 51.3896 177.024 51.7525 174.651 51.7525H146.174V19.2004H133.966L123.854 49.5966L113.742 19.2004H100.828V35.2523H79.7483V19.2004H71.4104V58.8179H79.7483V42.275H100.828V58.8179H110L109.166 27.7813V27.6532L119.664 58.8179H128.515L138.691 27.9734L138.007 58.8179H175.998C180.787 58.8179 184.293 57.8573 186.517 55.9576C188.74 54.0364 189.873 51.0481 189.873 46.971C189.809 42.9154 188.847 40.0551 186.923 38.3261Z" fill="#0F5385"/>
<path d="M70.8759 65.2429H71.7738L74.66 69.5547L77.5463 65.2429H78.4442V73.1621H77.5463V66.7584L74.6814 70.9849H74.6387L71.7525 66.7584V73.1621H70.8759V65.2429Z" fill="#17315B"/>
<path d="M82.5277 73.2902C82.2497 73.2902 81.9932 73.2475 81.7153 73.1835C81.4587 73.0981 81.2235 72.9914 81.0097 72.8419C80.7959 72.6925 80.6463 72.5004 80.518 72.2656C80.3897 72.0308 80.3256 71.7747 80.3256 71.4758V71.4545C80.3256 71.1343 80.3897 70.8568 80.518 70.622C80.6463 70.3872 80.8173 70.1951 81.0311 70.0243C81.2449 69.8749 81.5228 69.7468 81.8221 69.6614C82.1215 69.5761 82.4635 69.5334 82.827 69.5334C83.2118 69.5334 83.5325 69.5547 83.8104 69.5974C84.0884 69.6401 84.3663 69.7041 84.6228 69.7682V69.5974C84.6228 69.0851 84.4732 68.6795 84.1739 68.4234C83.8746 68.1672 83.447 68.0178 82.8911 68.0178C82.549 68.0178 82.2284 68.0605 81.9504 68.1246C81.6725 68.1886 81.3946 68.2953 81.1166 68.4234L80.8601 67.6976C81.1808 67.5482 81.5228 67.4202 81.8435 67.3348C82.1856 67.2494 82.549 67.2067 82.9766 67.2067C83.8104 67.2067 84.4304 67.4202 84.858 67.8471C85.2642 68.2526 85.478 68.829 85.478 69.5547V73.1194H84.6228V72.2443C84.4304 72.5004 84.1525 72.7352 83.8104 72.9487C83.4684 73.1835 83.0408 73.2902 82.5277 73.2902ZM82.6987 72.5644C82.9766 72.5644 83.2118 72.5218 83.447 72.4577C83.6822 72.3723 83.8959 72.2656 84.067 72.1375C84.238 71.9881 84.3877 71.8387 84.4946 71.6466C84.6015 71.4545 84.6442 71.241 84.6442 71.0062V70.4726C84.4304 70.4085 84.1739 70.3658 83.8959 70.3018C83.618 70.2591 83.2973 70.2164 82.9339 70.2164C82.3994 70.2164 81.9718 70.3232 81.6725 70.5366C81.3732 70.7501 81.2235 71.0276 81.2235 71.3904V71.4118C81.2235 71.6039 81.2663 71.7533 81.3518 71.9027C81.4373 72.0522 81.5442 72.1802 81.6725 72.2656C81.8008 72.3723 81.9718 72.4364 82.1428 72.5004C82.3139 72.5431 82.5063 72.5644 82.6987 72.5644Z" fill="#17315B"/>
<path d="M87.5732 67.3134H88.4497V68.338C88.6422 68.0178 88.8987 67.7617 89.2194 67.5269C89.5401 67.3134 89.9463 67.1853 90.4594 67.1853C90.8228 67.1853 91.1222 67.2494 91.4001 67.3561C91.678 67.4628 91.9132 67.6336 92.1056 67.8471C92.298 68.0605 92.4477 68.2953 92.5546 68.5942C92.6615 68.8717 92.7042 69.1918 92.7042 69.5334V73.1621H91.8277V69.7468C91.8277 69.2132 91.678 68.7863 91.4001 68.4661C91.1222 68.1459 90.716 67.9965 90.2028 67.9965C89.9463 67.9965 89.7325 68.0392 89.4973 68.1246C89.2835 68.2099 89.0911 68.338 88.9415 68.4874C88.7918 68.6582 88.6635 68.8503 88.578 69.0638C88.4925 69.2986 88.4497 69.5334 88.4497 69.8109V73.1408H87.5732V67.3134Z" fill="#17315B"/>
<path d="M96.5098 73.2902C96.2318 73.2902 95.9753 73.2475 95.6973 73.1835C95.4408 73.0981 95.2056 72.9914 94.9918 72.8419C94.778 72.6925 94.6284 72.5004 94.5001 72.2656C94.3718 72.0308 94.3077 71.7747 94.3077 71.4758V71.4545C94.3077 71.1343 94.3718 70.8568 94.5001 70.622C94.6284 70.3872 94.7994 70.1951 95.0132 70.0243C95.227 69.8749 95.5049 69.7468 95.8042 69.6614C96.1035 69.5761 96.4456 69.5334 96.8091 69.5334C97.1939 69.5334 97.5146 69.5547 97.7925 69.5974C98.0704 69.6401 98.3484 69.7041 98.6049 69.7682V69.5974C98.6049 69.0851 98.4553 68.6795 98.156 68.4234C97.8567 68.1672 97.4291 68.0178 96.8732 68.0178C96.5311 68.0178 96.2104 68.0605 95.9325 68.1246C95.6546 68.1886 95.3766 68.2953 95.0987 68.4234L94.8422 67.6976C95.1629 67.5482 95.5049 67.4202 95.8256 67.3348C96.1677 67.2494 96.5311 67.2067 96.9801 67.2067C97.8139 67.2067 98.4339 67.4202 98.8615 67.8471C99.2677 68.2526 99.4815 68.829 99.4815 69.5547V73.1194H98.6263V72.2443C98.4339 72.5004 98.156 72.7352 97.8139 72.9487C97.4504 73.1835 97.0229 73.2902 96.5098 73.2902ZM96.6808 72.5644C96.9587 72.5644 97.1939 72.5218 97.4291 72.4577C97.6642 72.3723 97.878 72.2656 98.0491 72.1375C98.2201 71.9881 98.3698 71.8387 98.4767 71.6466C98.5835 71.4545 98.6263 71.241 98.6263 71.0062V70.4726C98.4125 70.4085 98.156 70.3658 97.878 70.3018C97.6001 70.2591 97.2794 70.2164 96.916 70.2164C96.3815 70.2164 95.9539 70.3232 95.6546 70.5366C95.3553 70.7501 95.2056 71.0276 95.2056 71.3904V71.4118C95.2056 71.6039 95.2484 71.7533 95.3339 71.9027C95.4194 72.0522 95.5263 72.1802 95.6546 72.2656C95.7829 72.3723 95.9539 72.4364 96.1249 72.5004C96.3173 72.5431 96.4884 72.5644 96.6808 72.5644Z" fill="#17315B"/>
<path d="M104.142 74.9979C103.65 74.9979 103.18 74.9338 102.731 74.8057C102.282 74.6777 101.876 74.4642 101.47 74.1867L101.876 73.5037C102.218 73.7385 102.56 73.9306 102.945 74.0586C103.308 74.1867 103.715 74.2508 104.142 74.2508C104.784 74.2508 105.318 74.08 105.703 73.7171C106.088 73.3756 106.28 72.8419 106.28 72.1589V71.4758C106.024 71.8174 105.703 72.0948 105.339 72.351C104.976 72.5858 104.527 72.7139 103.971 72.7139C103.608 72.7139 103.266 72.6498 102.945 72.5218C102.624 72.3937 102.325 72.2016 102.068 71.9668C101.812 71.732 101.598 71.4331 101.448 71.1129C101.299 70.7714 101.213 70.3872 101.213 69.9816V69.9603C101.213 69.5334 101.299 69.1491 101.448 68.8076C101.598 68.4661 101.812 68.1886 102.068 67.9538C102.325 67.719 102.624 67.5269 102.945 67.3988C103.287 67.2707 103.608 67.2067 103.971 67.2067C104.249 67.2067 104.484 67.228 104.719 67.2921C104.955 67.3561 105.147 67.4415 105.339 67.5482C105.532 67.655 105.703 67.783 105.853 67.9111C106.002 68.0605 106.13 68.2099 106.259 68.3594V67.3134H107.135V72.1375C107.135 72.5858 107.071 72.9914 106.943 73.3329C106.815 73.6744 106.622 73.9733 106.387 74.2081C106.13 74.4642 105.81 74.6777 105.425 74.7844C105.04 74.9338 104.613 74.9979 104.142 74.9979ZM104.142 71.9454C104.42 71.9454 104.698 71.9027 104.955 71.796C105.211 71.7106 105.446 71.5612 105.639 71.3904C105.831 71.2197 106.002 71.0062 106.13 70.7714C106.259 70.5366 106.302 70.2591 106.302 69.9603V69.9389C106.302 69.6401 106.237 69.3626 106.13 69.1278C106.002 68.893 105.853 68.6795 105.639 68.5088C105.446 68.338 105.211 68.2099 104.955 68.1032C104.698 68.0178 104.42 67.9538 104.142 67.9538C103.864 67.9538 103.608 67.9965 103.351 68.1032C103.116 68.1886 102.881 68.338 102.71 68.4874C102.517 68.6582 102.389 68.8717 102.282 69.1065C102.175 69.3413 102.133 69.6187 102.133 69.9176V69.9389C102.133 70.2378 102.197 70.4939 102.304 70.7501C102.41 70.9849 102.56 71.1983 102.753 71.3691C102.945 71.5399 103.159 71.6679 103.394 71.7747C103.608 71.8814 103.864 71.9454 104.142 71.9454Z" fill="#17315B"/>
<path d="M109.808 70.6006C109.829 70.8995 109.915 71.177 110.043 71.4331C110.171 71.6679 110.321 71.8814 110.513 72.0521C110.706 72.2229 110.919 72.351 111.155 72.4364C111.39 72.5218 111.625 72.5644 111.882 72.5644C112.288 72.5644 112.63 72.5004 112.929 72.3296C113.228 72.1802 113.485 71.9881 113.72 71.732L114.255 72.2229C113.955 72.5644 113.635 72.8206 113.25 73.0127C112.865 73.2048 112.395 73.3115 111.839 73.3115C111.433 73.3115 111.069 73.2475 110.706 73.0981C110.342 72.9487 110.043 72.7352 109.786 72.4791C109.53 72.2016 109.316 71.8814 109.166 71.5185C109.017 71.1343 108.931 70.7287 108.931 70.2805C108.931 69.8322 108.995 69.4693 109.145 69.0851C109.295 68.7222 109.487 68.3807 109.722 68.1032C109.979 67.8257 110.278 67.6123 110.62 67.4628C110.962 67.3134 111.347 67.228 111.753 67.228C112.181 67.228 112.566 67.3134 112.908 67.4628C113.25 67.6336 113.528 67.8471 113.763 68.1246C113.998 68.402 114.169 68.7222 114.297 69.1065C114.426 69.4907 114.49 69.8962 114.49 70.3232V70.4512C114.49 70.4939 114.49 70.558 114.468 70.622H109.808V70.6006ZM113.592 69.8749C113.57 69.6188 113.506 69.3626 113.421 69.1278C113.335 68.893 113.207 68.6795 113.057 68.5088C112.908 68.338 112.715 68.1886 112.502 68.0819C112.288 67.9751 112.031 67.9324 111.732 67.9324C111.475 67.9324 111.24 67.9751 111.026 68.0819C110.813 68.1886 110.62 68.3167 110.449 68.4874C110.278 68.6582 110.15 68.8717 110.043 69.1065C109.936 69.3413 109.872 69.5974 109.829 69.8749H113.592Z" fill="#17315B"/>
<path d="M118.68 73.2902C118.317 73.2902 117.975 73.2262 117.654 73.0767C117.312 72.9487 117.034 72.7352 116.756 72.4791C116.499 72.2229 116.286 71.9027 116.115 71.5185C115.965 71.1556 115.879 70.7287 115.879 70.2378V70.2164C115.879 69.7468 115.965 69.3199 116.115 68.9357C116.264 68.5515 116.478 68.2313 116.756 67.9751C117.013 67.719 117.312 67.5055 117.654 67.3775C117.996 67.228 118.338 67.164 118.68 67.164C118.958 67.164 119.193 67.2067 119.428 67.2707C119.664 67.3348 119.856 67.4202 120.048 67.5482C120.219 67.655 120.39 67.8044 120.54 67.9538C120.69 68.1032 120.818 68.2526 120.925 68.4234V64.9014H121.802V73.1621H120.925V71.9881C120.797 72.1589 120.668 72.3296 120.519 72.4791C120.369 72.6285 120.198 72.7779 120.027 72.906C119.835 73.0341 119.642 73.1194 119.428 73.1835C119.193 73.2475 118.958 73.2902 118.68 73.2902ZM118.851 72.5004C119.129 72.5004 119.386 72.4364 119.642 72.3296C119.899 72.2229 120.113 72.0735 120.326 71.86C120.519 71.6679 120.69 71.4331 120.797 71.1556C120.904 70.8781 120.968 70.5793 120.968 70.2378V70.2164C120.968 69.8749 120.904 69.5761 120.797 69.2986C120.69 69.0211 120.519 68.7863 120.326 68.5942C120.134 68.4021 119.899 68.2526 119.642 68.1459C119.386 68.0392 119.129 67.9751 118.851 67.9751C118.573 67.9751 118.295 68.0178 118.039 68.1246C117.782 68.2313 117.568 68.3807 117.397 68.5728C117.205 68.7649 117.055 68.9997 116.948 69.2772C116.842 69.5547 116.777 69.8749 116.777 70.2164V70.2378C116.777 70.5793 116.842 70.8995 116.948 71.177C117.055 71.4545 117.205 71.6893 117.397 71.8814C117.59 72.0735 117.804 72.2229 118.06 72.3296C118.295 72.4577 118.552 72.5004 118.851 72.5004Z" fill="#17315B"/>
<path d="M127.831 65.2429H128.728V73.1621H127.831V65.2429Z" fill="#17315B"/>
<path d="M133.346 66.0754H130.695V65.2429H136.917V66.0754H134.266V73.1621H133.368V66.0754H133.346Z" fill="#17315B"/>
<path d="M145.169 73.2689C144.528 73.2689 143.951 73.1621 143.437 72.9487C142.903 72.7352 142.411 72.415 141.941 71.9881L142.497 71.3264C142.903 71.7106 143.331 71.9881 143.758 72.1589C144.186 72.351 144.677 72.4364 145.212 72.4364C145.746 72.4364 146.174 72.3083 146.495 72.0522C146.815 71.796 146.965 71.4758 146.965 71.0916V71.0703C146.965 70.8995 146.944 70.7287 146.88 70.5793C146.815 70.4299 146.708 70.3018 146.559 70.1737C146.409 70.0457 146.195 69.9389 145.939 69.8536C145.661 69.7468 145.319 69.6615 144.913 69.5761C144.464 69.4693 144.057 69.3626 143.737 69.2345C143.395 69.1065 143.117 68.957 142.903 68.7649C142.689 68.5942 142.518 68.3807 142.411 68.1246C142.304 67.8898 142.262 67.5909 142.262 67.2707V67.2494C142.262 66.9506 142.326 66.6517 142.454 66.3956C142.582 66.1394 142.753 65.9046 142.988 65.7125C143.224 65.5204 143.502 65.371 143.822 65.2643C144.143 65.1575 144.485 65.0935 144.87 65.0935C145.447 65.0935 145.96 65.1789 146.388 65.3283C146.815 65.4991 147.243 65.7339 147.649 66.054L147.136 66.7371C146.773 66.4383 146.388 66.2248 146.024 66.0754C145.64 65.9473 145.255 65.8619 144.848 65.8619C144.335 65.8619 143.908 65.99 143.608 66.2248C143.309 66.4596 143.16 66.7798 143.16 67.1427V67.164C143.16 67.3561 143.181 67.5269 143.245 67.6763C143.309 67.8257 143.416 67.9538 143.566 68.0819C143.715 68.21 143.951 68.3167 144.228 68.4234C144.506 68.5301 144.87 68.6155 145.297 68.7222C146.174 68.9144 146.837 69.1918 147.243 69.5334C147.671 69.8749 147.863 70.3445 147.863 70.9635V70.9849C147.863 71.3264 147.799 71.6253 147.671 71.9027C147.542 72.1802 147.35 72.415 147.115 72.6071C146.88 72.7993 146.602 72.9487 146.26 73.0554C145.939 73.2262 145.575 73.2689 145.169 73.2689Z" fill="#17315B"/>
<path d="M150.3 70.6006C150.322 70.8995 150.407 71.177 150.535 71.4331C150.664 71.6679 150.813 71.8814 151.006 72.0521C151.198 72.2229 151.412 72.351 151.647 72.4364C151.882 72.5218 152.117 72.5644 152.374 72.5644C152.78 72.5644 153.122 72.5004 153.422 72.3296C153.721 72.1802 153.977 71.9881 154.213 71.732L154.747 72.2229C154.448 72.5644 154.127 72.8206 153.742 73.0127C153.357 73.2048 152.887 73.3115 152.331 73.3115C151.925 73.3115 151.562 73.2475 151.198 73.0981C150.835 72.9487 150.535 72.7352 150.279 72.4791C150.022 72.2016 149.809 71.8814 149.659 71.5185C149.509 71.1343 149.424 70.7287 149.424 70.2805C149.424 69.8322 149.488 69.4693 149.637 69.0851C149.787 68.7222 149.98 68.3807 150.215 68.1032C150.471 67.8257 150.771 67.6123 151.113 67.4628C151.455 67.3134 151.84 67.228 152.246 67.228C152.673 67.228 153.058 67.3134 153.4 67.4628C153.742 67.6336 154.02 67.8471 154.255 68.1246C154.491 68.402 154.662 68.7222 154.79 69.1065C154.918 69.4907 154.961 69.8962 154.961 70.3232V70.4512C154.961 70.4939 154.961 70.558 154.94 70.622H150.3V70.6006ZM154.063 69.8749C154.042 69.6188 153.977 69.3626 153.892 69.1278C153.806 68.893 153.678 68.6795 153.529 68.5088C153.379 68.338 153.186 68.1886 152.973 68.0819C152.759 67.9751 152.502 67.9324 152.203 67.9324C151.946 67.9324 151.711 67.9751 151.497 68.0819C151.284 68.1886 151.091 68.3167 150.92 68.4874C150.749 68.6582 150.621 68.8717 150.514 69.1065C150.407 69.3413 150.343 69.5974 150.3 69.8749H154.063Z" fill="#17315B"/>
<path d="M156.714 67.3134H157.591V68.829C157.697 68.5942 157.826 68.3594 157.997 68.1672C158.146 67.9538 158.339 67.783 158.531 67.6336C158.745 67.4842 158.959 67.3775 159.194 67.2921C159.429 67.2067 159.686 67.1853 159.985 67.1853V68.1246H159.921C159.6 68.1246 159.301 68.1886 159.023 68.2953C158.745 68.4021 158.489 68.5728 158.275 68.8076C158.061 69.0424 157.89 69.3199 157.783 69.6401C157.655 69.9816 157.612 70.3658 157.612 70.7928V73.1194H156.735V67.3134H156.714Z" fill="#17315B"/>
<path d="M160.947 67.3134H161.909L163.876 72.1589L165.864 67.3134H166.805L164.261 73.2048H163.491L160.947 67.3134Z" fill="#17315B"/>
<path d="M168.409 65.0721H169.413V66.0327H168.409V65.0721ZM168.473 67.3134H169.349V73.1621H168.473V67.3134Z" fill="#17315B"/>
<path d="M174.224 73.2902C173.796 73.2902 173.39 73.2048 173.026 73.0554C172.663 72.8846 172.342 72.6712 172.086 72.3937C171.808 72.1162 171.615 71.796 171.466 71.4331C171.316 71.0703 171.231 70.686 171.231 70.2805V70.2591C171.231 69.8536 171.316 69.448 171.466 69.0851C171.615 68.7222 171.829 68.3807 172.086 68.1032C172.364 67.8257 172.663 67.6123 173.026 67.4415C173.39 67.2707 173.796 67.2067 174.224 67.2067C174.502 67.2067 174.758 67.228 174.972 67.2921C175.207 67.3348 175.4 67.4202 175.592 67.5055C175.784 67.5909 175.955 67.719 176.105 67.8471C176.255 67.9751 176.404 68.1032 176.554 68.2526L175.977 68.8717C175.742 68.6369 175.485 68.4234 175.207 68.2526C174.929 68.0819 174.587 67.9965 174.202 67.9965C173.903 67.9965 173.625 68.0605 173.369 68.1672C173.112 68.274 172.898 68.4447 172.706 68.6582C172.513 68.8503 172.364 69.1065 172.257 69.3839C172.15 69.6614 172.107 69.9603 172.107 70.2805V70.3018C172.107 70.622 172.171 70.9208 172.278 71.1983C172.385 71.4758 172.535 71.7106 172.727 71.9241C172.92 72.1375 173.155 72.287 173.411 72.415C173.668 72.5431 173.967 72.5858 174.266 72.5858C174.651 72.5858 174.972 72.5004 175.271 72.3296C175.571 72.1589 175.827 71.9454 176.062 71.7106L176.618 72.2229C176.319 72.5644 175.998 72.8206 175.613 73.034C175.25 73.1835 174.78 73.2902 174.224 73.2902Z" fill="#17315B"/>
<path d="M178.799 70.6006C178.82 70.8995 178.906 71.177 179.034 71.4331C179.162 71.6679 179.312 71.8814 179.504 72.0521C179.697 72.2229 179.911 72.351 180.146 72.4364C180.381 72.5218 180.616 72.5644 180.873 72.5644C181.279 72.5644 181.621 72.5004 181.92 72.3296C182.22 72.1802 182.476 71.9881 182.711 71.732L183.246 72.2229C182.947 72.5644 182.626 72.8206 182.241 73.0127C181.856 73.2048 181.386 73.3115 180.83 73.3115C180.424 73.3115 180.06 73.2475 179.697 73.0981C179.333 72.9487 179.034 72.7352 178.778 72.4791C178.521 72.2016 178.307 71.8814 178.158 71.5185C178.008 71.1343 177.922 70.7287 177.922 70.2805C177.922 69.8322 177.987 69.4693 178.136 69.0851C178.286 68.7222 178.478 68.3807 178.713 68.1032C178.97 67.8257 179.269 67.6123 179.611 67.4628C179.953 67.3134 180.338 67.228 180.744 67.228C181.172 67.228 181.557 67.3134 181.899 67.4628C182.241 67.6336 182.519 67.8471 182.754 68.1246C182.989 68.402 183.16 68.7222 183.289 69.1065C183.417 69.4907 183.481 69.8962 183.481 70.3232V70.4512C183.481 70.4939 183.481 70.558 183.46 70.622H178.799V70.6006ZM182.583 69.8749C182.562 69.6188 182.498 69.3626 182.412 69.1278C182.327 68.893 182.198 68.6795 182.049 68.5088C181.899 68.338 181.707 68.1886 181.493 68.0819C181.279 67.9751 181.022 67.9324 180.723 67.9324C180.467 67.9324 180.231 67.9751 180.018 68.0819C179.804 68.1886 179.611 68.3167 179.44 68.4874C179.269 68.6582 179.141 68.8717 179.034 69.1065C178.927 69.3413 178.863 69.5974 178.82 69.8749H182.583Z" fill="#17315B"/>
<path d="M187.158 73.2689C186.731 73.2689 186.303 73.1835 185.875 73.0341C185.448 72.8846 185.063 72.6712 184.742 72.415L185.191 71.796C185.512 72.0308 185.833 72.2229 186.175 72.351C186.517 72.4791 186.859 72.5431 187.201 72.5431C187.564 72.5431 187.842 72.4577 188.078 72.287C188.313 72.1162 188.42 71.9027 188.42 71.6039V71.5826C188.42 71.4331 188.377 71.3264 188.291 71.2197C188.206 71.1129 188.099 71.0276 187.971 70.9422C187.842 70.8568 187.671 70.7928 187.5 70.7287C187.329 70.6647 187.137 70.622 186.944 70.558C186.709 70.4939 186.495 70.4085 186.26 70.3445C186.025 70.2591 185.833 70.1737 185.64 70.0457C185.448 69.9176 185.298 69.7682 185.191 69.5974C185.084 69.4266 185.02 69.1918 185.02 68.9143V68.893C185.02 68.6369 185.063 68.4234 185.17 68.2099C185.277 67.9965 185.405 67.8257 185.576 67.6763C185.747 67.5269 185.961 67.4202 186.218 67.3348C186.453 67.2494 186.731 67.2067 187.009 67.2067C187.372 67.2067 187.735 67.2707 188.099 67.3775C188.462 67.5055 188.804 67.655 189.104 67.8471L188.698 68.5088C188.42 68.338 188.142 68.1886 187.842 68.1032C187.543 67.9965 187.244 67.9538 186.966 67.9538C186.624 67.9538 186.346 68.0392 186.132 68.1886C185.94 68.3594 185.833 68.5515 185.833 68.7863V68.8076C185.833 68.9357 185.875 69.0638 185.961 69.1705C186.047 69.2772 186.153 69.3626 186.303 69.4266C186.453 69.4907 186.602 69.5761 186.773 69.6187C186.944 69.6828 187.137 69.7468 187.329 69.8109C187.564 69.8749 187.778 69.9603 187.992 70.0457C188.206 70.131 188.42 70.2378 188.591 70.3658C188.783 70.4939 188.911 70.6433 189.018 70.8355C189.125 71.0062 189.189 71.241 189.189 71.4972V71.5185C189.189 71.796 189.125 72.0522 189.018 72.2656C188.911 72.4791 188.762 72.6712 188.569 72.8206C188.377 72.97 188.163 73.0767 187.907 73.1621C187.714 73.2262 187.436 73.2689 187.158 73.2689Z" fill="#17315B"/>
<path d="M59.376 14.1522L29.7912 0L0.206444 14.1522C-2.72467 63.4285 26.471 73.9626 29.7912 75C33.1114 73.9626 62.3071 63.4285 59.376 14.1522ZM29.7912 71.653C26.7553 70.7031 0.165823 61.0976 2.84466 16.2184L29.7912 3.32992L56.7378 16.2205C59.4166 61.0976 32.8271 70.7053 29.7912 71.653Z" fill="#005186"/>
<path d="M8.86081 47.5623L12.5808 45.7736V34.1018L21.9685 29.7302V41.2611L29.7869 37.5021V5.99811L21.9685 9.75494V22.2144L12.5808 26.586V14.2674L5.08949 17.8684L4.9377 17.9431L4.92487 18.1075C4.83722 19.5547 4.78163 21.0681 4.76239 22.6328V24.588C4.84577 32.1316 5.93184 40.6442 9.21999 48.4482H9.22212C9.09812 48.1515 8.97626 47.8569 8.85867 47.5602L8.86081 47.5623Z" fill="#309CD0"/>
<path d="M54.6533 18.1096L54.6404 17.9453L54.4886 17.8705L48.5922 15.0358L42.4285 22.7587L42.1763 22.6413L35.9014 8.93527L29.7891 5.99811V37.4978L37.1457 41.0348V24.5795L37.3338 24.667L42.1741 34.6781L42.4264 34.7955L47.2667 29.2926L47.4548 29.3801V45.9913L50.7152 47.558C53.719 40.0017 54.7302 31.8455 54.8115 24.588V22.6306C54.7944 21.066 54.7366 19.5526 54.649 18.1075L54.6533 18.1096Z" fill="#0E68AA"/>
<path d="M50.7195 47.5623L29.7891 37.5L8.85867 47.5623C10.6139 51.9787 13.049 56.1902 16.3799 59.8958C22.6056 66.8161 29.2268 68.8418 29.7869 68.9997C30.3492 68.8418 36.9683 66.814 43.1939 59.8958C46.5248 56.1881 48.9599 51.9787 50.7152 47.5623H50.7195Z" fill="#0C5C88"/>
<path d="M47.6985 54.0237C48.4062 52.8454 49.0155 51.6244 49.6013 50.3949L29.8233 41.1885L15.4521 48.1963L32.6518 56.1646L27.7324 58.5511L9.97681 50.3309C10.9902 52.4526 12.134 54.4869 13.5236 56.4421L30.1482 64.1244L44.513 57.1807L27.3839 49.2294L32.2691 46.8537L47.7007 54.0215L47.6985 54.0237Z" fill="white"/>
<path d="M34.5887 16.338H24.9915V20.0521H34.5887V16.338Z" fill="#D61518"/>
<path d="M31.6576 13.4136H27.9376V22.9957H31.6576V13.4136Z" fill="#D61518"/>
</svg>
