<svg width="94" height="40" viewBox="0 0 94 40" fill="none" xmlns="http://www.w3.org/2000/svg">
<g clip-path="url(#clip0_80_186)">
<path d="M15.7717 36.7879C16.0701 36.7045 19.5753 35.6238 22.8716 31.9313C24.6358 29.9533 25.9258 27.7085 26.8543 25.3536L15.775 19.9867V36.7879H15.7717Z" fill="#0E68AA"/>
<path d="M92.5475 21.7845C91.599 20.9273 89.9874 20.5003 87.7423 20.5003H82.3038C81.4383 20.5003 80.795 20.3202 80.3639 19.96C79.9328 19.5997 79.7106 19.0694 79.7106 18.3589C79.7106 17.4683 79.9626 16.8112 80.4799 16.4076C80.9873 15.994 81.7865 15.7939 82.8842 15.7939H93.0449V12.2849H82.2839C79.9029 12.2849 78.152 12.7618 77.0676 13.7258C75.97 14.6898 75.4228 16.2175 75.4228 18.3055C75.4228 20.2568 75.9401 21.6878 76.9814 22.5984C78.026 23.499 79.6708 23.956 81.9258 23.956H86.784C87.8485 23.956 88.5979 24.1261 89.039 24.4763C89.4833 24.8266 89.6923 25.4103 89.6923 26.2242C89.6923 27.038 89.4502 27.5917 88.976 27.932C88.5018 28.2722 87.6694 28.4523 86.4988 28.4523H72.4581V12.2815H66.4393L61.4518 27.3783L56.4643 12.2815H50.0973V20.2535H39.7044V12.2815H35.5923V31.9613H39.7044V23.7425H50.0973V31.9613H54.6205L54.2093 16.5444V16.481L59.3858 31.9613H63.7499L68.7673 16.6411L68.429 31.9613H87.162C89.5231 31.9613 91.2509 31.4843 92.3485 30.5404C93.4462 29.5864 94.0033 28.1021 94.0033 26.0774C93.9701 24.0627 93.4959 22.6418 92.5475 21.7845Z" fill="#0F5385"/>
<path d="M35.3304 35.1568H35.7747L37.1974 37.2982L38.62 35.1568H39.0644V39.0894H38.62V35.9073L37.2073 38.0054H37.1874L35.7648 35.9073V39.0894H35.3337V35.1568H35.3304Z" fill="#17315B"/>
<path d="M41.074 39.1528C40.938 39.1528 40.812 39.1328 40.6727 39.0994C40.5467 39.056 40.4306 39.0027 40.3245 38.9293C40.2184 38.8559 40.1454 38.7592 40.0824 38.6424C40.0194 38.5257 39.9863 38.3989 39.9863 38.2488V38.2388C39.9863 38.0787 40.0194 37.942 40.0824 37.8252C40.1454 37.7085 40.2317 37.6117 40.3345 37.5284C40.4406 37.455 40.5765 37.3916 40.7258 37.3482C40.875 37.3049 41.0408 37.2849 41.2199 37.2849C41.4089 37.2849 41.5681 37.2949 41.704 37.3182C41.84 37.3382 41.9793 37.3716 42.1053 37.4016V37.3182C42.1053 37.0647 42.0323 36.8612 41.8831 36.7345C41.7339 36.6077 41.525 36.5344 41.2497 36.5344C41.0806 36.5344 40.9214 36.5544 40.7855 36.5877C40.6495 36.6211 40.5102 36.6711 40.3743 36.7378L40.2482 36.3776C40.4074 36.3042 40.5765 36.2408 40.7324 36.1975C40.9015 36.1541 41.0806 36.1341 41.2895 36.1341C41.7007 36.1341 42.0058 36.2408 42.218 36.451C42.417 36.6511 42.5231 36.938 42.5231 37.2982V39.0694H42.102V38.6358C42.0058 38.7625 41.8698 38.8793 41.7007 38.986C41.5316 39.1027 41.3227 39.1561 41.0673 39.1561L41.074 39.1528ZM41.1602 38.7925C41.2962 38.7925 41.4122 38.7725 41.5283 38.7392C41.6444 38.6958 41.7505 38.6424 41.8334 38.5791C41.9163 38.5057 41.9925 38.429 42.0456 38.3356C42.0987 38.2388 42.1186 38.1354 42.1186 38.0187V37.7552C42.0124 37.7218 41.8864 37.7018 41.7505 37.6718C41.6145 37.6518 41.4553 37.6284 41.2763 37.6284C41.0143 37.6284 40.802 37.6818 40.6528 37.7885C40.5036 37.8953 40.4306 38.032 40.4306 38.2121V38.2222C40.4306 38.3189 40.4505 38.3923 40.4936 38.4656C40.5368 38.539 40.5898 38.6024 40.6528 38.6458C40.7158 38.6991 40.802 38.7292 40.8849 38.7625C40.9679 38.7825 41.064 38.7959 41.1602 38.7959V38.7925Z" fill="#17315B"/>
<path d="M43.5611 36.1841H43.9922V36.6945C44.0884 36.5344 44.2144 36.4076 44.3703 36.2909C44.5294 36.1841 44.7284 36.1208 44.9804 36.1208C45.1595 36.1208 45.3087 36.1541 45.4447 36.2041C45.5807 36.2575 45.6967 36.3409 45.7929 36.4476C45.8891 36.5544 45.962 36.6711 46.0151 36.8179C46.0681 36.9546 46.088 37.1148 46.088 37.2849V39.0861H45.6569V37.3883C45.6569 37.1248 45.584 36.9113 45.4447 36.7512C45.3054 36.5911 45.1064 36.5177 44.8544 36.5177C44.7284 36.5177 44.6223 36.5377 44.5062 36.5811C44.4001 36.6244 44.3073 36.6878 44.231 36.7612C44.158 36.8446 44.095 36.9413 44.0519 37.048C44.0088 37.1648 43.9889 37.2815 43.9889 37.4183V39.0727H43.5578V36.1775L43.5611 36.1841Z" fill="#17315B"/>
<path d="M47.9683 39.1528C47.8323 39.1528 47.7063 39.1328 47.567 39.0994C47.441 39.056 47.3249 39.0027 47.2188 38.9293C47.1127 38.8559 47.0397 38.7592 46.9767 38.6424C46.9137 38.5257 46.8806 38.3989 46.8806 38.2488V38.2388C46.8806 38.0787 46.9137 37.942 46.9767 37.8252C47.0397 37.7085 47.126 37.6117 47.2288 37.5284C47.3349 37.455 47.4708 37.3916 47.6201 37.3482C47.7693 37.3049 47.9351 37.2849 48.1142 37.2849C48.3032 37.2849 48.4624 37.2949 48.5983 37.3182C48.7343 37.3382 48.8736 37.3716 48.9996 37.4016V37.3182C48.9996 37.0647 48.9266 36.8612 48.7774 36.7345C48.6282 36.6077 48.4193 36.5344 48.144 36.5344C47.9749 36.5344 47.8157 36.5544 47.6798 36.5877C47.5438 36.6211 47.4045 36.6711 47.2685 36.7378L47.1425 36.3776C47.3017 36.3042 47.4708 36.2408 47.6267 36.1975C47.7958 36.1541 47.9749 36.1341 48.1971 36.1341C48.6083 36.1341 48.9134 36.2408 49.1256 36.451C49.3246 36.6511 49.4307 36.938 49.4307 37.2982V39.0694H49.0095V38.6358C48.9134 38.7625 48.7774 38.8793 48.6083 38.986C48.4292 39.1027 48.217 39.1561 47.9649 39.1561L47.9683 39.1528ZM48.0512 38.7925C48.1871 38.7925 48.3032 38.7725 48.4193 38.7392C48.5353 38.6958 48.6414 38.6424 48.7243 38.5791C48.8072 38.5057 48.8835 38.429 48.9366 38.3356C48.9896 38.2388 49.0095 38.1354 49.0095 38.0187V37.7552C48.9034 37.7218 48.7774 37.7018 48.6414 37.6718C48.5055 37.6518 48.3463 37.6284 48.1672 37.6284C47.9053 37.6284 47.693 37.6818 47.5438 37.7885C47.3946 37.8953 47.3216 38.032 47.3216 38.2121V38.2222C47.3216 38.3189 47.3415 38.3923 47.3846 38.4656C47.4277 38.539 47.4808 38.6024 47.5438 38.6458C47.6068 38.6991 47.693 38.7292 47.7759 38.7625C47.8721 38.7825 47.955 38.7959 48.0512 38.7959V38.7925Z" fill="#17315B"/>
<path d="M51.7321 40C51.49 40 51.2579 39.9667 51.0357 39.9033C50.8135 39.8399 50.6146 39.7332 50.4123 39.5964L50.6112 39.2562C50.7804 39.3729 50.9495 39.4697 51.1385 39.533C51.3176 39.5964 51.5166 39.6298 51.7288 39.6298C52.0438 39.6298 52.3091 39.5464 52.4981 39.3663C52.6872 39.1962 52.7833 38.9326 52.7833 38.5924V38.2522C52.6573 38.4223 52.4981 38.5591 52.3191 38.6858C52.14 38.8026 51.9178 38.8659 51.6459 38.8659C51.4668 38.8659 51.2977 38.8326 51.1385 38.7692C50.9793 38.7058 50.8334 38.6091 50.7074 38.4924C50.5814 38.3756 50.4753 38.2288 50.4023 38.0687C50.3294 37.8986 50.2863 37.7085 50.2863 37.5084V37.4984C50.2863 37.2849 50.3294 37.0948 50.4023 36.9246C50.4753 36.7545 50.5814 36.6178 50.7074 36.501C50.8334 36.3843 50.9827 36.2875 51.1385 36.2242C51.3076 36.1608 51.4668 36.1274 51.6459 36.1274C51.7818 36.1274 51.8979 36.1374 52.014 36.1708C52.13 36.2042 52.2262 36.2442 52.3191 36.2976C52.4119 36.3509 52.4981 36.4143 52.5711 36.4777C52.644 36.5511 52.7071 36.6278 52.7701 36.7012V36.1808H53.2012V38.5757C53.2012 38.7992 53.168 38.9994 53.105 39.1695C53.042 39.3396 52.9458 39.4863 52.8298 39.6031C52.7037 39.7298 52.5446 39.8366 52.3555 39.8899C52.1665 39.9633 51.9543 39.9967 51.7222 39.9967L51.7321 40ZM51.7321 38.4857C51.8681 38.4857 52.0073 38.4657 52.1334 38.4123C52.2594 38.3689 52.3754 38.2956 52.4716 38.2122C52.5678 38.1288 52.6507 38.022 52.7137 37.9053C52.7767 37.7885 52.7966 37.6518 52.7966 37.5017V37.4917C52.7966 37.3416 52.7634 37.2048 52.7137 37.0881C52.6507 36.9713 52.5777 36.8646 52.4716 36.7812C52.3754 36.6978 52.2594 36.6311 52.1334 36.5811C52.0073 36.5377 51.8714 36.5077 51.7321 36.5077C51.5928 36.5077 51.4701 36.5277 51.3408 36.5811C51.2247 36.6244 51.1087 36.6978 51.0258 36.7712C50.9296 36.8546 50.8666 36.9613 50.8135 37.0781C50.7605 37.1948 50.7406 37.3316 50.7406 37.4817V37.4917C50.7406 37.6418 50.7737 37.7685 50.8235 37.8953C50.8765 38.012 50.9495 38.1188 51.0457 38.2022C51.1418 38.2855 51.2446 38.3523 51.3607 38.4023C51.4668 38.4557 51.5928 38.4857 51.7288 38.4857H51.7321Z" fill="#17315B"/>
<path d="M54.5244 37.8152C54.5343 37.9653 54.5774 38.1021 54.6404 38.2288C54.7034 38.3456 54.7764 38.4523 54.8726 38.5357C54.9687 38.6191 55.0715 38.6858 55.1876 38.7258C55.3037 38.7692 55.4197 38.7892 55.5457 38.7892C55.7447 38.7892 55.9138 38.7558 56.0631 38.6725C56.2123 38.5991 56.3383 38.5023 56.4544 38.3756L56.7163 38.6191C56.5671 38.7892 56.4113 38.916 56.2222 39.0127C56.0332 39.1094 55.8011 39.1628 55.5258 39.1628C55.3269 39.1628 55.1478 39.1294 54.9687 39.056C54.7897 38.9827 54.6404 38.8759 54.5144 38.7492C54.3884 38.6124 54.2823 38.4523 54.2093 38.2722C54.1364 38.0821 54.0933 37.8786 54.0933 37.6584C54.0933 37.4383 54.1264 37.2548 54.1994 37.0647C54.2723 36.8846 54.3685 36.7145 54.4846 36.5777C54.6106 36.441 54.7598 36.3342 54.9289 36.2608C55.0981 36.1875 55.2871 36.1441 55.4861 36.1441C55.6983 36.1441 55.8873 36.1875 56.0564 36.2608C56.2256 36.3442 56.3615 36.451 56.4776 36.5911C56.5937 36.7278 56.6766 36.8879 56.7396 37.0781C56.8026 37.2682 56.8357 37.4717 56.8357 37.6818V37.7452C56.8357 37.7652 56.8357 37.7985 56.8258 37.8286H54.5277V37.8186L54.5244 37.8152ZM56.3914 37.455C56.3814 37.3282 56.3483 37.2015 56.3085 37.0847C56.2654 36.968 56.2023 36.8612 56.1294 36.7779C56.0564 36.6945 55.9603 36.6178 55.8541 36.5644C55.748 36.511 55.622 36.491 55.4761 36.491C55.3501 36.491 55.234 36.511 55.1279 36.5644C55.0218 36.6178 54.9289 36.6811 54.8427 36.7645C54.7565 36.8479 54.6935 36.9546 54.6437 37.0714C54.594 37.1881 54.5608 37.3149 54.5376 37.4516H56.3914V37.455Z" fill="#17315B"/>
<path d="M58.8983 39.1528C58.7193 39.1528 58.5501 39.1194 58.391 39.046C58.2218 38.9827 58.0859 38.8759 57.9466 38.7492C57.8206 38.6224 57.7145 38.4623 57.6316 38.2722C57.5586 38.0921 57.5155 37.8786 57.5155 37.6351V37.6251C57.5155 37.3916 57.5586 37.1781 57.6316 36.988C57.7045 36.7979 57.8106 36.6378 57.9466 36.511C58.0726 36.3843 58.2218 36.2775 58.391 36.2142C58.5601 36.1408 58.7292 36.1074 58.8983 36.1074C59.0343 36.1074 59.1504 36.1274 59.2664 36.1608C59.3825 36.1941 59.4787 36.2342 59.5715 36.2975C59.6544 36.3509 59.7406 36.4243 59.8136 36.4977C59.8866 36.5711 59.9496 36.6478 60.0026 36.7312V34.9833H60.4337V39.0861H60.0026V38.5024C59.9396 38.5857 59.8766 38.6725 59.8037 38.7458C59.7307 38.8192 59.6445 38.8959 59.5616 38.9593C59.4654 39.0227 59.3726 39.0661 59.2664 39.0961C59.1504 39.1294 59.0343 39.1494 58.8983 39.1494V39.1528ZM58.9846 38.7592C59.1205 38.7592 59.2465 38.7258 59.3759 38.6758C59.5052 38.6258 59.608 38.549 59.7141 38.4423C59.8103 38.3456 59.8932 38.2288 59.9463 38.0921C59.9993 37.9553 60.0292 37.8052 60.0292 37.6351V37.6251C60.0292 37.455 59.996 37.3082 59.9463 37.1681C59.8965 37.028 59.8103 36.9146 59.7141 36.8179C59.618 36.7212 59.5019 36.6478 59.3759 36.5944C59.2499 36.541 59.1238 36.511 58.9846 36.511C58.8453 36.511 58.7093 36.531 58.5833 36.5844C58.4573 36.6378 58.3512 36.7112 58.2683 36.8079C58.1721 36.9046 58.0991 37.0214 58.0461 37.1581C57.993 37.2949 57.9632 37.455 57.9632 37.6251V37.6351C57.9632 37.8052 57.9963 37.9653 58.0461 38.1021C58.0958 38.2388 58.1721 38.3556 58.2683 38.4523C58.3644 38.549 58.4672 38.6224 58.5966 38.6758C58.7126 38.7392 58.8387 38.7592 58.9879 38.7592H58.9846Z" fill="#17315B"/>
<path d="M63.4117 35.1568H63.856V39.0894H63.4117V35.1568Z" fill="#17315B"/>
<path d="M66.1309 35.5671H64.8243V35.1534H67.8918V35.5671H66.5852V39.0861H66.1409V35.5671H66.1309Z" fill="#17315B"/>
<path d="M71.9607 39.1428C71.6457 39.1428 71.3605 39.0894 71.1085 38.9827C70.8465 38.8759 70.6011 38.7192 70.369 38.5057L70.6442 38.1755C70.8432 38.3656 71.0554 38.5057 71.2676 38.5891C71.4799 38.6858 71.722 38.7258 71.9839 38.7258C72.2459 38.7258 72.4581 38.6625 72.6173 38.5357C72.7765 38.409 72.8494 38.2488 72.8494 38.0587V38.0487C72.8494 37.9653 72.8395 37.8786 72.8063 37.8052C72.7732 37.7318 72.7234 37.6685 72.6472 37.6051C72.5709 37.5417 72.4681 37.4883 72.3421 37.445C72.2061 37.3916 72.037 37.3482 71.8347 37.3082C71.6125 37.2549 71.4135 37.2015 71.2544 37.1381C71.0852 37.0747 70.9493 37.0014 70.8432 36.9046C70.7371 36.8212 70.6541 36.7145 70.6011 36.5877C70.548 36.471 70.5281 36.3242 70.5281 36.1641V36.1541C70.5281 36.004 70.5613 35.8573 70.6243 35.7305C70.6873 35.6038 70.7735 35.487 70.8863 35.3903C71.0023 35.2935 71.1383 35.2202 71.2975 35.1668C71.4567 35.1134 71.6258 35.0834 71.8148 35.0834C72.1 35.0834 72.352 35.1268 72.5643 35.2001C72.7765 35.2835 72.9854 35.4003 73.1877 35.5604L72.9357 35.9006C72.7566 35.7505 72.5676 35.6471 72.3885 35.5704C72.1995 35.507 72.0105 35.4637 71.8082 35.4637C71.5561 35.4637 71.3439 35.527 71.198 35.6438C71.0521 35.7605 70.9758 35.9206 70.9758 36.1008V36.1108C70.9758 36.2075 70.9858 36.2909 71.0189 36.3643C71.0521 36.4376 71.1018 36.501 71.1781 36.5644C71.2544 36.6278 71.3671 36.6811 71.5064 36.7345C71.6424 36.7879 71.8214 36.8312 72.0337 36.8846C72.4648 36.9813 72.7931 37.1181 72.992 37.2882C73.2043 37.4583 73.2971 37.6918 73.2971 37.9987V38.0087C73.2971 38.1788 73.264 38.3256 73.201 38.4657C73.138 38.6058 73.0418 38.7192 72.9257 38.8159C72.8097 38.9126 72.6737 38.986 72.5046 39.0394C72.3454 39.1228 72.1663 39.1461 71.9674 39.1461L71.9607 39.1428Z" fill="#17315B"/>
<path d="M74.491 37.8152C74.5009 37.9653 74.544 38.1021 74.607 38.2288C74.67 38.3456 74.743 38.4523 74.8392 38.5357C74.9353 38.6191 75.0381 38.6858 75.1542 38.7258C75.2703 38.7692 75.3863 38.7892 75.5124 38.7892C75.7113 38.7892 75.8805 38.7558 76.0297 38.6725C76.1789 38.5991 76.3049 38.5023 76.421 38.3756L76.683 38.6191C76.5337 38.7892 76.3779 38.916 76.1889 39.0127C75.9998 39.1094 75.7677 39.1628 75.4925 39.1628C75.2935 39.1628 75.1144 39.1294 74.9353 39.056C74.7563 38.9827 74.607 38.8759 74.481 38.7492C74.355 38.6124 74.2489 38.4523 74.1759 38.2722C74.103 38.0821 74.0599 37.8786 74.0599 37.6584C74.0599 37.4383 74.093 37.2548 74.166 37.0647C74.2389 36.8846 74.3351 36.7145 74.4512 36.5777C74.5772 36.441 74.7264 36.3342 74.8956 36.2608C75.0647 36.1875 75.2537 36.1441 75.4527 36.1441C75.6649 36.1441 75.8539 36.1875 76.023 36.2608C76.1922 36.3442 76.3281 36.451 76.4442 36.5911C76.5603 36.7278 76.6432 36.8879 76.7062 37.0781C76.7692 37.2682 76.7891 37.4717 76.7891 37.6818V37.7452C76.7891 37.7652 76.7891 37.7985 76.7791 37.8286H74.491V37.8186V37.8152ZM76.3447 37.455C76.3348 37.3282 76.3016 37.2015 76.2618 37.0847C76.222 36.968 76.1557 36.8612 76.0827 36.7779C76.0098 36.6945 75.9136 36.6178 75.8075 36.5644C75.7014 36.511 75.5754 36.491 75.4295 36.491C75.3034 36.491 75.1874 36.511 75.0813 36.5644C74.9751 36.6178 74.8823 36.6811 74.7961 36.7645C74.7132 36.8479 74.6468 36.9546 74.5971 37.0714C74.5474 37.1881 74.5142 37.3149 74.491 37.4516H76.3447V37.455Z" fill="#17315B"/>
<path d="M77.6512 36.1841H78.0823V36.938C78.1354 36.8212 78.1984 36.7045 78.2813 36.6077C78.3543 36.501 78.4504 36.4176 78.5433 36.3442C78.6494 36.2709 78.7555 36.2175 78.8716 36.1741C78.9877 36.1308 79.1137 36.1208 79.2629 36.1208V36.5877H79.2297C79.0706 36.5877 78.9247 36.6211 78.7854 36.6711C78.6494 36.7245 78.5234 36.8079 78.4173 36.9246C78.3112 37.0414 78.2283 37.1781 78.1752 37.3382C78.1122 37.5084 78.0923 37.6985 78.0923 37.912V39.0661H77.6612V36.1808H77.6512V36.1841Z" fill="#17315B"/>
<path d="M79.7405 36.1841H80.2147L81.183 38.5924L82.1646 36.1841H82.6289L81.3753 39.1094H80.9973L79.7438 36.1841H79.7405Z" fill="#17315B"/>
<path d="M83.4181 35.0701H83.9122V35.5471H83.4181V35.0701ZM83.4512 36.1841H83.8823V39.0894H83.4512V36.1841Z" fill="#17315B"/>
<path d="M86.2866 39.1528C86.0743 39.1528 85.8753 39.1094 85.6963 39.036C85.5172 38.9527 85.358 38.8459 85.232 38.7058C85.096 38.5691 84.9999 38.409 84.9269 38.2288C84.854 38.0487 84.8109 37.8586 84.8109 37.6551V37.6451C84.8109 37.445 84.854 37.2415 84.9269 37.0614C84.9999 36.8813 85.106 36.7112 85.232 36.5744C85.368 36.4376 85.5172 36.3309 85.6963 36.2442C85.8753 36.1608 86.0743 36.1274 86.2866 36.1274C86.4225 36.1274 86.5485 36.1374 86.6546 36.1708C86.7707 36.1908 86.8669 36.2342 86.9597 36.2775C87.0526 36.3209 87.1388 36.3843 87.2118 36.4477C87.2847 36.511 87.361 36.5744 87.4339 36.6478L87.1487 36.9547C87.0327 36.8379 86.9067 36.7312 86.7707 36.6478C86.6347 36.5644 86.4656 36.521 86.2766 36.521C86.1274 36.521 85.9914 36.5544 85.8654 36.6044C85.7394 36.6578 85.6333 36.7412 85.5371 36.8479C85.4409 36.9447 85.368 37.0714 85.3149 37.2082C85.2618 37.3449 85.242 37.495 85.242 37.6551V37.6651C85.242 37.8252 85.2751 37.972 85.3249 38.1121C85.3779 38.2489 85.4509 38.3656 85.547 38.4723C85.6432 38.5791 85.7593 38.6525 85.8853 38.7158C86.0113 38.7792 86.1605 38.7992 86.3064 38.7992C86.4955 38.7992 86.6546 38.7559 86.8006 38.6725C86.9498 38.5891 87.0758 38.4823 87.1919 38.3656L87.4671 38.6191C87.3179 38.7892 87.162 38.916 86.973 39.0227C86.7939 39.0961 86.5618 39.1495 86.2866 39.1495V39.1528Z" fill="#17315B"/>
<path d="M88.5416 37.8152C88.5515 37.9653 88.5946 38.1021 88.6576 38.2288C88.7206 38.3456 88.7936 38.4523 88.8898 38.5357C88.9859 38.6191 89.0887 38.6858 89.2048 38.7258C89.3209 38.7692 89.4369 38.7892 89.5629 38.7892C89.7619 38.7892 89.931 38.7558 90.0803 38.6725C90.2295 38.5991 90.3555 38.5023 90.4716 38.3756L90.7335 38.6191C90.5843 38.7892 90.4285 38.916 90.2394 39.0127C90.0504 39.1094 89.8183 39.1628 89.543 39.1628C89.3441 39.1628 89.165 39.1294 88.9859 39.056C88.8069 38.9827 88.6576 38.8759 88.5316 38.7492C88.4056 38.6124 88.2995 38.4523 88.2265 38.2722C88.1536 38.0821 88.1105 37.8786 88.1105 37.6584C88.1105 37.4383 88.1436 37.2548 88.2166 37.0647C88.2895 36.8846 88.3857 36.7145 88.5018 36.5777C88.6278 36.441 88.777 36.3342 88.9461 36.2608C89.1153 36.1875 89.3043 36.1441 89.5033 36.1441C89.7155 36.1441 89.9045 36.1875 90.0736 36.2608C90.2428 36.3442 90.3787 36.451 90.4948 36.5911C90.6109 36.7278 90.6938 36.8879 90.7568 37.0781C90.8198 37.2682 90.8529 37.4717 90.8529 37.6818V37.7452C90.8529 37.7652 90.8529 37.7985 90.843 37.8286H88.5449V37.8186L88.5416 37.8152ZM90.4086 37.455C90.3986 37.3282 90.3655 37.2015 90.3257 37.0847C90.2859 36.968 90.2195 36.8612 90.1466 36.7779C90.0736 36.6945 89.9775 36.6178 89.8714 36.5644C89.7652 36.511 89.6392 36.491 89.4933 36.491C89.3673 36.491 89.2512 36.511 89.1451 36.5644C89.039 36.6178 88.9461 36.6811 88.8599 36.7645C88.777 36.8479 88.7107 36.9546 88.6609 37.0714C88.6112 37.1881 88.5781 37.3149 88.5548 37.4516H90.4086V37.455Z" fill="#17315B"/>
<path d="M92.6635 39.1428C92.4513 39.1428 92.2424 39.0994 92.0301 39.026C91.8179 38.9526 91.6289 38.8459 91.473 38.7192L91.6952 38.4123C91.8544 38.529 92.0102 38.6258 92.1794 38.6891C92.3485 38.7525 92.5176 38.7859 92.6867 38.7859C92.8658 38.7859 93.0018 38.7425 93.1178 38.6591C93.2339 38.5757 93.287 38.469 93.287 38.3189V38.3089C93.287 38.2355 93.2671 38.1821 93.224 38.1288C93.1808 38.0754 93.1278 38.032 93.0648 37.992C93.0018 37.9486 92.9156 37.9186 92.8327 37.8853C92.7497 37.8519 92.6536 37.8319 92.5574 37.8019C92.4413 37.7685 92.3352 37.7285 92.2192 37.6951C92.1031 37.6518 92.0069 37.6117 91.9141 37.545C91.8212 37.4783 91.7449 37.4083 91.6919 37.3216C91.6388 37.2382 91.609 37.1214 91.609 36.9813V36.9713C91.609 36.8446 91.6289 36.7378 91.6819 36.6311C91.735 36.5244 91.798 36.441 91.8809 36.3676C91.9638 36.2942 92.0699 36.2408 92.1959 36.1975C92.312 36.1541 92.448 36.1341 92.5873 36.1341C92.7663 36.1341 92.9454 36.1674 93.1245 36.2175C93.3036 36.2809 93.4727 36.3542 93.6186 36.451L93.4196 36.7812C93.2836 36.6978 93.1444 36.6211 92.9985 36.5811C92.8492 36.5277 92.7033 36.5077 92.5674 36.5077C92.3982 36.5077 92.2623 36.551 92.1562 36.6244C92.06 36.7078 92.0069 36.8045 92.0069 36.9213V36.9313C92.0069 36.9947 92.0268 37.058 92.0699 37.1114C92.113 37.1648 92.1661 37.2081 92.2391 37.2382C92.312 37.2715 92.3883 37.3115 92.4712 37.3349C92.5541 37.3682 92.6503 37.3983 92.7464 37.4316C92.8625 37.465 92.9686 37.505 93.0747 37.5484C93.1809 37.5917 93.287 37.6451 93.3699 37.7085C93.466 37.7719 93.5291 37.8452 93.5821 37.942C93.6352 38.0254 93.665 38.1421 93.665 38.2722V38.2822C93.665 38.4189 93.6319 38.5457 93.5821 38.6524C93.5324 38.7592 93.4561 38.8526 93.3599 38.9293C93.2638 39.0027 93.161 39.056 93.0316 39.0994C92.9355 39.1328 92.7995 39.1528 92.6635 39.1528V39.1428Z" fill="#17315B"/>
<path d="M31.4345 7.54837L15.7722 0L0.109992 7.54837C-1.44197 33.8292 14.0147 39.4496 15.7722 40C17.5298 39.4463 32.9864 33.8292 31.4345 7.54837ZM15.7722 38.2155C14.1672 37.7085 0.0900948 32.5851 1.5061 8.6491L15.7722 1.77452L30.0384 8.6491C31.4577 32.5851 17.3806 37.7085 15.7722 38.2155Z" fill="#005186"/>
<path d="M26.8046 25.4836C26.8046 25.4836 26.8145 25.4603 26.8178 25.4503C26.8145 25.4603 26.8079 25.4736 26.8046 25.4836Z" fill="#0E68AA"/>
<path d="M28.9335 9.65977L28.9269 9.57304L28.8473 9.53301L25.7268 8.02201L22.4637 12.1414L22.331 12.078L19.0082 4.7665L15.7717 3.19879V20L19.6648 21.8846V13.1087L19.7643 13.1554L22.3277 18.4957L22.4604 18.559L25.0238 15.6237L25.1233 15.6704V24.5297L26.8477 25.3669C28.4394 21.3376 28.9733 16.988 29.0164 13.1154V12.0714C29.0065 11.2375 28.9766 10.4303 28.9302 9.65977H28.9335Z" fill="#0E68AA"/>
<path d="M4.87811 25.8272C4.87811 25.8272 4.88151 25.8374 4.88491 25.8408C4.88491 25.8408 4.88491 25.834 4.88151 25.8272H4.87811Z" fill="#309CD0"/>
<path d="M11.6331 5.20346V11.8479L6.66219 14.1794V7.6084L2.69606 9.52968L2.61647 9.56971L2.60984 9.65643C2.56341 10.4269 2.53357 11.2341 2.52362 12.0714V13.1121C2.56673 16.978 3.10063 21.3209 4.68576 25.3469L6.66219 24.4096V18.1888L11.6331 15.8572V22.008L15.7717 20.0033V3.19879L11.6331 5.20346Z" fill="#309CD0"/>
<path d="M18.3119 8.76584H13.2315V10.7472H18.3119V8.76584Z" fill="#D61518"/>
<path d="M16.7599 7.2048H14.7901V12.3149H16.7599V7.2048Z" fill="#D61518"/>
<path d="M16.3089 27.3916C16.3089 27.0747 16.0735 26.8112 15.7717 26.7712V20.0033V19.99L4.69238 25.3569C5.62091 27.7118 6.9109 29.9566 8.6751 31.9346C11.9714 35.6237 15.4765 36.7078 15.775 36.7912V28.0153C16.0768 27.972 16.3122 27.7118 16.3122 27.3949L16.3089 27.3916Z" fill="#309CD0"/>
<path d="M15.828 19.6498C13.1817 20.9506 10.7211 22.3783 8.07483 23.6791H8.14778C10.8936 24.96 13.3807 26.1208 16.1265 27.4016L14.8232 28.0387C12.1637 26.7979 9.50741 25.5604 6.84785 24.3196L4.57959 25.3969C4.76861 25.8739 5.0737 26.3009 5.29257 26.7679C8.85744 28.429 12.2035 29.9867 15.7716 31.6444L19.9832 29.8032L23.9327 27.8786V27.8719C21.1969 26.5911 18.4577 25.3102 15.7219 24.0327L17.0086 23.4023C19.6084 24.6198 23.3491 26.441 25.949 27.6551L26.5956 26.2542C26.7879 25.8172 26.9869 25.4603 27.1527 25.0167C23.4187 23.2655 19.562 21.4009 15.828 19.6498Z" fill="white"/>
</g>
<defs>
<clipPath id="clip0_80_186">
<rect width="94" height="40" fill="white"/>
</clipPath>
</defs>
</svg>
